<?xml version="1.0" encoding="UTF-8" standalone="no"?>
<!DOCTYPE svg PUBLIC "-//W3C//DTD SVG 1.1//EN"
 "http://www.w3.org/Graphics/SVG/1.1/DTD/svg11.dtd">
<!-- Generated by graphviz version 2.40.1 (20161225.0304)
 -->
<!-- Title: dependencies Pages: 1 -->
<svg width="504pt" height="284pt"
 viewBox="0.00 0.00 504.00 284.00" xmlns="http://www.w3.org/2000/svg" xmlns:xlink="http://www.w3.org/1999/xlink">
<g id="graph0" class="graph" transform="scale(1 1) rotate(0) translate(4 280)">
<title>dependencies</title>
<polygon fill="#ffffff" stroke="transparent" points="-4,4 -4,-280 500,-280 500,4 -4,4"/>
<text text-anchor="start" x="227.0091" y="-42.4" font-family="sans-serif" font-weight="bold" font-size="14.00" fill="#000000">Legend</text>
<polygon fill="#ffffb3" stroke="transparent" points="14,-10 14,-30 34,-30 34,-10 14,-10"/>
<text text-anchor="start" x="37.629" y="-15.4" font-family="sans-serif" font-size="14.00" fill="#000000"> &#160;Declarations</text>
<polygon fill="#8dd3c7" stroke="transparent" points="127,-10 127,-30 147,-30 147,-10 127,-10"/>
<text text-anchor="start" x="150.7251" y="-15.4" font-family="sans-serif" font-size="14.00" fill="#000000"> &#160;Module</text>
<polygon fill="#80b1d3" stroke="transparent" points="213,-10 213,-30 233,-30 233,-10 213,-10"/>
<text text-anchor="start" x="236.7812" y="-15.4" font-family="sans-serif" font-size="14.00" fill="#000000"> &#160;Bootstrap</text>
<polygon fill="#fdb462" stroke="transparent" points="310,-10 310,-30 330,-30 330,-10 310,-10"/>
<text text-anchor="start" x="333.6732" y="-15.4" font-family="sans-serif" font-size="14.00" fill="#000000"> &#160;Providers</text>
<polygon fill="#fb8072" stroke="transparent" points="406,-10 406,-30 426,-30 426,-10 406,-10"/>
<text text-anchor="start" x="429.7258" y="-15.4" font-family="sans-serif" font-size="14.00" fill="#000000"> &#160;Exports</text>
<g id="clust1" class="cluster">
<title>cluster_workflowCycleModule</title>
<polygon fill="none" stroke="#000000" stroke-dasharray="1,5" points="63,-70 63,-268 433,-268 433,-70 63,-70"/>
</g>
<g id="clust2" class="cluster">
<title>cluster_workflowCycleModule_declarations</title>
<polygon fill="none" stroke="#000000" points="237,-78 237,-130 425,-130 425,-78 237,-78"/>
</g>
<g id="clust4" class="cluster">
<title>cluster_workflowCycleModule_imports</title>
<polygon fill="none" stroke="#000000" points="71,-78 71,-130 229,-130 229,-78 71,-78"/>
</g>
<g id="clust5" class="cluster">
<title>cluster_workflowCycleModule_exports</title>
<polygon fill="none" stroke="#000000" points="152,-208 152,-260 344,-260 344,-208 152,-208"/>
</g>
<!-- WorkflowCycleComponent -->
<g id="node1" class="node">
<title>WorkflowCycleComponent</title>
<polygon fill="#ffffb3" stroke="#000000" points="416.5225,-122 245.4775,-122 245.4775,-86 416.5225,-86 416.5225,-122"/>
<text text-anchor="middle" x="331" y="-99.8" font-family="Times,serif" font-size="14.00" fill="#000000">WorkflowCycleComponent</text>
</g>
<!-- workflowCycleModule -->
<g id="node2" class="node">
<title>workflowCycleModule</title>
<polygon fill="#8dd3c7" stroke="#000000" points="321.1317,-187 318.1317,-191 297.1317,-191 294.1317,-187 174.8683,-187 174.8683,-151 321.1317,-151 321.1317,-187"/>
<text text-anchor="middle" x="248" y="-164.8" font-family="Times,serif" font-size="14.00" fill="#000000">workflowCycleModule</text>
</g>
<!-- WorkflowCycleComponent&#45;&gt;workflowCycleModule -->
<g id="edge1" class="edge">
<title>WorkflowCycleComponent&#45;&gt;workflowCycleModule</title>
<path fill="none" stroke="#000000" d="M283.2774,-122.1061C283.2774,-122.1061 283.2774,-140.991 283.2774,-140.991"/>
<polygon fill="#000000" stroke="#000000" points="279.7774,-140.9909 283.2774,-150.991 286.7774,-140.991 279.7774,-140.9909"/>
</g>
<!-- WorkflowCycleComponent  -->
<g id="node4" class="node">
<title>WorkflowCycleComponent </title>
<polygon fill="#fb8072" stroke="#000000" points="335.5218,-252 160.4782,-252 160.4782,-216 335.5218,-216 335.5218,-252"/>
<text text-anchor="middle" x="248" y="-229.8" font-family="Times,serif" font-size="14.00" fill="#000000">WorkflowCycleComponent </text>
</g>
<!-- workflowCycleModule&#45;&gt;WorkflowCycleComponent  -->
<g id="edge3" class="edge">
<title>workflowCycleModule&#45;&gt;WorkflowCycleComponent </title>
<path fill="none" stroke="#000000" stroke-dasharray="5,2" d="M248,-187.1061C248,-187.1061 248,-205.991 248,-205.991"/>
<polygon fill="#000000" stroke="#000000" points="244.5001,-205.9909 248,-215.991 251.5001,-205.991 244.5001,-205.9909"/>
</g>
<!-- DynamicFormModule -->
<g id="node3" class="node">
<title>DynamicFormModule</title>
<polygon fill="#8dd3c7" stroke="#000000" points="220.7007,-122 217.7007,-126 196.7007,-126 193.7007,-122 79.2993,-122 79.2993,-86 220.7007,-86 220.7007,-122"/>
<text text-anchor="middle" x="150" y="-99.8" font-family="Times,serif" font-size="14.00" fill="#000000">DynamicFormModule</text>
</g>
<!-- DynamicFormModule&#45;&gt;workflowCycleModule -->
<g id="edge2" class="edge">
<title>DynamicFormModule&#45;&gt;workflowCycleModule</title>
<path fill="none" stroke="#000000" d="M197.6424,-122.1061C197.6424,-122.1061 197.6424,-140.991 197.6424,-140.991"/>
<polygon fill="#000000" stroke="#000000" points="194.1424,-140.9909 197.6424,-150.991 201.1424,-140.991 194.1424,-140.9909"/>
</g>
</g>
</svg>
