<svg xmlns="http://www.w3.org/2000/svg" width="109.477" height="80.168" viewBox="0 0 109.477 80.168">
  <g id="Group_796" data-name="Group 796" transform="translate(-617.523 -248.499)">
    <g id="Group_795" data-name="Group 795" transform="translate(947.498 -281.501) rotate(90)">
      <g id="Group_491" data-name="Group 491" transform="translate(530 304.023)">
        <path id="Path_833" data-name="Path 833" d="M751,15717h70.169" transform="translate(-745 -15704.022)" fill="none" stroke="#337e01" stroke-width="2"/>
        <g id="cursor" transform="translate(67.191 0) rotate(45)">
          <path id="Path_834" data-name="Path 834" d="M18.34.7A.778.778,0,0,0,18.1.248.775.775,0,0,0,17.513,0a.783.783,0,0,0-.378.091L.453,8.432a.787.787,0,0,0-.378.391.845.845,0,0,0-.052.547.789.789,0,0,0,.293.463.822.822,0,0,0,.515.176H8.337v7.507a.822.822,0,0,0,.176.515.787.787,0,0,0,.463.293,1.129,1.129,0,0,0,.2.026.764.764,0,0,0,.743-.456L18.256,1.212A.793.793,0,0,0,18.34.7Z" transform="translate(0 0)" fill="#337e01"/>
        </g>
        <circle id="Ellipse_57" data-name="Ellipse 57" cx="5.5" cy="5.5" r="5.5" transform="translate(0 7.977)" fill="#337e01"/>
      </g>
    </g>
    <text id="Accepted" transform="translate(650 287)" fill="#337e01" font-size="18" font-family="Roboto-Regular, Roboto"><tspan x="0" y="0">Accepted</tspan></text>
  </g>
</svg>
