<svg xmlns="http://www.w3.org/2000/svg" width="24" height="24" viewBox="0 0 24 24"><defs><style>.a{fill:#2598d5;}</style></defs><title>Favicon</title><path class="a" d="M7.6,7.5c0-.1,0-.3-.1-.3L5.6,6.1a8.3,8.3,0,0,1,6.4-3,8.6,8.6,0,0,1,8.4,8.7,1.1,1.1,0,1,0,2.2,0A10.8,10.8,0,0,0,12,.8,10.5,10.5,0,0,0,4.1,4.4L3.3,2.8c-.1-.1-.2-.2-.4-.1a.2.2,0,0,0-.2.2L.9,9.3c-.1.1,0,.2,0,.3h.4L7.4,7.8c.1,0,.2-.1.2-.3Zm0,0"/><path class="a" d="M23.1,14.4h-.4l-6.1,1.9c-.1,0-.2.1-.2.3s0,.3.1.3l1.9,1.1a8.3,8.3,0,0,1-6.4,3,8.6,8.6,0,0,1-8.4-8.7,1.1,1.1,0,0,0-2.2,0A10.8,10.8,0,0,0,12,23.2a10.5,10.5,0,0,0,7.9-3.6l.8,1.6c.1.1.2.2.4.1l.2-.2,1.8-6.4c.1-.1,0-.2,0-.3Zm0,0"/></svg>