<svg xmlns="http://www.w3.org/2000/svg" width="108" height="35" viewBox="0 0 108 35"><defs><style>.a{fill:#fff;}</style></defs><title>Formsz_Logo_white</title><path class="a" d="M4.3,27.9H5.6a3,3,0,0,1,1.8.5A2.2,2.2,0,0,1,8.1,30a2.5,2.5,0,0,1-.7,1.8,3.3,3.3,0,0,1-2.1.6H4.2V27.9Zm.8,3.8h.5A1.5,1.5,0,0,0,7.3,30a1.5,1.5,0,0,0-1.6-1.6H5.1Z"/><path class="a" d="M9.9,28.2a.5.5,0,0,1-1,0,.5.5,0,0,1,1,0ZM9,32.4V29.1h.8v3.3Z"/><path class="a" d="M13.8,31.9a1.7,1.7,0,0,1-.5,1.5,1.8,1.8,0,0,1-1.3.4,1.8,1.8,0,0,1-1.1-.3l.2-.6,1,.2a.9.9,0,0,0,.9-1v-.3h0a1.1,1.1,0,0,1-1,.5,1.5,1.5,0,0,1-1.4-1.6A1.5,1.5,0,0,1,12.1,29a1.1,1.1,0,0,1,1,.5h0v-.4h.7v2.8ZM13,30.4v-.2a.7.7,0,0,0-.7-.5c-.5,0-.8.4-.8,1.1s.3,1,.8,1a.8.8,0,0,0,.7-.5v-.9Z"/><path class="a" d="M15.7,28.2a.5.5,0,0,1-1,0,.5.5,0,0,1,1,0Zm-.9,4.2V29.1h.8v3.3Z"/><path class="a" d="M17.6,28.2V29h.8v.6h-.8V31c0,.4.1.6.4.6h.3v.6h-.6A.8.8,0,0,1,17,32a1.2,1.2,0,0,1-.3-.9V29.6h-.5V29h.5v-.6Z"/><path class="a" d="M21.7,31.6a1.9,1.9,0,0,0,.1.8H21V32h0a1.1,1.1,0,0,1-1,.4.9.9,0,0,1-1-1c0-.8.7-1.2,1.9-1.2h0c0-.2-.1-.6-.7-.6l-.9.2-.2-.5a3,3,0,0,1,1.2-.3,1.3,1.3,0,0,1,1.4,1.4Zm-.8-.9c-.6,0-1.1.1-1.1.6a.5.5,0,0,0,.5.5.8.8,0,0,0,.7-.5v-.6Z"/><path class="a" d="M22.7,27.6h.8v4.8h-.8Z"/><path class="a" d="M26.1,27.9h1.3a3,3,0,0,1,1.8.5,2.2,2.2,0,0,1,.7,1.7,2.5,2.5,0,0,1-.7,1.8,3.3,3.3,0,0,1-2.1.6H26V27.9Zm.8,3.8h.5A1.5,1.5,0,0,0,29.1,30a1.5,1.5,0,0,0-1.6-1.6h-.6Z"/><path class="a" d="M33.4,31.6a1.9,1.9,0,0,0,.1.8h-.7l-.2-.4h0a1.1,1.1,0,0,1-1,.4.9.9,0,0,1-1-1c0-.8.7-1.2,1.9-1.2h0c0-.2-.1-.6-.7-.6l-.9.2-.2-.5a3,3,0,0,1,1.2-.3,1.3,1.3,0,0,1,1.4,1.4v1.3Zm-.9-.9c-.6,0-1.1.1-1.1.6a.5.5,0,0,0,.5.5.8.8,0,0,0,.7-.5v-.6Z"/><path class="a" d="M35.3,28.2V29h.8v.6h-.8V31c0,.4.1.6.4.6H36v.6h-.6a.8.8,0,0,1-.7-.3,1.2,1.2,0,0,1-.3-.9V29.6H34V29h.5v-.6Z"/><path class="a" d="M39.4,31.6a1.9,1.9,0,0,0,.1.8h-.7l-.2-.4h0a1.1,1.1,0,0,1-1,.4.9.9,0,0,1-1-1c0-.8.7-1.2,1.9-1.2h0c0-.2-.1-.6-.7-.6l-.9.2-.2-.5a3,3,0,0,1,1.2-.3,1.3,1.3,0,0,1,1.4,1.4v1.3Zm-.9-.9c-.6,0-1.1.1-1.1.6a.5.5,0,0,0,.5.5.8.8,0,0,0,.7-.5v-.6Z"/><path class="a" d="M45.2,32.2a2.9,2.9,0,0,1-1.2.2,2.2,2.2,0,0,1-2.3-2.3,2.3,2.3,0,0,1,2.4-2.4l1.1.2-.2.7-.9-.2a1.6,1.6,0,0,0-1.6,1.7,1.5,1.5,0,0,0,1.6,1.6l.9-.2Z"/><path class="a" d="M49,30.7a1.6,1.6,0,0,1-1.7,1.7,1.6,1.6,0,0,1-1.6-1.7A1.6,1.6,0,0,1,47.4,29,1.6,1.6,0,0,1,49,30.7Zm-2.5,0c0,.6.3,1.1.8,1.1s.8-.5.8-1.1-.2-1.1-.8-1.1S46.5,30.2,46.5,30.7Z"/><path class="a" d="M49.8,27.6h.8v4.8h-.8Z"/><path class="a" d="M51.6,27.6h.8v4.8h-.8Z"/><path class="a" d="M54.1,30.9c0,.6.5.8,1,.8H56v.6l-1.1.2a1.6,1.6,0,0,1-1.7-1.7,1.7,1.7,0,0,1,1.6-1.8,1.4,1.4,0,0,1,1.4,1.6v.4Zm1.4-.5c0-.3-.1-.8-.7-.8s-.7.5-.8.8Z"/><path class="a" d="M59.5,32.3l-.9.2a1.6,1.6,0,0,1-1.7-1.7,1.7,1.7,0,0,1,1.8-1.7h.8v.6h-.6a1,1,0,0,0-1,1.1,1,1,0,0,0,1,1.1h.7Z"/><path class="a" d="M61.3,28.2V29h.8v.6h-.8V31c0,.4.1.6.4.6H62v.6h-.6a.8.8,0,0,1-.7-.3,1.2,1.2,0,0,1-.3-.9V29.6H60V29h.5v-.6Z"/><path class="a" d="M63.7,28.2a.5.5,0,0,1-1,0,.5.5,0,0,1,1,0Zm-.9,4.2V29.1h.8v3.3Z"/><path class="a" d="M67.8,30.7a1.6,1.6,0,0,1-1.7,1.7,1.6,1.6,0,0,1-1.6-1.7A1.6,1.6,0,0,1,66.2,29,1.6,1.6,0,0,1,67.8,30.7Zm-2.5,0c0,.6.3,1.1.8,1.1s.8-.5.8-1.1-.2-1.1-.8-1.1S65.3,30.2,65.3,30.7Z"/><path class="a" d="M68.6,30V29h.7v.5h0a1.1,1.1,0,0,1,1.1-.6c.6,0,1.2.4,1.2,1.4v1.9h-.8V30.3c0-.5-.2-.8-.6-.8a.6.6,0,0,0-.6.5v2.2h-.8V30Z"/><path class="a" d="M77,32.4l-.4-.4a1.9,1.9,0,0,1-1.3.5,1.3,1.3,0,0,1-1.5-1.3,1.5,1.5,0,0,1,.9-1.3h0a1.8,1.8,0,0,1-.4-.9,1.2,1.2,0,0,1,1.3-1.2,1,1,0,0,1,1.1,1,1.4,1.4,0,0,1-.9,1.2h0l.9,1a3.4,3.4,0,0,0,.4-1.2h.7a2.9,2.9,0,0,1-.7,1.7l.8.9Zm-.7-.9-1.1-1.3a1,1,0,0,0-.5.8.8.8,0,0,0,.8.8A1.1,1.1,0,0,0,76.3,31.5Zm-1.2-2.7a.9.9,0,0,0,.3.7.9.9,0,0,0,.6-.8.5.5,0,0,0-.5-.5A.7.7,0,0,0,75.1,28.8Z"/><path class="a" d="M81,31.1l-.4,1.3h-.9l1.5-4.5h1.1l1.5,4.5h-.9l-.4-1.3Zm1.3-.7L82,29.3a3.1,3.1,0,0,1-.2-.8h0c-.1.3-.1.6-.2.8l-.4,1.1Z"/><path class="a" d="M84.5,30V29h.7v.5h0a1.1,1.1,0,0,1,1.1-.6c.6,0,1.2.4,1.2,1.4v1.9h-.8V30.3c0-.5-.2-.8-.6-.8a.6.6,0,0,0-.6.5v2.2h-.8V30Z"/><path class="a" d="M91,31.6a1.9,1.9,0,0,0,.1.8h-.7l-.2-.4h0a1.1,1.1,0,0,1-1,.4.9.9,0,0,1-1-1c0-.8.7-1.2,1.9-1.2h0c0-.2-.1-.6-.7-.6l-.9.2-.2-.5a3,3,0,0,1,1.2-.3,1.3,1.3,0,0,1,1.4,1.4v1.3Zm-.8-.9c-.6,0-1.1.1-1.1.6a.5.5,0,0,0,.5.5.8.8,0,0,0,.7-.5v-.6Z"/><path class="a" d="M92,27.6h.8v4.8H92Z"/><path class="a" d="M94.4,29.1l.6,1.8c.1.2.1.5.2.6h0a1.4,1.4,0,0,1,.2-.6l.5-1.8h.9L96,31.3a7.2,7.2,0,0,1-1.1,2.1,1.4,1.4,0,0,1-.9.4l-.2-.7.5-.2c.2-.1.3-.3.5-.5h0v-.2l-1.2-3Z"/><path class="a" d="M97.2,31.6l.8.2c.4,0,.5-.2.5-.4s-.1-.3-.5-.5a1.1,1.1,0,0,1-.9-1c0-.6.5-1,1.2-1l.9.2-.2.6-.7-.2c-.3,0-.5.1-.5.4s.2.3.6.5.9.5.9,1-.5,1-1.3,1l-1-.2Z"/><path class="a" d="M101.1,28.2a.5.5,0,0,1-1,0,.5.5,0,1,1,1,0Zm-.9,4.2V29.1h.8v3.3Z"/><path class="a" d="M102,31.6l.8.2c.4,0,.5-.2.5-.4s-.1-.3-.5-.5a1.1,1.1,0,0,1-.9-1c0-.6.5-1,1.2-1l.9.2-.2.6-.7-.2c-.3,0-.5.1-.5.4s.2.3.6.5.9.5.9,1-.5,1-1.3,1l-1-.2Z"/><path class="a" d="M6.1,20.5H3.8V1.5H15.1V3.6h-9V9.7h8v2.1h-8Z"/><path class="a" d="M40.2,12.6v7.8H37.9V1.4h7l1.6.3a6.4,6.4,0,0,1,3,1.8,4.9,4.9,0,0,1,1,3.2,4.6,4.6,0,0,1-.4,2.1,5.4,5.4,0,0,1-1,1.6,6.4,6.4,0,0,1-3.7,1.7h0L51,20.4H48.7L43,12.6Zm0-9v6.9h4.1a2.8,2.8,0,0,0,1.3-.3,3.5,3.5,0,0,0,1.9-1.2,3.3,3.3,0,0,0,.7-2.1,3.2,3.2,0,0,0-.6-2,3.4,3.4,0,0,0-1.7-1.1l-1.2-.2H40.2Z"/><path class="a" d="M63.7,20.5H62.6L57.8,9.2c-.7-1.6-1.3-3.3-2-5.1h-.1c.1,2.6.2,5,.2,7.2v9.2H53.6V1.5H57l4.5,10.7c.5,1.2,1.1,2.7,1.7,4.4h.1c.7-1.9,1.2-3.4,1.7-4.4L69.5,1.5h3.3v19H70.5V11.3c0-2.1.1-4.6.2-7.2h-.1c-.7,1.9-1.4,3.6-2,5.1Z"/><path class="a" d="M77.9,6.5a2.9,2.9,0,0,0,.3,1.4,2,2,0,0,0,.9.9l1.3.6,1.6.4,2.2.6a6.6,6.6,0,0,1,1.9.9,3.7,3.7,0,0,1,1.3,1.5,5.4,5.4,0,0,1,.5,2.4,4.9,4.9,0,0,1-.6,2.5,6.5,6.5,0,0,1-1.5,1.8,6,6,0,0,1-2.3,1,13.6,13.6,0,0,1-2.9.3H79.1l-1.5-.2-1.3-.4-.9-.4V17.6l1.1.5,1.3.4,1.4.2h1.3l1.9-.2A4.4,4.4,0,0,0,84,18a2.9,2.9,0,0,0,1.1-1.1,3.1,3.1,0,0,0,.4-1.7,2.9,2.9,0,0,0-.3-1.4,2,2,0,0,0-.9-.9L83,12.3l-1.6-.4-2.2-.6a6.6,6.6,0,0,1-1.9-.9A3.7,3.7,0,0,1,76,8.9a5.2,5.2,0,0,1-.5-2.3A6.2,6.2,0,0,1,76,4.1a4.7,4.7,0,0,1,1.4-1.7,5.1,5.1,0,0,1,2.1-1A10.1,10.1,0,0,1,82,1.1a12,12,0,0,1,2.8.3,8.5,8.5,0,0,1,2.4.8V4.3l-2.4-.8a11.2,11.2,0,0,0-2.7-.3l-1.9.2a4,4,0,0,0-1.3.7,3.9,3.9,0,0,0-.8,1A6.8,6.8,0,0,0,77.9,6.5Z"/><path class="a" d="M103.6,1.5V3l-11,15.4h11.1v2.1H89.6V19l11-15.4H89.9V1.5Z"/><path class="a" d="M22.5,7a.4.4,0,0,0-.1-.3l-1.5-.9a7,7,0,0,1,5.4-2.6,7.3,7.3,0,0,1,7.2,7.4,1,1,0,1,0,2,0,9.3,9.3,0,0,0-9.1-9.4,9,9,0,0,0-6.7,3.1L18.7,3c-.1-.1-.2-.2-.3-.1a.2.2,0,0,0-.2.2L16.7,8.5a.4.4,0,0,0,.1.3h.3l5.2-1.6.2-.3Z"/><path class="a" d="M35.6,12.9h-.3l-5.2,1.6-.2.2a.4.4,0,0,0,.1.3l1.5.9a7,7,0,0,1-5.4,2.6A7.3,7.3,0,0,1,18.9,11a1,1,0,0,0-2,0A9.3,9.3,0,0,0,26,20.4a9,9,0,0,0,6.7-3.1l.7,1.4.3.2a.2.2,0,0,0,.2-.2l1.5-5.4c.3-.2.3-.4.2-.4Z"/></svg>