<?xml version="1.0" encoding="utf-8"?>
<!-- Generator: Adobe Illustrator 22.1.0, SVG Export Plug-In . SVG Version: 6.00 Build 0)  -->
<svg version="1.1" id="Layer_1" xmlns="http://www.w3.org/2000/svg" xmlns:xlink="http://www.w3.org/1999/xlink" x="0px" y="0px"
	 viewBox="0 0 108 35" style="enable-background:new 0 0 108 35;" xml:space="preserve">
<style type="text/css">
	.st0{fill:#FFFFFF;}
</style>
<g>
	<g>
		<path class="st0" d="M4.3,27.9c0.4-0.1,0.8-0.1,1.3-0.1c0.8,0,1.4,0.2,1.8,0.5c0.4,0.4,0.7,0.9,0.7,1.7c0,0.8-0.3,1.4-0.7,1.8
			c-0.5,0.4-1.2,0.6-2.1,0.6c-0.5,0-0.8,0-1.1-0.1V27.9z M5.1,31.7c0.1,0,0.3,0,0.5,0c1.1,0,1.7-0.6,1.7-1.7c0-1-0.6-1.6-1.6-1.6
			c-0.3,0-0.4,0-0.6,0V31.7z"/>
		<path class="st0" d="M9.9,28.2c0,0.2-0.2,0.4-0.5,0.4c-0.3,0-0.5-0.2-0.5-0.4c0-0.3,0.2-0.5,0.5-0.5C9.7,27.7,9.9,27.9,9.9,28.2z
			 M9,32.4v-3.3h0.8v3.3H9z"/>
		<path class="st0" d="M13.8,31.9c0,0.7-0.1,1.2-0.5,1.5c-0.3,0.3-0.8,0.4-1.3,0.4c-0.4,0-0.9-0.1-1.1-0.3l0.2-0.6
			c0.2,0.1,0.6,0.2,1,0.2c0.5,0,0.9-0.3,0.9-1v-0.3h0c-0.2,0.3-0.5,0.5-1,0.5c-0.8,0-1.4-0.7-1.4-1.6c0-1.1,0.7-1.7,1.5-1.7
			c0.5,0,0.8,0.2,1,0.5h0l0-0.4h0.7c0,0.2,0,0.5,0,0.9V31.9z M13,30.4c0-0.1,0-0.2,0-0.2c-0.1-0.3-0.3-0.5-0.7-0.5
			c-0.5,0-0.8,0.4-0.8,1.1c0,0.6,0.3,1,0.8,1c0.3,0,0.6-0.2,0.7-0.5c0-0.1,0-0.2,0-0.3V30.4z"/>
		<path class="st0" d="M15.7,28.2c0,0.2-0.2,0.4-0.5,0.4c-0.3,0-0.5-0.2-0.5-0.4c0-0.3,0.2-0.5,0.5-0.5
			C15.5,27.7,15.7,27.9,15.7,28.2z M14.8,32.4v-3.3h0.8v3.3H14.8z"/>
		<path class="st0" d="M17.6,28.2v0.8h0.8v0.6h-0.8v1.4c0,0.4,0.1,0.6,0.4,0.6c0.1,0,0.2,0,0.3,0l0,0.6c-0.1,0-0.3,0.1-0.6,0.1
			c-0.3,0-0.6-0.1-0.7-0.3c-0.2-0.2-0.3-0.5-0.3-0.9v-1.5h-0.5v-0.6h0.5v-0.6L17.6,28.2z"/>
		<path class="st0" d="M21.7,31.6c0,0.3,0,0.6,0.1,0.8H21L21,32h0c-0.2,0.3-0.5,0.4-1,0.4c-0.7,0-1-0.5-1-1c0-0.8,0.7-1.2,1.9-1.2
			v-0.1c0-0.2-0.1-0.6-0.7-0.6c-0.3,0-0.7,0.1-0.9,0.2l-0.2-0.5c0.2-0.1,0.7-0.3,1.2-0.3c1.1,0,1.4,0.7,1.4,1.4V31.6z M20.9,30.7
			c-0.6,0-1.1,0.1-1.1,0.6c0,0.3,0.2,0.5,0.5,0.5c0.3,0,0.6-0.2,0.7-0.5c0-0.1,0-0.1,0-0.2V30.7z"/>
		<path class="st0" d="M22.7,27.6h0.8v4.8h-0.8V27.6z"/>
		<path class="st0" d="M26.1,27.9c0.4-0.1,0.8-0.1,1.3-0.1c0.8,0,1.4,0.2,1.8,0.5c0.4,0.4,0.7,0.9,0.7,1.7c0,0.8-0.3,1.4-0.7,1.8
			c-0.5,0.4-1.2,0.6-2.1,0.6c-0.5,0-0.8,0-1.1-0.1V27.9z M26.9,31.7c0.1,0,0.3,0,0.5,0c1.1,0,1.7-0.6,1.7-1.7c0-1-0.6-1.6-1.6-1.6
			c-0.3,0-0.4,0-0.6,0V31.7z"/>
		<path class="st0" d="M33.4,31.6c0,0.3,0,0.6,0.1,0.8h-0.7L32.6,32h0c-0.2,0.3-0.5,0.4-1,0.4c-0.7,0-1-0.5-1-1
			c0-0.8,0.7-1.2,1.9-1.2v-0.1c0-0.2-0.1-0.6-0.7-0.6c-0.3,0-0.7,0.1-0.9,0.2l-0.2-0.5c0.2-0.1,0.7-0.3,1.2-0.3
			c1.1,0,1.4,0.7,1.4,1.4V31.6z M32.5,30.7c-0.6,0-1.1,0.1-1.1,0.6c0,0.3,0.2,0.5,0.5,0.5c0.3,0,0.6-0.2,0.7-0.5c0-0.1,0-0.1,0-0.2
			V30.7z"/>
		<path class="st0" d="M35.3,28.2v0.8h0.8v0.6h-0.8v1.4c0,0.4,0.1,0.6,0.4,0.6c0.1,0,0.2,0,0.3,0l0,0.6c-0.1,0-0.3,0.1-0.6,0.1
			c-0.3,0-0.6-0.1-0.7-0.3c-0.2-0.2-0.3-0.5-0.3-0.9v-1.5H34v-0.6h0.5v-0.6L35.3,28.2z"/>
		<path class="st0" d="M39.4,31.6c0,0.3,0,0.6,0.1,0.8h-0.7L38.6,32h0c-0.2,0.3-0.5,0.4-1,0.4c-0.7,0-1-0.5-1-1
			c0-0.8,0.7-1.2,1.9-1.2v-0.1c0-0.2-0.1-0.6-0.7-0.6c-0.3,0-0.7,0.1-0.9,0.2l-0.2-0.5c0.2-0.1,0.7-0.3,1.2-0.3
			c1.1,0,1.4,0.7,1.4,1.4V31.6z M38.5,30.7c-0.6,0-1.1,0.1-1.1,0.6c0,0.3,0.2,0.5,0.5,0.5c0.3,0,0.6-0.2,0.7-0.5c0-0.1,0-0.1,0-0.2
			V30.7z"/>
		<path class="st0" d="M45.2,32.2c-0.2,0.1-0.6,0.2-1.2,0.2c-1.4,0-2.3-0.9-2.3-2.3c0-1.5,1-2.4,2.4-2.4c0.5,0,0.9,0.1,1.1,0.2
			L45,28.6c-0.2-0.1-0.5-0.2-0.9-0.2c-0.9,0-1.6,0.6-1.6,1.7c0,1,0.6,1.6,1.6,1.6c0.3,0,0.7-0.1,0.9-0.2L45.2,32.2z"/>
		<path class="st0" d="M49,30.7c0,1.2-0.8,1.7-1.7,1.7c-0.9,0-1.6-0.6-1.6-1.7c0-1.1,0.7-1.7,1.7-1.7C48.3,29,49,29.7,49,30.7z
			 M46.5,30.7c0,0.6,0.3,1.1,0.8,1.1c0.5,0,0.8-0.5,0.8-1.1c0-0.5-0.2-1.1-0.8-1.1C46.7,29.6,46.5,30.2,46.5,30.7z"/>
		<path class="st0" d="M49.8,27.6h0.8v4.8h-0.8V27.6z"/>
		<path class="st0" d="M51.6,27.6h0.8v4.8h-0.8V27.6z"/>
		<path class="st0" d="M54.1,30.9c0,0.6,0.5,0.8,1,0.8c0.4,0,0.7-0.1,0.9-0.1l0.1,0.6c-0.3,0.1-0.7,0.2-1.1,0.2
			c-1.1,0-1.7-0.7-1.7-1.7c0-0.9,0.6-1.8,1.6-1.8c1.1,0,1.4,0.9,1.4,1.6c0,0.2,0,0.3,0,0.4H54.1z M55.5,30.4c0-0.3-0.1-0.8-0.7-0.8
			c-0.5,0-0.7,0.5-0.8,0.8H55.5z"/>
		<path class="st0" d="M59.5,32.3c-0.2,0.1-0.5,0.2-0.9,0.2c-1,0-1.7-0.7-1.7-1.7c0-1,0.7-1.7,1.8-1.7c0.3,0,0.6,0.1,0.8,0.1
			l-0.1,0.6c-0.1-0.1-0.3-0.1-0.6-0.1c-0.6,0-1,0.5-1,1.1c0,0.7,0.4,1.1,1,1.1c0.3,0,0.5-0.1,0.7-0.1L59.5,32.3z"/>
		<path class="st0" d="M61.3,28.2v0.8h0.8v0.6h-0.8v1.4c0,0.4,0.1,0.6,0.4,0.6c0.1,0,0.2,0,0.3,0l0,0.6c-0.1,0-0.3,0.1-0.6,0.1
			c-0.3,0-0.6-0.1-0.7-0.3c-0.2-0.2-0.3-0.5-0.3-0.9v-1.5H60v-0.6h0.5v-0.6L61.3,28.2z"/>
		<path class="st0" d="M63.7,28.2c0,0.2-0.2,0.4-0.5,0.4c-0.3,0-0.5-0.2-0.5-0.4c0-0.3,0.2-0.5,0.5-0.5
			C63.5,27.7,63.7,27.9,63.7,28.2z M62.8,32.4v-3.3h0.8v3.3H62.8z"/>
		<path class="st0" d="M67.8,30.7c0,1.2-0.8,1.7-1.7,1.7c-0.9,0-1.6-0.6-1.6-1.7c0-1.1,0.7-1.7,1.7-1.7C67.1,29,67.8,29.7,67.8,30.7
			z M65.3,30.7c0,0.6,0.3,1.1,0.8,1.1c0.5,0,0.8-0.5,0.8-1.1c0-0.5-0.2-1.1-0.8-1.1C65.6,29.6,65.3,30.2,65.3,30.7z"/>
		<path class="st0" d="M68.6,30c0-0.4,0-0.7,0-1h0.7l0,0.5h0c0.1-0.3,0.5-0.6,1.1-0.6c0.6,0,1.2,0.4,1.2,1.4v1.9h-0.8v-1.9
			c0-0.5-0.2-0.8-0.6-0.8c-0.3,0-0.6,0.2-0.6,0.5c0,0.1,0,0.2,0,0.3v1.9h-0.8V30z"/>
		<path class="st0" d="M77,32.4c-0.1-0.1-0.2-0.2-0.4-0.4c-0.3,0.3-0.8,0.5-1.3,0.5c-1,0-1.5-0.6-1.5-1.3c0-0.6,0.4-1,0.9-1.3v0
			c-0.2-0.3-0.4-0.6-0.4-0.9c0-0.6,0.4-1.2,1.3-1.2c0.6,0,1.1,0.4,1.1,1c0,0.5-0.3,0.9-0.9,1.2l0,0c0.3,0.4,0.7,0.8,0.9,1
			c0.2-0.3,0.3-0.7,0.4-1.2h0.7c-0.1,0.7-0.3,1.3-0.7,1.7c0.3,0.3,0.5,0.6,0.8,0.9H77z M76.3,31.5c-0.3-0.3-0.7-0.8-1.1-1.3
			c-0.2,0.1-0.5,0.4-0.5,0.8c0,0.4,0.3,0.8,0.8,0.8C75.8,31.8,76.1,31.7,76.3,31.5z M75.1,28.8c0,0.3,0.1,0.5,0.3,0.7
			c0.4-0.2,0.6-0.5,0.6-0.8c0-0.2-0.1-0.5-0.5-0.5C75.3,28.3,75.1,28.5,75.1,28.8z"/>
		<path class="st0" d="M81,31.1l-0.4,1.3h-0.9l1.5-4.5h1.1l1.5,4.5h-0.9l-0.4-1.3H81z M82.3,30.4L82,29.3c-0.1-0.3-0.2-0.6-0.2-0.8
			h0c-0.1,0.3-0.1,0.6-0.2,0.8l-0.4,1.1H82.3z"/>
		<path class="st0" d="M84.5,30c0-0.4,0-0.7,0-1h0.7l0,0.5h0c0.1-0.3,0.5-0.6,1.1-0.6c0.6,0,1.2,0.4,1.2,1.4v1.9h-0.8v-1.9
			c0-0.5-0.2-0.8-0.6-0.8c-0.3,0-0.6,0.2-0.6,0.5c0,0.1,0,0.2,0,0.3v1.9h-0.8V30z"/>
		<path class="st0" d="M91,31.6c0,0.3,0,0.6,0.1,0.8h-0.7L90.2,32h0c-0.2,0.3-0.5,0.4-1,0.4c-0.7,0-1-0.5-1-1c0-0.8,0.7-1.2,1.9-1.2
			v-0.1c0-0.2-0.1-0.6-0.7-0.6c-0.3,0-0.7,0.1-0.9,0.2l-0.2-0.5c0.2-0.1,0.7-0.3,1.2-0.3c1.1,0,1.4,0.7,1.4,1.4V31.6z M90.2,30.7
			c-0.6,0-1.1,0.1-1.1,0.6c0,0.3,0.2,0.5,0.5,0.5c0.3,0,0.6-0.2,0.7-0.5c0-0.1,0-0.1,0-0.2V30.7z"/>
		<path class="st0" d="M92,27.6h0.8v4.8H92V27.6z"/>
		<path class="st0" d="M94.4,29.1l0.6,1.8c0.1,0.2,0.1,0.5,0.2,0.6h0c0-0.2,0.1-0.4,0.2-0.6l0.5-1.8h0.9l-0.8,2.2
			c-0.5,1.2-0.8,1.8-1.1,2.1c-0.3,0.3-0.7,0.4-0.9,0.4l-0.2-0.7c0.1,0,0.3-0.1,0.5-0.2c0.2-0.1,0.3-0.3,0.5-0.5c0-0.1,0-0.1,0-0.1
			c0,0,0-0.1,0-0.2l-1.2-3H94.4z"/>
		<path class="st0" d="M97.2,31.6c0.2,0.1,0.5,0.2,0.8,0.2c0.4,0,0.5-0.2,0.5-0.4c0-0.2-0.1-0.3-0.5-0.5c-0.6-0.2-0.9-0.6-0.9-1
			c0-0.6,0.5-1,1.2-1c0.4,0,0.7,0.1,0.9,0.2l-0.2,0.6c-0.1-0.1-0.4-0.2-0.7-0.2c-0.3,0-0.5,0.1-0.5,0.4c0,0.2,0.2,0.3,0.6,0.5
			c0.6,0.2,0.9,0.5,0.9,1c0,0.6-0.5,1-1.3,1c-0.4,0-0.8-0.1-1-0.2L97.2,31.6z"/>
		<path class="st0" d="M101.1,28.2c0,0.2-0.2,0.4-0.5,0.4c-0.3,0-0.5-0.2-0.5-0.4c0-0.3,0.2-0.5,0.5-0.5
			C100.9,27.7,101.1,27.9,101.1,28.2z M100.2,32.4v-3.3h0.8v3.3H100.2z"/>
		<path class="st0" d="M102,31.6c0.2,0.1,0.5,0.2,0.8,0.2c0.4,0,0.5-0.2,0.5-0.4c0-0.2-0.1-0.3-0.5-0.5c-0.6-0.2-0.9-0.6-0.9-1
			c0-0.6,0.5-1,1.2-1c0.4,0,0.7,0.1,0.9,0.2l-0.2,0.6c-0.1-0.1-0.4-0.2-0.7-0.2c-0.3,0-0.5,0.1-0.5,0.4c0,0.2,0.2,0.3,0.6,0.5
			c0.6,0.2,0.9,0.5,0.9,1c0,0.6-0.5,1-1.3,1c-0.4,0-0.8-0.1-1-0.2L102,31.6z"/>
	</g>
	<g>
		<g>
			<path class="st0" d="M6.1,20.5H3.8v-19h11.3v2.1h-9v6.1h8v2.1h-8V20.5z"/>
			<path class="st0" d="M40.2,12.6v7.8h-2.3v-19h4.9c0.8,0,1.5,0,2.1,0.1c0.6,0.1,1.1,0.2,1.6,0.3c1.3,0.4,2.3,1,3,1.8
				c0.7,0.9,1,1.9,1,3.2c0,0.8-0.1,1.5-0.4,2.1c-0.2,0.6-0.6,1.1-1,1.6c-0.4,0.4-1,0.8-1.6,1.1c-0.6,0.3-1.3,0.5-2.1,0.6v0.1
				l5.6,8.1h-2.3L43,12.6H40.2z M40.2,3.6v6.9h2.3c0.7,0,1.3,0,1.8-0.1c0.5,0,0.9-0.1,1.3-0.3c0.8-0.2,1.4-0.6,1.9-1.2
				c0.4-0.5,0.7-1.2,0.7-2.1c0-0.8-0.2-1.5-0.6-2s-1-0.9-1.7-1.1c-0.3-0.1-0.7-0.2-1.2-0.2c-0.5,0-1.1-0.1-1.8-0.1H40.2z"/>
			<path class="st0" d="M63.7,20.5h-1.1L57.8,9.2c-0.7-1.6-1.3-3.3-2-5.1h-0.1c0.1,2.6,0.2,5,0.2,7.2v9.2h-2.3v-19H57l4.5,10.7
				c0.5,1.2,1.1,2.7,1.7,4.4h0.1c0.7-1.9,1.2-3.4,1.7-4.4l4.5-10.7h3.3v19h-2.3v-9.2c0-2.1,0.1-4.6,0.2-7.2h-0.1
				c-0.7,1.9-1.4,3.6-2,5.1L63.7,20.5z"/>
			<path class="st0" d="M77.9,6.5c0,0.6,0.1,1,0.3,1.4c0.2,0.4,0.5,0.7,0.9,0.9c0.4,0.2,0.8,0.4,1.3,0.6c0.5,0.2,1,0.3,1.6,0.4
				c0.7,0.2,1.5,0.4,2.2,0.6c0.7,0.2,1.3,0.5,1.9,0.9c0.6,0.4,1,0.9,1.3,1.5c0.3,0.6,0.5,1.4,0.5,2.4c0,1-0.2,1.8-0.6,2.5
				c-0.4,0.7-0.9,1.3-1.5,1.8c-0.7,0.5-1.4,0.8-2.3,1c-0.9,0.2-1.9,0.3-2.9,0.3c-0.5,0-1,0-1.5-0.1c-0.5-0.1-1-0.1-1.5-0.2
				c-0.5-0.1-0.9-0.2-1.3-0.4c-0.4-0.1-0.7-0.3-0.9-0.4v-2.1c0.3,0.2,0.7,0.3,1.1,0.5c0.4,0.1,0.9,0.3,1.3,0.4
				c0.5,0.1,0.9,0.2,1.4,0.2c0.5,0.1,0.9,0.1,1.3,0.1c0.7,0,1.3-0.1,1.9-0.2c0.6-0.1,1.1-0.3,1.6-0.6c0.5-0.3,0.8-0.6,1.1-1.1
				c0.3-0.5,0.4-1,0.4-1.7c0-0.6-0.1-1-0.3-1.4c-0.2-0.4-0.5-0.7-0.9-0.9c-0.4-0.2-0.8-0.4-1.3-0.6c-0.5-0.2-1-0.3-1.6-0.4
				c-0.7-0.2-1.5-0.4-2.2-0.6c-0.7-0.2-1.3-0.5-1.9-0.9c-0.6-0.4-1-0.9-1.3-1.5c-0.3-0.6-0.5-1.4-0.5-2.3c0-1,0.2-1.8,0.5-2.5
				c0.4-0.7,0.8-1.3,1.4-1.7c0.6-0.5,1.3-0.8,2.1-1c0.8-0.2,1.6-0.3,2.5-0.3c1,0,2,0.1,2.8,0.3c0.9,0.2,1.7,0.4,2.4,0.8v2.1
				c-0.8-0.3-1.6-0.6-2.4-0.8c-0.8-0.2-1.7-0.3-2.7-0.3c-0.7,0-1.3,0.1-1.9,0.2c-0.5,0.2-1,0.4-1.3,0.7c-0.3,0.3-0.6,0.6-0.8,1
				C78,5.6,77.9,6,77.9,6.5z"/>
			<path class="st0" d="M103.6,1.5V3l-11,15.4h11.1v2.1H89.6V19l11-15.4H89.9V1.5H103.6z"/>
		</g>
		<g>
			<path class="st0" d="M22.5,7c0-0.1,0-0.2-0.1-0.3l-1.5-0.9c1.3-1.6,3.3-2.6,5.4-2.6c4,0,7.2,3.3,7.2,7.4c0,0.5,0.4,1,1,1
				c0.5,0,1-0.4,1-1c0-5.2-4.1-9.4-9.1-9.4c-2.6,0-5,1.2-6.7,3.1L18.7,3c-0.1-0.1-0.2-0.2-0.3-0.1c-0.1,0-0.2,0.1-0.2,0.2l-1.5,5.4
				c0,0.1,0,0.2,0.1,0.3c0.1,0.1,0.2,0.1,0.3,0.1l5.2-1.6C22.4,7.2,22.4,7.1,22.5,7L22.5,7z M22.5,7"/>
			<path class="st0" d="M35.6,12.9c-0.1-0.1-0.2-0.1-0.3-0.1l-5.2,1.6c-0.1,0-0.2,0.1-0.2,0.2c0,0.1,0,0.2,0.1,0.3l1.5,0.9
				c-1.3,1.6-3.3,2.6-5.4,2.6c-3.9,0-7.2-3.3-7.2-7.4c0-0.5-0.4-1-1-1c-0.5,0-1,0.4-1,1c0,5.2,4.1,9.4,9.1,9.4c2.6,0,5-1.2,6.7-3.1
				l0.7,1.4c0.1,0.1,0.2,0.2,0.3,0.2c0.1,0,0.2-0.1,0.2-0.2l1.5-5.4C35.7,13.1,35.7,12.9,35.6,12.9L35.6,12.9z M35.6,12.9"/>
		</g>
	</g>
</g>
</svg>
