<svg xmlns="http://www.w3.org/2000/svg" width="184.999" height="40.975" viewBox="0 0 184.999 40.975">
  <g id="Group_796" data-name="Group 796" transform="translate(-538 -291)">
    <g id="Group_795" data-name="Group 795" transform="translate(538 306.023)">
      <g id="Group_491" data-name="Group 491" transform="translate(0 0)">
        <path id="Path_833" data-name="Path 833" d="M926,15717H751" transform="translate(-747.001 -15704.022)" fill="none" stroke="#eb0909" stroke-width="2"/>
        <g id="cursor" transform="translate(25.952 12.975) rotate(135)">
          <path id="Path_834" data-name="Path 834" d="M18.34,17.652a.837.837,0,0,1-1.206.606L.453,9.918a.787.787,0,0,1-.378-.391A.845.845,0,0,1,.023,8.98a.789.789,0,0,1,.293-.463.822.822,0,0,1,.515-.176H8.338V.834A.822.822,0,0,1,8.514.319.787.787,0,0,1,8.976.026,1.13,1.13,0,0,1,9.172,0a.764.764,0,0,1,.743.456l8.341,16.681A.793.793,0,0,1,18.34,17.652Z" transform="translate(0)" fill="#eb0909"/>
        </g>
        <ellipse id="Ellipse_57" data-name="Ellipse 57" cx="5.5" cy="5.5" rx="5.5" ry="5.5" transform="translate(173.999 7.977)" fill="#eb0909"/>
      </g>
    </g>
    <text id="Rejected" transform="translate(592 310)" fill="#eb0909" font-size="18" font-family="Roboto-Regular, Roboto"><tspan x="0" y="0">Rejected</tspan></text>
  </g>
</svg>
