<?xml version="1.0" encoding="UTF-8" standalone="no"?>
<!DOCTYPE svg PUBLIC "-//W3C//DTD SVG 1.1//EN"
 "http://www.w3.org/Graphics/SVG/1.1/DTD/svg11.dtd">
<!-- Generated by graphviz version 2.40.1 (20161225.0304)
 -->
<!-- Title: dependencies Pages: 1 -->
<svg width="1806pt" height="284pt"
 viewBox="0.00 0.00 1806.00 284.00" xmlns="http://www.w3.org/2000/svg" xmlns:xlink="http://www.w3.org/1999/xlink">
<g id="graph0" class="graph" transform="scale(1 1) rotate(0) translate(4 280)">
<title>dependencies</title>
<polygon fill="#ffffff" stroke="transparent" points="-4,4 -4,-280 1802,-280 1802,4 -4,4"/>
<text text-anchor="start" x="878.0091" y="-42.4" font-family="sans-serif" font-weight="bold" font-size="14.00" fill="#000000">Legend</text>
<polygon fill="#ffffb3" stroke="transparent" points="665,-10 665,-30 685,-30 685,-10 665,-10"/>
<text text-anchor="start" x="688.629" y="-15.4" font-family="sans-serif" font-size="14.00" fill="#000000"> &#160;Declarations</text>
<polygon fill="#8dd3c7" stroke="transparent" points="778,-10 778,-30 798,-30 798,-10 778,-10"/>
<text text-anchor="start" x="801.7251" y="-15.4" font-family="sans-serif" font-size="14.00" fill="#000000"> &#160;Module</text>
<polygon fill="#80b1d3" stroke="transparent" points="864,-10 864,-30 884,-30 884,-10 864,-10"/>
<text text-anchor="start" x="887.7812" y="-15.4" font-family="sans-serif" font-size="14.00" fill="#000000"> &#160;Bootstrap</text>
<polygon fill="#fdb462" stroke="transparent" points="961,-10 961,-30 981,-30 981,-10 961,-10"/>
<text text-anchor="start" x="984.6732" y="-15.4" font-family="sans-serif" font-size="14.00" fill="#000000"> &#160;Providers</text>
<polygon fill="#fb8072" stroke="transparent" points="1057,-10 1057,-30 1077,-30 1077,-10 1057,-10"/>
<text text-anchor="start" x="1080.7258" y="-15.4" font-family="sans-serif" font-size="14.00" fill="#000000"> &#160;Exports</text>
<g id="clust1" class="cluster">
<title>cluster_TasksModule</title>
<polygon fill="none" stroke="#000000" stroke-dasharray="1,5" points="8,-70 8,-268 1790,-268 1790,-70 8,-70"/>
</g>
<g id="clust2" class="cluster">
<title>cluster_TasksModule_declarations</title>
<polygon fill="none" stroke="#000000" points="832,-78 832,-130 1782,-130 1782,-78 832,-78"/>
</g>
<g id="clust9" class="cluster">
<title>cluster_TasksModule_imports</title>
<polygon fill="none" stroke="#000000" points="16,-78 16,-130 824,-130 824,-78 16,-78"/>
</g>
<g id="clust10" class="cluster">
<title>cluster_TasksModule_exports</title>
<polygon fill="none" stroke="#000000" points="854,-208 854,-260 1004,-260 1004,-208 854,-208"/>
</g>
<!-- TaskCreateComponent -->
<g id="node1" class="node">
<title>TaskCreateComponent</title>
<polygon fill="#ffffb3" stroke="#000000" points="1773.5758,-122 1628.4242,-122 1628.4242,-86 1773.5758,-86 1773.5758,-122"/>
<text text-anchor="middle" x="1701" y="-99.8" font-family="Times,serif" font-size="14.00" fill="#000000">TaskCreateComponent</text>
</g>
<!-- TasksModule -->
<g id="node7" class="node">
<title>TasksModule</title>
<polygon fill="#8dd3c7" stroke="#000000" points="975.2064,-187 972.2064,-191 951.2064,-191 948.2064,-187 882.7936,-187 882.7936,-151 975.2064,-151 975.2064,-187"/>
<text text-anchor="middle" x="929" y="-164.8" font-family="Times,serif" font-size="14.00" fill="#000000">TasksModule</text>
</g>
<!-- TaskCreateComponent&#45;&gt;TasksModule -->
<g id="edge1" class="edge">
<title>TaskCreateComponent&#45;&gt;TasksModule</title>
<path fill="none" stroke="#000000" d="M1701,-122.2479C1701,-145.0179 1701,-181 1701,-181 1701,-181 985.2665,-181 985.2665,-181"/>
<polygon fill="#000000" stroke="#000000" points="985.2665,-177.5001 975.2665,-181 985.2664,-184.5001 985.2665,-177.5001"/>
</g>
<!-- TaskDeleteComponent -->
<g id="node2" class="node">
<title>TaskDeleteComponent</title>
<polygon fill="#ffffb3" stroke="#000000" points="1610.5758,-122 1465.4242,-122 1465.4242,-86 1610.5758,-86 1610.5758,-122"/>
<text text-anchor="middle" x="1538" y="-99.8" font-family="Times,serif" font-size="14.00" fill="#000000">TaskDeleteComponent</text>
</g>
<!-- TaskDeleteComponent&#45;&gt;TasksModule -->
<g id="edge2" class="edge">
<title>TaskDeleteComponent&#45;&gt;TasksModule</title>
<path fill="none" stroke="#000000" d="M1538,-122.2843C1538,-143.3211 1538,-175 1538,-175 1538,-175 985.2738,-175 985.2738,-175"/>
<polygon fill="#000000" stroke="#000000" points="985.2739,-171.5001 975.2738,-175 985.2738,-178.5001 985.2739,-171.5001"/>
</g>
<!-- TaskEditComponent -->
<g id="node3" class="node">
<title>TaskEditComponent</title>
<polygon fill="#ffffb3" stroke="#000000" points="1447.8781,-122 1316.1219,-122 1316.1219,-86 1447.8781,-86 1447.8781,-122"/>
<text text-anchor="middle" x="1382" y="-99.8" font-family="Times,serif" font-size="14.00" fill="#000000">TaskEditComponent</text>
</g>
<!-- TaskEditComponent&#45;&gt;TasksModule -->
<g id="edge3" class="edge">
<title>TaskEditComponent&#45;&gt;TasksModule</title>
<path fill="none" stroke="#000000" d="M1382,-122.1061C1382,-141.3391 1382,-169 1382,-169 1382,-169 985.3501,-169 985.3501,-169"/>
<polygon fill="#000000" stroke="#000000" points="985.3501,-165.5001 975.3501,-169 985.3501,-172.5001 985.3501,-165.5001"/>
</g>
<!-- TaskListComponent -->
<g id="node4" class="node">
<title>TaskListComponent</title>
<polygon fill="#ffffb3" stroke="#000000" points="1298.323,-122 1167.677,-122 1167.677,-86 1298.323,-86 1298.323,-122"/>
<text text-anchor="middle" x="1233" y="-99.8" font-family="Times,serif" font-size="14.00" fill="#000000">TaskListComponent</text>
</g>
<!-- TaskListComponent&#45;&gt;TasksModule -->
<g id="edge4" class="edge">
<title>TaskListComponent&#45;&gt;TasksModule</title>
<path fill="none" stroke="#000000" d="M1233,-122.0225C1233,-139.3734 1233,-163 1233,-163 1233,-163 985.1711,-163 985.1711,-163"/>
<polygon fill="#000000" stroke="#000000" points="985.1711,-159.5001 975.1711,-163 985.171,-166.5001 985.1711,-159.5001"/>
</g>
<!-- TasksComponent -->
<g id="node5" class="node">
<title>TasksComponent</title>
<polygon fill="#ffffb3" stroke="#000000" points="1149.9888,-122 1036.0112,-122 1036.0112,-86 1149.9888,-86 1149.9888,-122"/>
<text text-anchor="middle" x="1093" y="-99.8" font-family="Times,serif" font-size="14.00" fill="#000000">TasksComponent</text>
</g>
<!-- TasksComponent&#45;&gt;TasksModule -->
<g id="edge5" class="edge">
<title>TasksComponent&#45;&gt;TasksModule</title>
<path fill="none" stroke="#000000" d="M1093,-122.2396C1093,-137.5706 1093,-157 1093,-157 1093,-157 985.1196,-157 985.1196,-157"/>
<polygon fill="#000000" stroke="#000000" points="985.1196,-153.5001 975.1196,-157 985.1195,-160.5001 985.1196,-153.5001"/>
</g>
<!-- WorkflowhistoryComponent -->
<g id="node6" class="node">
<title>WorkflowhistoryComponent</title>
<polygon fill="#ffffb3" stroke="#000000" points="1017.752,-122 840.248,-122 840.248,-86 1017.752,-86 1017.752,-122"/>
<text text-anchor="middle" x="929" y="-99.8" font-family="Times,serif" font-size="14.00" fill="#000000">WorkflowhistoryComponent</text>
</g>
<!-- WorkflowhistoryComponent&#45;&gt;TasksModule -->
<g id="edge6" class="edge">
<title>WorkflowhistoryComponent&#45;&gt;TasksModule</title>
<path fill="none" stroke="#000000" d="M929,-122.1061C929,-122.1061 929,-140.991 929,-140.991"/>
<polygon fill="#000000" stroke="#000000" points="925.5001,-140.9909 929,-150.991 932.5001,-140.991 925.5001,-140.9909"/>
</g>
<!-- TaskListComponent  -->
<g id="node13" class="node">
<title>TaskListComponent </title>
<polygon fill="#fb8072" stroke="#000000" points="995.8227,-252 862.1773,-252 862.1773,-216 995.8227,-216 995.8227,-252"/>
<text text-anchor="middle" x="929" y="-229.8" font-family="Times,serif" font-size="14.00" fill="#000000">TaskListComponent </text>
</g>
<!-- TasksModule&#45;&gt;TaskListComponent  -->
<g id="edge12" class="edge">
<title>TasksModule&#45;&gt;TaskListComponent </title>
<path fill="none" stroke="#000000" stroke-dasharray="5,2" d="M929,-187.1061C929,-187.1061 929,-205.991 929,-205.991"/>
<polygon fill="#000000" stroke="#000000" points="925.5001,-205.9909 929,-215.991 932.5001,-205.991 925.5001,-205.9909"/>
</g>
<!-- PageHeaderModule -->
<g id="node8" class="node">
<title>PageHeaderModule</title>
<polygon fill="#8dd3c7" stroke="#000000" points="815.6727,-122 812.6727,-126 791.6727,-126 788.6727,-122 688.3273,-122 688.3273,-86 815.6727,-86 815.6727,-122"/>
<text text-anchor="middle" x="752" y="-99.8" font-family="Times,serif" font-size="14.00" fill="#000000">PageHeaderModule</text>
</g>
<!-- PageHeaderModule&#45;&gt;TasksModule -->
<g id="edge7" class="edge">
<title>PageHeaderModule&#45;&gt;TasksModule</title>
<path fill="none" stroke="#000000" d="M752,-122.2396C752,-137.5706 752,-157 752,-157 752,-157 872.4953,-157 872.4953,-157"/>
<polygon fill="#000000" stroke="#000000" points="872.4954,-160.5001 882.4953,-157 872.4953,-153.5001 872.4954,-160.5001"/>
</g>
<!-- SharedRecordsModule -->
<g id="node9" class="node">
<title>SharedRecordsModule</title>
<polygon fill="#8dd3c7" stroke="#000000" points="670.2935,-122 667.2935,-126 646.2935,-126 643.2935,-122 525.7065,-122 525.7065,-86 670.2935,-86 670.2935,-122"/>
<text text-anchor="middle" x="598" y="-99.8" font-family="Times,serif" font-size="14.00" fill="#000000">SharedRecordsModule</text>
</g>
<!-- SharedRecordsModule&#45;&gt;TasksModule -->
<g id="edge8" class="edge">
<title>SharedRecordsModule&#45;&gt;TasksModule</title>
<path fill="none" stroke="#000000" d="M598,-122.0225C598,-139.3734 598,-163 598,-163 598,-163 872.6273,-163 872.6273,-163"/>
<polygon fill="#000000" stroke="#000000" points="872.6274,-166.5001 882.6273,-163 872.6273,-159.5001 872.6274,-166.5001"/>
</g>
<!-- SharingModuleModule -->
<g id="node10" class="node">
<title>SharingModuleModule</title>
<polygon fill="#8dd3c7" stroke="#000000" points="508.1484,-122 505.1484,-126 484.1484,-126 481.1484,-122 361.8516,-122 361.8516,-86 508.1484,-86 508.1484,-122"/>
<text text-anchor="middle" x="435" y="-99.8" font-family="Times,serif" font-size="14.00" fill="#000000">SharingModuleModule</text>
</g>
<!-- SharingModuleModule&#45;&gt;TasksModule -->
<g id="edge9" class="edge">
<title>SharingModuleModule&#45;&gt;TasksModule</title>
<path fill="none" stroke="#000000" d="M435,-122.1061C435,-141.3391 435,-169 435,-169 435,-169 872.5257,-169 872.5257,-169"/>
<polygon fill="#000000" stroke="#000000" points="872.5257,-172.5001 882.5257,-169 872.5256,-165.5001 872.5257,-172.5001"/>
</g>
<!-- TasksRoutingModule -->
<g id="node11" class="node">
<title>TasksRoutingModule</title>
<polygon fill="#8dd3c7" stroke="#000000" points="343.8244,-122 340.8244,-126 319.8244,-126 316.8244,-122 206.1756,-122 206.1756,-86 343.8244,-86 343.8244,-122"/>
<text text-anchor="middle" x="275" y="-99.8" font-family="Times,serif" font-size="14.00" fill="#000000">TasksRoutingModule</text>
</g>
<!-- TasksRoutingModule&#45;&gt;TasksModule -->
<g id="edge10" class="edge">
<title>TasksRoutingModule&#45;&gt;TasksModule</title>
<path fill="none" stroke="#000000" d="M275,-122.2843C275,-143.3211 275,-175 275,-175 275,-175 872.7514,-175 872.7514,-175"/>
<polygon fill="#000000" stroke="#000000" points="872.7515,-178.5001 882.7514,-175 872.7514,-171.5001 872.7515,-178.5001"/>
</g>
<!-- WorkAssignmentsModule -->
<g id="node12" class="node">
<title>WorkAssignmentsModule</title>
<polygon fill="#8dd3c7" stroke="#000000" points="187.752,-122 184.752,-126 163.752,-126 160.752,-122 24.248,-122 24.248,-86 187.752,-86 187.752,-122"/>
<text text-anchor="middle" x="106" y="-99.8" font-family="Times,serif" font-size="14.00" fill="#000000">WorkAssignmentsModule</text>
</g>
<!-- WorkAssignmentsModule&#45;&gt;TasksModule -->
<g id="edge11" class="edge">
<title>WorkAssignmentsModule&#45;&gt;TasksModule</title>
<path fill="none" stroke="#000000" d="M106,-122.2479C106,-145.0179 106,-181 106,-181 106,-181 872.6916,-181 872.6916,-181"/>
<polygon fill="#000000" stroke="#000000" points="872.6916,-184.5001 882.6916,-181 872.6916,-177.5001 872.6916,-184.5001"/>
</g>
</g>
</svg>
