<?xml version="1.0" encoding="UTF-8" standalone="no"?>
<!DOCTYPE svg PUBLIC "-//W3C//DTD SVG 1.1//EN"
 "http://www.w3.org/Graphics/SVG/1.1/DTD/svg11.dtd">
<!-- Generated by graphviz version 2.40.1 (20161225.0304)
 -->
<!-- Title: dependencies Pages: 1 -->
<svg width="1990pt" height="211pt"
 viewBox="0.00 0.00 1990.00 211.00" xmlns="http://www.w3.org/2000/svg" xmlns:xlink="http://www.w3.org/1999/xlink">
<g id="graph0" class="graph" transform="scale(1 1) rotate(0) translate(4 207)">
<title>dependencies</title>
<polygon fill="#ffffff" stroke="transparent" points="-4,4 -4,-207 1986,-207 1986,4 -4,4"/>
<text text-anchor="start" x="970.0091" y="-42.4" font-family="sans-serif" font-weight="bold" font-size="14.00" fill="#000000">Legend</text>
<polygon fill="#ffffb3" stroke="transparent" points="757,-10 757,-30 777,-30 777,-10 757,-10"/>
<text text-anchor="start" x="780.629" y="-15.4" font-family="sans-serif" font-size="14.00" fill="#000000"> &#160;Declarations</text>
<polygon fill="#8dd3c7" stroke="transparent" points="870,-10 870,-30 890,-30 890,-10 870,-10"/>
<text text-anchor="start" x="893.7251" y="-15.4" font-family="sans-serif" font-size="14.00" fill="#000000"> &#160;Module</text>
<polygon fill="#80b1d3" stroke="transparent" points="956,-10 956,-30 976,-30 976,-10 956,-10"/>
<text text-anchor="start" x="979.7812" y="-15.4" font-family="sans-serif" font-size="14.00" fill="#000000"> &#160;Bootstrap</text>
<polygon fill="#fdb462" stroke="transparent" points="1053,-10 1053,-30 1073,-30 1073,-10 1053,-10"/>
<text text-anchor="start" x="1076.6732" y="-15.4" font-family="sans-serif" font-size="14.00" fill="#000000"> &#160;Providers</text>
<polygon fill="#fb8072" stroke="transparent" points="1149,-10 1149,-30 1169,-30 1169,-10 1149,-10"/>
<text text-anchor="start" x="1172.7258" y="-15.4" font-family="sans-serif" font-size="14.00" fill="#000000"> &#160;Exports</text>
<g id="clust1" class="cluster">
<title>cluster_TemplatesModule</title>
<polygon fill="none" stroke="#000000" stroke-dasharray="1,5" points="8,-70 8,-195 1974,-195 1974,-70 8,-70"/>
</g>
<g id="clust2" class="cluster">
<title>cluster_TemplatesModule_declarations</title>
<polygon fill="none" stroke="#000000" points="865,-78 865,-130 1966,-130 1966,-78 865,-78"/>
</g>
<g id="clust9" class="cluster">
<title>cluster_TemplatesModule_imports</title>
<polygon fill="none" stroke="#000000" points="16,-78 16,-130 857,-130 857,-78 16,-78"/>
</g>
<!-- TemplatesComponent -->
<g id="node1" class="node">
<title>TemplatesComponent</title>
<polygon fill="#ffffb3" stroke="#000000" points="1957.6456,-122 1818.3544,-122 1818.3544,-86 1957.6456,-86 1957.6456,-122"/>
<text text-anchor="middle" x="1888" y="-99.8" font-family="Times,serif" font-size="14.00" fill="#000000">TemplatesComponent</text>
</g>
<!-- TemplatesModule -->
<g id="node7" class="node">
<title>TemplatesModule</title>
<polygon fill="#8dd3c7" stroke="#000000" points="1012.8627,-187 1009.8627,-191 988.8627,-191 985.8627,-187 895.1373,-187 895.1373,-151 1012.8627,-151 1012.8627,-187"/>
<text text-anchor="middle" x="954" y="-164.8" font-family="Times,serif" font-size="14.00" fill="#000000">TemplatesModule</text>
</g>
<!-- TemplatesComponent&#45;&gt;TemplatesModule -->
<g id="edge1" class="edge">
<title>TemplatesComponent&#45;&gt;TemplatesModule</title>
<path fill="none" stroke="#000000" d="M1888,-122.0908C1888,-145.1328 1888,-182 1888,-182 1888,-182 1023.1345,-182 1023.1345,-182"/>
<polygon fill="#000000" stroke="#000000" points="1023.1345,-178.5001 1013.1345,-182 1023.1344,-185.5001 1023.1345,-178.5001"/>
</g>
<!-- TemplatesCreateComponent -->
<g id="node2" class="node">
<title>TemplatesCreateComponent</title>
<polygon fill="#ffffb3" stroke="#000000" points="1800.1769,-122 1623.8231,-122 1623.8231,-86 1800.1769,-86 1800.1769,-122"/>
<text text-anchor="middle" x="1712" y="-99.8" font-family="Times,serif" font-size="14.00" fill="#000000">TemplatesCreateComponent</text>
</g>
<!-- TemplatesCreateComponent&#45;&gt;TemplatesModule -->
<g id="edge2" class="edge">
<title>TemplatesCreateComponent&#45;&gt;TemplatesModule</title>
<path fill="none" stroke="#000000" d="M1712,-122.2843C1712,-143.3211 1712,-175 1712,-175 1712,-175 1023.1633,-175 1023.1633,-175"/>
<polygon fill="#000000" stroke="#000000" points="1023.1633,-171.5001 1013.1633,-175 1023.1632,-178.5001 1023.1633,-171.5001"/>
</g>
<!-- TemplatesDeleteComponent -->
<g id="node3" class="node">
<title>TemplatesDeleteComponent</title>
<polygon fill="#ffffb3" stroke="#000000" points="1606.1769,-122 1429.8231,-122 1429.8231,-86 1606.1769,-86 1606.1769,-122"/>
<text text-anchor="middle" x="1518" y="-99.8" font-family="Times,serif" font-size="14.00" fill="#000000">TemplatesDeleteComponent</text>
</g>
<!-- TemplatesDeleteComponent&#45;&gt;TemplatesModule -->
<g id="edge3" class="edge">
<title>TemplatesDeleteComponent&#45;&gt;TemplatesModule</title>
<path fill="none" stroke="#000000" d="M1518,-122.1061C1518,-141.3391 1518,-169 1518,-169 1518,-169 1023.0266,-169 1023.0266,-169"/>
<polygon fill="#000000" stroke="#000000" points="1023.0266,-165.5001 1013.0266,-169 1023.0266,-172.5001 1023.0266,-165.5001"/>
</g>
<!-- TemplatesEditComponent -->
<g id="node4" class="node">
<title>TemplatesEditComponent</title>
<polygon fill="#ffffb3" stroke="#000000" points="1411.479,-122 1248.521,-122 1248.521,-86 1411.479,-86 1411.479,-122"/>
<text text-anchor="middle" x="1330" y="-99.8" font-family="Times,serif" font-size="14.00" fill="#000000">TemplatesEditComponent</text>
</g>
<!-- TemplatesEditComponent&#45;&gt;TemplatesModule -->
<g id="edge4" class="edge">
<title>TemplatesEditComponent&#45;&gt;TemplatesModule</title>
<path fill="none" stroke="#000000" d="M1330,-122.0225C1330,-139.3734 1330,-163 1330,-163 1330,-163 1023.1636,-163 1023.1636,-163"/>
<polygon fill="#000000" stroke="#000000" points="1023.1637,-159.5001 1013.1636,-163 1023.1636,-166.5001 1023.1637,-159.5001"/>
</g>
<!-- TemplatesImportComponent -->
<g id="node5" class="node">
<title>TemplatesImportComponent</title>
<polygon fill="#ffffb3" stroke="#000000" points="1230.7478,-122 1053.2522,-122 1053.2522,-86 1230.7478,-86 1230.7478,-122"/>
<text text-anchor="middle" x="1142" y="-99.8" font-family="Times,serif" font-size="14.00" fill="#000000">TemplatesImportComponent</text>
</g>
<!-- TemplatesImportComponent&#45;&gt;TemplatesModule -->
<g id="edge5" class="edge">
<title>TemplatesImportComponent&#45;&gt;TemplatesModule</title>
<path fill="none" stroke="#000000" d="M1142,-122.2396C1142,-137.5706 1142,-157 1142,-157 1142,-157 1022.9686,-157 1022.9686,-157"/>
<polygon fill="#000000" stroke="#000000" points="1022.9686,-153.5001 1012.9686,-157 1022.9685,-160.5001 1022.9686,-153.5001"/>
</g>
<!-- TemplatesListComponent -->
<g id="node6" class="node">
<title>TemplatesListComponent</title>
<polygon fill="#ffffb3" stroke="#000000" points="1034.9242,-122 873.0758,-122 873.0758,-86 1034.9242,-86 1034.9242,-122"/>
<text text-anchor="middle" x="954" y="-99.8" font-family="Times,serif" font-size="14.00" fill="#000000">TemplatesListComponent</text>
</g>
<!-- TemplatesListComponent&#45;&gt;TemplatesModule -->
<g id="edge6" class="edge">
<title>TemplatesListComponent&#45;&gt;TemplatesModule</title>
<path fill="none" stroke="#000000" d="M954,-122.1061C954,-122.1061 954,-140.991 954,-140.991"/>
<polygon fill="#000000" stroke="#000000" points="950.5001,-140.9909 954,-150.991 957.5001,-140.991 950.5001,-140.9909"/>
</g>
<!-- DynamicFormModule -->
<g id="node8" class="node">
<title>DynamicFormModule</title>
<polygon fill="#8dd3c7" stroke="#000000" points="848.7007,-122 845.7007,-126 824.7007,-126 821.7007,-122 707.2993,-122 707.2993,-86 848.7007,-86 848.7007,-122"/>
<text text-anchor="middle" x="778" y="-99.8" font-family="Times,serif" font-size="14.00" fill="#000000">DynamicFormModule</text>
</g>
<!-- DynamicFormModule&#45;&gt;TemplatesModule -->
<g id="edge7" class="edge">
<title>DynamicFormModule&#45;&gt;TemplatesModule</title>
<path fill="none" stroke="#000000" d="M778,-122.2396C778,-137.5706 778,-157 778,-157 778,-157 884.9049,-157 884.9049,-157"/>
<polygon fill="#000000" stroke="#000000" points="884.905,-160.5001 894.9049,-157 884.9049,-153.5001 884.905,-160.5001"/>
</g>
<!-- PageHeaderModule -->
<g id="node9" class="node">
<title>PageHeaderModule</title>
<polygon fill="#8dd3c7" stroke="#000000" points="689.6727,-122 686.6727,-126 665.6727,-126 662.6727,-122 562.3273,-122 562.3273,-86 689.6727,-86 689.6727,-122"/>
<text text-anchor="middle" x="626" y="-99.8" font-family="Times,serif" font-size="14.00" fill="#000000">PageHeaderModule</text>
</g>
<!-- PageHeaderModule&#45;&gt;TemplatesModule -->
<g id="edge8" class="edge">
<title>PageHeaderModule&#45;&gt;TemplatesModule</title>
<path fill="none" stroke="#000000" d="M626,-122.0225C626,-139.3734 626,-163 626,-163 626,-163 884.9814,-163 884.9814,-163"/>
<polygon fill="#000000" stroke="#000000" points="884.9814,-166.5001 894.9814,-163 884.9813,-159.5001 884.9814,-166.5001"/>
</g>
<!-- SharingFormBuilderModule -->
<g id="node10" class="node">
<title>SharingFormBuilderModule</title>
<polygon fill="#8dd3c7" stroke="#000000" points="544.9255,-122 541.9255,-126 520.9255,-126 517.9255,-122 369.0745,-122 369.0745,-86 544.9255,-86 544.9255,-122"/>
<text text-anchor="middle" x="457" y="-99.8" font-family="Times,serif" font-size="14.00" fill="#000000">SharingFormBuilderModule</text>
</g>
<!-- SharingFormBuilderModule&#45;&gt;TemplatesModule -->
<g id="edge9" class="edge">
<title>SharingFormBuilderModule&#45;&gt;TemplatesModule</title>
<path fill="none" stroke="#000000" d="M457,-122.1061C457,-141.3391 457,-169 457,-169 457,-169 885.0359,-169 885.0359,-169"/>
<polygon fill="#000000" stroke="#000000" points="885.0359,-172.5001 895.0359,-169 885.0359,-165.5001 885.0359,-172.5001"/>
</g>
<!-- SharingModuleModule -->
<g id="node11" class="node">
<title>SharingModuleModule</title>
<polygon fill="#8dd3c7" stroke="#000000" points="351.1484,-122 348.1484,-126 327.1484,-126 324.1484,-122 204.8516,-122 204.8516,-86 351.1484,-86 351.1484,-122"/>
<text text-anchor="middle" x="278" y="-99.8" font-family="Times,serif" font-size="14.00" fill="#000000">SharingModuleModule</text>
</g>
<!-- SharingModuleModule&#45;&gt;TemplatesModule -->
<g id="edge10" class="edge">
<title>SharingModuleModule&#45;&gt;TemplatesModule</title>
<path fill="none" stroke="#000000" d="M278,-122.2843C278,-143.3211 278,-175 278,-175 278,-175 884.8973,-175 884.8973,-175"/>
<polygon fill="#000000" stroke="#000000" points="884.8973,-178.5001 894.8973,-175 884.8973,-171.5001 884.8973,-178.5001"/>
</g>
<!-- TemplatesRoutingModule -->
<g id="node12" class="node">
<title>TemplatesRoutingModule</title>
<polygon fill="#8dd3c7" stroke="#000000" points="186.4804,-122 183.4804,-126 162.4804,-126 159.4804,-122 23.5196,-122 23.5196,-86 186.4804,-86 186.4804,-122"/>
<text text-anchor="middle" x="105" y="-99.8" font-family="Times,serif" font-size="14.00" fill="#000000">TemplatesRoutingModule</text>
</g>
<!-- TemplatesRoutingModule&#45;&gt;TemplatesModule -->
<g id="edge11" class="edge">
<title>TemplatesRoutingModule&#45;&gt;TemplatesModule</title>
<path fill="none" stroke="#000000" d="M105,-122.0908C105,-145.1328 105,-182 105,-182 105,-182 884.974,-182 884.974,-182"/>
<polygon fill="#000000" stroke="#000000" points="884.9741,-185.5001 894.974,-182 884.974,-178.5001 884.9741,-185.5001"/>
</g>
</g>
</svg>
