<?xml version="1.0" encoding="UTF-8" standalone="no"?>
<!DOCTYPE svg PUBLIC "-//W3C//DTD SVG 1.1//EN"
 "http://www.w3.org/Graphics/SVG/1.1/DTD/svg11.dtd">
<!-- Generated by graphviz version 2.40.1 (20161225.0304)
 -->
<!-- Title: dependencies Pages: 1 -->
<svg width="2354pt" height="211pt"
 viewBox="0.00 0.00 2354.00 211.00" xmlns="http://www.w3.org/2000/svg" xmlns:xlink="http://www.w3.org/1999/xlink">
<g id="graph0" class="graph" transform="scale(1 1) rotate(0) translate(4 207)">
<title>dependencies</title>
<polygon fill="#ffffff" stroke="transparent" points="-4,4 -4,-207 2350,-207 2350,4 -4,4"/>
<text text-anchor="start" x="1152.0091" y="-42.4" font-family="sans-serif" font-weight="bold" font-size="14.00" fill="#000000">Legend</text>
<polygon fill="#ffffb3" stroke="transparent" points="939,-10 939,-30 959,-30 959,-10 939,-10"/>
<text text-anchor="start" x="962.629" y="-15.4" font-family="sans-serif" font-size="14.00" fill="#000000"> &#160;Declarations</text>
<polygon fill="#8dd3c7" stroke="transparent" points="1052,-10 1052,-30 1072,-30 1072,-10 1052,-10"/>
<text text-anchor="start" x="1075.7251" y="-15.4" font-family="sans-serif" font-size="14.00" fill="#000000"> &#160;Module</text>
<polygon fill="#80b1d3" stroke="transparent" points="1138,-10 1138,-30 1158,-30 1158,-10 1138,-10"/>
<text text-anchor="start" x="1161.7812" y="-15.4" font-family="sans-serif" font-size="14.00" fill="#000000"> &#160;Bootstrap</text>
<polygon fill="#fdb462" stroke="transparent" points="1235,-10 1235,-30 1255,-30 1255,-10 1235,-10"/>
<text text-anchor="start" x="1258.6732" y="-15.4" font-family="sans-serif" font-size="14.00" fill="#000000"> &#160;Providers</text>
<polygon fill="#fb8072" stroke="transparent" points="1331,-10 1331,-30 1351,-30 1351,-10 1331,-10"/>
<text text-anchor="start" x="1354.7258" y="-15.4" font-family="sans-serif" font-size="14.00" fill="#000000"> &#160;Exports</text>
<g id="clust1" class="cluster">
<title>cluster_SettingsModule</title>
<polygon fill="none" stroke="#000000" stroke-dasharray="1,5" points="8,-70 8,-195 2338,-195 2338,-70 8,-70"/>
</g>
<g id="clust2" class="cluster">
<title>cluster_SettingsModule_declarations</title>
<polygon fill="none" stroke="#000000" points="499,-78 499,-130 2330,-130 2330,-78 499,-78"/>
</g>
<g id="clust13" class="cluster">
<title>cluster_SettingsModule_imports</title>
<polygon fill="none" stroke="#000000" points="16,-78 16,-130 491,-130 491,-78 16,-78"/>
</g>
<!-- ConfigurationsComponent -->
<g id="node1" class="node">
<title>ConfigurationsComponent</title>
<polygon fill="#ffffb3" stroke="#000000" points="2321.8215,-122 2156.1785,-122 2156.1785,-86 2321.8215,-86 2321.8215,-122"/>
<text text-anchor="middle" x="2239" y="-99.8" font-family="Times,serif" font-size="14.00" fill="#000000">ConfigurationsComponent</text>
</g>
<!-- SettingsModule -->
<g id="node11" class="node">
<title>SettingsModule</title>
<polygon fill="#8dd3c7" stroke="#000000" points="1075.1639,-187 1072.1639,-191 1051.1639,-191 1048.1639,-187 970.8361,-187 970.8361,-151 1075.1639,-151 1075.1639,-187"/>
<text text-anchor="middle" x="1023" y="-164.8" font-family="Times,serif" font-size="14.00" fill="#000000">SettingsModule</text>
</g>
<!-- ConfigurationsComponent&#45;&gt;SettingsModule -->
<g id="edge1" class="edge">
<title>ConfigurationsComponent&#45;&gt;SettingsModule</title>
<path fill="none" stroke="#000000" d="M2239,-122.0908C2239,-145.1328 2239,-182 2239,-182 2239,-182 1085.25,-182 1085.25,-182"/>
<polygon fill="#000000" stroke="#000000" points="1085.25,-178.5001 1075.25,-182 1085.25,-185.5001 1085.25,-178.5001"/>
</g>
<!-- DropdownTableComponent -->
<g id="node2" class="node">
<title>DropdownTableComponent</title>
<polygon fill="#ffffb3" stroke="#000000" points="2138.5786,-122 1965.4214,-122 1965.4214,-86 2138.5786,-86 2138.5786,-122"/>
<text text-anchor="middle" x="2052" y="-99.8" font-family="Times,serif" font-size="14.00" fill="#000000">DropdownTableComponent</text>
</g>
<!-- DropdownTableComponent&#45;&gt;SettingsModule -->
<g id="edge2" class="edge">
<title>DropdownTableComponent&#45;&gt;SettingsModule</title>
<path fill="none" stroke="#000000" d="M2052,-122.0449C2052,-143.6623 2052,-177 2052,-177 2052,-177 1085.4429,-177 1085.4429,-177"/>
<polygon fill="#000000" stroke="#000000" points="1085.443,-173.5001 1075.4429,-177 1085.4429,-180.5001 1085.443,-173.5001"/>
</g>
<!-- DynamicDropdownComponent -->
<g id="node3" class="node">
<title>DynamicDropdownComponent</title>
<polygon fill="#ffffb3" stroke="#000000" points="1947.0238,-122 1754.9762,-122 1754.9762,-86 1947.0238,-86 1947.0238,-122"/>
<text text-anchor="middle" x="1851" y="-99.8" font-family="Times,serif" font-size="14.00" fill="#000000">DynamicDropdownComponent</text>
</g>
<!-- DynamicDropdownComponent&#45;&gt;SettingsModule -->
<g id="edge3" class="edge">
<title>DynamicDropdownComponent&#45;&gt;SettingsModule</title>
<path fill="none" stroke="#000000" d="M1851,-122.2228C1851,-142.3652 1851,-172 1851,-172 1851,-172 1085.4233,-172 1085.4233,-172"/>
<polygon fill="#000000" stroke="#000000" points="1085.4233,-168.5001 1075.4233,-172 1085.4232,-175.5001 1085.4233,-168.5001"/>
</g>
<!-- DynamicDropdownCreateComponent -->
<g id="node4" class="node">
<title>DynamicDropdownCreateComponent</title>
<polygon fill="#ffffb3" stroke="#000000" points="1736.5548,-122 1507.4452,-122 1507.4452,-86 1736.5548,-86 1736.5548,-122"/>
<text text-anchor="middle" x="1622" y="-99.8" font-family="Times,serif" font-size="14.00" fill="#000000">DynamicDropdownCreateComponent</text>
</g>
<!-- DynamicDropdownCreateComponent&#45;&gt;SettingsModule -->
<g id="edge4" class="edge">
<title>DynamicDropdownCreateComponent&#45;&gt;SettingsModule</title>
<path fill="none" stroke="#000000" d="M1622,-122.2222C1622,-140.8285 1622,-167 1622,-167 1622,-167 1085.3706,-167 1085.3706,-167"/>
<polygon fill="#000000" stroke="#000000" points="1085.3706,-163.5001 1075.3706,-167 1085.3706,-170.5001 1085.3706,-163.5001"/>
</g>
<!-- DynamicDropdownEditComponent -->
<g id="node5" class="node">
<title>DynamicDropdownEditComponent</title>
<polygon fill="#ffffb3" stroke="#000000" points="1489.857,-122 1274.143,-122 1274.143,-86 1489.857,-86 1489.857,-122"/>
<text text-anchor="middle" x="1382" y="-99.8" font-family="Times,serif" font-size="14.00" fill="#000000">DynamicDropdownEditComponent</text>
</g>
<!-- DynamicDropdownEditComponent&#45;&gt;SettingsModule -->
<g id="edge5" class="edge">
<title>DynamicDropdownEditComponent&#45;&gt;SettingsModule</title>
<path fill="none" stroke="#000000" d="M1382,-122.0336C1382,-139.0597 1382,-162 1382,-162 1382,-162 1085.2017,-162 1085.2017,-162"/>
<polygon fill="#000000" stroke="#000000" points="1085.2017,-158.5001 1075.2017,-162 1085.2016,-165.5001 1085.2017,-158.5001"/>
</g>
<!-- MapConfigComponent -->
<g id="node6" class="node">
<title>MapConfigComponent</title>
<polygon fill="#ffffb3" stroke="#000000" points="1255.8794,-122 1110.1206,-122 1110.1206,-86 1255.8794,-86 1255.8794,-122"/>
<text text-anchor="middle" x="1183" y="-99.8" font-family="Times,serif" font-size="14.00" fill="#000000">MapConfigComponent</text>
</g>
<!-- MapConfigComponent&#45;&gt;SettingsModule -->
<g id="edge6" class="edge">
<title>MapConfigComponent&#45;&gt;SettingsModule</title>
<path fill="none" stroke="#000000" d="M1183,-122.2396C1183,-137.5706 1183,-157 1183,-157 1183,-157 1085.39,-157 1085.39,-157"/>
<polygon fill="#000000" stroke="#000000" points="1085.39,-153.5001 1075.39,-157 1085.3899,-160.5001 1085.39,-153.5001"/>
</g>
<!-- PrivilegesComponent -->
<g id="node7" class="node">
<title>PrivilegesComponent</title>
<polygon fill="#ffffb3" stroke="#000000" points="1091.8216,-122 954.1784,-122 954.1784,-86 1091.8216,-86 1091.8216,-122"/>
<text text-anchor="middle" x="1023" y="-99.8" font-family="Times,serif" font-size="14.00" fill="#000000">PrivilegesComponent</text>
</g>
<!-- PrivilegesComponent&#45;&gt;SettingsModule -->
<g id="edge7" class="edge">
<title>PrivilegesComponent&#45;&gt;SettingsModule</title>
<path fill="none" stroke="#000000" d="M1023,-122.1061C1023,-122.1061 1023,-140.991 1023,-140.991"/>
<polygon fill="#000000" stroke="#000000" points="1019.5001,-140.9909 1023,-150.991 1026.5001,-140.991 1019.5001,-140.9909"/>
</g>
<!-- ProfileComponent -->
<g id="node8" class="node">
<title>ProfileComponent</title>
<polygon fill="#ffffb3" stroke="#000000" points="936.9328,-122 817.0672,-122 817.0672,-86 936.9328,-86 936.9328,-122"/>
<text text-anchor="middle" x="877" y="-99.8" font-family="Times,serif" font-size="14.00" fill="#000000">ProfileComponent</text>
</g>
<!-- ProfileComponent&#45;&gt;SettingsModule -->
<g id="edge8" class="edge">
<title>ProfileComponent&#45;&gt;SettingsModule</title>
<path fill="none" stroke="#000000" d="M877,-122.2396C877,-137.5706 877,-157 877,-157 877,-157 960.703,-157 960.703,-157"/>
<polygon fill="#000000" stroke="#000000" points="960.7031,-160.5001 970.703,-157 960.703,-153.5001 960.7031,-160.5001"/>
</g>
<!-- SettingsComponent -->
<g id="node9" class="node">
<title>SettingsComponent</title>
<polygon fill="#ffffb3" stroke="#000000" points="799.4468,-122 672.5532,-122 672.5532,-86 799.4468,-86 799.4468,-122"/>
<text text-anchor="middle" x="736" y="-99.8" font-family="Times,serif" font-size="14.00" fill="#000000">SettingsComponent</text>
</g>
<!-- SettingsComponent&#45;&gt;SettingsModule -->
<g id="edge9" class="edge">
<title>SettingsComponent&#45;&gt;SettingsModule</title>
<path fill="none" stroke="#000000" d="M736,-122.0336C736,-139.0597 736,-162 736,-162 736,-162 960.6935,-162 960.6935,-162"/>
<polygon fill="#000000" stroke="#000000" points="960.6935,-165.5001 970.6935,-162 960.6935,-158.5001 960.6935,-165.5001"/>
</g>
<!-- SettingsListComponent -->
<g id="node10" class="node">
<title>SettingsListComponent</title>
<polygon fill="#ffffb3" stroke="#000000" points="655.2246,-122 506.7754,-122 506.7754,-86 655.2246,-86 655.2246,-122"/>
<text text-anchor="middle" x="581" y="-99.8" font-family="Times,serif" font-size="14.00" fill="#000000">SettingsListComponent</text>
</g>
<!-- SettingsListComponent&#45;&gt;SettingsModule -->
<g id="edge10" class="edge">
<title>SettingsListComponent&#45;&gt;SettingsModule</title>
<path fill="none" stroke="#000000" d="M581,-122.2222C581,-140.8285 581,-167 581,-167 581,-167 960.5611,-167 960.5611,-167"/>
<polygon fill="#000000" stroke="#000000" points="960.5611,-170.5001 970.5611,-167 960.5611,-163.5001 960.5611,-170.5001"/>
</g>
<!-- PageHeaderModule -->
<g id="node12" class="node">
<title>PageHeaderModule</title>
<polygon fill="#8dd3c7" stroke="#000000" points="482.6727,-122 479.6727,-126 458.6727,-126 455.6727,-122 355.3273,-122 355.3273,-86 482.6727,-86 482.6727,-122"/>
<text text-anchor="middle" x="419" y="-99.8" font-family="Times,serif" font-size="14.00" fill="#000000">PageHeaderModule</text>
</g>
<!-- PageHeaderModule&#45;&gt;SettingsModule -->
<g id="edge11" class="edge">
<title>PageHeaderModule&#45;&gt;SettingsModule</title>
<path fill="none" stroke="#000000" d="M419,-122.2228C419,-142.3652 419,-172 419,-172 419,-172 960.7183,-172 960.7183,-172"/>
<polygon fill="#000000" stroke="#000000" points="960.7184,-175.5001 970.7183,-172 960.7183,-168.5001 960.7184,-175.5001"/>
</g>
<!-- SettingsRoutingModule -->
<g id="node13" class="node">
<title>SettingsRoutingModule</title>
<polygon fill="#8dd3c7" stroke="#000000" points="337.7814,-122 334.7814,-126 313.7814,-126 310.7814,-122 188.2186,-122 188.2186,-86 337.7814,-86 337.7814,-122"/>
<text text-anchor="middle" x="263" y="-99.8" font-family="Times,serif" font-size="14.00" fill="#000000">SettingsRoutingModule</text>
</g>
<!-- SettingsRoutingModule&#45;&gt;SettingsModule -->
<g id="edge12" class="edge">
<title>SettingsRoutingModule&#45;&gt;SettingsModule</title>
<path fill="none" stroke="#000000" d="M263,-122.0449C263,-143.6623 263,-177 263,-177 263,-177 960.7621,-177 960.7621,-177"/>
<polygon fill="#000000" stroke="#000000" points="960.7622,-180.5001 970.7621,-177 960.7621,-173.5001 960.7622,-180.5001"/>
</g>
<!-- SharingModuleModule -->
<g id="node14" class="node">
<title>SharingModuleModule</title>
<polygon fill="#8dd3c7" stroke="#000000" points="170.1484,-122 167.1484,-126 146.1484,-126 143.1484,-122 23.8516,-122 23.8516,-86 170.1484,-86 170.1484,-122"/>
<text text-anchor="middle" x="97" y="-99.8" font-family="Times,serif" font-size="14.00" fill="#000000">SharingModuleModule</text>
</g>
<!-- SharingModuleModule&#45;&gt;SettingsModule -->
<g id="edge13" class="edge">
<title>SharingModuleModule&#45;&gt;SettingsModule</title>
<path fill="none" stroke="#000000" d="M97,-122.0908C97,-145.1328 97,-182 97,-182 97,-182 960.561,-182 960.561,-182"/>
<polygon fill="#000000" stroke="#000000" points="960.5611,-185.5001 970.561,-182 960.561,-178.5001 960.5611,-185.5001"/>
</g>
</g>
</svg>
