<?xml version="1.0" encoding="utf-8"?>
<!-- Generator: Adobe Illustrator 24.0.1, SVG Export Plug-In . SVG Version: 6.00 Build 0)  -->
<svg version="1.1" id="Layer_1" xmlns="http://www.w3.org/2000/svg" xmlns:xlink="http://www.w3.org/1999/xlink" x="0px" y="0px"
	 viewBox="0 0 150 150" style="enable-background:new 0 0 150 150;" xml:space="preserve">
<style type="text/css">
	.st0{fill:none;stroke:#898585;stroke-width:5;stroke-linecap:round;stroke-miterlimit:10;}
	.st1{fill:none;stroke:#898585;stroke-width:5;stroke-miterlimit:10;}
	.st2{fill:#898585;}
</style>
<g>
	<path class="st0" d="M70.93,133.55H34.11c-6.69,0-12.11-5.42-12.11-12.11V23.51c0-6.69,5.42-12.11,12.11-12.11H95.7
		c6.69,0,12.11,5.42,12.11,12.11v50.14"/>
	<circle class="st1" cx="101.25" cy="111.85" r="26.75"/>
	<path class="st2" d="M89.83,40.17H42c-1.85,0-3.34-1.5-3.34-3.34v-2.4c0-1.85,1.5-3.34,3.34-3.34h47.83c1.85,0,3.34,1.5,3.34,3.34
		v2.4C93.17,38.67,91.67,40.17,89.83,40.17z"/>
	<path class="st2" d="M89.83,60.36H42c-1.85,0-3.34-1.5-3.34-3.34v-2.4c0-1.85,1.5-3.34,3.34-3.34h47.83c1.85,0,3.34,1.5,3.34,3.34
		v2.4C93.17,58.87,91.67,60.36,89.83,60.36z"/>
	<path class="st2" d="M89.83,80.55H42c-1.85,0-3.34-1.5-3.34-3.34v-2.4c0-1.85,1.5-3.34,3.34-3.34h47.83c1.85,0,3.34,1.5,3.34,3.34
		v2.4C93.17,79.06,91.67,80.55,89.83,80.55z"/>
	<path class="st2" d="M73.32,93.68c-1.82,2.77-3.22,5.82-4.14,9.09H43.2c-2.51,0-4.54-2.03-4.54-4.54c0-1.25,0.5-2.39,1.33-3.21
		c0.82-0.83,1.96-1.33,3.21-1.33H73.32z"/>
	<path class="st2" d="M111.39,103.87v-6.44H92.97v6.44c0,3.31,1.75,6.2,4.37,7.83c-2.62,1.62-4.37,4.51-4.37,7.83v6.44h18.41v-6.44
		c0-3.31-1.75-6.2-4.37-7.83C109.63,110.07,111.38,107.18,111.39,103.87z M106.02,115.46c0.99,0.99,1.59,2.34,1.59,3.84v3.11H96.74
		v-3.11c0-1.5,0.61-2.86,1.59-3.84c0.99-0.99,2.34-1.59,3.84-1.59C103.68,113.87,105.04,114.47,106.02,115.46z M107.62,104.08
		c0,1.5-0.61,2.86-1.59,3.84c-0.99,0.99-2.34,1.59-3.84,1.59c-1.5,0-2.86-0.61-3.84-1.59c-0.99-0.99-1.59-2.34-1.59-3.84v-3.11
		h10.87V104.08z"/>
</g>
</svg>
