<?xml version="1.0" encoding="utf-8"?>
<!-- Generator: Adobe Illustrator 22.1.0, SVG Export Plug-In . SVG Version: 6.00 Build 0)  -->
<svg version="1.1" id="Layer_1" xmlns="http://www.w3.org/2000/svg" xmlns:xlink="http://www.w3.org/1999/xlink" x="0px" y="0px"
	 viewBox="0 0 150 150" style="enable-background:new 0 0 150 150;" xml:space="preserve">
<style type="text/css">
	.st0{fill:#444444;}
</style>
<path id="P1_Inprogress_mobile" class="st0" d="M104.3,67.8V24.7H29.5l0.2,100.6l74.6,0.9v-5.8c1.5,0.8,3.2,1.2,4.8,1.3
	c1.5-0.1,3-0.5,4.4-1.1v10.2c-0.9,2.3-3.1,3.7-5.5,3.7H24.2c-2.2-0.4-3.8-2.4-3.7-4.6V21c0,0,0.2-4.4,3.7-5.5h85.6
	c0,0,3.7,1.7,3.7,4.6v46.3c-1.6-0.2-3.2-0.2-4.8,0C107.1,66.7,105.7,67.2,104.3,67.8z M41.8,48c0-2.6,2-4.7,4.6-4.8h41.1
	c2.6,0.1,4.7,2.3,4.6,5c-0.1,2.5-2.1,4.5-4.6,4.6H46.4C43.8,52.7,41.8,50.6,41.8,48z M41.8,73.4c0-2.6,2-4.7,4.6-4.8h41.1
	c2.6,0.1,4.7,2.3,4.6,5c-0.1,2.5-2.1,4.5-4.6,4.6H46.4C43.8,78.1,41.8,76,41.8,73.4z M78.1,100.4c0,2.6-2,4.7-4.6,4.8H46.4
	c-2.6-0.1-4.7-2.3-4.6-5c0.1-2.5,2.1-4.5,4.6-4.6h27.1C76.1,95.7,78.1,97.8,78.1,100.4 M108.1,86.6c0,0.3-0.2,0.6-0.5,0.6l0,0
	l-10.4,1l-1.4-11c0-0.2,0.1-0.4,0.3-0.5c0.2-0.1,0.4-0.1,0.6,0.1l3.4,2.9l0.2,0.2c5.6-3.8,12.7-4.3,18.8-1.4
	c9.3,4.6,13,15.8,8.5,25.1c0,0.1-0.1,0.1-0.1,0.2c-4.6,9.4-15.9,13.3-25.4,8.9c-7-3.5-11.2-11-10.3-18.8c0.2-1.5,1.5-2.6,3-2.5
	s2.6,1.4,2.4,2.9c0,0,0,0,0,0.1c-0.6,5.5,2.3,10.9,7.3,13.3c6.7,3.2,14.7,0.4,18-6.3c3.4-6.5,0.8-14.5-5.7-17.8c-3.8-2-8.4-2-12.2,0
	l3.1,2.6C107.9,86.3,108.1,86.4,108.1,86.6L108.1,86.6z"/>
</svg>
