<?xml version="1.0" encoding="utf-8"?>
<!-- Generator: Adobe Illustrator 24.0.1, SVG Export Plug-In . SVG Version: 6.00 Build 0)  -->
<svg version="1.1" id="Layer_1" xmlns="http://www.w3.org/2000/svg" xmlns:xlink="http://www.w3.org/1999/xlink" x="0px" y="0px"
	 viewBox="0 0 150 150" style="enable-background:new 0 0 150 150;" xml:space="preserve">
<style type="text/css">
	.st0{fill:none;stroke:#898585;stroke-width:5;stroke-linecap:round;stroke-miterlimit:10;}
	.st1{fill:none;stroke:#898585;stroke-width:5;stroke-miterlimit:10;}
	.st2{fill:#898585;}
</style>
<g>
	<path class="st0" d="M70.94,133.46H34.18c-6.68,0-12.1-5.41-12.1-12.1V23.6c0-6.68,5.41-12.1,12.1-12.1h61.48
		c6.68,0,12.1,5.41,12.1,12.1v50.06"/>
	<circle class="st1" cx="101.21" cy="111.79" r="26.71"/>
	<g>
		<g>
			<path class="st2" d="M89.91,114.04l4.57,4.57c1.07,1.07,2.5,1.62,3.9,1.61c1.47,0,2.96-0.6,4.04-1.76l-2.02-1.87l1.93,1.96
				l10.15-10c1.08-1.07,1.09-2.81,0.03-3.89c-1.07-1.08-2.81-1.09-3.89-0.03l-10.19,10.04l-0.04,0.05l0,0l0,0.01l0-0.01l0,0l0,0.01
				l0-0.01l-0.01,0l-0.01,0l0,0.01l0.01-0.01l0,0l0,0.01l0.01-0.01l0,0l-4.57-4.57c-1.07-1.07-2.81-1.07-3.89,0
				C88.84,111.23,88.84,112.97,89.91,114.04L89.91,114.04z"/>
		</g>
	</g>
	<path class="st2" d="M89.8,40.23H42.06c-1.85,0-3.34-1.5-3.34-3.34V34.5c0-1.85,1.5-3.34,3.34-3.34H89.8c1.85,0,3.34,1.5,3.34,3.34
		v2.39C93.14,38.73,91.65,40.23,89.8,40.23z"/>
	<path class="st2" d="M89.8,60.38H42.06c-1.85,0-3.34-1.5-3.34-3.34v-2.39c0-1.85,1.5-3.34,3.34-3.34H89.8
		c1.85,0,3.34,1.5,3.34,3.34v2.39C93.14,58.89,91.65,60.38,89.8,60.38z"/>
	<path class="st2" d="M89.8,80.54H42.06c-1.85,0-3.34-1.5-3.34-3.34v-2.39c0-1.85,1.5-3.34,3.34-3.34H89.8
		c1.85,0,3.34,1.5,3.34,3.34v2.39C93.14,79.05,91.65,80.54,89.8,80.54z"/>
	<path class="st2" d="M73.33,93.65c-1.81,2.76-3.22,5.82-4.13,9.07H43.25c-2.51,0-4.54-2.03-4.54-4.54c0-1.25,0.5-2.39,1.33-3.21
		c0.82-0.83,1.96-1.33,3.21-1.33H73.33z"/>
</g>
</svg>
