<?xml version="1.0" encoding="UTF-8" standalone="no"?>
<!DOCTYPE svg PUBLIC "-//W3C//DTD SVG 1.1//EN"
 "http://www.w3.org/Graphics/SVG/1.1/DTD/svg11.dtd">
<!-- Generated by graphviz version 2.40.1 (20161225.0304)
 -->
<!-- Title: dependencies Pages: 1 -->
<svg width="1478pt" height="211pt"
 viewBox="0.00 0.00 1478.00 211.00" xmlns="http://www.w3.org/2000/svg" xmlns:xlink="http://www.w3.org/1999/xlink">
<g id="graph0" class="graph" transform="scale(1 1) rotate(0) translate(4 207)">
<title>dependencies</title>
<polygon fill="#ffffff" stroke="transparent" points="-4,4 -4,-207 1474,-207 1474,4 -4,4"/>
<text text-anchor="start" x="714.0091" y="-42.4" font-family="sans-serif" font-weight="bold" font-size="14.00" fill="#000000">Legend</text>
<polygon fill="#ffffb3" stroke="transparent" points="501,-10 501,-30 521,-30 521,-10 501,-10"/>
<text text-anchor="start" x="524.629" y="-15.4" font-family="sans-serif" font-size="14.00" fill="#000000"> &#160;Declarations</text>
<polygon fill="#8dd3c7" stroke="transparent" points="614,-10 614,-30 634,-30 634,-10 614,-10"/>
<text text-anchor="start" x="637.7251" y="-15.4" font-family="sans-serif" font-size="14.00" fill="#000000"> &#160;Module</text>
<polygon fill="#80b1d3" stroke="transparent" points="700,-10 700,-30 720,-30 720,-10 700,-10"/>
<text text-anchor="start" x="723.7812" y="-15.4" font-family="sans-serif" font-size="14.00" fill="#000000"> &#160;Bootstrap</text>
<polygon fill="#fdb462" stroke="transparent" points="797,-10 797,-30 817,-30 817,-10 797,-10"/>
<text text-anchor="start" x="820.6732" y="-15.4" font-family="sans-serif" font-size="14.00" fill="#000000"> &#160;Providers</text>
<polygon fill="#fb8072" stroke="transparent" points="893,-10 893,-30 913,-30 913,-10 893,-10"/>
<text text-anchor="start" x="916.7258" y="-15.4" font-family="sans-serif" font-size="14.00" fill="#000000"> &#160;Exports</text>
<g id="clust1" class="cluster">
<title>cluster_UsersModule</title>
<polygon fill="none" stroke="#000000" stroke-dasharray="1,5" points="8,-70 8,-195 1462,-195 1462,-70 8,-70"/>
</g>
<g id="clust2" class="cluster">
<title>cluster_UsersModule_declarations</title>
<polygon fill="none" stroke="#000000" points="487,-78 487,-130 1454,-130 1454,-78 487,-78"/>
</g>
<g id="clust9" class="cluster">
<title>cluster_UsersModule_imports</title>
<polygon fill="none" stroke="#000000" points="16,-78 16,-130 479,-130 479,-78 16,-78"/>
</g>
<!-- UsersBulkimportComponent -->
<g id="node1" class="node">
<title>UsersBulkimportComponent</title>
<polygon fill="#ffffb3" stroke="#000000" points="1445.7632,-122 1268.2368,-122 1268.2368,-86 1445.7632,-86 1445.7632,-122"/>
<text text-anchor="middle" x="1357" y="-99.8" font-family="Times,serif" font-size="14.00" fill="#000000">UsersBulkimportComponent</text>
</g>
<!-- UsersModule -->
<g id="node7" class="node">
<title>UsersModule</title>
<polygon fill="#8dd3c7" stroke="#000000" points="761.9218,-187 758.9218,-191 737.9218,-191 734.9218,-187 670.0782,-187 670.0782,-151 761.9218,-151 761.9218,-187"/>
<text text-anchor="middle" x="716" y="-164.8" font-family="Times,serif" font-size="14.00" fill="#000000">UsersModule</text>
</g>
<!-- UsersBulkimportComponent&#45;&gt;UsersModule -->
<g id="edge1" class="edge">
<title>UsersBulkimportComponent&#45;&gt;UsersModule</title>
<path fill="none" stroke="#000000" d="M1357,-122.0109C1357,-144.4852 1357,-180 1357,-180 1357,-180 771.8419,-180 771.8419,-180"/>
<polygon fill="#000000" stroke="#000000" points="771.8419,-176.5001 761.8419,-180 771.8419,-183.5001 771.8419,-176.5001"/>
</g>
<!-- UsersComponent -->
<g id="node2" class="node">
<title>UsersComponent</title>
<polygon fill="#ffffb3" stroke="#000000" points="1250.7036,-122 1137.2964,-122 1137.2964,-86 1250.7036,-86 1250.7036,-122"/>
<text text-anchor="middle" x="1194" y="-99.8" font-family="Times,serif" font-size="14.00" fill="#000000">UsersComponent</text>
</g>
<!-- UsersComponent&#45;&gt;UsersModule -->
<g id="edge2" class="edge">
<title>UsersComponent&#45;&gt;UsersModule</title>
<path fill="none" stroke="#000000" d="M1194,-122.1289C1194,-142.5724 1194,-173 1194,-173 1194,-173 771.8326,-173 771.8326,-173"/>
<polygon fill="#000000" stroke="#000000" points="771.8327,-169.5001 761.8326,-173 771.8326,-176.5001 771.8327,-169.5001"/>
</g>
<!-- UsersCreateComponent -->
<g id="node3" class="node">
<title>UsersCreateComponent</title>
<polygon fill="#ffffb3" stroke="#000000" points="1119.7352,-122 970.2648,-122 970.2648,-86 1119.7352,-86 1119.7352,-122"/>
<text text-anchor="middle" x="1045" y="-99.8" font-family="Times,serif" font-size="14.00" fill="#000000">UsersCreateComponent</text>
</g>
<!-- UsersCreateComponent&#45;&gt;UsersModule -->
<g id="edge3" class="edge">
<title>UsersCreateComponent&#45;&gt;UsersModule</title>
<path fill="none" stroke="#000000" d="M1045,-122.2667C1045,-140.5552 1045,-166 1045,-166 1045,-166 771.746,-166 771.746,-166"/>
<polygon fill="#000000" stroke="#000000" points="771.7461,-162.5001 761.746,-166 771.746,-169.5001 771.7461,-162.5001"/>
</g>
<!-- UsersDeleteComponent -->
<g id="node4" class="node">
<title>UsersDeleteComponent</title>
<polygon fill="#ffffb3" stroke="#000000" points="951.7352,-122 802.2648,-122 802.2648,-86 951.7352,-86 951.7352,-122"/>
<text text-anchor="middle" x="877" y="-99.8" font-family="Times,serif" font-size="14.00" fill="#000000">UsersDeleteComponent</text>
</g>
<!-- UsersDeleteComponent&#45;&gt;UsersModule -->
<g id="edge4" class="edge">
<title>UsersDeleteComponent&#45;&gt;UsersModule</title>
<path fill="none" stroke="#000000" d="M877,-122.0091C877,-138.0494 877,-159 877,-159 877,-159 772.1361,-159 772.1361,-159"/>
<polygon fill="#000000" stroke="#000000" points="772.1362,-155.5001 762.1361,-159 772.1361,-162.5001 772.1362,-155.5001"/>
</g>
<!-- UsersEditComponent -->
<g id="node5" class="node">
<title>UsersEditComponent</title>
<polygon fill="#ffffb3" stroke="#000000" points="784.038,-122 647.962,-122 647.962,-86 784.038,-86 784.038,-122"/>
<text text-anchor="middle" x="716" y="-99.8" font-family="Times,serif" font-size="14.00" fill="#000000">UsersEditComponent</text>
</g>
<!-- UsersEditComponent&#45;&gt;UsersModule -->
<g id="edge5" class="edge">
<title>UsersEditComponent&#45;&gt;UsersModule</title>
<path fill="none" stroke="#000000" d="M716,-122.1061C716,-122.1061 716,-140.991 716,-140.991"/>
<polygon fill="#000000" stroke="#000000" points="712.5001,-140.9909 716,-150.991 719.5001,-140.991 712.5001,-140.9909"/>
</g>
<!-- UsersListComponent -->
<g id="node6" class="node">
<title>UsersListComponent</title>
<polygon fill="#ffffb3" stroke="#000000" points="629.4818,-122 494.5182,-122 494.5182,-86 629.4818,-86 629.4818,-122"/>
<text text-anchor="middle" x="562" y="-99.8" font-family="Times,serif" font-size="14.00" fill="#000000">UsersListComponent</text>
</g>
<!-- UsersListComponent&#45;&gt;UsersModule -->
<g id="edge6" class="edge">
<title>UsersListComponent&#45;&gt;UsersModule</title>
<path fill="none" stroke="#000000" d="M562,-122.0091C562,-138.0494 562,-159 562,-159 562,-159 660.2119,-159 660.2119,-159"/>
<polygon fill="#000000" stroke="#000000" points="660.2119,-162.5001 670.2119,-159 660.2118,-155.5001 660.2119,-162.5001"/>
</g>
<!-- PageHeaderModule -->
<g id="node8" class="node">
<title>PageHeaderModule</title>
<polygon fill="#8dd3c7" stroke="#000000" points="470.6727,-122 467.6727,-126 446.6727,-126 443.6727,-122 343.3273,-122 343.3273,-86 470.6727,-86 470.6727,-122"/>
<text text-anchor="middle" x="407" y="-99.8" font-family="Times,serif" font-size="14.00" fill="#000000">PageHeaderModule</text>
</g>
<!-- PageHeaderModule&#45;&gt;UsersModule -->
<g id="edge7" class="edge">
<title>PageHeaderModule&#45;&gt;UsersModule</title>
<path fill="none" stroke="#000000" d="M407,-122.2667C407,-140.5552 407,-166 407,-166 407,-166 660.0732,-166 660.0732,-166"/>
<polygon fill="#000000" stroke="#000000" points="660.0733,-169.5001 670.0732,-166 660.0732,-162.5001 660.0733,-169.5001"/>
</g>
<!-- SharingModuleModule -->
<g id="node9" class="node">
<title>SharingModuleModule</title>
<polygon fill="#8dd3c7" stroke="#000000" points="325.1484,-122 322.1484,-126 301.1484,-126 298.1484,-122 178.8516,-122 178.8516,-86 325.1484,-86 325.1484,-122"/>
<text text-anchor="middle" x="252" y="-99.8" font-family="Times,serif" font-size="14.00" fill="#000000">SharingModuleModule</text>
</g>
<!-- SharingModuleModule&#45;&gt;UsersModule -->
<g id="edge8" class="edge">
<title>SharingModuleModule&#45;&gt;UsersModule</title>
<path fill="none" stroke="#000000" d="M252,-122.1289C252,-142.5724 252,-173 252,-173 252,-173 660.24,-173 660.24,-173"/>
<polygon fill="#000000" stroke="#000000" points="660.2401,-176.5001 670.24,-173 660.24,-169.5001 660.2401,-176.5001"/>
</g>
<!-- UsersRoutingModule -->
<g id="node10" class="node">
<title>UsersRoutingModule</title>
<polygon fill="#8dd3c7" stroke="#000000" points="160.0394,-122 157.0394,-126 136.0394,-126 133.0394,-122 23.9606,-122 23.9606,-86 160.0394,-86 160.0394,-122"/>
<text text-anchor="middle" x="92" y="-99.8" font-family="Times,serif" font-size="14.00" fill="#000000">UsersRoutingModule</text>
</g>
<!-- UsersRoutingModule&#45;&gt;UsersModule -->
<g id="edge9" class="edge">
<title>UsersRoutingModule&#45;&gt;UsersModule</title>
<path fill="none" stroke="#000000" d="M92,-122.0109C92,-144.4852 92,-180 92,-180 92,-180 660.1158,-180 660.1158,-180"/>
<polygon fill="#000000" stroke="#000000" points="660.1158,-183.5001 670.1158,-180 660.1158,-176.5001 660.1158,-183.5001"/>
</g>
</g>
</svg>
