<?xml version="1.0" encoding="UTF-8" standalone="no"?>
<!DOCTYPE svg PUBLIC "-//W3C//DTD SVG 1.1//EN"
 "http://www.w3.org/Graphics/SVG/1.1/DTD/svg11.dtd">
<!-- Generated by graphviz version 2.40.1 (20161225.0304)
 -->
<!-- Title: dependencies Pages: 1 -->
<svg width="504pt" height="284pt"
 viewBox="0.00 0.00 504.00 284.00" xmlns="http://www.w3.org/2000/svg" xmlns:xlink="http://www.w3.org/1999/xlink">
<g id="graph0" class="graph" transform="scale(1 1) rotate(0) translate(4 280)">
<title>dependencies</title>
<polygon fill="#ffffff" stroke="transparent" points="-4,4 -4,-280 500,-280 500,4 -4,4"/>
<text text-anchor="start" x="227.0091" y="-42.4" font-family="sans-serif" font-weight="bold" font-size="14.00" fill="#000000">Legend</text>
<polygon fill="#ffffb3" stroke="transparent" points="14,-10 14,-30 34,-30 34,-10 14,-10"/>
<text text-anchor="start" x="37.629" y="-15.4" font-family="sans-serif" font-size="14.00" fill="#000000"> &#160;Declarations</text>
<polygon fill="#8dd3c7" stroke="transparent" points="127,-10 127,-30 147,-30 147,-10 127,-10"/>
<text text-anchor="start" x="150.7251" y="-15.4" font-family="sans-serif" font-size="14.00" fill="#000000"> &#160;Module</text>
<polygon fill="#80b1d3" stroke="transparent" points="213,-10 213,-30 233,-30 233,-10 213,-10"/>
<text text-anchor="start" x="236.7812" y="-15.4" font-family="sans-serif" font-size="14.00" fill="#000000"> &#160;Bootstrap</text>
<polygon fill="#fdb462" stroke="transparent" points="310,-10 310,-30 330,-30 330,-10 310,-10"/>
<text text-anchor="start" x="333.6732" y="-15.4" font-family="sans-serif" font-size="14.00" fill="#000000"> &#160;Providers</text>
<polygon fill="#fb8072" stroke="transparent" points="406,-10 406,-30 426,-30 426,-10 406,-10"/>
<text text-anchor="start" x="429.7258" y="-15.4" font-family="sans-serif" font-size="14.00" fill="#000000"> &#160;Exports</text>
<g id="clust1" class="cluster">
<title>cluster_ChangepasswordModule</title>
<polygon fill="none" stroke="#000000" stroke-dasharray="1,5" points="59,-70 59,-268 437,-268 437,-70 59,-70"/>
</g>
<g id="clust2" class="cluster">
<title>cluster_ChangepasswordModule_declarations</title>
<polygon fill="none" stroke="#000000" points="237,-78 237,-130 429,-130 429,-78 237,-78"/>
</g>
<g id="clust4" class="cluster">
<title>cluster_ChangepasswordModule_imports</title>
<polygon fill="none" stroke="#000000" points="67,-78 67,-130 229,-130 229,-78 67,-78"/>
</g>
<g id="clust5" class="cluster">
<title>cluster_ChangepasswordModule_exports</title>
<polygon fill="none" stroke="#000000" points="150,-208 150,-260 346,-260 346,-208 150,-208"/>
</g>
<!-- ChangepasswordComponent -->
<g id="node1" class="node">
<title>ChangepasswordComponent</title>
<polygon fill="#ffffb3" stroke="#000000" points="421.4692,-122 244.5308,-122 244.5308,-86 421.4692,-86 421.4692,-122"/>
<text text-anchor="middle" x="333" y="-99.8" font-family="Times,serif" font-size="14.00" fill="#000000">ChangepasswordComponent</text>
</g>
<!-- ChangepasswordModule -->
<g id="node2" class="node">
<title>ChangepasswordModule</title>
<polygon fill="#8dd3c7" stroke="#000000" points="325.6867,-187 322.6867,-191 301.6867,-191 298.6867,-187 170.3133,-187 170.3133,-151 325.6867,-151 325.6867,-187"/>
<text text-anchor="middle" x="248" y="-164.8" font-family="Times,serif" font-size="14.00" fill="#000000">ChangepasswordModule</text>
</g>
<!-- ChangepasswordComponent&#45;&gt;ChangepasswordModule -->
<g id="edge1" class="edge">
<title>ChangepasswordComponent&#45;&gt;ChangepasswordModule</title>
<path fill="none" stroke="#000000" d="M285.0544,-122.1061C285.0544,-122.1061 285.0544,-140.991 285.0544,-140.991"/>
<polygon fill="#000000" stroke="#000000" points="281.5544,-140.9909 285.0544,-150.991 288.5544,-140.991 281.5544,-140.9909"/>
</g>
<!-- ChangepasswordComponent  -->
<g id="node4" class="node">
<title>ChangepasswordComponent </title>
<polygon fill="#fb8072" stroke="#000000" points="338.4698,-252 157.5302,-252 157.5302,-216 338.4698,-216 338.4698,-252"/>
<text text-anchor="middle" x="248" y="-229.8" font-family="Times,serif" font-size="14.00" fill="#000000">ChangepasswordComponent </text>
</g>
<!-- ChangepasswordModule&#45;&gt;ChangepasswordComponent  -->
<g id="edge3" class="edge">
<title>ChangepasswordModule&#45;&gt;ChangepasswordComponent </title>
<path fill="none" stroke="#000000" stroke-dasharray="5,2" d="M248,-187.1061C248,-187.1061 248,-205.991 248,-205.991"/>
<polygon fill="#000000" stroke="#000000" points="244.5001,-205.9909 248,-215.991 251.5001,-205.991 244.5001,-205.9909"/>
</g>
<!-- SharingModuleModule -->
<g id="node3" class="node">
<title>SharingModuleModule</title>
<polygon fill="#8dd3c7" stroke="#000000" points="221.1484,-122 218.1484,-126 197.1484,-126 194.1484,-122 74.8516,-122 74.8516,-86 221.1484,-86 221.1484,-122"/>
<text text-anchor="middle" x="148" y="-99.8" font-family="Times,serif" font-size="14.00" fill="#000000">SharingModuleModule</text>
</g>
<!-- SharingModuleModule&#45;&gt;ChangepasswordModule -->
<g id="edge2" class="edge">
<title>SharingModuleModule&#45;&gt;ChangepasswordModule</title>
<path fill="none" stroke="#000000" d="M195.8654,-122.1061C195.8654,-122.1061 195.8654,-140.991 195.8654,-140.991"/>
<polygon fill="#000000" stroke="#000000" points="192.3654,-140.9909 195.8654,-150.991 199.3654,-140.991 192.3654,-140.9909"/>
</g>
</g>
</svg>
