<svg xmlns="http://www.w3.org/2000/svg" width="359" height="283.25" viewBox="0 0 359 283.25">
  <g id="Good_Evening" data-name="Good Evening" transform="translate(-345 -360.75)">
    <text id="Good_Evening-2" data-name="Good Evening" transform="translate(345 628)" fill="#fff" font-size="58" font-family="Roboto-Regular, Roboto"><tspan x="0" y="0">Good Evening</tspan></text>
    <g id="sunrise_1_" data-name="sunrise (1)" transform="translate(426 296.75)">
      <g id="Group_842" data-name="Group 842" transform="translate(0 175.372)">
        <g id="Group_841" data-name="Group 841">
          <path id="Path_850" data-name="Path 850" d="M191.813,376.745h-65.5L103.381,353.8a6.192,6.192,0,0,0-8.749,0L71.688,376.745H6.188a6.188,6.188,0,0,0,0,12.375H74.25a6.191,6.191,0,0,0,4.381-1.819L99,366.932l20.369,20.382a6.232,6.232,0,0,0,4.381,1.807h68.063a6.188,6.188,0,0,0,0-12.375Z" transform="translate(0 -351.992)" fill="#fff"/>
        </g>
      </g>
      <g id="Group_844" data-name="Group 844" transform="translate(37.125 101.125)">
        <g id="Group_843" data-name="Group 843">
          <path id="Path_851" data-name="Path 851" d="M157.875,160A61.945,61.945,0,0,0,96,221.875a60.6,60.6,0,0,0,3.589,20.666,6.185,6.185,0,0,0,11.633-4.207,48.1,48.1,0,0,1-2.846-16.459,49.5,49.5,0,0,1,99,0,48.1,48.1,0,0,1-2.846,16.459,6.168,6.168,0,0,0,3.712,7.92,6.176,6.176,0,0,0,7.92-3.713,60.6,60.6,0,0,0,3.589-20.666A61.945,61.945,0,0,0,157.875,160Z" transform="translate(-96 -160)" fill="#fff"/>
        </g>
      </g>
      <g id="Group_846" data-name="Group 846" transform="translate(92.813 64)">
        <g id="Group_845" data-name="Group 845">
          <path id="Path_852" data-name="Path 852" d="M246.188,64A6.19,6.19,0,0,0,240,70.188V82.563a6.188,6.188,0,0,0,12.375,0V70.188A6.19,6.19,0,0,0,246.188,64Z" transform="translate(-240 -64)" fill="#fff"/>
        </g>
      </g>
      <g id="Group_848" data-name="Group 848" transform="translate(0 156.813)">
        <g id="Group_847" data-name="Group 847">
          <path id="Path_853" data-name="Path 853" d="M18.563,304H6.188a6.188,6.188,0,0,0,0,12.375H18.563a6.188,6.188,0,0,0,0-12.375Z" transform="translate(0 -304)" fill="#fff"/>
        </g>
      </g>
      <g id="Group_850" data-name="Group 850" transform="translate(173.25 156.813)">
        <g id="Group_849" data-name="Group 849">
          <path id="Path_854" data-name="Path 854" d="M466.563,304H454.188a6.188,6.188,0,0,0,0,12.375h12.375a6.188,6.188,0,0,0,0-12.375Z" transform="translate(-448 -304)" fill="#fff"/>
        </g>
      </g>
      <g id="Group_852" data-name="Group 852" transform="translate(27.185 91.185)">
        <g id="Group_851" data-name="Group 851">
          <path id="Path_855" data-name="Path 855" d="M89.6,144.855l-8.749-8.749a6.187,6.187,0,0,0-8.749,8.749l8.749,8.761a6.215,6.215,0,0,0,4.381,1.807A6.127,6.127,0,0,0,89.6,153.6,6.192,6.192,0,0,0,89.6,144.855Z" transform="translate(-70.296 -134.296)" fill="#fff"/>
        </g>
      </g>
      <g id="Group_854" data-name="Group 854" transform="translate(149.685 91.197)">
        <g id="Group_853" data-name="Group 853">
          <path id="Path_856" data-name="Path 856" d="M406.372,136.138a6.192,6.192,0,0,0-8.749,0l-8.749,8.749a6.187,6.187,0,0,0,8.749,8.749l8.749-8.749A6.192,6.192,0,0,0,406.372,136.138Z" transform="translate(-387.064 -134.328)" fill="#fff"/>
        </g>
      </g>
    </g>
  </g>
</svg>
