<?xml version="1.0" encoding="UTF-8" standalone="no"?>
<!DOCTYPE svg PUBLIC "-//W3C//DTD SVG 1.1//EN"
 "http://www.w3.org/Graphics/SVG/1.1/DTD/svg11.dtd">
<!-- Generated by graphviz version 2.40.1 (20161225.0304)
 -->
<!-- Title: dependencies Pages: 1 -->
<svg width="2440pt" height="284pt"
 viewBox="0.00 0.00 2440.00 284.00" xmlns="http://www.w3.org/2000/svg" xmlns:xlink="http://www.w3.org/1999/xlink">
<g id="graph0" class="graph" transform="scale(1 1) rotate(0) translate(4 280)">
<title>dependencies</title>
<polygon fill="#ffffff" stroke="transparent" points="-4,4 -4,-280 2436,-280 2436,4 -4,4"/>
<text text-anchor="start" x="1195.0091" y="-42.4" font-family="sans-serif" font-weight="bold" font-size="14.00" fill="#000000">Legend</text>
<polygon fill="#ffffb3" stroke="transparent" points="982,-10 982,-30 1002,-30 1002,-10 982,-10"/>
<text text-anchor="start" x="1005.629" y="-15.4" font-family="sans-serif" font-size="14.00" fill="#000000"> &#160;Declarations</text>
<polygon fill="#8dd3c7" stroke="transparent" points="1095,-10 1095,-30 1115,-30 1115,-10 1095,-10"/>
<text text-anchor="start" x="1118.7251" y="-15.4" font-family="sans-serif" font-size="14.00" fill="#000000"> &#160;Module</text>
<polygon fill="#80b1d3" stroke="transparent" points="1181,-10 1181,-30 1201,-30 1201,-10 1181,-10"/>
<text text-anchor="start" x="1204.7812" y="-15.4" font-family="sans-serif" font-size="14.00" fill="#000000"> &#160;Bootstrap</text>
<polygon fill="#fdb462" stroke="transparent" points="1278,-10 1278,-30 1298,-30 1298,-10 1278,-10"/>
<text text-anchor="start" x="1301.6732" y="-15.4" font-family="sans-serif" font-size="14.00" fill="#000000"> &#160;Providers</text>
<polygon fill="#fb8072" stroke="transparent" points="1374,-10 1374,-30 1394,-30 1394,-10 1374,-10"/>
<text text-anchor="start" x="1397.7258" y="-15.4" font-family="sans-serif" font-size="14.00" fill="#000000"> &#160;Exports</text>
<g id="clust1" class="cluster">
<title>cluster_FormszModule</title>
<polygon fill="none" stroke="#000000" stroke-dasharray="1,5" points="8,-70 8,-268 2424,-268 2424,-70 8,-70"/>
</g>
<g id="clust2" class="cluster">
<title>cluster_FormszModule_declarations</title>
<polygon fill="none" stroke="#000000" points="1146,-78 1146,-130 2416,-130 2416,-78 1146,-78"/>
</g>
<g id="clust10" class="cluster">
<title>cluster_FormszModule_imports</title>
<polygon fill="none" stroke="#000000" points="156,-78 156,-130 1138,-130 1138,-78 156,-78"/>
</g>
<g id="clust11" class="cluster">
<title>cluster_FormszModule_exports</title>
<polygon fill="none" stroke="#000000" points="1046,-208 1046,-260 1250,-260 1250,-208 1046,-208"/>
</g>
<g id="clust13" class="cluster">
<title>cluster_FormszModule_providers</title>
<polygon fill="none" stroke="#000000" points="16,-78 16,-130 148,-130 148,-78 16,-78"/>
</g>
<!-- FormCreateModalComponent -->
<g id="node1" class="node">
<title>FormCreateModalComponent</title>
<polygon fill="#ffffb3" stroke="#000000" points="2408.2478,-122 2223.7522,-122 2223.7522,-86 2408.2478,-86 2408.2478,-122"/>
<text text-anchor="middle" x="2316" y="-99.8" font-family="Times,serif" font-size="14.00" fill="#000000">FormCreateModalComponent</text>
</g>
<!-- FormszModule -->
<g id="node8" class="node">
<title>FormszModule</title>
<polygon fill="#8dd3c7" stroke="#000000" points="1198.5438,-187 1195.5438,-191 1174.5438,-191 1171.5438,-187 1097.4562,-187 1097.4562,-151 1198.5438,-151 1198.5438,-187"/>
<text text-anchor="middle" x="1148" y="-164.8" font-family="Times,serif" font-size="14.00" fill="#000000">FormszModule</text>
</g>
<!-- FormCreateModalComponent&#45;&gt;FormszModule -->
<g id="edge1" class="edge">
<title>FormCreateModalComponent&#45;&gt;FormszModule</title>
<path fill="none" stroke="#000000" d="M2316,-122.0908C2316,-145.1328 2316,-182 2316,-182 2316,-182 1208.5624,-182 1208.5624,-182"/>
<polygon fill="#000000" stroke="#000000" points="1208.5624,-178.5001 1198.5624,-182 1208.5624,-185.5001 1208.5624,-178.5001"/>
</g>
<!-- FormDeleteComponent -->
<g id="node2" class="node">
<title>FormDeleteComponent</title>
<polygon fill="#ffffb3" stroke="#000000" points="2206.1979,-122 2057.8021,-122 2057.8021,-86 2206.1979,-86 2206.1979,-122"/>
<text text-anchor="middle" x="2132" y="-99.8" font-family="Times,serif" font-size="14.00" fill="#000000">FormDeleteComponent</text>
</g>
<!-- FormDeleteComponent&#45;&gt;FormszModule -->
<g id="edge2" class="edge">
<title>FormDeleteComponent&#45;&gt;FormszModule</title>
<path fill="none" stroke="#000000" d="M2132,-122.0449C2132,-143.6623 2132,-177 2132,-177 2132,-177 1208.8321,-177 1208.8321,-177"/>
<polygon fill="#000000" stroke="#000000" points="1208.8321,-173.5001 1198.8321,-177 1208.832,-180.5001 1208.8321,-173.5001"/>
</g>
<!-- FormEditModalComponent -->
<g id="node3" class="node">
<title>FormEditModalComponent</title>
<polygon fill="#ffffb3" stroke="#000000" points="2039.5504,-122 1868.4496,-122 1868.4496,-86 2039.5504,-86 2039.5504,-122"/>
<text text-anchor="middle" x="1954" y="-99.8" font-family="Times,serif" font-size="14.00" fill="#000000">FormEditModalComponent</text>
</g>
<!-- FormEditModalComponent&#45;&gt;FormszModule -->
<g id="edge3" class="edge">
<title>FormEditModalComponent&#45;&gt;FormszModule</title>
<path fill="none" stroke="#000000" d="M1954,-122.2228C1954,-142.3652 1954,-172 1954,-172 1954,-172 1208.7242,-172 1208.7242,-172"/>
<polygon fill="#000000" stroke="#000000" points="1208.7243,-168.5001 1198.7242,-172 1208.7242,-175.5001 1208.7243,-168.5001"/>
</g>
<!-- FormImportAsTemplateComponent -->
<g id="node4" class="node">
<title>FormImportAsTemplateComponent</title>
<polygon fill="#ffffb3" stroke="#000000" points="1850.1881,-122 1631.8119,-122 1631.8119,-86 1850.1881,-86 1850.1881,-122"/>
<text text-anchor="middle" x="1741" y="-99.8" font-family="Times,serif" font-size="14.00" fill="#000000">FormImportAsTemplateComponent</text>
</g>
<!-- FormImportAsTemplateComponent&#45;&gt;FormszModule -->
<g id="edge4" class="edge">
<title>FormImportAsTemplateComponent&#45;&gt;FormszModule</title>
<path fill="none" stroke="#000000" d="M1741,-122.2222C1741,-140.8285 1741,-167 1741,-167 1741,-167 1208.5588,-167 1208.5588,-167"/>
<polygon fill="#000000" stroke="#000000" points="1208.5589,-163.5001 1198.5588,-167 1208.5588,-170.5001 1208.5589,-163.5001"/>
</g>
<!-- FormsComponent -->
<g id="node5" class="node">
<title>FormsComponent</title>
<polygon fill="#ffffb3" stroke="#000000" points="1613.6109,-122 1496.3891,-122 1496.3891,-86 1613.6109,-86 1613.6109,-122"/>
<text text-anchor="middle" x="1555" y="-99.8" font-family="Times,serif" font-size="14.00" fill="#000000">FormsComponent</text>
</g>
<!-- FormsComponent&#45;&gt;FormszModule -->
<g id="edge5" class="edge">
<title>FormsComponent&#45;&gt;FormszModule</title>
<path fill="none" stroke="#000000" d="M1555,-122.0336C1555,-139.0597 1555,-162 1555,-162 1555,-162 1208.7239,-162 1208.7239,-162"/>
<polygon fill="#000000" stroke="#000000" points="1208.7239,-158.5001 1198.7239,-162 1208.7239,-165.5001 1208.7239,-158.5001"/>
</g>
<!-- FormsListComponent -->
<g id="node6" class="node">
<title>FormsListComponent</title>
<polygon fill="#ffffb3" stroke="#000000" points="1478.3892,-122 1339.6108,-122 1339.6108,-86 1478.3892,-86 1478.3892,-122"/>
<text text-anchor="middle" x="1409" y="-99.8" font-family="Times,serif" font-size="14.00" fill="#000000">FormsListComponent</text>
</g>
<!-- FormsListComponent&#45;&gt;FormszModule -->
<g id="edge6" class="edge">
<title>FormsListComponent&#45;&gt;FormszModule</title>
<path fill="none" stroke="#000000" d="M1409,-122.2396C1409,-137.5706 1409,-157 1409,-157 1409,-157 1208.6329,-157 1208.6329,-157"/>
<polygon fill="#000000" stroke="#000000" points="1208.6329,-153.5001 1198.6329,-157 1208.6329,-160.5001 1208.6329,-153.5001"/>
</g>
<!-- VersionHistoryComponent -->
<g id="node7" class="node">
<title>VersionHistoryComponent</title>
<polygon fill="#ffffb3" stroke="#000000" points="1321.6428,-122 1154.3572,-122 1154.3572,-86 1321.6428,-86 1321.6428,-122"/>
<text text-anchor="middle" x="1238" y="-99.8" font-family="Times,serif" font-size="14.00" fill="#000000">VersionHistoryComponent</text>
</g>
<!-- VersionHistoryComponent&#45;&gt;FormszModule -->
<g id="edge7" class="edge">
<title>VersionHistoryComponent&#45;&gt;FormszModule</title>
<path fill="none" stroke="#000000" d="M1176.4751,-122.1061C1176.4751,-122.1061 1176.4751,-140.991 1176.4751,-140.991"/>
<polygon fill="#000000" stroke="#000000" points="1172.9752,-140.9909 1176.4751,-150.991 1179.9752,-140.991 1172.9752,-140.9909"/>
</g>
<!-- FormCreateModalComponent  -->
<g id="node15" class="node">
<title>FormCreateModalComponent </title>
<polygon fill="#fb8072" stroke="#000000" points="1242.2478,-252 1053.7522,-252 1053.7522,-216 1242.2478,-216 1242.2478,-252"/>
<text text-anchor="middle" x="1148" y="-229.8" font-family="Times,serif" font-size="14.00" fill="#000000">FormCreateModalComponent </text>
</g>
<!-- FormszModule&#45;&gt;FormCreateModalComponent  -->
<g id="edge14" class="edge">
<title>FormszModule&#45;&gt;FormCreateModalComponent </title>
<path fill="none" stroke="#000000" stroke-dasharray="5,2" d="M1148,-187.1061C1148,-187.1061 1148,-205.991 1148,-205.991"/>
<polygon fill="#000000" stroke="#000000" points="1144.5001,-205.9909 1148,-215.991 1151.5001,-205.991 1144.5001,-205.9909"/>
</g>
<!-- DynamicFormModule -->
<g id="node9" class="node">
<title>DynamicFormModule</title>
<polygon fill="#8dd3c7" stroke="#000000" points="1129.7007,-122 1126.7007,-126 1105.7007,-126 1102.7007,-122 988.2993,-122 988.2993,-86 1129.7007,-86 1129.7007,-122"/>
<text text-anchor="middle" x="1059" y="-99.8" font-family="Times,serif" font-size="14.00" fill="#000000">DynamicFormModule</text>
</g>
<!-- DynamicFormModule&#45;&gt;FormszModule -->
<g id="edge8" class="edge">
<title>DynamicFormModule&#45;&gt;FormszModule</title>
<path fill="none" stroke="#000000" d="M1113.4145,-122.1061C1113.4145,-122.1061 1113.4145,-140.991 1113.4145,-140.991"/>
<polygon fill="#000000" stroke="#000000" points="1109.9145,-140.9909 1113.4145,-150.991 1116.9145,-140.991 1109.9145,-140.9909"/>
</g>
<!-- FormsRoutingModule -->
<g id="node10" class="node">
<title>FormsRoutingModule</title>
<polygon fill="#8dd3c7" stroke="#000000" points="970.4467,-122 967.4467,-126 946.4467,-126 943.4467,-122 829.5533,-122 829.5533,-86 970.4467,-86 970.4467,-122"/>
<text text-anchor="middle" x="900" y="-99.8" font-family="Times,serif" font-size="14.00" fill="#000000">FormsRoutingModule</text>
</g>
<!-- FormsRoutingModule&#45;&gt;FormszModule -->
<g id="edge9" class="edge">
<title>FormsRoutingModule&#45;&gt;FormszModule</title>
<path fill="none" stroke="#000000" d="M900,-122.2396C900,-137.5706 900,-157 900,-157 900,-157 1087.2151,-157 1087.2151,-157"/>
<polygon fill="#000000" stroke="#000000" points="1087.2151,-160.5001 1097.2151,-157 1087.215,-153.5001 1087.2151,-160.5001"/>
</g>
<!-- PageHeaderModule -->
<g id="node11" class="node">
<title>PageHeaderModule</title>
<polygon fill="#8dd3c7" stroke="#000000" points="811.6727,-122 808.6727,-126 787.6727,-126 784.6727,-122 684.3273,-122 684.3273,-86 811.6727,-86 811.6727,-122"/>
<text text-anchor="middle" x="748" y="-99.8" font-family="Times,serif" font-size="14.00" fill="#000000">PageHeaderModule</text>
</g>
<!-- PageHeaderModule&#45;&gt;FormszModule -->
<g id="edge10" class="edge">
<title>PageHeaderModule&#45;&gt;FormszModule</title>
<path fill="none" stroke="#000000" d="M748,-122.0336C748,-139.0597 748,-162 748,-162 748,-162 1087.3397,-162 1087.3397,-162"/>
<polygon fill="#000000" stroke="#000000" points="1087.3398,-165.5001 1097.3397,-162 1087.3397,-158.5001 1087.3398,-165.5001"/>
</g>
<!-- SharedRecordsModule -->
<g id="node12" class="node">
<title>SharedRecordsModule</title>
<polygon fill="#8dd3c7" stroke="#000000" points="666.2935,-122 663.2935,-126 642.2935,-126 639.2935,-122 521.7065,-122 521.7065,-86 666.2935,-86 666.2935,-122"/>
<text text-anchor="middle" x="594" y="-99.8" font-family="Times,serif" font-size="14.00" fill="#000000">SharedRecordsModule</text>
</g>
<!-- SharedRecordsModule&#45;&gt;FormszModule -->
<g id="edge11" class="edge">
<title>SharedRecordsModule&#45;&gt;FormszModule</title>
<path fill="none" stroke="#000000" d="M594,-122.2222C594,-140.8285 594,-167 594,-167 594,-167 1087.3676,-167 1087.3676,-167"/>
<polygon fill="#000000" stroke="#000000" points="1087.3676,-170.5001 1097.3676,-167 1087.3675,-163.5001 1087.3676,-170.5001"/>
</g>
<!-- SharingFormBuilderModule -->
<g id="node13" class="node">
<title>SharingFormBuilderModule</title>
<polygon fill="#8dd3c7" stroke="#000000" points="503.9255,-122 500.9255,-126 479.9255,-126 476.9255,-122 328.0745,-122 328.0745,-86 503.9255,-86 503.9255,-122"/>
<text text-anchor="middle" x="416" y="-99.8" font-family="Times,serif" font-size="14.00" fill="#000000">SharingFormBuilderModule</text>
</g>
<!-- SharingFormBuilderModule&#45;&gt;FormszModule -->
<g id="edge12" class="edge">
<title>SharingFormBuilderModule&#45;&gt;FormszModule</title>
<path fill="none" stroke="#000000" d="M416,-122.2228C416,-142.3652 416,-172 416,-172 416,-172 1087.3979,-172 1087.3979,-172"/>
<polygon fill="#000000" stroke="#000000" points="1087.3979,-175.5001 1097.3979,-172 1087.3978,-168.5001 1087.3979,-175.5001"/>
</g>
<!-- SharingModuleModule -->
<g id="node14" class="node">
<title>SharingModuleModule</title>
<polygon fill="#8dd3c7" stroke="#000000" points="310.1484,-122 307.1484,-126 286.1484,-126 283.1484,-122 163.8516,-122 163.8516,-86 310.1484,-86 310.1484,-122"/>
<text text-anchor="middle" x="237" y="-99.8" font-family="Times,serif" font-size="14.00" fill="#000000">SharingModuleModule</text>
</g>
<!-- SharingModuleModule&#45;&gt;FormszModule -->
<g id="edge13" class="edge">
<title>SharingModuleModule&#45;&gt;FormszModule</title>
<path fill="none" stroke="#000000" d="M237,-122.0449C237,-143.6623 237,-177 237,-177 237,-177 1087.3963,-177 1087.3963,-177"/>
<polygon fill="#000000" stroke="#000000" points="1087.3963,-180.5001 1097.3963,-177 1087.3963,-173.5001 1087.3963,-180.5001"/>
</g>
<!-- WindowRef -->
<g id="node16" class="node">
<title>WindowRef</title>
<ellipse fill="#fdb462" stroke="#000000" cx="82" cy="-104" rx="58.4687" ry="18"/>
<text text-anchor="middle" x="82" y="-99.8" font-family="Times,serif" font-size="14.00" fill="#000000">WindowRef</text>
</g>
<!-- WindowRef&#45;&gt;FormszModule -->
<g id="edge15" class="edge">
<title>WindowRef&#45;&gt;FormszModule</title>
<path fill="none" stroke="#000000" d="M82,-122.0908C82,-145.1328 82,-182 82,-182 82,-182 1087.3017,-182 1087.3017,-182"/>
<polygon fill="#000000" stroke="#000000" points="1087.3018,-185.5001 1097.3017,-182 1087.3017,-178.5001 1087.3018,-185.5001"/>
</g>
</g>
</svg>
