<?xml version="1.0" encoding="UTF-8" standalone="no"?>
<!DOCTYPE svg PUBLIC "-//W3C//DTD SVG 1.1//EN"
 "http://www.w3.org/Graphics/SVG/1.1/DTD/svg11.dtd">
<!-- Generated by graphviz version 2.40.1 (20161225.0304)
 -->
<!-- Title: dependencies Pages: 1 -->
<svg width="1446pt" height="276pt"
 viewBox="0.00 0.00 1446.00 276.00" xmlns="http://www.w3.org/2000/svg" xmlns:xlink="http://www.w3.org/1999/xlink">
<g id="graph0" class="graph" transform="scale(1 1) rotate(0) translate(4 272)">
<title>dependencies</title>
<polygon fill="#ffffff" stroke="transparent" points="-4,4 -4,-272 1442,-272 1442,4 -4,4"/>
<text text-anchor="start" x="698.0091" y="-42.4" font-family="sans-serif" font-weight="bold" font-size="14.00" fill="#000000">Legend</text>
<polygon fill="#ffffb3" stroke="transparent" points="485,-10 485,-30 505,-30 505,-10 485,-10"/>
<text text-anchor="start" x="508.629" y="-15.4" font-family="sans-serif" font-size="14.00" fill="#000000"> &#160;Declarations</text>
<polygon fill="#8dd3c7" stroke="transparent" points="598,-10 598,-30 618,-30 618,-10 598,-10"/>
<text text-anchor="start" x="621.7251" y="-15.4" font-family="sans-serif" font-size="14.00" fill="#000000"> &#160;Module</text>
<polygon fill="#80b1d3" stroke="transparent" points="684,-10 684,-30 704,-30 704,-10 684,-10"/>
<text text-anchor="start" x="707.7812" y="-15.4" font-family="sans-serif" font-size="14.00" fill="#000000"> &#160;Bootstrap</text>
<polygon fill="#fdb462" stroke="transparent" points="781,-10 781,-30 801,-30 801,-10 781,-10"/>
<text text-anchor="start" x="804.6732" y="-15.4" font-family="sans-serif" font-size="14.00" fill="#000000"> &#160;Providers</text>
<polygon fill="#fb8072" stroke="transparent" points="877,-10 877,-30 897,-30 897,-10 877,-10"/>
<text text-anchor="start" x="900.7258" y="-15.4" font-family="sans-serif" font-size="14.00" fill="#000000"> &#160;Exports</text>
<g id="clust1" class="cluster">
<title>cluster_CategoriesModule</title>
<polygon fill="none" stroke="#000000" stroke-dasharray="1,5" points="8,-70 8,-260 1430,-260 1430,-70 8,-70"/>
</g>
<g id="clust2" class="cluster">
<title>cluster_CategoriesModule_declarations</title>
<polygon fill="none" stroke="#000000" points="514,-143 514,-195 1422,-195 1422,-143 514,-143"/>
</g>
<g id="clust3" class="cluster">
<title>cluster_CategoriesModule_CategoriesComponent_providers</title>
<polygon fill="none" stroke="#000000" points="1244,-78 1244,-130 1422,-130 1422,-78 1244,-78"/>
</g>
<g id="clust8" class="cluster">
<title>cluster_CategoriesModule_imports</title>
<polygon fill="none" stroke="#000000" points="16,-143 16,-195 506,-195 506,-143 16,-143"/>
</g>
<!-- CategoriesComponent -->
<g id="node1" class="node">
<title>CategoriesComponent</title>
<polygon fill="#ffffb3" stroke="#000000" points="1413.6993,-187 1272.3007,-187 1272.3007,-151 1413.6993,-151 1413.6993,-187"/>
<text text-anchor="middle" x="1343" y="-164.8" font-family="Times,serif" font-size="14.00" fill="#000000">CategoriesComponent</text>
</g>
<!-- CategoriesModule -->
<g id="node6" class="node">
<title>CategoriesModule</title>
<polygon fill="#8dd3c7" stroke="#000000" points="767.9173,-252 764.9173,-256 743.9173,-256 740.9173,-252 648.0827,-252 648.0827,-216 767.9173,-216 767.9173,-252"/>
<text text-anchor="middle" x="708" y="-229.8" font-family="Times,serif" font-size="14.00" fill="#000000">CategoriesModule</text>
</g>
<!-- CategoriesComponent&#45;&gt;CategoriesModule -->
<g id="edge1" class="edge">
<title>CategoriesComponent&#45;&gt;CategoriesModule</title>
<path fill="none" stroke="#000000" d="M1343,-187.2921C1343,-209.2057 1343,-243 1343,-243 1343,-243 777.7393,-243 777.7393,-243"/>
<polygon fill="#000000" stroke="#000000" points="777.7393,-239.5001 767.7393,-243 777.7392,-246.5001 777.7393,-239.5001"/>
</g>
<!-- CategoryCreateComponent -->
<g id="node2" class="node">
<title>CategoryCreateComponent</title>
<polygon fill="#ffffb3" stroke="#000000" points="1254.6811,-187 1085.3189,-187 1085.3189,-151 1254.6811,-151 1254.6811,-187"/>
<text text-anchor="middle" x="1170" y="-164.8" font-family="Times,serif" font-size="14.00" fill="#000000">CategoryCreateComponent</text>
</g>
<!-- CategoryCreateComponent&#45;&gt;CategoriesModule -->
<g id="edge3" class="edge">
<title>CategoryCreateComponent&#45;&gt;CategoriesModule</title>
<path fill="none" stroke="#000000" d="M1170,-187.1061C1170,-206.3391 1170,-234 1170,-234 1170,-234 777.9248,-234 777.9248,-234"/>
<polygon fill="#000000" stroke="#000000" points="777.9248,-230.5001 767.9248,-234 777.9248,-237.5001 777.9248,-230.5001"/>
</g>
<!-- CategoryDeleteComponent -->
<g id="node3" class="node">
<title>CategoryDeleteComponent</title>
<polygon fill="#ffffb3" stroke="#000000" points="1067.6811,-187 898.3189,-187 898.3189,-151 1067.6811,-151 1067.6811,-187"/>
<text text-anchor="middle" x="983" y="-164.8" font-family="Times,serif" font-size="14.00" fill="#000000">CategoryDeleteComponent</text>
</g>
<!-- CategoryDeleteComponent&#45;&gt;CategoriesModule -->
<g id="edge4" class="edge">
<title>CategoryDeleteComponent&#45;&gt;CategoriesModule</title>
<path fill="none" stroke="#000000" d="M983,-187.027C983,-203.3976 983,-225 983,-225 983,-225 778.0101,-225 778.0101,-225"/>
<polygon fill="#000000" stroke="#000000" points="778.0101,-221.5001 768.0101,-225 778.0101,-228.5001 778.0101,-221.5001"/>
</g>
<!-- CategoryEditComponent -->
<g id="node4" class="node">
<title>CategoryEditComponent</title>
<polygon fill="#ffffb3" stroke="#000000" points="879.9832,-187 724.0168,-187 724.0168,-151 879.9832,-151 879.9832,-187"/>
<text text-anchor="middle" x="802" y="-164.8" font-family="Times,serif" font-size="14.00" fill="#000000">CategoryEditComponent</text>
</g>
<!-- CategoryEditComponent&#45;&gt;CategoriesModule -->
<g id="edge5" class="edge">
<title>CategoryEditComponent&#45;&gt;CategoriesModule</title>
<path fill="none" stroke="#000000" d="M745.8584,-187.1061C745.8584,-187.1061 745.8584,-205.991 745.8584,-205.991"/>
<polygon fill="#000000" stroke="#000000" points="742.3584,-205.9909 745.8584,-215.991 749.3584,-205.991 742.3584,-205.9909"/>
</g>
<!-- CategoryListViewComponent -->
<g id="node5" class="node">
<title>CategoryListViewComponent</title>
<polygon fill="#ffffb3" stroke="#000000" points="706.2464,-187 521.7536,-187 521.7536,-151 706.2464,-151 706.2464,-187"/>
<text text-anchor="middle" x="614" y="-164.8" font-family="Times,serif" font-size="14.00" fill="#000000">CategoryListViewComponent</text>
</g>
<!-- CategoryListViewComponent&#45;&gt;CategoriesModule -->
<g id="edge6" class="edge">
<title>CategoryListViewComponent&#45;&gt;CategoriesModule</title>
<path fill="none" stroke="#000000" d="M677.3324,-187.1061C677.3324,-187.1061 677.3324,-205.991 677.3324,-205.991"/>
<polygon fill="#000000" stroke="#000000" points="673.8325,-205.9909 677.3324,-215.991 680.8325,-205.991 673.8325,-205.9909"/>
</g>
<!-- CategoriesService -->
<g id="node7" class="node">
<title>CategoriesService</title>
<ellipse fill="#fdb462" stroke="#000000" cx="1333" cy="-104" rx="81.0744" ry="18"/>
<text text-anchor="middle" x="1333" y="-99.8" font-family="Times,serif" font-size="14.00" fill="#000000">CategoriesService</text>
</g>
<!-- CategoriesService&#45;&gt;CategoriesComponent -->
<g id="edge2" class="edge">
<title>CategoriesService&#45;&gt;CategoriesComponent</title>
<path fill="none" stroke="#000000" d="M1343,-122.1061C1343,-122.1061 1343,-140.991 1343,-140.991"/>
<polygon fill="#000000" stroke="#000000" points="1339.5001,-140.9909 1343,-150.991 1346.5001,-140.991 1339.5001,-140.9909"/>
</g>
<!-- CategoriesRoutingModule -->
<g id="node8" class="node">
<title>CategoriesRoutingModule</title>
<polygon fill="#8dd3c7" stroke="#000000" points="498.0351,-187 495.0351,-191 474.0351,-191 471.0351,-187 333.9649,-187 333.9649,-151 498.0351,-151 498.0351,-187"/>
<text text-anchor="middle" x="416" y="-164.8" font-family="Times,serif" font-size="14.00" fill="#000000">CategoriesRoutingModule</text>
</g>
<!-- CategoriesRoutingModule&#45;&gt;CategoriesModule -->
<g id="edge7" class="edge">
<title>CategoriesRoutingModule&#45;&gt;CategoriesModule</title>
<path fill="none" stroke="#000000" d="M416,-187.027C416,-203.3976 416,-225 416,-225 416,-225 638.2048,-225 638.2048,-225"/>
<polygon fill="#000000" stroke="#000000" points="638.2049,-228.5001 648.2048,-225 638.2048,-221.5001 638.2049,-228.5001"/>
</g>
<!-- PageHeaderModule -->
<g id="node9" class="node">
<title>PageHeaderModule</title>
<polygon fill="#8dd3c7" stroke="#000000" points="315.6727,-187 312.6727,-191 291.6727,-191 288.6727,-187 188.3273,-187 188.3273,-151 315.6727,-151 315.6727,-187"/>
<text text-anchor="middle" x="252" y="-164.8" font-family="Times,serif" font-size="14.00" fill="#000000">PageHeaderModule</text>
</g>
<!-- PageHeaderModule&#45;&gt;CategoriesModule -->
<g id="edge8" class="edge">
<title>PageHeaderModule&#45;&gt;CategoriesModule</title>
<path fill="none" stroke="#000000" d="M252,-187.1061C252,-206.3391 252,-234 252,-234 252,-234 637.9171,-234 637.9171,-234"/>
<polygon fill="#000000" stroke="#000000" points="637.9171,-237.5001 647.9171,-234 637.917,-230.5001 637.9171,-237.5001"/>
</g>
<!-- SharingModuleModule -->
<g id="node10" class="node">
<title>SharingModuleModule</title>
<polygon fill="#8dd3c7" stroke="#000000" points="170.1484,-187 167.1484,-191 146.1484,-191 143.1484,-187 23.8516,-187 23.8516,-151 170.1484,-151 170.1484,-187"/>
<text text-anchor="middle" x="97" y="-164.8" font-family="Times,serif" font-size="14.00" fill="#000000">SharingModuleModule</text>
</g>
<!-- SharingModuleModule&#45;&gt;CategoriesModule -->
<g id="edge9" class="edge">
<title>SharingModuleModule&#45;&gt;CategoriesModule</title>
<path fill="none" stroke="#000000" d="M97,-187.2921C97,-209.2057 97,-243 97,-243 97,-243 638.0228,-243 638.0228,-243"/>
<polygon fill="#000000" stroke="#000000" points="638.0228,-246.5001 648.0228,-243 638.0228,-239.5001 638.0228,-246.5001"/>
</g>
</g>
</svg>
