<?xml version="1.0" encoding="UTF-8" standalone="no"?>
<!DOCTYPE svg PUBLIC "-//W3C//DTD SVG 1.1//EN"
 "http://www.w3.org/Graphics/SVG/1.1/DTD/svg11.dtd">
<!-- Generated by graphviz version 2.40.1 (20161225.0304)
 -->
<!-- Title: dependencies Pages: 1 -->
<svg width="1786pt" height="211pt"
 viewBox="0.00 0.00 1786.00 211.00" xmlns="http://www.w3.org/2000/svg" xmlns:xlink="http://www.w3.org/1999/xlink">
<g id="graph0" class="graph" transform="scale(1 1) rotate(0) translate(4 207)">
<title>dependencies</title>
<polygon fill="#ffffff" stroke="transparent" points="-4,4 -4,-207 1782,-207 1782,4 -4,4"/>
<text text-anchor="start" x="868.0091" y="-42.4" font-family="sans-serif" font-weight="bold" font-size="14.00" fill="#000000">Legend</text>
<polygon fill="#ffffb3" stroke="transparent" points="655,-10 655,-30 675,-30 675,-10 655,-10"/>
<text text-anchor="start" x="678.629" y="-15.4" font-family="sans-serif" font-size="14.00" fill="#000000"> &#160;Declarations</text>
<polygon fill="#8dd3c7" stroke="transparent" points="768,-10 768,-30 788,-30 788,-10 768,-10"/>
<text text-anchor="start" x="791.7251" y="-15.4" font-family="sans-serif" font-size="14.00" fill="#000000"> &#160;Module</text>
<polygon fill="#80b1d3" stroke="transparent" points="854,-10 854,-30 874,-30 874,-10 854,-10"/>
<text text-anchor="start" x="877.7812" y="-15.4" font-family="sans-serif" font-size="14.00" fill="#000000"> &#160;Bootstrap</text>
<polygon fill="#fdb462" stroke="transparent" points="951,-10 951,-30 971,-30 971,-10 951,-10"/>
<text text-anchor="start" x="974.6732" y="-15.4" font-family="sans-serif" font-size="14.00" fill="#000000"> &#160;Providers</text>
<polygon fill="#fb8072" stroke="transparent" points="1047,-10 1047,-30 1067,-30 1067,-10 1047,-10"/>
<text text-anchor="start" x="1070.7258" y="-15.4" font-family="sans-serif" font-size="14.00" fill="#000000"> &#160;Exports</text>
<g id="clust1" class="cluster">
<title>cluster_WorkflowManagementModule</title>
<polygon fill="none" stroke="#000000" stroke-dasharray="1,5" points="8,-70 8,-195 1770,-195 1770,-70 8,-70"/>
</g>
<g id="clust2" class="cluster">
<title>cluster_WorkflowManagementModule_declarations</title>
<polygon fill="none" stroke="#000000" points="586,-78 586,-130 1762,-130 1762,-78 586,-78"/>
</g>
<g id="clust9" class="cluster">
<title>cluster_WorkflowManagementModule_imports</title>
<polygon fill="none" stroke="#000000" points="16,-78 16,-130 578,-130 578,-78 16,-78"/>
</g>
<!-- WorkFlowCreateComponent -->
<g id="node1" class="node">
<title>WorkFlowCreateComponent</title>
<polygon fill="#ffffb3" stroke="#000000" points="1754.0196,-122 1575.9804,-122 1575.9804,-86 1754.0196,-86 1754.0196,-122"/>
<text text-anchor="middle" x="1665" y="-99.8" font-family="Times,serif" font-size="14.00" fill="#000000">WorkFlowCreateComponent</text>
</g>
<!-- WorkflowManagementModule -->
<g id="node7" class="node">
<title>WorkflowManagementModule</title>
<polygon fill="#8dd3c7" stroke="#000000" points="1007.1671,-187 1004.1671,-191 983.1671,-191 980.1671,-187 816.8329,-187 816.8329,-151 1007.1671,-151 1007.1671,-187"/>
<text text-anchor="middle" x="912" y="-164.8" font-family="Times,serif" font-size="14.00" fill="#000000">WorkflowManagementModule</text>
</g>
<!-- WorkFlowCreateComponent&#45;&gt;WorkflowManagementModule -->
<g id="edge1" class="edge">
<title>WorkFlowCreateComponent&#45;&gt;WorkflowManagementModule</title>
<path fill="none" stroke="#000000" d="M1665,-122.2921C1665,-144.2057 1665,-178 1665,-178 1665,-178 1017.368,-178 1017.368,-178"/>
<polygon fill="#000000" stroke="#000000" points="1017.368,-174.5001 1007.368,-178 1017.3679,-181.5001 1017.368,-174.5001"/>
</g>
<!-- WorkFlowEditComponent -->
<g id="node2" class="node">
<title>WorkFlowEditComponent</title>
<polygon fill="#ffffb3" stroke="#000000" points="1557.8215,-122 1392.1785,-122 1392.1785,-86 1557.8215,-86 1557.8215,-122"/>
<text text-anchor="middle" x="1475" y="-99.8" font-family="Times,serif" font-size="14.00" fill="#000000">WorkFlowEditComponent</text>
</g>
<!-- WorkFlowEditComponent&#45;&gt;WorkflowManagementModule -->
<g id="edge2" class="edge">
<title>WorkFlowEditComponent&#45;&gt;WorkflowManagementModule</title>
<path fill="none" stroke="#000000" d="M1475,-122.1061C1475,-141.3391 1475,-169 1475,-169 1475,-169 1017.1868,-169 1017.1868,-169"/>
<polygon fill="#000000" stroke="#000000" points="1017.1868,-165.5001 1007.1868,-169 1017.1867,-172.5001 1017.1868,-165.5001"/>
</g>
<!-- WorkFlowLevelComponent -->
<g id="node3" class="node">
<title>WorkFlowLevelComponent</title>
<polygon fill="#ffffb3" stroke="#000000" points="1373.8599,-122 1200.1401,-122 1200.1401,-86 1373.8599,-86 1373.8599,-122"/>
<text text-anchor="middle" x="1287" y="-99.8" font-family="Times,serif" font-size="14.00" fill="#000000">WorkFlowLevelComponent</text>
</g>
<!-- WorkFlowLevelComponent&#45;&gt;WorkflowManagementModule -->
<g id="edge3" class="edge">
<title>WorkFlowLevelComponent&#45;&gt;WorkflowManagementModule</title>
<path fill="none" stroke="#000000" d="M1287,-122.027C1287,-138.3976 1287,-160 1287,-160 1287,-160 1017.1131,-160 1017.1131,-160"/>
<polygon fill="#000000" stroke="#000000" points="1017.1131,-156.5001 1007.1131,-160 1017.1131,-163.5001 1017.1131,-156.5001"/>
</g>
<!-- WorkFlowListComponent -->
<g id="node4" class="node">
<title>WorkFlowListComponent</title>
<polygon fill="#ffffb3" stroke="#000000" points="1181.766,-122 1018.234,-122 1018.234,-86 1181.766,-86 1181.766,-122"/>
<text text-anchor="middle" x="1100" y="-99.8" font-family="Times,serif" font-size="14.00" fill="#000000">WorkFlowListComponent</text>
</g>
<!-- WorkFlowListComponent&#45;&gt;WorkflowManagementModule -->
<g id="edge4" class="edge">
<title>WorkFlowListComponent&#45;&gt;WorkflowManagementModule</title>
<path fill="none" stroke="#000000" d="M1018.0638,-104C1009.2418,-104 1003.391,-104 1003.391,-104 1003.391,-104 1003.391,-140.8939 1003.391,-140.8939"/>
<polygon fill="#000000" stroke="#000000" points="999.8911,-140.8938 1003.391,-150.8939 1006.8911,-140.8939 999.8911,-140.8938"/>
</g>
<!-- WorkflowDeleteComponent -->
<g id="node5" class="node">
<title>WorkflowDeleteComponent</title>
<polygon fill="#ffffb3" stroke="#000000" points="999.8975,-122 824.1025,-122 824.1025,-86 999.8975,-86 999.8975,-122"/>
<text text-anchor="middle" x="912" y="-99.8" font-family="Times,serif" font-size="14.00" fill="#000000">WorkflowDeleteComponent</text>
</g>
<!-- WorkflowDeleteComponent&#45;&gt;WorkflowManagementModule -->
<g id="edge5" class="edge">
<title>WorkflowDeleteComponent&#45;&gt;WorkflowManagementModule</title>
<path fill="none" stroke="#000000" d="M912,-122.1061C912,-122.1061 912,-140.991 912,-140.991"/>
<polygon fill="#000000" stroke="#000000" points="908.5001,-140.9909 912,-150.991 915.5001,-140.991 908.5001,-140.9909"/>
</g>
<!-- WorkflowManagementComponent -->
<g id="node6" class="node">
<title>WorkflowManagementComponent</title>
<polygon fill="#ffffb3" stroke="#000000" points="805.9496,-122 594.0504,-122 594.0504,-86 805.9496,-86 805.9496,-122"/>
<text text-anchor="middle" x="700" y="-99.8" font-family="Times,serif" font-size="14.00" fill="#000000">WorkflowManagementComponent</text>
</g>
<!-- WorkflowManagementComponent&#45;&gt;WorkflowManagementModule -->
<g id="edge6" class="edge">
<title>WorkflowManagementComponent&#45;&gt;WorkflowManagementModule</title>
<path fill="none" stroke="#000000" d="M806.2999,-104C815.0419,-104 820.609,-104 820.609,-104 820.609,-104 820.609,-140.8939 820.609,-140.8939"/>
<polygon fill="#000000" stroke="#000000" points="817.1091,-140.8938 820.609,-150.8939 824.1091,-140.8939 817.1091,-140.8938"/>
</g>
<!-- PageHeaderModule -->
<g id="node8" class="node">
<title>PageHeaderModule</title>
<polygon fill="#8dd3c7" stroke="#000000" points="569.6727,-122 566.6727,-126 545.6727,-126 542.6727,-122 442.3273,-122 442.3273,-86 569.6727,-86 569.6727,-122"/>
<text text-anchor="middle" x="506" y="-99.8" font-family="Times,serif" font-size="14.00" fill="#000000">PageHeaderModule</text>
</g>
<!-- PageHeaderModule&#45;&gt;WorkflowManagementModule -->
<g id="edge7" class="edge">
<title>PageHeaderModule&#45;&gt;WorkflowManagementModule</title>
<path fill="none" stroke="#000000" d="M506,-122.027C506,-138.3976 506,-160 506,-160 506,-160 806.811,-160 806.811,-160"/>
<polygon fill="#000000" stroke="#000000" points="806.8111,-163.5001 816.811,-160 806.811,-156.5001 806.8111,-163.5001"/>
</g>
<!-- SharingModuleModule -->
<g id="node9" class="node">
<title>SharingModuleModule</title>
<polygon fill="#8dd3c7" stroke="#000000" points="424.1484,-122 421.1484,-126 400.1484,-126 397.1484,-122 277.8516,-122 277.8516,-86 424.1484,-86 424.1484,-122"/>
<text text-anchor="middle" x="351" y="-99.8" font-family="Times,serif" font-size="14.00" fill="#000000">SharingModuleModule</text>
</g>
<!-- SharingModuleModule&#45;&gt;WorkflowManagementModule -->
<g id="edge8" class="edge">
<title>SharingModuleModule&#45;&gt;WorkflowManagementModule</title>
<path fill="none" stroke="#000000" d="M351,-122.1061C351,-141.3391 351,-169 351,-169 351,-169 806.834,-169 806.834,-169"/>
<polygon fill="#000000" stroke="#000000" points="806.834,-172.5001 816.834,-169 806.834,-165.5001 806.834,-172.5001"/>
</g>
<!-- WorkflowManagementRoutingModule -->
<g id="node10" class="node">
<title>WorkflowManagementRoutingModule</title>
<polygon fill="#8dd3c7" stroke="#000000" points="259.785,-122 256.785,-126 235.785,-126 232.785,-122 24.215,-122 24.215,-86 259.785,-86 259.785,-122"/>
<text text-anchor="middle" x="142" y="-99.8" font-family="Times,serif" font-size="14.00" fill="#000000">WorkflowManagementRoutingModule</text>
</g>
<!-- WorkflowManagementRoutingModule&#45;&gt;WorkflowManagementModule -->
<g id="edge9" class="edge">
<title>WorkflowManagementRoutingModule&#45;&gt;WorkflowManagementModule</title>
<path fill="none" stroke="#000000" d="M142,-122.2921C142,-144.2057 142,-178 142,-178 142,-178 806.8106,-178 806.8106,-178"/>
<polygon fill="#000000" stroke="#000000" points="806.8106,-181.5001 816.8106,-178 806.8106,-174.5001 806.8106,-181.5001"/>
</g>
</g>
</svg>
