<?xml version="1.0" encoding="UTF-8" standalone="no"?>
<!DOCTYPE svg PUBLIC "-//W3C//DTD SVG 1.1//EN"
 "http://www.w3.org/Graphics/SVG/1.1/DTD/svg11.dtd">
<!-- Generated by graphviz version 2.40.1 (20161225.0304)
 -->
<!-- Title: dependencies Pages: 1 -->
<svg width="1133pt" height="211pt"
 viewBox="0.00 0.00 1133.00 211.00" xmlns="http://www.w3.org/2000/svg" xmlns:xlink="http://www.w3.org/1999/xlink">
<g id="graph0" class="graph" transform="scale(1 1) rotate(0) translate(4 207)">
<title>dependencies</title>
<polygon fill="#ffffff" stroke="transparent" points="-4,4 -4,-207 1129,-207 1129,4 -4,4"/>
<text text-anchor="start" x="541.5091" y="-42.4" font-family="sans-serif" font-weight="bold" font-size="14.00" fill="#000000">Legend</text>
<polygon fill="#ffffb3" stroke="transparent" points="328.5,-10 328.5,-30 348.5,-30 348.5,-10 328.5,-10"/>
<text text-anchor="start" x="352.129" y="-15.4" font-family="sans-serif" font-size="14.00" fill="#000000"> &#160;Declarations</text>
<polygon fill="#8dd3c7" stroke="transparent" points="441.5,-10 441.5,-30 461.5,-30 461.5,-10 441.5,-10"/>
<text text-anchor="start" x="465.2251" y="-15.4" font-family="sans-serif" font-size="14.00" fill="#000000"> &#160;Module</text>
<polygon fill="#80b1d3" stroke="transparent" points="527.5,-10 527.5,-30 547.5,-30 547.5,-10 527.5,-10"/>
<text text-anchor="start" x="551.2812" y="-15.4" font-family="sans-serif" font-size="14.00" fill="#000000"> &#160;Bootstrap</text>
<polygon fill="#fdb462" stroke="transparent" points="624.5,-10 624.5,-30 644.5,-30 644.5,-10 624.5,-10"/>
<text text-anchor="start" x="648.1732" y="-15.4" font-family="sans-serif" font-size="14.00" fill="#000000"> &#160;Providers</text>
<polygon fill="#fb8072" stroke="transparent" points="720.5,-10 720.5,-30 740.5,-30 740.5,-10 720.5,-10"/>
<text text-anchor="start" x="744.2258" y="-15.4" font-family="sans-serif" font-size="14.00" fill="#000000"> &#160;Exports</text>
<g id="clust1" class="cluster">
<title>cluster_DeviceManagementModule</title>
<polygon fill="none" stroke="#000000" stroke-dasharray="1,5" points="8,-70 8,-195 1117,-195 1117,-70 8,-70"/>
</g>
<g id="clust2" class="cluster">
<title>cluster_DeviceManagementModule_declarations</title>
<polygon fill="none" stroke="#000000" points="718,-78 718,-130 1109,-130 1109,-78 718,-78"/>
</g>
<g id="clust5" class="cluster">
<title>cluster_DeviceManagementModule_imports</title>
<polygon fill="none" stroke="#000000" points="16,-78 16,-130 710,-130 710,-78 16,-78"/>
</g>
<!-- DeviceManagementComponent -->
<g id="node1" class="node">
<title>DeviceManagementComponent</title>
<polygon fill="#ffffb3" stroke="#000000" points="1101.0576,-122 906.9424,-122 906.9424,-86 1101.0576,-86 1101.0576,-122"/>
<text text-anchor="middle" x="1004" y="-99.8" font-family="Times,serif" font-size="14.00" fill="#000000">DeviceManagementComponent</text>
</g>
<!-- DeviceManagementModule -->
<g id="node3" class="node">
<title>DeviceManagementModule</title>
<polygon fill="#8dd3c7" stroke="#000000" points="584.2752,-187 581.2752,-191 560.2752,-191 557.2752,-187 411.7248,-187 411.7248,-151 584.2752,-151 584.2752,-187"/>
<text text-anchor="middle" x="498" y="-164.8" font-family="Times,serif" font-size="14.00" fill="#000000">DeviceManagementModule</text>
</g>
<!-- DeviceManagementComponent&#45;&gt;DeviceManagementModule -->
<g id="edge1" class="edge">
<title>DeviceManagementComponent&#45;&gt;DeviceManagementModule</title>
<path fill="none" stroke="#000000" d="M1004,-122.2843C1004,-143.3211 1004,-175 1004,-175 1004,-175 594.4096,-175 594.4096,-175"/>
<polygon fill="#000000" stroke="#000000" points="594.4096,-171.5001 584.4096,-175 594.4095,-178.5001 594.4096,-171.5001"/>
</g>
<!-- DevicesDeleteComponent -->
<g id="node2" class="node">
<title>DevicesDeleteComponent</title>
<polygon fill="#ffffb3" stroke="#000000" points="888.4496,-122 725.5504,-122 725.5504,-86 888.4496,-86 888.4496,-122"/>
<text text-anchor="middle" x="807" y="-99.8" font-family="Times,serif" font-size="14.00" fill="#000000">DevicesDeleteComponent</text>
</g>
<!-- DevicesDeleteComponent&#45;&gt;DeviceManagementModule -->
<g id="edge2" class="edge">
<title>DevicesDeleteComponent&#45;&gt;DeviceManagementModule</title>
<path fill="none" stroke="#000000" d="M807,-122.0225C807,-139.3734 807,-163 807,-163 807,-163 594.4846,-163 594.4846,-163"/>
<polygon fill="#000000" stroke="#000000" points="594.4846,-159.5001 584.4846,-163 594.4846,-166.5001 594.4846,-159.5001"/>
</g>
<!-- DeviceManagementRoutingModule -->
<g id="node4" class="node">
<title>DeviceManagementRoutingModule</title>
<polygon fill="#8dd3c7" stroke="#000000" points="701.8932,-122 698.8932,-126 677.8932,-126 674.8932,-122 484.1068,-122 484.1068,-86 701.8932,-86 701.8932,-122"/>
<text text-anchor="middle" x="593" y="-99.8" font-family="Times,serif" font-size="14.00" fill="#000000">DeviceManagementRoutingModule</text>
</g>
<!-- DeviceManagementRoutingModule&#45;&gt;DeviceManagementModule -->
<g id="edge3" class="edge">
<title>DeviceManagementRoutingModule&#45;&gt;DeviceManagementModule</title>
<path fill="none" stroke="#000000" d="M534.2206,-122.1061C534.2206,-122.1061 534.2206,-140.991 534.2206,-140.991"/>
<polygon fill="#000000" stroke="#000000" points="530.7206,-140.9909 534.2206,-150.991 537.7206,-140.991 530.7206,-140.9909"/>
</g>
<!-- PageHeaderModule -->
<g id="node5" class="node">
<title>PageHeaderModule</title>
<polygon fill="#8dd3c7" stroke="#000000" points="466.6727,-122 463.6727,-126 442.6727,-126 439.6727,-122 339.3273,-122 339.3273,-86 466.6727,-86 466.6727,-122"/>
<text text-anchor="middle" x="403" y="-99.8" font-family="Times,serif" font-size="14.00" fill="#000000">PageHeaderModule</text>
</g>
<!-- PageHeaderModule&#45;&gt;DeviceManagementModule -->
<g id="edge4" class="edge">
<title>PageHeaderModule&#45;&gt;DeviceManagementModule</title>
<path fill="none" stroke="#000000" d="M439.2244,-122.1061C439.2244,-122.1061 439.2244,-140.991 439.2244,-140.991"/>
<polygon fill="#000000" stroke="#000000" points="435.7245,-140.9909 439.2244,-150.991 442.7245,-140.991 435.7245,-140.9909"/>
</g>
<!-- SharingModuleModule -->
<g id="node6" class="node">
<title>SharingModuleModule</title>
<polygon fill="#8dd3c7" stroke="#000000" points="321.1484,-122 318.1484,-126 297.1484,-126 294.1484,-122 174.8516,-122 174.8516,-86 321.1484,-86 321.1484,-122"/>
<text text-anchor="middle" x="248" y="-99.8" font-family="Times,serif" font-size="14.00" fill="#000000">SharingModuleModule</text>
</g>
<!-- SharingModuleModule&#45;&gt;DeviceManagementModule -->
<g id="edge5" class="edge">
<title>SharingModuleModule&#45;&gt;DeviceManagementModule</title>
<path fill="none" stroke="#000000" d="M248,-122.0225C248,-139.3734 248,-163 248,-163 248,-163 401.6141,-163 401.6141,-163"/>
<polygon fill="#000000" stroke="#000000" points="401.6142,-166.5001 411.6141,-163 401.6141,-159.5001 401.6142,-166.5001"/>
</g>
<!-- SortingTableModule -->
<g id="node7" class="node">
<title>SortingTableModule</title>
<polygon fill="#8dd3c7" stroke="#000000" points="156.1471,-122 153.1471,-126 132.1471,-126 129.1471,-122 23.8529,-122 23.8529,-86 156.1471,-86 156.1471,-122"/>
<text text-anchor="middle" x="90" y="-99.8" font-family="Times,serif" font-size="14.00" fill="#000000">SortingTableModule</text>
</g>
<!-- SortingTableModule&#45;&gt;DeviceManagementModule -->
<g id="edge6" class="edge">
<title>SortingTableModule&#45;&gt;DeviceManagementModule</title>
<path fill="none" stroke="#000000" d="M90,-122.2843C90,-143.3211 90,-175 90,-175 90,-175 401.4737,-175 401.4737,-175"/>
<polygon fill="#000000" stroke="#000000" points="401.4737,-178.5001 411.4737,-175 401.4737,-171.5001 401.4737,-178.5001"/>
</g>
</g>
</svg>
