<?xml version="1.0" encoding="UTF-8" standalone="no"?>
<!DOCTYPE svg PUBLIC "-//W3C//DTD SVG 1.1//EN"
 "http://www.w3.org/Graphics/SVG/1.1/DTD/svg11.dtd">
<!-- Generated by graphviz version 2.40.1 (20161225.0304)
 -->
<!-- Title: dependencies Pages: 1 -->
<svg width="1004pt" height="284pt"
 viewBox="0.00 0.00 1004.00 284.00" xmlns="http://www.w3.org/2000/svg" xmlns:xlink="http://www.w3.org/1999/xlink">
<g id="graph0" class="graph" transform="scale(1 1) rotate(0) translate(4 280)">
<title>dependencies</title>
<polygon fill="#ffffff" stroke="transparent" points="-4,4 -4,-280 1000,-280 1000,4 -4,4"/>
<text text-anchor="start" x="477.0091" y="-42.4" font-family="sans-serif" font-weight="bold" font-size="14.00" fill="#000000">Legend</text>
<polygon fill="#ffffb3" stroke="transparent" points="264,-10 264,-30 284,-30 284,-10 264,-10"/>
<text text-anchor="start" x="287.629" y="-15.4" font-family="sans-serif" font-size="14.00" fill="#000000"> &#160;Declarations</text>
<polygon fill="#8dd3c7" stroke="transparent" points="377,-10 377,-30 397,-30 397,-10 377,-10"/>
<text text-anchor="start" x="400.7251" y="-15.4" font-family="sans-serif" font-size="14.00" fill="#000000"> &#160;Module</text>
<polygon fill="#80b1d3" stroke="transparent" points="463,-10 463,-30 483,-30 483,-10 463,-10"/>
<text text-anchor="start" x="486.7812" y="-15.4" font-family="sans-serif" font-size="14.00" fill="#000000"> &#160;Bootstrap</text>
<polygon fill="#fdb462" stroke="transparent" points="560,-10 560,-30 580,-30 580,-10 560,-10"/>
<text text-anchor="start" x="583.6732" y="-15.4" font-family="sans-serif" font-size="14.00" fill="#000000"> &#160;Providers</text>
<polygon fill="#fb8072" stroke="transparent" points="656,-10 656,-30 676,-30 676,-10 656,-10"/>
<text text-anchor="start" x="679.7258" y="-15.4" font-family="sans-serif" font-size="14.00" fill="#000000"> &#160;Exports</text>
<g id="clust1" class="cluster">
<title>cluster_SharingFormBuilderModule</title>
<polygon fill="none" stroke="#000000" stroke-dasharray="1,5" points="8,-70 8,-268 988,-268 988,-70 8,-70"/>
</g>
<g id="clust2" class="cluster">
<title>cluster_SharingFormBuilderModule_declarations</title>
<polygon fill="none" stroke="#000000" points="346,-78 346,-130 980,-130 980,-78 346,-78"/>
</g>
<g id="clust7" class="cluster">
<title>cluster_SharingFormBuilderModule_imports</title>
<polygon fill="none" stroke="#000000" points="16,-78 16,-130 338,-130 338,-78 16,-78"/>
</g>
<g id="clust8" class="cluster">
<title>cluster_SharingFormBuilderModule_exports</title>
<polygon fill="none" stroke="#000000" points="343,-208 343,-260 656,-260 656,-208 343,-208"/>
</g>
<!-- ElementsComponent -->
<g id="node1" class="node">
<title>ElementsComponent</title>
<polygon fill="#ffffb3" stroke="#000000" points="971.9313,-122 838.0687,-122 838.0687,-86 971.9313,-86 971.9313,-122"/>
<text text-anchor="middle" x="905" y="-99.8" font-family="Times,serif" font-size="14.00" fill="#000000">ElementsComponent</text>
</g>
<!-- SharingFormBuilderModule -->
<g id="node5" class="node">
<title>SharingFormBuilderModule</title>
<polygon fill="#8dd3c7" stroke="#000000" points="588.9255,-187 585.9255,-191 564.9255,-191 561.9255,-187 413.0745,-187 413.0745,-151 588.9255,-151 588.9255,-187"/>
<text text-anchor="middle" x="501" y="-164.8" font-family="Times,serif" font-size="14.00" fill="#000000">SharingFormBuilderModule</text>
</g>
<!-- ElementsComponent&#45;&gt;SharingFormBuilderModule -->
<g id="edge1" class="edge">
<title>ElementsComponent&#45;&gt;SharingFormBuilderModule</title>
<path fill="none" stroke="#000000" d="M905,-122.2843C905,-143.3211 905,-175 905,-175 905,-175 599.1603,-175 599.1603,-175"/>
<polygon fill="#000000" stroke="#000000" points="599.1603,-171.5001 589.1603,-175 599.1603,-178.5001 599.1603,-171.5001"/>
</g>
<!-- FormBuilderComponent -->
<g id="node2" class="node">
<title>FormBuilderComponent</title>
<polygon fill="#ffffb3" stroke="#000000" points="819.6596,-122 666.3404,-122 666.3404,-86 819.6596,-86 819.6596,-122"/>
<text text-anchor="middle" x="743" y="-99.8" font-family="Times,serif" font-size="14.00" fill="#000000">FormBuilderComponent</text>
</g>
<!-- FormBuilderComponent&#45;&gt;SharingFormBuilderModule -->
<g id="edge2" class="edge">
<title>FormBuilderComponent&#45;&gt;SharingFormBuilderModule</title>
<path fill="none" stroke="#000000" d="M743,-122.0225C743,-139.3734 743,-163 743,-163 743,-163 599.0521,-163 599.0521,-163"/>
<polygon fill="#000000" stroke="#000000" points="599.0522,-159.5001 589.0521,-163 599.0521,-166.5001 599.0522,-159.5001"/>
</g>
<!-- PropertiesComponent -->
<g id="node3" class="node">
<title>PropertiesComponent</title>
<polygon fill="#ffffb3" stroke="#000000" points="648.0912,-122 509.9088,-122 509.9088,-86 648.0912,-86 648.0912,-122"/>
<text text-anchor="middle" x="579" y="-99.8" font-family="Times,serif" font-size="14.00" fill="#000000">PropertiesComponent</text>
</g>
<!-- PropertiesComponent&#45;&gt;SharingFormBuilderModule -->
<g id="edge3" class="edge">
<title>PropertiesComponent&#45;&gt;SharingFormBuilderModule</title>
<path fill="none" stroke="#000000" d="M549.3335,-122.1061C549.3335,-122.1061 549.3335,-140.991 549.3335,-140.991"/>
<polygon fill="#000000" stroke="#000000" points="545.8335,-140.9909 549.3335,-150.991 552.8335,-140.991 545.8335,-140.9909"/>
</g>
<!-- SaveFormComponent -->
<g id="node4" class="node">
<title>SaveFormComponent</title>
<polygon fill="#ffffb3" stroke="#000000" points="492.3781,-122 353.6219,-122 353.6219,-86 492.3781,-86 492.3781,-122"/>
<text text-anchor="middle" x="423" y="-99.8" font-family="Times,serif" font-size="14.00" fill="#000000">SaveFormComponent</text>
</g>
<!-- SaveFormComponent&#45;&gt;SharingFormBuilderModule -->
<g id="edge4" class="edge">
<title>SaveFormComponent&#45;&gt;SharingFormBuilderModule</title>
<path fill="none" stroke="#000000" d="M452.8633,-122.1061C452.8633,-122.1061 452.8633,-140.991 452.8633,-140.991"/>
<polygon fill="#000000" stroke="#000000" points="449.3633,-140.9909 452.8633,-150.991 456.3633,-140.991 449.3633,-140.9909"/>
</g>
<!-- ElementsComponent  -->
<g id="node8" class="node">
<title>ElementsComponent </title>
<polygon fill="#fb8072" stroke="#000000" points="648.4306,-252 511.5694,-252 511.5694,-216 648.4306,-216 648.4306,-252"/>
<text text-anchor="middle" x="580" y="-229.8" font-family="Times,serif" font-size="14.00" fill="#000000">ElementsComponent </text>
</g>
<!-- SharingFormBuilderModule&#45;&gt;ElementsComponent  -->
<g id="edge7" class="edge">
<title>SharingFormBuilderModule&#45;&gt;ElementsComponent </title>
<path fill="none" stroke="#000000" stroke-dasharray="5,2" d="M550.1236,-187.1061C550.1236,-187.1061 550.1236,-205.991 550.1236,-205.991"/>
<polygon fill="#000000" stroke="#000000" points="546.6237,-205.9909 550.1236,-215.991 553.6237,-205.991 546.6237,-205.9909"/>
</g>
<!-- SaveFormComponent  -->
<g id="node9" class="node">
<title>SaveFormComponent </title>
<polygon fill="#fb8072" stroke="#000000" points="493.3785,-252 350.6215,-252 350.6215,-216 493.3785,-216 493.3785,-252"/>
<text text-anchor="middle" x="422" y="-229.8" font-family="Times,serif" font-size="14.00" fill="#000000">SaveFormComponent </text>
</g>
<!-- SharingFormBuilderModule&#45;&gt;SaveFormComponent  -->
<g id="edge8" class="edge">
<title>SharingFormBuilderModule&#45;&gt;SaveFormComponent </title>
<path fill="none" stroke="#000000" stroke-dasharray="5,2" d="M453.2383,-187.1061C453.2383,-187.1061 453.2383,-205.991 453.2383,-205.991"/>
<polygon fill="#000000" stroke="#000000" points="449.7383,-205.9909 453.2383,-215.991 456.7383,-205.991 449.7383,-205.9909"/>
</g>
<!-- DynamicFormModule -->
<g id="node6" class="node">
<title>DynamicFormModule</title>
<polygon fill="#8dd3c7" stroke="#000000" points="329.7007,-122 326.7007,-126 305.7007,-126 302.7007,-122 188.2993,-122 188.2993,-86 329.7007,-86 329.7007,-122"/>
<text text-anchor="middle" x="259" y="-99.8" font-family="Times,serif" font-size="14.00" fill="#000000">DynamicFormModule</text>
</g>
<!-- DynamicFormModule&#45;&gt;SharingFormBuilderModule -->
<g id="edge5" class="edge">
<title>DynamicFormModule&#45;&gt;SharingFormBuilderModule</title>
<path fill="none" stroke="#000000" d="M259,-122.0225C259,-139.3734 259,-163 259,-163 259,-163 402.9479,-163 402.9479,-163"/>
<polygon fill="#000000" stroke="#000000" points="402.9479,-166.5001 412.9479,-163 402.9478,-159.5001 402.9479,-166.5001"/>
</g>
<!-- SharingModuleModule -->
<g id="node7" class="node">
<title>SharingModuleModule</title>
<polygon fill="#8dd3c7" stroke="#000000" points="170.1484,-122 167.1484,-126 146.1484,-126 143.1484,-122 23.8516,-122 23.8516,-86 170.1484,-86 170.1484,-122"/>
<text text-anchor="middle" x="97" y="-99.8" font-family="Times,serif" font-size="14.00" fill="#000000">SharingModuleModule</text>
</g>
<!-- SharingModuleModule&#45;&gt;SharingFormBuilderModule -->
<g id="edge6" class="edge">
<title>SharingModuleModule&#45;&gt;SharingFormBuilderModule</title>
<path fill="none" stroke="#000000" d="M97,-122.2843C97,-143.3211 97,-175 97,-175 97,-175 402.8397,-175 402.8397,-175"/>
<polygon fill="#000000" stroke="#000000" points="402.8397,-178.5001 412.8397,-175 402.8397,-171.5001 402.8397,-178.5001"/>
</g>
</g>
</svg>
