<?xml version="1.0" encoding="utf-8"?>
<!-- Generator: Adobe Illustrator 22.1.0, SVG Export Plug-In . SVG Version: 6.00 Build 0)  -->
<svg version="1.1" id="Layer_1" xmlns="http://www.w3.org/2000/svg" xmlns:xlink="http://www.w3.org/1999/xlink" x="0px" y="0px"
	 viewBox="0 0 83.7 203" style="enable-background:new 0 0 83.7 203;" xml:space="preserve">
<style type="text/css">
	.st0{fill:none;stroke:#337E01;stroke-width:2;}
	.st1{fill:#337E01;}
	.st2{font-family:'Roboto-Regular';}
	.st3{font-size:20px;}
</style>
<g id="Group_796" transform="translate(-538 -291)">
	<g id="Group_795" transform="translate(538 306.023)">
		<g id="Group_491" transform="translate(0 0)">
			<path id="Path_833" class="st0" d="M41.8,0.2v175"/>
			<g id="cursor" transform="translate(25.952 12.975) rotate(135)">
				<path id="Path_834" class="st1" d="M105.6-128.7c0.5,0.1,0.8,0.5,0.7,1c0,0.1,0,0.2-0.1,0.2l-8.3,16.7c-0.1,0.2-0.2,0.3-0.4,0.4
					c-0.2,0.1-0.4,0.1-0.5,0.1c-0.2,0-0.3-0.1-0.5-0.3c-0.1-0.1-0.2-0.3-0.2-0.5v-7.5h-7.5c-0.2,0-0.4-0.1-0.5-0.2
					c-0.1-0.1-0.3-0.3-0.3-0.5c0-0.1,0-0.1,0-0.2c0-0.3,0.2-0.6,0.5-0.7l16.7-8.3C105.2-128.7,105.4-128.8,105.6-128.7z"/>
			</g>
			<ellipse id="Ellipse_57" class="st1" cx="42.3" cy="-0.3" rx="5.5" ry="5.5"/>
		</g>
	</g>
</g>
<text transform="matrix(4.489659e-11 -1 1 4.489659e-11 31.0946 144.0032)" class="st1 st2 st3">Accepted</text>
</svg>
