<?xml version="1.0" encoding="utf-8"?>
<!-- Generator: Adobe Illustrator 24.0.1, SVG Export Plug-In . SVG Version: 6.00 Build 0)  -->
<svg version="1.1" id="Layer_1" xmlns="http://www.w3.org/2000/svg" xmlns:xlink="http://www.w3.org/1999/xlink" x="0px" y="0px"
	 viewBox="0 0 100 100" style="enable-background:new 0 0 100 100;" xml:space="preserve">
<style type="text/css">
	.st0{fill:none;stroke:#29ABE2;stroke-width:5;stroke-miterlimit:10;}
	.st1{fill:#29ABE2;}
</style>
<circle class="st0" cx="50" cy="29.6" r="13.4"/>
<path class="st0" d="M20.8,71.9C21.3,56.2,34.2,43.6,50,43.6s28.7,12.6,29.2,28.3"/>
<g>
	<circle class="st0" cx="50.2" cy="72.9" r="11"/>
	<path class="st1" d="M52.6,83.6v4.3c0,0.3-0.3,0.6-0.6,0.6H48c-0.3,0-0.6-0.3-0.6-0.6v-4.4"/>
	<path class="st1" d="M47.4,62.3v-4.5c0-0.6,0.5-1.1,1.1-1.1h3c0.6,0,1.1,0.5,1.1,1.1v4.4"/>
	<path class="st1" d="M59.6,78.6l3,3c0.3,0.3,0.3,0.7,0,1l-2.6,2.6c-0.3,0.3-0.7,0.3-1,0L56,82.3"/>
	<path class="st1" d="M40.8,67.1l-3.3-3.3c-0.3-0.3-0.3-0.8,0-1.2l2.5-2.5c0.3-0.3,0.8-0.3,1.2,0l3.3,3.3"/>
	<path class="st1" d="M60.8,70.1h4.5c0.3,0,0.6,0.3,0.6,0.6v4c0,0.3-0.3,0.6-0.6,0.6H61"/>
	<path class="st1" d="M39.4,75.2h-4.7c-0.4,0-0.7-0.3-0.7-0.7v-3.8c0-0.4,0.3-0.7,0.7-0.7h4.8"/>
	<path class="st1" d="M55.6,63.3L59,60c0.2-0.2,0.6-0.2,0.8,0l2.8,2.8c0.2,0.2,0.2,0.6,0,0.8l-3.3,3.3"/>
	<path class="st1" d="M40.6,78.3l-3.2,3.2c-0.3,0.3-0.3,0.7,0,1l2.6,2.6c0.3,0.3,0.7,0.3,1,0l3.1-3.1"/>
</g>
</svg>
