<?xml version="1.0" encoding="utf-8"?>
<!-- Generator: Adobe Illustrator 24.0.1, SVG Export Plug-In . SVG Version: 6.00 Build 0)  -->
<svg version="1.1" id="Layer_1" xmlns="http://www.w3.org/2000/svg" xmlns:xlink="http://www.w3.org/1999/xlink" x="0px" y="0px"
	 viewBox="0 0 100 100" style="enable-background:new 0 0 100 100;" xml:space="preserve">
<style type="text/css">
	.st0{fill:none;}
	.st1{fill:#29ABE2;}
</style>
<g>
	<path class="st0" d="M54.8,54.1c-3,0-5.5,2.5-5.5,5.5s2.5,5.5,5.5,5.5c3,0,5.5-2.5,5.5-5.5C60.3,56.6,57.8,54.1,54.8,54.1z"/>
	<path class="st0" d="M71.1,61.5v-3.8h-2.4c-0.8,0-1.5-0.5-1.6-1.3c-0.3-1.1-0.8-2.2-1.4-3.3c-0.4-0.7-0.3-1.5,0.3-2.1l1.7-1.7
		L65,46.7l-1.7,1.7c-0.5,0.5-1.4,0.7-2.1,0.3c-1-0.6-2.1-1.1-3.3-1.3c-0.8-0.2-1.3-0.9-1.3-1.6v-2.4h-3.8v2.4c0,0.8-0.5,1.5-1.3,1.6
		c-1.1,0.3-2.2,0.7-3.3,1.4c-0.7,0.4-1.5,0.3-2.1-0.3l-1.7-1.7l-2.7,2.7l1.7,1.7c0.5,0.5,0.7,1.4,0.3,2.1c-0.2,0.4-0.4,0.8-0.6,1.2
		c-0.3,0.7-0.6,1.4-0.8,2.1c-0.2,0.8-0.9,1.3-1.6,1.3h-2.4v3.8h2.4c0.8,0,1.5,0.5,1.6,1.3c0.3,1.1,0.8,2.2,1.4,3.3
		c0.4,0.7,0.3,1.5-0.3,2.1l-1.7,1.7l2.7,2.7l1.7-1.7c0.5-0.5,1.4-0.7,2.1-0.3c1,0.6,2.1,1.1,3.3,1.3c0.8,0.2,1.3,0.9,1.3,1.6v2.4
		h3.8v-2.4c0-0.8,0.5-1.5,1.3-1.6c1.1-0.3,2.2-0.7,3.3-1.3c0.7-0.4,1.5-0.3,2.1,0.3l1.7,1.7l2.7-2.7L66,68.1
		c-0.5-0.5-0.7-1.4-0.3-2.1c0.6-1,1.1-2.1,1.4-3.3c0.2-0.8,0.9-1.3,1.6-1.3H71.1z M54.8,68.5c-4.9,0-8.9-4-8.9-8.9s4-8.9,8.9-8.9h0
		c4.9,0,8.9,4,8.9,8.9C63.7,64.5,59.7,68.5,54.8,68.5z"/>
	<path class="st0" d="M28.4,80.7h52.8c1,0,1.9-0.9,1.9-1.9v-48c0-1-0.9-1.9-1.9-1.9H28.4c-1,0-1.9,0.9-1.9,1.9v48
		C26.5,79.8,27.4,80.7,28.4,80.7z M71.3,68.6c0.7,0.7,0.7,1.7,0,2.4l-5.1,5.1c-0.7,0.7-1.7,0.7-2.4,0l-2-2c-0.5,0.3-1.1,0.5-1.7,0.7
		v2.8c0,0.9-0.8,1.7-1.7,1.7h-7.2c-0.9,0-1.7-0.8-1.7-1.7v-2.8c-0.6-0.2-1.1-0.4-1.7-0.7l-2,2c-0.7,0.7-1.7,0.7-2.4,0L38.3,71
		c-0.7-0.7-0.7-1.7,0-2.4l2-2c-0.3-0.5-0.5-1.1-0.7-1.7h-2.8c-0.9,0-1.7-0.8-1.7-1.7V56c0-0.9,0.8-1.7,1.7-1.7h2.8
		c0.2-0.5,0.4-1,0.6-1.4c0-0.1,0.1-0.2,0.1-0.3l-2-2c-0.7-0.7-0.7-1.7,0-2.4l5.1-5.1c0.7-0.7,1.7-0.7,2.4,0l2,2
		c0.5-0.3,1.1-0.5,1.7-0.7v-2.8c0-0.9,0.8-1.7,1.7-1.7h7.2c0.9,0,1.7,0.8,1.7,1.7v2.8c0.6,0.2,1.1,0.4,1.7,0.7l2-2
		c0.6-0.6,1.8-0.6,2.4,0l5.1,5.1c0.7,0.7,0.7,1.7,0,2.4l-2,2c0.3,0.5,0.5,1.1,0.7,1.7h2.8c0.9,0,1.7,0.8,1.7,1.7v7.2
		c0,0.9-0.8,1.7-1.7,1.7H70c-0.2,0.6-0.4,1.1-0.7,1.7L71.3,68.6z M81.7,79.3h-8.2v-3.4h8.2V79.3z M37.5,30.3h3.4v3.4h-3.4V30.3z
		 M32.7,30.3h3.4v3.4h-3.4V30.3z M27.9,30.3h3.4v3.4h-3.4V30.3z M27.9,35.1h53.8v3.4H27.9V35.1z M27.9,41.1h10.6v3.4H27.9V41.1z
		 M27.9,45.9h8.2v3.4h-8.2V45.9z"/>
	<path class="st1" d="M16.9,69.2v-48c0-1,0.9-1.9,1.9-1.9h52.8c1,0,1.9,0.9,1.9,1.9v2.9h3.4v-2.9c0-2.9-2.4-5.3-5.3-5.3H18.8
		c-2.9,0-5.3,2.4-5.3,5.3v48c0,2.9,2.4,5.3,5.3,5.3h2.9v-3.4h-2.9C17.8,71.1,16.9,70.2,16.9,69.2z"/>
	<rect x="18.3" y="20.7" class="st1" width="3.4" height="3.4"/>
	<rect x="23.1" y="20.7" class="st1" width="3.4" height="3.4"/>
	<rect x="27.9" y="20.7" class="st1" width="3.4" height="3.4"/>
	<path class="st1" d="M81.2,25.5H28.4c-2.9,0-5.3,2.4-5.3,5.3v48c0,2.9,2.4,5.3,5.3,5.3h52.8c2.9,0,5.3-2.4,5.3-5.3v-48
		C86.5,27.9,84.1,25.5,81.2,25.5z M26.5,30.8c0-1,0.9-1.9,1.9-1.9h52.8c1,0,1.9,0.9,1.9,1.9v48c0,1-0.9,1.9-1.9,1.9H28.4
		c-1,0-1.9-0.9-1.9-1.9V30.8z"/>
	<rect x="27.9" y="30.3" class="st1" width="3.4" height="3.4"/>
	<rect x="32.7" y="30.3" class="st1" width="3.4" height="3.4"/>
	<rect x="37.5" y="30.3" class="st1" width="3.4" height="3.4"/>
	<rect x="27.9" y="35.1" class="st1" width="53.8" height="3.4"/>
	<rect x="27.9" y="41.1" class="st1" width="10.6" height="3.4"/>
	<rect x="27.9" y="45.9" class="st1" width="8.2" height="3.4"/>
	<path class="st1" d="M54.8,50.7L54.8,50.7c-4.9,0-8.9,4-8.9,8.9s4,8.9,8.9,8.9s8.9-4,8.9-8.9C63.7,54.7,59.7,50.7,54.8,50.7z
		 M60.3,59.6c0,3-2.5,5.5-5.5,5.5c-3,0-5.5-2.5-5.5-5.5s2.5-5.5,5.5-5.5S60.3,56.6,60.3,59.6z"/>
	<path class="st1" d="M72.8,64.9c0.9,0,1.7-0.8,1.7-1.7V56c0-0.9-0.8-1.7-1.7-1.7H70c-0.2-0.6-0.4-1.1-0.7-1.7l2-2
		c0.7-0.7,0.7-1.7,0-2.4l-5.1-5.1c-0.6-0.6-1.8-0.6-2.4,0l-2,2c-0.5-0.3-1.1-0.5-1.7-0.7v-2.8c0-0.9-0.8-1.7-1.7-1.7h-7.2
		c-0.9,0-1.7,0.8-1.7,1.7v2.8c-0.6,0.2-1.1,0.4-1.7,0.7l-2-2c-0.7-0.7-1.7-0.7-2.4,0l-5.1,5.1c-0.7,0.7-0.7,1.7,0,2.4l2,2
		c0,0.1-0.1,0.2-0.1,0.3c-0.2,0.5-0.4,0.9-0.6,1.4h-2.8c-0.9,0-1.7,0.8-1.7,1.7v7.2c0,0.9,0.8,1.7,1.7,1.7h2.8
		c0.2,0.6,0.4,1.1,0.7,1.7l-2,2c-0.7,0.7-0.7,1.7,0,2.4l5.1,5.1c0.7,0.7,1.7,0.7,2.4,0l2-2c0.5,0.3,1.1,0.5,1.7,0.7v2.8
		c0,0.9,0.8,1.7,1.7,1.7h7.2c0.9,0,1.7-0.8,1.7-1.7v-2.8c0.6-0.2,1.1-0.4,1.7-0.7l2,2c0.7,0.7,1.7,0.7,2.4,0l5.1-5.1
		c0.7-0.7,0.7-1.7,0-2.4l-2-2c0.3-0.5,0.5-1.1,0.7-1.7H72.8z M67.1,62.8c-0.3,1.1-0.8,2.2-1.4,3.3c-0.4,0.7-0.3,1.5,0.3,2.1l1.7,1.7
		L65,72.5l-1.7-1.7c-0.5-0.5-1.4-0.7-2.1-0.3c-1,0.6-2.1,1.1-3.3,1.3c-0.8,0.2-1.3,0.9-1.3,1.6v2.4h-3.8v-2.4c0-0.8-0.5-1.5-1.3-1.6
		c-1.1-0.3-2.2-0.7-3.3-1.3c-0.7-0.4-1.5-0.3-2.1,0.3l-1.7,1.7l-2.7-2.7l1.7-1.7c0.5-0.5,0.7-1.4,0.3-2.1c-0.6-1-1.1-2.1-1.4-3.3
		c-0.2-0.8-0.9-1.3-1.6-1.3h-2.4v-3.8h2.4c0.8,0,1.5-0.5,1.6-1.3c0.2-0.7,0.4-1.4,0.8-2.1c0.2-0.4,0.4-0.8,0.6-1.2
		c0.4-0.7,0.3-1.5-0.3-2.1l-1.7-1.7l2.7-2.7l1.7,1.7c0.5,0.5,1.4,0.7,2.1,0.3c1-0.6,2.1-1.1,3.3-1.4c0.8-0.2,1.3-0.9,1.3-1.6v-2.4
		h3.8v2.4c0,0.8,0.5,1.5,1.3,1.6c1.1,0.3,2.2,0.7,3.3,1.3c0.7,0.4,1.5,0.3,2.1-0.3l1.7-1.7l2.7,2.7L66,51.1
		c-0.5,0.5-0.7,1.4-0.3,2.1c0.6,1,1.1,2.1,1.4,3.3c0.2,0.8,0.9,1.3,1.6,1.3h2.4v3.8h-2.4C67.9,61.5,67.3,62,67.1,62.8z"/>
	<rect x="73.5" y="75.9" class="st1" width="8.2" height="3.4"/>
</g>
</svg>
