<?xml version="1.0" encoding="utf-8"?>
<!-- Generator: Adobe Illustrator 22.1.0, SVG Export Plug-In . SVG Version: 6.00 Build 0)  -->
<svg version="1.1" id="Layer_1" xmlns="http://www.w3.org/2000/svg" xmlns:xlink="http://www.w3.org/1999/xlink" x="0px" y="0px"
	 viewBox="0 0 256 256" style="enable-background:new 0 0 256 256;" xml:space="preserve">
<style type="text/css">
	.st0{fill:#4C4C4C;}
</style>
<g>
	<g>
		<g>
			<path class="st0" d="M34.9,47.5H9.8c-2.8,0-5,2.3-5,5v25.2c0,2.8,2.3,5,5,5s5-2.3,5-5V57.6h20.1c2.8,0,5-2.3,5-5
				S37.7,47.5,34.9,47.5z"/>
			<path class="st0" d="M246.2,47.5h-25.2c-2.8,0-5,2.3-5,5s2.3,5,5,5h20.1v20.1c0,2.8,2.3,5,5,5s5-2.3,5-5V52.5
				C251.3,49.8,249,47.5,246.2,47.5z"/>
			<path class="st0" d="M246.2,173.3c-2.8,0-5,2.3-5,5v20.1h-20.1c-2.8,0-5,2.3-5,5s2.3,5,5,5h25.2c2.8,0,5-2.3,5-5v-25.2
				C251.3,175.5,249,173.3,246.2,173.3z"/>
			<path class="st0" d="M34.9,198.4H14.8v-20.1c0-2.8-2.3-5-5-5s-5,2.3-5,5v25.2c0,2.8,2.3,5,5,5h25.2c2.8,0,5-2.3,5-5
				S37.7,198.4,34.9,198.4z"/>
			<path class="st0" d="M231.1,183.3V72.7c0-2.8-2.3-5-5-5s-5,2.3-5,5v110.7c0,2.8,2.3,5,5,5C228.9,188.4,231.1,186.1,231.1,183.3z"
				/>
			<path class="st0" d="M201.6,67.6c-2.8,0-5,2.3-5,5v86.9c0,2.8,2.3,5,5,5s5-2.3,5-5V72.7C206.6,69.9,204.4,67.6,201.6,67.6z"/>
			<path class="st0" d="M201.6,177.1c-2.8,0-5,2.3-5,5v1.2c0,2.8,2.3,5,5,5s5-2.3,5-5v-1.2C206.6,179.4,204.4,177.1,201.6,177.1z"/>
			<path class="st0" d="M177.1,67.6c-2.8,0-5,2.3-5,5v86.9c0,2.8,2.3,5,5,5s5-2.3,5-5V72.7C182.1,69.9,179.8,67.6,177.1,67.6z"/>
			<path class="st0" d="M177.1,177.1c-2.8,0-5,2.3-5,5v1.2c0,2.8,2.3,5,5,5s5-2.3,5-5v-1.2C182.1,179.4,179.8,177.1,177.1,177.1z"/>
			<path class="st0" d="M152.5,67.6c-2.8,0-5,2.3-5,5v86.9c0,2.8,2.3,5,5,5s5-2.3,5-5V72.7C157.6,69.9,155.3,67.6,152.5,67.6z"/>
			<path class="st0" d="M152.5,177.1c-2.8,0-5,2.3-5,5v1.2c0,2.8,2.3,5,5,5s5-2.3,5-5v-1.2C157.6,179.4,155.3,177.1,152.5,177.1z"/>
			<path class="st0" d="M128,67.6c-2.8,0-5,2.3-5,5v86.9c0,2.8,2.3,5,5,5c2.8,0,5-2.3,5-5V72.7C133,69.9,130.8,67.6,128,67.6z"/>
			<path class="st0" d="M128,177.1c-2.8,0-5,2.3-5,5v1.2c0,2.8,2.3,5,5,5c2.8,0,5-2.3,5-5v-1.2C133,179.4,130.8,177.1,128,177.1z"/>
			<path class="st0" d="M103.5,67.6c-2.8,0-5,2.3-5,5v86.9c0,2.8,2.3,5,5,5c2.8,0,5-2.3,5-5V72.7C108.5,69.9,106.3,67.6,103.5,67.6z
				"/>
			<path class="st0" d="M103.5,177.1c-2.8,0-5,2.3-5,5v1.2c0,2.8,2.3,5,5,5c2.8,0,5-2.3,5-5v-1.2
				C108.5,179.4,106.3,177.1,103.5,177.1z"/>
			<path class="st0" d="M78.9,67.6c-2.8,0-5,2.3-5,5v86.9c0,2.8,2.3,5,5,5c2.8,0,5-2.3,5-5V72.7C84,69.9,81.7,67.6,78.9,67.6z"/>
			<path class="st0" d="M78.9,177.1c-2.8,0-5,2.3-5,5v1.2c0,2.8,2.3,5,5,5c2.8,0,5-2.3,5-5v-1.2C84,179.4,81.7,177.1,78.9,177.1z"/>
			<path class="st0" d="M54.4,67.6c-2.8,0-5,2.3-5,5v86.9c0,2.8,2.3,5,5,5c2.8,0,5-2.3,5-5V72.7C59.5,69.9,57.2,67.6,54.4,67.6z"/>
			<path class="st0" d="M54.4,177.1c-2.8,0-5,2.3-5,5v1.2c0,2.8,2.3,5,5,5c2.8,0,5-2.3,5-5v-1.2C59.5,179.4,57.2,177.1,54.4,177.1z"
				/>
			<path class="st0" d="M34.9,183.3V72.7c0-2.8-2.3-5-5-5s-5,2.3-5,5v110.7c0,2.8,2.3,5,5,5C32.7,188.4,34.9,186.1,34.9,183.3z"/>
		</g>
	</g>
</g>
</svg>
