<?xml version="1.0" encoding="utf-8"?>
<!-- Generator: Adobe Illustrator 22.1.0, SVG Export Plug-In . SVG Version: 6.00 Build 0)  -->
<svg version="1.1" id="Layer_1" xmlns="http://www.w3.org/2000/svg" xmlns:xlink="http://www.w3.org/1999/xlink" x="0px" y="0px"
	 viewBox="0 0 256 256" style="enable-background:new 0 0 256 256;" xml:space="preserve">
<style type="text/css">
	.st0{fill:#4C4C4C;}
</style>
<g>
	<path class="st0" d="M96,68H76V48c0-2.2-1.8-4-4-4s-4,1.8-4,4v20H48c-2.2,0-4,1.8-4,4s1.8,4,4,4h20v20c0,2.2,1.8,4,4,4s4-1.8,4-4
		V76h20c2.2,0,4-1.8,4-4S98.2,68,96,68z"/>
	<path class="st0" d="M208,68h-48c-2.2,0-4,1.8-4,4s1.8,4,4,4h48c2.2,0,4-1.8,4-4S210.2,68,208,68z"/>
	<path class="st0" d="M132,12h-8H12v112v8v112h112h8h112V132v-8V12H132z M20,20h104v104H20V20z M20,236V132h104v104H20z M236,236
		H132V132h104V236z M132,124V20h104v104H132z"/>
	<path class="st0" d="M160,200h48c2.2,0,4-1.8,4-4s-1.8-4-4-4h-48c-2.2,0-4,1.8-4,4S157.8,200,160,200z"/>
	<path class="st0" d="M160,176h48c2.2,0,4-1.8,4-4s-1.8-4-4-4h-48c-2.2,0-4,1.8-4,4S157.8,176,160,176z"/>
	<path class="st0" d="M94.8,161.2c-1.6-1.6-4.1-1.6-5.7,0L72,178.3l-17.2-17.2c-1.6-1.6-4.1-1.6-5.7,0s-1.6,4.1,0,5.7L66.3,184
		l-17.2,17.2c-1.6,1.6-1.6,4.1,0,5.7C50,207.6,51,208,52,208s2-0.4,2.8-1.2L72,189.7l17.2,17.2C90,207.6,91,208,92,208
		s2-0.4,2.8-1.2c1.6-1.6,1.6-4.1,0-5.7L77.7,184l17.2-17.2C96.4,165.3,96.4,162.7,94.8,161.2z"/>
</g>
</svg>
