<?xml version="1.0" encoding="utf-8"?>
<!-- Generator: Adobe Illustrator 22.1.0, SVG Export Plug-In . SVG Version: 6.00 Build 0)  -->
<svg version="1.1" id="Layer_1" xmlns="http://www.w3.org/2000/svg" xmlns:xlink="http://www.w3.org/1999/xlink" x="0px" y="0px"
	 viewBox="0 0 256 256" style="enable-background:new 0 0 256 256;" xml:space="preserve">
<style type="text/css">
	.st0{fill:#4C4C4C;}
</style>
<g>
	<g>
		<g>
			<path class="st0" d="M221.4,25.1H210V6h-19.1v19.1H65.1V6H46v19.1H34.6C18.8,25.1,6,37.9,6,53.7v167.8C6,237.2,18.8,250,34.6,250
				h186.8c15.8,0,28.6-12.8,28.6-28.6V53.7C250,37.9,237.2,25.1,221.4,25.1z M230.9,221.4c0,5.3-4.3,9.5-9.5,9.5H34.6
				c-5.3,0-9.5-4.3-9.5-9.5V95.6h205.9V221.4z M230.9,76.5H25.1V53.7c0-5.3,4.3-9.5,9.5-9.5H46v19.1h19.1V44.1h125.8v19.1H210V44.1
				h11.4c5.3,0,9.5,4.3,9.5,9.5V76.5z"/>
		</g>
	</g>
	<g>
		<g>
			<rect x="42.2" y="115.6" class="st0" width="19.1" height="19.1"/>
		</g>
	</g>
	<g>
		<g>
			<rect x="80.3" y="115.6" class="st0" width="19.1" height="19.1"/>
		</g>
	</g>
	<g>
		<g>
			<rect x="118.5" y="115.6" class="st0" width="19.1" height="19.1"/>
		</g>
	</g>
	<g>
		<g>
			<rect x="156.6" y="115.6" class="st0" width="19.1" height="19.1"/>
		</g>
	</g>
	<g>
		<g>
			<rect x="194.7" y="115.6" class="st0" width="19.1" height="19.1"/>
		</g>
	</g>
	<g>
		<g>
			<rect x="42.2" y="153.7" class="st0" width="19.1" height="19.1"/>
		</g>
	</g>
	<g>
		<g>
			<rect x="80.3" y="153.7" class="st0" width="19.1" height="19.1"/>
		</g>
	</g>
	<g>
		<g>
			<rect x="118.5" y="153.7" class="st0" width="19.1" height="19.1"/>
		</g>
	</g>
	<g>
		<g>
			<rect x="156.6" y="153.7" class="st0" width="19.1" height="19.1"/>
		</g>
	</g>
	<g>
		<g>
			<rect x="42.2" y="191.9" class="st0" width="19.1" height="19.1"/>
		</g>
	</g>
	<g>
		<g>
			<rect x="80.3" y="191.9" class="st0" width="19.1" height="19.1"/>
		</g>
	</g>
	<g>
		<g>
			<rect x="118.5" y="191.9" class="st0" width="19.1" height="19.1"/>
		</g>
	</g>
	<g>
		<g>
			<rect x="156.6" y="191.9" class="st0" width="19.1" height="19.1"/>
		</g>
	</g>
	<g>
		<g>
			<rect x="194.7" y="153.7" class="st0" width="19.1" height="19.1"/>
		</g>
	</g>
</g>
</svg>
