<svg xmlns="http://www.w3.org/2000/svg" width="73.118" height="99.707" viewBox="0 0 73.118 99.707">
  <g id="Delete" transform="translate(-35.797)">
    <path id="Path_13" data-name="Path 13" d="M103.6,13.3H88.974V6.647C88.974,1.605,87.343,0,82.327,0H62.385c-4.6,0-6.647,2.229-6.647,6.647V13.3H41.115A5.158,5.158,0,0,0,35.8,18.287a5.158,5.158,0,0,0,5.318,4.988H103.6a5.158,5.158,0,0,0,5.318-4.988A5.158,5.158,0,0,0,103.6,13.3Zm-21.27,0H62.386V6.647H82.327V13.3Z" fill="#b6dffc" fill-rule="evenodd"/>
    <path id="Path_14" data-name="Path 14" d="M45.944,92.939a9.055,9.055,0,0,0,9.13,6.767H89.639a9.054,9.054,0,0,0,9.129-6.767l6.824-66.351H39.12ZM85.65,36.559a3.324,3.324,0,0,1,6.647,0L88.974,86.413a3.323,3.323,0,1,1-6.647,0Zm-16.618,0a3.323,3.323,0,0,1,6.647,0V86.413a3.323,3.323,0,1,1-6.647,0ZM55.738,33.236a3.323,3.323,0,0,1,3.323,3.323l3.324,49.853a3.324,3.324,0,0,1-6.647,0L52.415,36.559A3.324,3.324,0,0,1,55.738,33.236Z" fill="#c5c5c5" fill-rule="evenodd"/>
  </g>
</svg>
