<?xml version="1.0" encoding="utf-8"?>
<!-- Generator: Adobe Illustrator 24.0.1, SVG Export Plug-In . SVG Version: 6.00 Build 0)  -->
<svg version="1.1" id="Layer_1" xmlns="http://www.w3.org/2000/svg" xmlns:xlink="http://www.w3.org/1999/xlink" x="0px" y="0px"
	 viewBox="0 0 150 150" style="enable-background:new 0 0 150 150;" xml:space="preserve">
<style type="text/css">
	.st0{fill:#707070;}
	.st1{fill:#FFFFFF;}
	.st2{fill:#7F7F7F;}
</style>
<path class="st0" d="M97.79,136.38H52.12c-4.79,0-8.67-3.88-8.67-8.67V26.04c0-4.79,3.88-8.67,8.67-8.67h45.67
	c4.79,0,8.67,3.88,8.67,8.67v101.67C106.46,132.49,102.58,136.38,97.79,136.38z"/>
<rect x="46.67" y="33.5" class="st1" width="56.67" height="86"/>
<g>
	<polygon class="st0" points="57.97,68.42 59.08,68.97 59.08,68.97 59.1,68.92 59.12,68.87 56.84,67.91 56.83,67.91 59.08,68.97 
		57.97,68.42 59.1,68.92 59.1,68.92 57.97,68.41 56.82,67.95 56.82,67.95 57.97,68.41 56.86,67.86 56.86,67.86 57.97,68.42 
		59.1,68.92 	"/>
	<polygon class="st0" points="60.96,63.33 61.95,64.07 61.96,64.07 60.96,63.32 61.84,64.2 61.84,64.2 60.96,63.32 60.02,62.52 
		60.02,62.52 60.96,63.33 61.95,64.07 60.96,63.33 61.9,64.13 61.91,64.13 60.09,62.45 60.09,62.45 60.02,62.51 59.97,62.58 
		61.9,64.13 	"/>
	<path class="st0" d="M75,56.74l0.01-1.24l-0.01,0c-6.02,0-11.42,2.74-14.99,7.03l0,0c-1.35,1.62-2.43,3.45-3.2,5.44l0,0
		c-0.85,2.19-1.31,4.57-1.31,7.04c0,10.77,8.73,19.5,19.5,19.5c10.77,0,19.5-8.73,19.5-19.5c0-10.77-8.73-19.5-19.5-19.5l0.01,0
		L75,56.74l0,1.24c9.4,0,17.02,7.62,17.02,17.02c0,9.4-7.62,17.02-17.02,17.02c-9.4,0-17.02-7.62-17.02-17.02
		c0-2.16,0.4-4.23,1.14-6.14l0,0l0,0c0.67-1.73,1.61-3.33,2.79-4.74l0,0l0,0c3.12-3.75,7.82-6.14,13.08-6.14v-1.05l-0.01,1.05
		l0.01,0v-1.05l-0.01,1.05l0,0l0,0L75,56.74z"/>
</g>
<g>
	<path class="st0" d="M107.79,43.29v13.68c0,0.55-0.45,1-1,1h0c-0.55,0-1-0.45-1-1V43.29c0-0.55,0.45-1,1-1h0
		C107.34,42.29,107.79,42.74,107.79,43.29z"/>
</g>
<g>
	<path class="st0" d="M44.38,40.29v12.1c0,0.55-0.45,1-1,1l0,0c-0.55,0-1-0.45-1-1v-12.1c0-0.55,0.45-1,1-1l0,0
		C43.93,39.29,44.38,39.74,44.38,40.29z"/>
</g>
<g>
	<path class="st0" d="M44.38,56.21v12.1c0,0.55-0.45,1-1,1l0,0c-0.55,0-1-0.45-1-1v-12.1c0-0.55,0.45-1,1-1l0,0
		C43.93,55.21,44.38,55.66,44.38,56.21z"/>
</g>
<g>
	<path class="st0" d="M66.11,76.58l3.6,3.6c0.84,0.84,1.97,1.27,3.07,1.27c1.15,0,2.33-0.47,3.18-1.39l-1.59-1.47l1.52,1.54
		l7.99-7.87c0.85-0.84,0.86-2.21,0.02-3.06s-2.21-0.86-3.06-0.02l-8.03,7.91l-0.03,0.04l0,0l0,0.01l0-0.01l0,0l0,0.01l0-0.01
		l-0.01,0l0,0l0,0.01l0-0.01l0,0l0,0.01l0-0.01l0,0l-3.6-3.6c-0.85-0.85-2.22-0.85-3.06,0C65.26,74.36,65.26,75.73,66.11,76.58
		L66.11,76.58z"/>
</g>
<circle class="st2" cx="75" cy="128.25" r="5.58"/>
<path class="st2" d="M83.28,26.88H66.72c-0.54,0-0.97-0.43-0.97-0.97v0c0-0.54,0.43-0.97,0.97-0.97h16.56
	c0.54,0,0.97,0.43,0.97,0.97v0C84.25,26.44,83.82,26.88,83.28,26.88z"/>
</svg>
