<?xml version="1.0" encoding="utf-8"?>
<!-- Generator: Adobe Illustrator 22.1.0, SVG Export Plug-In . SVG Version: 6.00 Build 0)  -->
<svg version="1.1" id="Layer_1" xmlns="http://www.w3.org/2000/svg" xmlns:xlink="http://www.w3.org/1999/xlink" x="0px" y="0px"
	 viewBox="0 0 256 256" style="enable-background:new 0 0 256 256;" xml:space="preserve">
<style type="text/css">
	.st0{fill:#4C4C4C;}
</style>
<g>
	<g id="radio-button-on">
		<path class="st0" d="M128,9.3C64.4,9.3,12.3,61.3,12.3,125s52,115.7,115.7,115.7S243.7,188.6,243.7,125S191.6,9.3,128,9.3z
			 M128,217.5c-50.9,0-92.5-41.6-92.5-92.5S77.1,32.5,128,32.5s92.5,41.6,92.5,92.5S178.9,217.5,128,217.5z"/>
	</g>
</g>
<path class="st0" d="M73.9,112h108.1c3,0,4.6,3.6,2.6,5.8L129.5,180c-1.4,1.6-3.9,1.6-5.3-0.1l-53-62.2
	C69.3,115.5,70.9,112,73.9,112z"/>
</svg>
