<?xml version="1.0" encoding="utf-8"?>
<!-- Generator: Adobe Illustrator 24.1.0, SVG Export Plug-In . SVG Version: 6.00 Build 0)  -->
<svg version="1.1" id="Layer_1" xmlns="http://www.w3.org/2000/svg" xmlns:xlink="http://www.w3.org/1999/xlink" x="0px" y="0px"
	 viewBox="0 0 150 150" style="enable-background:new 0 0 150 150;" xml:space="preserve">
<style type="text/css">
	.st0{fill:#29ABE2;}
</style>
<g>
	<path class="st0" d="M88.37,110.42L88.37,110.42c-5.87,3.3-12.62,5.17-19.84,5.17c-11.22,0-21.35-4.54-28.7-11.89
		C32.48,96.35,27.94,86.22,27.94,75c0-11.22,4.54-21.35,11.89-28.7c7.36-7.35,17.49-11.89,28.7-11.89c9.09,0,17.44,2.97,24.21,8.01
		c6.76,5.03,11.9,12.12,14.5,20.33c0.58,1.83,2.53,2.84,4.35,2.26c1.83-0.58,2.84-2.53,2.26-4.35c-3.04-9.62-9.06-17.91-16.97-23.8
		c-7.91-5.89-17.74-9.38-28.35-9.38c-13.11,0-25.02,5.33-33.61,13.92C26.33,49.98,21,61.89,21,75c0,13.12,5.33,25.02,13.92,33.61
		c8.59,8.6,20.5,13.92,33.61,13.92c8.43,0,16.37-2.2,23.23-6.06c1.67-0.94,2.26-3.05,1.32-4.72
		C92.15,110.08,90.04,109.48,88.37,110.42z"/>
	<path class="st0" d="M88.42,74.54c0,1.92,1.55,3.47,3.47,3.47h33.64c1.92,0,3.47-1.55,3.47-3.47c0-1.92-1.55-3.47-3.47-3.47H91.89
		C89.98,71.07,88.42,72.63,88.42,74.54z"/>
	<path class="st0" d="M125.53,85.43H91.89c-1.92,0-3.47,1.55-3.47,3.47c0,1.92,1.55,3.47,3.47,3.47h33.64
		c1.92,0,3.47-1.55,3.47-3.47C129,86.99,127.45,85.43,125.53,85.43z"/>
	<path class="st0" d="M125.53,99.8H91.89c-1.92,0-3.47,1.55-3.47,3.47c0,1.92,1.55,3.47,3.47,3.47h33.64c1.92,0,3.47-1.55,3.47-3.47
		C129,101.35,127.45,99.8,125.53,99.8z"/>
	<path class="st0" d="M54.79,86.63c1.26,1.16,2.89,1.75,4.49,1.74c0.9,0,1.8-0.18,2.65-0.55c0.84-0.37,1.63-0.92,2.28-1.64l0,0
		l19.38-21.41c1.29-1.42,1.18-3.61-0.24-4.9c-1.42-1.29-3.61-1.18-4.9,0.24L59.26,81.32l-7.39-6.77c-1.41-1.29-3.61-1.2-4.9,0.22
		c-1.29,1.41-1.2,3.61,0.22,4.9l0,0L54.79,86.63z"/>
</g>
</svg>
