<?xml version="1.0" encoding="utf-8"?>
<!-- Generator: Adobe Illustrator 24.0.1, SVG Export Plug-In . SVG Version: 6.00 Build 0)  -->
<svg version="1.1" id="Layer_1" xmlns="http://www.w3.org/2000/svg" xmlns:xlink="http://www.w3.org/1999/xlink" x="0px" y="0px"
	 viewBox="0 0 150 150" style="enable-background:new 0 0 150 150;" xml:space="preserve">
<style type="text/css">
	.st0{fill:#4C4C4C;}
</style>
<g>
	<path class="st0" d="M88.4,110.4L88.4,110.4c-5.9,3.3-12.6,5.2-19.8,5.2c-11.2,0-21.3-4.5-28.7-11.9S27.9,86.2,27.9,75
		s4.5-21.3,11.9-28.7c7.4-7.3,17.5-11.9,28.7-11.9c9.1,0,17.4,3,24.2,8c6.8,5,11.9,12.1,14.5,20.3c0.6,1.8,2.5,2.8,4.3,2.3
		c1.8-0.6,2.8-2.5,2.3-4.3c-3-9.6-9.1-17.9-17-23.8s-17.7-9.4-28.3-9.4c-13.1,0-25,5.3-33.6,13.9C26.3,50,21,61.9,21,75
		c0,13.1,5.3,25,13.9,33.6c8.6,8.6,20.5,13.9,33.6,13.9c8.4,0,16.4-2.2,23.2-6.1c1.7-0.9,2.3-3.1,1.3-4.7
		C92.2,110.1,90,109.5,88.4,110.4z"/>
	<path class="st0" d="M88.4,74.5c0,1.9,1.6,3.5,3.5,3.5h33.6c1.9,0,3.5-1.6,3.5-3.5s-1.6-3.5-3.5-3.5H91.9
		C90,71.1,88.4,72.6,88.4,74.5z"/>
	<path class="st0" d="M125.5,85.4H91.9c-1.9,0-3.5,1.6-3.5,3.5s1.6,3.5,3.5,3.5h33.6c1.9,0,3.5-1.6,3.5-3.5
		C129,87,127.4,85.4,125.5,85.4z"/>
	<path class="st0" d="M125.5,99.8H91.9c-1.9,0-3.5,1.6-3.5,3.5s1.6,3.5,3.5,3.5h33.6c1.9,0,3.5-1.6,3.5-3.5
		C129,101.3,127.4,99.8,125.5,99.8z"/>
	<path class="st0" d="M54.8,86.6c1.3,1.2,2.9,1.8,4.5,1.7c0.9,0,1.8-0.2,2.7-0.6c0.8-0.4,1.6-0.9,2.3-1.6l0,0l19.4-21.4
		c1.3-1.4,1.2-3.6-0.2-4.9s-3.6-1.2-4.9,0.2L59.3,81.3l-7.4-6.8c-1.4-1.3-3.6-1.2-4.9,0.2c-1.3,1.4-1.2,3.6,0.2,4.9l0,0L54.8,86.6z"
		/>
</g>
</svg>
