<svg xmlns="http://www.w3.org/2000/svg" width="126.477" height="125.841" viewBox="0 0 126.477 125.841">
  <g id="edit" transform="translate(0 -0.261)">
    <path id="Path_5" data-name="Path 5" d="M116.733,105.888a3.15,3.15,0,0,0-3.15,3.15v27.968a9.459,9.459,0,0,1-9.45,9.45H15.75a9.459,9.459,0,0,1-9.45-9.45V54.922a9.461,9.461,0,0,1,9.45-9.45H43.717a3.15,3.15,0,1,0,0-6.3H15.75A15.767,15.767,0,0,0,0,54.922v82.085a15.767,15.767,0,0,0,15.75,15.75h88.383a15.767,15.767,0,0,0,15.75-15.75V109.038a3.15,3.15,0,0,0-3.15-3.15Zm0,0" transform="translate(0 -26.655)" fill="#c5c5c5"/>
    <path id="Path_6" data-name="Path 6" d="M192.746,4.413a14.175,14.175,0,0,0-20.046,0l-56.2,56.2A3.149,3.149,0,0,0,115.7,62l-7.39,26.68a3.149,3.149,0,0,0,3.876,3.877l26.68-7.391a3.149,3.149,0,0,0,1.387-.808l56.2-56.2a14.19,14.19,0,0,0,0-20.046ZM123.367,62.656l45.993-45.994L184.192,31.5,138.2,77.489ZM120.4,68.6l11.85,11.852-16.392,4.542Zm71.584-44.9-3.341,3.341L173.813,12.207l3.342-3.341a7.874,7.874,0,0,1,11.135,0l3.7,3.7A7.886,7.886,0,0,1,191.988,23.7Zm0,0" transform="translate(-74.111 0)" fill="#b6dffc"/>
  </g>
</svg>
