<?xml version="1.0" encoding="utf-8"?>
<!-- Generator: Adobe Illustrator 23.1.0, SVG Export Plug-In . SVG Version: 6.00 Build 0)  -->
<svg version="1.1" id="Layer_1" xmlns="http://www.w3.org/2000/svg" xmlns:xlink="http://www.w3.org/1999/xlink" x="0px" y="0px"
	 viewBox="0 0 150 150" style="enable-background:new 0 0 150 150;" xml:space="preserve">
<style type="text/css">
	.st0{fill:none;stroke:#29ABE2;stroke-width:5;stroke-miterlimit:10;}
	.st1{fill:none;stroke:#29ABE2;stroke-width:5;stroke-linecap:round;stroke-miterlimit:10;}
</style>
<path class="st0" d="M122.67,124.33h-63c-3.5,0-6.33-2.84-6.33-6.33V78.67c0-3.5,2.84-6.33,6.33-6.33h63c3.5,0,6.33,2.84,6.33,6.33
	V118C129,121.5,126.16,124.33,122.67,124.33z"/>
<path class="st0" d="M55.17,73.83l34.95,24.19c1.74,1.19,4.06,1.12,5.72-0.19l30.83-24.17"/>
<path class="st1" d="M43.33,112.5H27.04c-2.51,0-4.54-2.03-4.54-4.54V26.29c0-2.51,2.03-4.54,4.54-4.54h78.17
	c2.51,0,4.54,2.03,4.54,4.54v33.04"/>
<line class="st1" x1="39.17" y1="38.83" x2="82.17" y2="38.83"/>
<line class="st1" x1="39.17" y1="51.67" x2="82.17" y2="51.67"/>
</svg>
