<svg id="Excel" xmlns="http://www.w3.org/2000/svg" width="122" height="122" viewBox="0 0 122 122">
  <path id="Path_7" data-name="Path 7" d="M58.991,3H16V17H30.222v9.53H16v9.314H30.077v9.385H16v9.385H30.077V64H16v9.385H30.077v9.385H16V96.846H58.991a4.019,4.019,0,0,0,3.932-4.082V7.082A4.019,4.019,0,0,0,58.991,3ZM53.538,82.769H34.769V73.385H53.538Zm0-18.769H34.769V54.615H53.538Zm0-18.769H34.769V35.846H53.538Zm0-18.769H34.769V17.077H53.538Z" transform="translate(59.077 11.077)" fill="#c5c5c5"/>
  <path id="Path_8" data-name="Path 8" d="M0,13.556v94.893L70.385,122V0ZM44.521,84.837l-8.188-15.48a13.73,13.73,0,0,1-.962-3.181h-.127a24.093,24.093,0,0,1-1.1,3.317L25.93,84.837H13.171L28.318,61.075,14.462,37.309H27.488l6.794,14.251a24.9,24.9,0,0,1,1.426,4.007h.131q.4-1.394,1.492-4.143L44.887,37.3H56.814L42.564,60.869,57.213,84.832l-12.693,0Z" fill="#b6dffc"/>
</svg>
