<?xml version="1.0" encoding="utf-8"?>
<!-- Generator: Adobe Illustrator 22.1.0, SVG Export Plug-In . SVG Version: 6.00 Build 0)  -->
<svg version="1.1" id="Layer_1" xmlns="http://www.w3.org/2000/svg" xmlns:xlink="http://www.w3.org/1999/xlink" x="0px" y="0px"
	 viewBox="0 0 256 256" style="enable-background:new 0 0 256 256;" xml:space="preserve">
<path d="M247.6,118.6c-12.7-20.8-30.3-38-51.4-50.2c-21.5-12.7-44.3-19-68.2-19s-46.7,6.3-68.2,19C38.7,80.6,21.1,97.8,8.4,118.6
	c-3.6,5.7-3.6,13.1,0,18.8c12.7,20.8,30.3,38,51.4,50.2c21.5,12.7,44.3,19,68.2,19s46.7-6.3,68.2-18.9
	c21.1-12.2,38.7-29.5,51.4-50.3C251.2,131.7,251.2,124.3,247.6,118.6z M98.7,81.3C106.9,73.1,116.6,69,128,69c1.7,0,3.4,0.7,4.6,1.9
	c1.3,1.2,2,2.9,2,4.7c0,1.7-0.7,3.4-2,4.6c-1.2,1.3-2.9,2-4.6,1.9c-15.7,0.1-28.3,12.7-28.4,28.4c0.1,1.8-0.6,3.5-1.9,4.7
	c-2.6,2.6-6.7,2.6-9.3,0c-1.3-1.2-2-2.9-1.9-4.7C86.4,99.5,90.8,88.9,98.7,81.3z M187.3,172.6c-36.4,22.1-82.2,22.1-118.6,0
	c-18.4-11.2-33.9-26.5-45.5-44.6c13.8-21.5,31.1-37.5,52-48.2c-5.5,9.3-8.4,19.9-8.3,30.7c0,16.9,5.9,31.3,17.9,43.2
	s26.4,18,43.2,18s31.2-6,43.2-18s17.9-26.3,17.9-43.2c0.1-10.8-2.8-21.4-8.3-30.7c20.9,10.7,38.2,26.7,52,48.2
	C221.2,146.1,205.7,161.4,187.3,172.6L187.3,172.6z"/>
</svg>
