<?xml version="1.0" encoding="utf-8"?>
<!-- Generator: Adobe Illustrator 22.1.0, SVG Export Plug-In . SVG Version: 6.00 Build 0)  -->
<svg version="1.1" id="Layer_1" xmlns="http://www.w3.org/2000/svg" xmlns:xlink="http://www.w3.org/1999/xlink" x="0px" y="0px"
	 viewBox="0 0 256 256" style="enable-background:new 0 0 256 256;" xml:space="preserve">
<path d="M178.2,145.1c7.1-10.1,10.9-22.2,10.8-34.5c0-3.9-0.4-7.7-1.1-11.5l-38.1,68.4C161.4,163.2,171.3,155.3,178.2,145.1z"/>
<path d="M183.8,50.9c0.2-0.4,0.2-0.8,0.2-1.2c0-1.5-0.9-2.9-2.2-3.7l-2.7-1.5l-4.3-2.6l-4.5-2.5l-4.2-2.1c-0.8-0.4-1.6-0.6-2.4-0.8
	c-1.6-0.1-3.1,0.8-3.8,2.2l-7.4,13.2c-8.1-1.6-16.3-2.3-24.5-2.3c-23.8-0.2-47.1,6.2-67.5,18.5C39.9,80.4,22.6,97.3,8.7,118.6
	C6.9,121.4,6,124.7,6,128c0,3.3,0.9,6.6,2.7,9.4c7.9,12.3,17.5,23.6,28.4,33.4c10.7,9.6,22.8,17.5,35.9,23.5c-4,6.8-6,10.8-6,11.9
	c0,1.6,0.8,3,2.2,3.8c11.1,6.3,17.1,9.5,18.2,9.5c1.6,0.1,3.1-0.8,3.8-2.2l6.7-12.1c9.6-17.1,24-42.9,43-77.2L183.8,50.9z
	 M81.6,179.1c-23.6-10.7-43-27.7-58.2-51.1c13.8-21.4,31.1-37.4,51.9-48.1c-5.5,9.3-8.3,19.9-8.3,30.7c0,9.6,2.3,19.1,6.7,27.6
	c4.3,8.6,10.7,16,18.5,21.7L81.6,179.1z M132.6,80.3c-1.2,1.3-2.9,2-4.6,2c-15.6,0-28.3,12.7-28.3,28.3c0,0,0,0,0,0
	c0,1.7-0.7,3.4-1.9,4.6c-1.2,1.3-2.9,2-4.7,1.9c-3.6,0-6.5-2.9-6.5-6.5c-0.1-11,4.3-21.6,12.2-29.2c7.6-8,18.2-12.4,29.2-12.2
	c1.7-0.1,3.4,0.6,4.6,1.9c1.2,1.2,1.9,2.9,1.9,4.6C134.6,77.4,133.9,79.1,132.6,80.3z"/>
<path d="M247.3,118.6c-5.6-9.1-12.2-17.5-19.7-25c-7.5-7.8-15.8-14.8-24.8-20.9L194.2,88c15.3,10.7,28.4,24.3,38.4,40
	c-10.6,16.7-24.6,30.9-41.1,41.8c-15.9,10.6-34.3,17.1-53.4,18.7L128,206.4c19.8,0.1,39.3-4.3,57.1-12.9
	c18.1-8.7,34.2-21.1,47.3-36.4c5.5-6.2,10.5-12.7,14.9-19.7C250.9,131.7,250.9,124.3,247.3,118.6z"/>
</svg>
