<svg xmlns="http://www.w3.org/2000/svg" width="83.14" height="92.768" viewBox="0 0 83.14 92.768">
  <g id="Get_records" data-name="Get records" transform="translate(-26.569 0)">
    <path id="Union_2" data-name="Union 2" d="M-148.8-397.848a14.512,14.512,0,0,1-14.5-14.5v-63.778a14.512,14.512,0,0,1,14.5-14.5h44.552a14.512,14.512,0,0,1,14.5,14.5v22.286a3.624,3.624,0,0,1-3.624,3.623A3.623,3.623,0,0,1-97-453.835v-22.286a7.256,7.256,0,0,0-7.248-7.248H-148.8a7.256,7.256,0,0,0-7.248,7.248v63.778A7.256,7.256,0,0,0-148.8-405.1h12.119a3.623,3.623,0,0,1,3.623,3.623,3.624,3.624,0,0,1-3.623,3.624Zm3.6-34.789a3.623,3.623,0,0,1-3.623-3.623,3.624,3.624,0,0,1,3.623-3.624h22.668a3.624,3.624,0,0,1,3.624,3.624,3.624,3.624,0,0,1-3.624,3.623Zm0-14.494a3.624,3.624,0,0,1-3.623-3.624,3.623,3.623,0,0,1,3.623-3.623h37.325a3.624,3.624,0,0,1,3.623,3.623,3.624,3.624,0,0,1-3.623,3.624Zm0-14.5a3.623,3.623,0,0,1-3.623-3.623,3.624,3.624,0,0,1,3.623-3.624h37.325a3.624,3.624,0,0,1,3.623,3.624,3.623,3.623,0,0,1-3.623,3.623Z" transform="translate(189.86 490.616)" fill="#8d9498"/>
    <path id="Path_18" data-name="Path 18" d="M284.12,275.2a10.883,10.883,0,0,0-15.371,0l-19.895,19.851a3.625,3.625,0,0,0-.908,1.512l-4.333,14.264a3.623,3.623,0,0,0,4.435,4.545l14.626-4.052a3.623,3.623,0,0,0,1.593-.927l19.853-19.816A10.884,10.884,0,0,0,284.12,275.2Zm-24.3,29.388-7.358,2.038,2.153-7.09,13.424-13.394,5.126,5.126ZM279,285.451l-.7.7-5.125-5.125.7-.7A3.624,3.624,0,0,1,279,285.451Z" transform="translate(-177.59 -222.737)" fill="#8d9498"/>
  </g>
</svg>
