<?xml version="1.0" encoding="utf-8"?>
<!-- Generator: Adobe Illustrator 22.1.0, SVG Export Plug-In . SVG Version: 6.00 Build 0)  -->
<svg version="1.1" id="Layer_1" xmlns="http://www.w3.org/2000/svg" xmlns:xlink="http://www.w3.org/1999/xlink" x="0px" y="0px"
	 viewBox="0 0 256 256" style="enable-background:new 0 0 256 256;" xml:space="preserve">
<style type="text/css">
	.st0{fill:#4C4C4C;}
</style>
<g>
	<g>
		<path class="st0" d="M149.6,242.2v-13.4h4.2c3.6,0,7-0.3,10.2-0.8c3.2-0.5,6-1.6,8.3-3.2c2.3-1.6,4.2-3.9,5.6-6.9
			c1.4-3,2.1-7,2.1-12v-75H76v75c0,5,0.7,9,2.1,12.1c1.4,3,3.3,5.3,5.6,6.9c2.3,1.6,5.1,2.7,8.4,3.2c3.2,0.5,6.6,0.8,10.2,0.8h4.2
			v13.4H13.3v-13.4h4.1c3.6,0,7-0.3,10.2-0.8c3.2-0.5,6-1.6,8.4-3.2c2.4-1.6,4.3-3.9,5.6-6.9c1.3-3,2-7,2-12.1V48.9
			c0-4.7-0.7-8.5-2.1-11.3c-1.4-2.9-3.3-5.1-5.7-6.6c-2.4-1.6-5.2-2.6-8.4-3c-3.2-0.5-6.5-0.7-10.1-0.7h-4.1V13.8h93.1v13.4h-4.2
			c-3.5,0-6.9,0.3-10.2,0.8c-3.2,0.5-6,1.6-8.4,3.2c-2.3,1.6-4.2,3.9-5.6,7c-1.4,3-2.1,7-2.1,12v64.7H180V50.2c0-5-0.7-9-2.1-12
			c-1.4-3-3.3-5.3-5.6-6.9c-2.3-1.6-5.1-2.7-8.3-3.2c-3.2-0.5-6.6-0.8-10.2-0.8h-4.2V13.8h93.1v13.4h-4.1c-3.7,0-7,0.3-10.2,0.8
			c-3.2,0.5-6,1.6-8.4,3.2c-2.4,1.6-4.3,3.9-5.6,6.9c-1.4,3-2,7-2,12v157.2c0,4.7,0.7,8.5,2.1,11.3c1.4,2.9,3.3,5,5.7,6.5
			c2.4,1.5,5.2,2.4,8.4,2.9c3.2,0.5,6.5,0.7,10.1,0.7h4.1v13.4C242.7,242.2,149.6,242.2,149.6,242.2z"/>
	</g>
</g>
</svg>
