<svg id="Info" xmlns="http://www.w3.org/2000/svg" width="60.375" height="60.375" viewBox="0 0 60.375 60.375">
  <path id="Path_9" data-name="Path 9" d="M30.186,0A30.188,30.188,0,1,0,60.375,30.186,30.188,30.188,0,0,0,30.186,0ZM36.47,46.785q-2.331.92-3.718,1.4a9.809,9.809,0,0,1-3.225.483,6.428,6.428,0,0,1-4.388-1.377A4.445,4.445,0,0,1,23.578,43.8a12.69,12.69,0,0,1,.115-1.684c.079-.572.2-1.216.376-1.94L26.013,33.3c.171-.659.319-1.285.437-1.868a8.283,8.283,0,0,0,.174-1.618,2.491,2.491,0,0,0-.542-1.832A3.078,3.078,0,0,0,24,27.472a5.453,5.453,0,0,0-1.546.23c-.524.161-.979.307-1.352.45l.514-2.116q1.909-.778,3.654-1.331a10.8,10.8,0,0,1,3.3-.557A6.308,6.308,0,0,1,32.9,25.5a4.5,4.5,0,0,1,1.518,3.516q0,.448-.1,1.577a10.551,10.551,0,0,1-.388,2.073l-1.935,6.849c-.158.549-.3,1.178-.427,1.881a9.946,9.946,0,0,0-.187,1.6,2.3,2.3,0,0,0,.611,1.86,3.419,3.419,0,0,0,2.113.5,6.13,6.13,0,0,0,1.6-.248,9.1,9.1,0,0,0,1.293-.434Zm-.342-27.8a4.617,4.617,0,0,1-3.258,1.257A4.665,4.665,0,0,1,29.6,18.985a4.014,4.014,0,0,1-1.362-3.049A4.054,4.054,0,0,1,29.6,12.88a4.632,4.632,0,0,1,3.271-1.27,4.58,4.58,0,0,1,3.258,1.27,4.117,4.117,0,0,1,0,6.105Z" fill="#c5c5c5"/>
</svg>
