<?xml version="1.0" encoding="utf-8"?>
<!-- Generator: Adobe Illustrator 24.0.1, SVG Export Plug-In . SVG Version: 6.00 Build 0)  -->
<svg version="1.1" id="Layer_1" xmlns="http://www.w3.org/2000/svg" xmlns:xlink="http://www.w3.org/1999/xlink" x="0px" y="0px"
	 viewBox="0 0 100 100" style="enable-background:new 0 0 100 100;" xml:space="preserve">
<style type="text/css">
	.st0{fill:#424242;}
	.st1{fill:#FFFFFF;}
</style>
<circle class="st0" cx="70.9" cy="19.7" r="14.8"/>
<polygon class="st1" points="79.1,17 73.3,17 73.3,11.1 68.9,11.1 68.9,17 63.1,17 63.1,21.3 68.9,21.3 68.9,27.2 73.3,27.2 
	73.3,21.3 79.1,21.3 "/>
<path class="st0" d="M70.9,37.9c-10.1,0-18.2-8.2-18.2-18.2c0-1.5,0.2-3,0.5-4.4c-2-0.5-4-0.7-6-0.7c-6.8,0-13.5,2.6-18.7,7.7
	c-8.6,8.5-10.2,21.8-4,32.2l22.7,38.1L70,54.6c2.5-4.2,3.7-8.9,3.7-13.5c0-1.1-0.1-2.2-0.2-3.3C72.6,37.8,71.8,37.9,70.9,37.9z
	 M47.3,53.6c-6.9,0-12.4-5.6-12.4-12.4s5.6-12.4,12.4-12.4c6.9,0,12.4,5.6,12.4,12.4S54.2,53.6,47.3,53.6z"/>
</svg>
