<?xml version="1.0" encoding="utf-8"?>
<!-- Generator: Adobe Illustrator 23.1.0, SVG Export Plug-In . SVG Version: 6.00 Build 0)  -->
<svg version="1.1" id="Layer_1" xmlns="http://www.w3.org/2000/svg" xmlns:xlink="http://www.w3.org/1999/xlink" x="0px" y="0px"
	 viewBox="0 0 150 150" style="enable-background:new 0 0 150 150;" xml:space="preserve">
<style type="text/css">
	.st0{fill:none;stroke:#29ABE2;stroke-width:5;stroke-miterlimit:10;}
	.st1{fill:none;stroke:#29ABE2;stroke-width:5;stroke-linecap:round;stroke-miterlimit:10;}
	.st2{fill:#29ABE2;}
</style>
<g>
	<path class="st0" d="M107.83,128H42.17c-3.96,0-7.17-3.21-7.17-7.17V29.17c0-3.96,3.21-7.17,7.17-7.17h65.67
		c3.96,0,7.17,3.21,7.17,7.17v91.67C115,124.79,111.79,128,107.83,128z"/>
	<line class="st1" x1="52.17" y1="39.17" x2="95.5" y2="39.17"/>
	<line class="st1" x1="52.17" y1="52" x2="95.5" y2="52"/>
	<line class="st1" x1="52.17" y1="64.83" x2="95.5" y2="64.83"/>
	<circle class="st1" cx="76.17" cy="89.33" r="11.83"/>
	<path class="st1" d="M83.38,99.79v17.36c0,0.37-0.42,0.57-0.71,0.35l-6.26-6.96c-0.16-0.12-0.37-0.13-0.53-0.01L69,117.55
		c-0.29,0.21-0.7,0-0.7-0.36v-17.4"/>
	<polygon class="st2" points="76.17,84.26 77.66,87.28 81,87.76 78.58,90.12 79.15,93.44 76.17,91.87 73.18,93.44 73.75,90.12 
		71.34,87.76 74.67,87.28 	"/>
</g>
</svg>
