<?xml version="1.0" encoding="utf-8"?>
<!-- Generator: Adobe Illustrator 23.1.0, SVG Export Plug-In . SVG Version: 6.00 Build 0)  -->
<svg version="1.1" id="Layer_1" xmlns="http://www.w3.org/2000/svg" xmlns:xlink="http://www.w3.org/1999/xlink" x="0px" y="0px"
	 viewBox="0 0 150 150" style="enable-background:new 0 0 150 150;" xml:space="preserve">
<style type="text/css">
	.st0{fill:none;stroke:#29ABE2;stroke-width:5;stroke-miterlimit:10;}
	.st1{fill:none;stroke:#29ABE2;stroke-width:5;stroke-linecap:round;stroke-miterlimit:10;}
</style>
<g>
	<path class="st0" d="M97.88,67.26L78.61,97.78c-1.68,2.65-5.55,2.65-7.22,0L52.12,67.26c-7.17-11.35-4.93-26.23,5.25-34.98l0,0
		c10.14-8.71,25.12-8.71,35.26,0l0,0C102.81,41.02,105.05,55.91,97.88,67.26z"/>
	<circle class="st0" cx="75.5" cy="53" r="12.5"/>
</g>
<path class="st1" d="M100.12,82.5h12.31c0.93,0,1.73,0.62,1.97,1.52l8.93,33.93c0.34,1.29-0.63,2.55-1.97,2.55H28.64
	c-1.34,0-2.31-1.26-1.97-2.55l8.93-33.93c0.24-0.89,1.04-1.52,1.97-1.52h11.31"/>
</svg>
