<?xml version="1.0" encoding="utf-8"?>
<!-- Generator: Adobe Illustrator 23.1.0, SVG Export Plug-In . SVG Version: 6.00 Build 0)  -->
<svg version="1.1" id="Layer_1" xmlns="http://www.w3.org/2000/svg" xmlns:xlink="http://www.w3.org/1999/xlink" x="0px" y="0px"
	 viewBox="0 0 500 500" style="enable-background:new 0 0 500 500;" xml:space="preserve">
<style type="text/css">
	.st0{fill:#FFFFFF;}
</style>
<g>
	<g>
		<g>
			<path class="st0" d="M257.58,289.99h-0.01c-3.53,0.46-7.11,0.69-10.75,0.69c-46.12,0-83.5-37.39-83.5-83.5
				c0-7.6,1.01-14.96,2.92-21.95l-41.99-48.17c-28.1,48.07-26.44,110.53,9.68,157.88l112.89,148.01l67.24-88.16L257.58,289.99z
				 M327.39,91.9c-24.27-16.72-52.42-25.08-80.57-25.08c-25.17,0-50.33,6.68-72.73,20.05L212.56,131
				c10.45-4.71,22.05-7.33,34.26-7.33c46.12,0,83.5,37.39,83.5,83.51c0,16.27-4.66,31.47-12.72,44.31l40.14,46.04l1.97-2.59
				c19.66-25.77,29.11-56.02,29.11-85.99C388.82,163.92,367.49,119.52,327.39,91.9z M130.87,126.78l40.05,45.53
				c6.59-14.31,17.11-26.45,30.17-35.01l-37.98-43.17C150.31,103.45,139.54,114.53,130.87,126.78z M310.29,261.43
				c-10.08,11.79-23.4,20.74-38.57,25.47l50.42,57.3l28.31-37.11L310.29,261.43z"/>
		</g>
	</g>
	<path class="st0" d="M394.98,392.36c-9.49,8.35-23.95,7.42-32.3-2.07l-40.54-46.09l-50.42-57.3l-100.8-114.59l-40.05-45.53
		l-27.92-31.73c-8.35-9.49-7.43-23.95,2.07-32.3c4.35-3.82,9.74-5.7,15.1-5.7c6.35,0,12.67,2.63,17.2,7.77l25.79,29.31l37.98,43.17
		l109.2,124.13l40.16,45.66l46.6,52.97C405.4,369.55,404.47,384.01,394.98,392.36z"/>
</g>
</svg>
