<?xml version="1.0" encoding="utf-8"?>
<!-- Generator: Adobe Illustrator 23.1.0, SVG Export Plug-In . SVG Version: 6.00 Build 0)  -->
<svg version="1.1" id="Layer_1" xmlns="http://www.w3.org/2000/svg" xmlns:xlink="http://www.w3.org/1999/xlink" x="0px" y="0px"
	 viewBox="0 0 500 500" style="enable-background:new 0 0 500 500;" xml:space="preserve">
<style type="text/css">
	.st0{fill:#FFFFFF;}
</style>
<g>
	<path class="st0" d="M330.57,96.01C306.3,79.29,278.15,70.93,250,70.93s-56.3,8.36-80.57,25.07
		c-66.79,46.02-81.52,138.55-32.33,203.04L250,447.06l112.89-148.01c19.66-25.77,29.11-56.02,29.11-85.98
		C392,168.03,370.67,123.63,330.57,96.01z M250,294.79c-46.12,0-83.5-37.38-83.5-83.5c0-46.12,37.38-83.5,83.5-83.5
		s83.5,37.38,83.5,83.5C333.5,257.4,296.12,294.79,250,294.79z"/>
</g>
</svg>
