<svg xmlns="http://www.w3.org/2000/svg" width="256" height="256" viewBox="0 0 256 256"><defs><style>.a{fill:#4c4c4c;}</style></defs><title>Map</title><path class="a" d="M210.1,140.3l36.7,75.5c1.5,3.1-.1,5.6-3.5,5.6H12.7c-3.4,0-5-2.5-3.5-5.6l36.7-75.5a4.4,4.4,0,0,1,3.5-2.2H81a4.4,4.4,0,0,1,2.9,1.4l6.5,7.2,6.2,7H59.2a4,4,0,0,0-3.5,2.1L31.3,205.9H224.7l-24.4-50.1a4,4,0,0,0-3.5-2.1H159.3l6.2-7,6.6-7.2a4,4,0,0,1,2.9-1.4h31.6A4.4,4.4,0,0,1,210.1,140.3Zm-28-51.6c0,41.3-34.4,49-50.6,88.7a3.8,3.8,0,0,1-7.1-.1c-14.6-35.7-44-45.5-49.6-77.4S91,37.8,122.7,34.8A54.2,54.2,0,0,1,182.1,88.7Zm-25.6,0A28.6,28.6,0,1,0,128,117.2,28.6,28.6,0,0,0,156.5,88.7Z"/></svg>