<?xml version="1.0" encoding="utf-8"?>
<!-- Generator: Adobe Illustrator 24.0.1, SVG Export Plug-In . SVG Version: 6.00 Build 0)  -->
<svg version="1.1" id="Layer_1" xmlns="http://www.w3.org/2000/svg" xmlns:xlink="http://www.w3.org/1999/xlink" x="0px" y="0px"
	 viewBox="0 0 100 100" style="enable-background:new 0 0 100 100;" xml:space="preserve">
<style type="text/css">
	.st0{fill:#29ABE2;}
</style>
<path class="st0" d="M68.9,19.2c-5.2-5.2-11.9-7.7-18.7-7.7s-13.5,2.6-18.7,7.7c-8.6,8.5-10.2,21.8-4,32.2l22.7,38.1l22.7-38.1
	c2.5-4.2,3.7-8.9,3.7-13.5C76.6,31.1,74,24.3,68.9,19.2z M50.2,52.9c-8.2,0-14.9-6.7-14.9-14.9c0-8.2,6.7-14.9,14.9-14.9
	c8.2,0,14.9,6.7,14.9,14.9C65.1,46.3,58.4,52.9,50.2,52.9z"/>
</svg>
