<svg xmlns="http://www.w3.org/2000/svg" width="250" height="250" viewBox="0 0 250 250"><defs><style>.a{fill:#b2b3b3;}.b{fill:#b4e4fa;}.c{fill:#e2ebf1;}.d{fill:#a3bdd0;}</style></defs><title>No_data_available</title><path class="a" d="M47.9,222.7V208.5h3l3.6,6.1a29.9,29.9,0,0,1,2.4,4.7H57a54.1,54.1,0,0,1-.3-5.9v-4.9h2.4v14.2H56.5l-3.7-6.2c-.9-1.6-1.9-3.3-2.6-4.9h0c.1,1.8.1,3.7.1,6v5.1Z"/><path class="a" d="M71.7,217.5a5,5,0,0,1-5.2,5.4,4.9,4.9,0,0,1-5.1-5.3,5.1,5.1,0,0,1,5.3-5.4C69.7,212.2,71.7,214.4,71.7,217.5Zm-7.7.1c0,1.9,1,3.4,2.6,3.4s2.5-1.4,2.5-3.5-.7-3.4-2.5-3.4S64,215.9,64,217.6Z"/><path class="a" d="M87.6,207.8v12c0,1,.1,2.2.1,2.9H85.4v-1.6h0a3.9,3.9,0,0,1-3.4,1.8c-2.4,0-4.3-2.1-4.3-5.2s2.1-5.5,4.5-5.5a3.3,3.3,0,0,1,2.9,1.4h0v-5.8ZM85,216.7V216a2.3,2.3,0,0,0-2.2-1.8c-1.7,0-2.6,1.5-2.6,3.4s.9,3.2,2.5,3.2A2.3,2.3,0,0,0,85,219v-2.3Z"/><path class="a" d="M96.2,222.7l-.2-1.2h-.1a3.8,3.8,0,0,1-3,1.4,3,3,0,0,1-3.2-3c0-2.6,2.3-3.9,6.1-3.9v-.2c0-.6-.3-1.8-2.1-1.8a6.1,6.1,0,0,0-2.8.8l-.5-1.7a8.3,8.3,0,0,1,3.7-.9c3.3,0,4.2,2.1,4.2,4.3v3.7a18.1,18.1,0,0,0,.2,2.5Zm-.4-5c-1.8-.1-3.6.3-3.6,1.9a1.4,1.4,0,0,0,1.5,1.5,2.1,2.1,0,0,0,2-1.5c.1-.1.1-.4.1-.5Z"/><path class="a" d="M103.9,209.5v2.9h2.5v2h-2.5v4.5c0,1.2.3,1.9,1.3,1.9h1v1.9a4.7,4.7,0,0,1-1.9.3,2.8,2.8,0,0,1-2.2-.9,3.8,3.8,0,0,1-.8-2.8v-4.8H99.9v-2h1.5v-2.3Z"/><path class="a" d="M114.1,222.7l-.2-1.2h-.1a3.8,3.8,0,0,1-3,1.4,3.1,3.1,0,0,1-3.2-3c0-2.6,2.3-3.9,6.1-3.9v-.2c0-.6-.3-1.8-2.1-1.8a6.1,6.1,0,0,0-2.8.8l-.5-1.7a8.3,8.3,0,0,1,3.7-.9c3.3,0,4.3,2.1,4.3,4.3v3.7a19.3,19.3,0,0,0,.1,2.5Zm-.4-5c-1.8-.1-3.5.3-3.5,1.9a1.3,1.3,0,0,0,1.4,1.5,2,2,0,0,0,2-1.5c.1-.1.1-.4.1-.5Z"/><path class="a" d="M129.1,222.7l-.2-1.2h0a4,4,0,0,1-3.1,1.4,3.1,3.1,0,0,1-3.2-3c0-2.6,2.3-3.9,6.1-3.9v-.2c0-.6-.3-1.8-2.1-1.8a5.4,5.4,0,0,0-2.7.8l-.5-1.7a7.5,7.5,0,0,1,3.6-.9c3.3,0,4.3,2.1,4.3,4.3v3.7a19.3,19.3,0,0,0,.1,2.5Zm-.4-5c-1.8-.1-3.5.3-3.5,1.9a1.3,1.3,0,0,0,1.4,1.5,2.2,2.2,0,0,0,2.1-1.5v-1.9Z"/><path class="a" d="M135.4,212.4l1.7,5.2a25,25,0,0,1,.7,2.6h0c.2-.9.5-1.6.7-2.6l1.6-5.2h2.8L139,222.7h-2.6l-3.8-10.3Z"/><path class="a" d="M150.1,222.7l-.2-1.2h0a4,4,0,0,1-3.1,1.4,3.1,3.1,0,0,1-3.2-3c0-2.6,2.3-3.9,6.1-3.9v-.2c0-.6-.3-1.8-2.1-1.8a5.4,5.4,0,0,0-2.7.8l-.5-1.7a7.5,7.5,0,0,1,3.6-.9c3.3,0,4.3,2.1,4.3,4.3v3.7a19.3,19.3,0,0,0,.1,2.5Zm-.4-5c-1.8-.1-3.5.3-3.5,1.9a1.3,1.3,0,0,0,1.4,1.5,2.2,2.2,0,0,0,2.1-1.5v-1.9Z"/><path class="a" d="M157.7,209.6a1.4,1.4,0,1,1-1.4-1.4A1.3,1.3,0,0,1,157.7,209.6ZM155,222.7V212.4h2.6v10.3Z"/><path class="a" d="M160.4,207.8H163v14.9h-2.6Z"/><path class="a" d="M171.5,222.7v-1.2h-.1a3.8,3.8,0,0,1-3,1.4,3,3,0,0,1-3.2-3c0-2.6,2.2-3.9,6-3.9v-.2c0-.6-.2-1.8-2.1-1.8a5.7,5.7,0,0,0-2.7.8l-.5-1.7a8,8,0,0,1,3.7-.9c3.3,0,4.2,2.1,4.2,4.3v3.7a9.7,9.7,0,0,0,.2,2.5Zm-.3-5c-1.8-.1-3.6.3-3.6,1.9a1.4,1.4,0,0,0,1.5,1.5,2.1,2.1,0,0,0,2-1.5c.1-.1.1-.4.1-.5Z"/><path class="a" d="M176.4,222.7V207.8H179v6h.1a3.7,3.7,0,0,1,3.2-1.6c2.5,0,4.3,2.1,4.3,5.2s-2.3,5.5-4.6,5.5a3.6,3.6,0,0,1-3.3-1.8h0v1.6Zm2.6-4.3a1.5,1.5,0,0,0,.1.7,2.5,2.5,0,0,0,2.3,1.8c1.6,0,2.6-1.3,2.6-3.4s-.9-3.3-2.6-3.3a2.4,2.4,0,0,0-2.3,1.9c0,.2-.1.4-.1.7Z"/><path class="a" d="M188.7,207.8h2.6v14.9h-2.6Z"/><path class="a" d="M195.9,218.3c.1,1.8,1.6,2.6,3.2,2.6a7.2,7.2,0,0,0,2.8-.4l.4,1.7a8.8,8.8,0,0,1-3.6.7,4.8,4.8,0,0,1-5.2-5.2c0-2.8,1.7-5.5,5-5.5s4.4,2.7,4.4,5c0,.5-.1.8-.1,1.1Zm4.5-1.8a2.1,2.1,0,0,0-2.1-2.5c-1.6,0-2.2,1.4-2.4,2.5Z"/><path class="b" d="M193.8,63.8v99.7a9.6,9.6,0,0,1-9.5,9.5H65.7a9.6,9.6,0,0,1-9.5-9.5V63.8a9.6,9.6,0,0,1,9.5-9.5h9.5v9.5H70.4c-4.7,0-4.7,4.8-4.7,4.8v52.2a4.7,4.7,0,0,0,4.7,4.7H98.9v14.3a4.7,4.7,0,0,0,4.7,4.7h42.8a4.7,4.7,0,0,0,4.7-4.7V125.5h28.5a4.7,4.7,0,0,0,4.7-4.7V68.6s0-4.8-4.7-4.8h-4.8V54.3h9.5a9.6,9.6,0,0,1,9.5,9.5"/><path class="c" d="M75.2,44.8V40.1a4.7,4.7,0,0,1,4.7-4.7h90.2a4.7,4.7,0,0,1,4.7,4.7v85.4H151.1v14.3a4.7,4.7,0,0,1-4.7,4.7H103.6a4.7,4.7,0,0,1-4.7-4.7V125.5H75.2V44.8Z"/><path class="d" d="M184.3,174.2H65.7A10.6,10.6,0,0,1,55,163.5V63.8A10.6,10.6,0,0,1,65.7,53.2a1.1,1.1,0,0,1,1.2,1.1,1.1,1.1,0,0,1-1.2,1.2,8.4,8.4,0,0,0-8.3,8.3v99.7a8.4,8.4,0,0,0,8.3,8.3H184.3a8.4,8.4,0,0,0,8.3-8.3V63.8a8.4,8.4,0,0,0-8.3-8.3,1.1,1.1,0,0,1-1.2-1.2,1.1,1.1,0,0,1,1.2-1.1A10.6,10.6,0,0,1,195,63.8v99.7A10.6,10.6,0,0,1,184.3,174.2Zm-37.9-28.5H103.6a5.8,5.8,0,0,1-5.9-5.9V126.7H70.4a5.8,5.8,0,0,1-5.9-5.9V67.6a1.2,1.2,0,0,1,2.4,0v53.2a3.5,3.5,0,0,0,3.5,3.5H98.9a1.2,1.2,0,0,1,1.2,1.2v14.3a3.5,3.5,0,0,0,3.5,3.5h42.8a3.5,3.5,0,0,0,3.5-3.5V125.5a1.2,1.2,0,0,1,1.2-1.2h28.5a3.5,3.5,0,0,0,3.5-3.5V67.6a1.2,1.2,0,0,1,2.4,0v53.2a5.8,5.8,0,0,1-5.9,5.9H152.3v13.1A5.8,5.8,0,0,1,146.4,145.7ZM76.4,46v7.2m0,2.3V120a1.2,1.2,0,0,1-2.4,0V40.1a6.1,6.1,0,0,1,5.9-5.9h90.2a5.8,5.8,0,0,1,5.9,5.9V120a1.2,1.2,0,1,1-2.4,0V40.1a3.6,3.6,0,0,0-3.5-3.6H79.9a3.6,3.6,0,0,0-3.5,3.6v3.6"/><circle class="d" cx="100.5" cy="79.9" r="3"/><circle class="d" cx="145.6" cy="79.9" r="3"/><rect class="d" x="108.2" y="96.3" width="30.8" height="2.17" rx="1.1" ry="1.1"/></svg>