<?xml version="1.0" encoding="utf-8"?>
<!-- Generator: Adobe Illustrator 22.1.0, SVG Export Plug-In . SVG Version: 6.00 Build 0)  -->
<svg version="1.1" id="Layer_1" xmlns="http://www.w3.org/2000/svg" xmlns:xlink="http://www.w3.org/1999/xlink" x="0px" y="0px"
	 viewBox="0 0 256 256" style="enable-background:new 0 0 256 256;" xml:space="preserve">
<style type="text/css">
	.st0{fill:#4C4C4C;}
</style>
<g>
	<g>
		<path class="st0" d="M51.3,97H38.4l-16.5,15.4l8.6,9.2c3.4-3,5.4-5.2,6.1-6.6h0.2v1.5c0,3.2,0,8.1-0.1,14.7
			c0,6.6-0.1,11.5-0.1,14.8h-13v12h40.6v-12H51.3V97z"/>
		<path class="st0" d="M220.6,122.1l11.5-14V97.4h-40.4v18.4h12.9v-6.4c1.3,0,3.3,0,5.9-0.1c2.6-0.1,4.6-0.1,5.9-0.1v0.1
			c-1.5,1.5-3,3-4.5,4.7c-1.5,1.7-3.2,3.8-5.2,6.5c-2,2.7-3.3,4.5-3.9,5.3l3.2,6.8c8.5-0.6,12.7,1.6,12.7,6.8c0,2.3-0.9,4-2.6,5.2
			c-1.7,1.2-3.8,1.8-6.1,1.8c-4.6,0-8.9-1.8-12.9-5.5l-6.9,10.7c5.3,5.3,12.3,8,20.9,8c6.6,0,12-1.9,16.4-5.6
			c4.4-3.7,6.6-8.8,6.6-15.3c0-4.1-1.2-7.7-3.6-10.7C228,125,224.7,123,220.6,122.1z"/>
		<path class="st0" d="M137,146.5h-15.4c0.1-2,1.5-4.1,4.3-6.4c2.8-2.2,5.8-4.3,9.2-6.1c3.3-1.9,6.3-4.5,9.1-7.8
			c2.8-3.4,4.1-7.1,4.1-11.1c0-5.7-2-10.3-6.1-13.7c-4-3.4-9-5-14.9-5c-4.7,0-9,1.2-12.8,3.5c-3.8,2.3-6.7,5.5-8.7,9.6l10.3,7.2
			c2.8-4.7,6.1-7,9.8-7c2,0,3.6,0.5,4.8,1.6c1.2,1.1,1.8,2.6,1.8,4.7c0,1.9-1,3.7-2.9,5.5c-1.9,1.8-4.2,3.5-6.9,5.3
			c-2.7,1.7-5.3,3.7-8,5.8c-2.7,2.1-5,4.9-6.9,8.2c-1.9,3.4-2.9,7.2-2.9,11.3c0,1.5,0.2,3.6,0.7,6.6h43.9v-19.3v0H137V146.5z"/>
	</g>
</g>
</svg>
