<svg xmlns="http://www.w3.org/2000/svg" width="132.768" height="132.769" viewBox="0 0 132.768 132.769">
  <g id="calendar-with-a-clock-time-tools" transform="translate(-0.001)">
    <path id="Path_77" data-name="Path 77" d="M16.6,20.746V4.149a4.149,4.149,0,0,1,8.3,0v16.6a4.149,4.149,0,0,1-8.3,0Zm70.534,4.149a4.147,4.147,0,0,0,4.149-4.149V4.149a4.15,4.15,0,0,0-8.3,0v16.6A4.148,4.148,0,0,0,87.131,24.894Zm45.638,74.681A33.192,33.192,0,1,1,99.577,66.384,33.193,33.193,0,0,1,132.769,99.575Zm-8.3,0A24.894,24.894,0,1,0,99.577,124.47,24.922,24.922,0,0,0,124.472,99.575ZM33.193,49.788H16.6v16.6h16.6ZM16.6,91.278h16.6v-16.6H16.6ZM41.491,66.384h16.6v-16.6h-16.6Zm0,24.894h16.6v-16.6h-16.6ZM8.3,98.75V41.49H99.577v16.6h8.3V25.721A9.054,9.054,0,0,0,98.889,16.6H95.428v4.15a8.3,8.3,0,1,1-16.6,0V16.6H29.044v4.15a8.3,8.3,0,1,1-16.6,0V16.6H8.992A9.057,9.057,0,0,0,0,25.721v73.03a9.067,9.067,0,0,0,8.991,9.124h49.1v-8.3H8.992A.785.785,0,0,1,8.3,98.75ZM82.981,66.384v-16.6h-16.6v16.6Zm29.044,33.191H99.577V87.128a4.148,4.148,0,0,0-8.3,0v16.6a4.146,4.146,0,0,0,4.148,4.149h16.6a4.15,4.15,0,0,0,0-8.3Z" fill="#898585"/>
  </g>
</svg>
