<?xml version="1.0" encoding="utf-8"?>
<!-- Generator: Adobe Illustrator 22.1.0, SVG Export Plug-In . SVG Version: 6.00 Build 0)  -->
<svg version="1.1" id="Layer_1" xmlns="http://www.w3.org/2000/svg" xmlns:xlink="http://www.w3.org/1999/xlink" x="0px" y="0px"
	 viewBox="0 0 256 256" style="enable-background:new 0 0 256 256;" xml:space="preserve">
<style type="text/css">
	.st0{fill:#4C4C4C;}
</style>
<g>
	<g>
		<path class="st0" d="M244.2,140.5H11.8c-3.8,0-6.8,3.1-6.8,6.8v94.3c0,3.8,3.1,6.8,6.8,6.8h232.3c3.8,0,6.8-3.1,6.8-6.8v-94.3
			C251,143.6,247.9,140.5,244.2,140.5z M233.7,238.1H22.3c-3.8,0-6.9-3.1-6.9-6.9l0,0v-73.4c0-3.8,3.1-6.9,6.9-6.9h211.4
			c3.8,0,6.9,3.1,6.9,6.9l0,0v73.4C240.6,235,237.5,238.1,233.7,238.1L233.7,238.1z"/>
	</g>
	<g>
		<path class="st0" d="M244.2,7.5H11.8C8.1,7.5,5,10.6,5,14.4v94.3c0,3.8,3.1,6.8,6.8,6.8h232.3c3.8,0,6.8-3.1,6.8-6.8V14.4
			C251,10.6,247.9,7.5,244.2,7.5z M233.7,105.1H22.3c-3.8,0-6.9-3.1-6.9-6.9l0,0V24.8c0-3.8,3.1-6.9,6.9-6.9h211.4
			c3.8,0,6.9,3.1,6.9,6.9l0,0v73.4C240.6,102,237.5,105.1,233.7,105.1L233.7,105.1z"/>
	</g>
</g>
</svg>
