<svg xmlns="http://www.w3.org/2000/svg" width="139.666" height="167.73" viewBox="0 0 139.666 167.73">
  <g id="preview" transform="translate(-42.833)">
    <path id="Path_1" data-name="Path 1" d="M334.832,15.391h-1.247V50.164H372.12Z" transform="translate(-195.502 -10.349)" fill="#b6dffc"/>
    <path id="Path_2" data-name="Path 2" d="M177.456,66.661a5.042,5.042,0,0,0-5.042,5.042v85.944H52.917V10.084h80.124v29.73a5.042,5.042,0,0,0,5.042,5.042h38.535a5.042,5.042,0,0,0,3.439-8.73L142.769,1.355c-.039-.036-.081-.067-.121-.1-.059-.051-.118-.1-.179-.151s-.127-.1-.192-.143-.133-.1-.2-.14-.126-.078-.19-.115-.151-.089-.229-.13c-.06-.031-.121-.059-.182-.088-.085-.04-.169-.08-.256-.115-.059-.024-.12-.044-.18-.066-.09-.033-.181-.066-.273-.093-.065-.019-.13-.034-.2-.05-.09-.023-.179-.047-.27-.065s-.167-.026-.251-.038-.151-.025-.228-.032C139.66.009,139.5,0,139.33,0H47.875a5.042,5.042,0,0,0-5.042,5.042V162.688a5.042,5.042,0,0,0,5.042,5.042H177.457a5.042,5.042,0,0,0,5.042-5.042V71.7A5.043,5.043,0,0,0,177.456,66.661ZM143.125,34.773v-19.3l20.694,19.3Z" fill="#c5c5c5"/>
    <circle id="Ellipse_1" data-name="Ellipse 1" cx="32.279" cy="32.279" r="32.279" transform="translate(80.204 56.42)" fill="#b6dffc"/>
    <g id="Group_1" data-name="Group 1" transform="translate(75.176 51.396)">
      <path id="Path_3" data-name="Path 3" d="M178.865,231.5A37.314,37.314,0,1,1,205.256,167.8h0A37.3,37.3,0,0,1,178.865,231.5Zm0-64.528a27.225,27.225,0,1,0,19.259,7.965A27.153,27.153,0,0,0,178.866,166.967Z" transform="translate(-141.561 -156.887)" fill="#c5c5c5"/>
      <path id="Path_4" data-name="Path 4" d="M334.722,355.092a5.025,5.025,0,0,1-3.565-1.477L311.192,333.65a5.042,5.042,0,1,1,7.131-7.13l19.965,19.965a5.042,5.042,0,0,1-3.566,8.607Z" transform="translate(-254.629 -269.956)" fill="#c5c5c5"/>
    </g>
  </g>
</svg>
