<?xml version="1.0" encoding="utf-8"?>
<!-- Generator: Adobe Illustrator 22.1.0, SVG Export Plug-In . SVG Version: 6.00 Build 0)  -->
<svg version="1.1" id="Layer_1" xmlns="http://www.w3.org/2000/svg" xmlns:xlink="http://www.w3.org/1999/xlink" x="0px" y="0px"
	 viewBox="0 0 256 256" style="enable-background:new 0 0 256 256;" xml:space="preserve">
<style type="text/css">
	.st0{fill:#4C4C4C;}
</style>
<g>
	<g id="radio-button-on">
		<path class="st0" d="M128,70.2c-32.4,0-57.8,25.4-57.8,57.8s25.4,57.8,57.8,57.8s57.8-25.4,57.8-57.8S160.4,70.2,128,70.2z
			 M128,12.3c-63.6,0-115.7,52-115.7,115.7s52,115.7,115.7,115.7S243.7,191.6,243.7,128S191.6,12.3,128,12.3z M128,220.5
			c-50.9,0-92.5-41.6-92.5-92.5S77.1,35.5,128,35.5s92.5,41.6,92.5,92.5S178.9,220.5,128,220.5z"/>
	</g>
</g>
</svg>
