<?xml version="1.0" encoding="utf-8"?>
<!-- Generator: Adobe Illustrator 22.1.0, SVG Export Plug-In . SVG Version: 6.00 Build 0)  -->
<svg version="1.1" id="Layer_1" xmlns="http://www.w3.org/2000/svg" xmlns:xlink="http://www.w3.org/1999/xlink" x="0px" y="0px"
	 viewBox="0 0 256 256" style="enable-background:new 0 0 256 256;" xml:space="preserve">
<style type="text/css">
	.st0{fill:#4C4C4C;}
</style>
<g>
	<g>
		<g>
			<path class="st0" d="M228.6,102.7c4.3-4.2,5.8-10.4,4-16.1c-1.9-5.7-6.7-9.8-12.7-10.7l-52.1-7.6c-1-0.1-1.9-0.8-2.4-1.7
				l-23.3-47.2c-2.7-5.4-8.1-8.8-14.1-8.8s-11.4,3.4-14.1,8.8L90.6,66.7c-0.5,0.9-1.3,1.6-2.4,1.7l-52.1,7.6
				c-6,0.9-10.8,5-12.7,10.7s-0.3,11.9,4,16.1l37.7,36.8c0.7,0.7,1.1,1.8,0.9,2.8l-8.9,51.9c-1,5.9,1.4,11.8,6.2,15.4
				c4.9,3.5,11.2,4,16.5,1.2l46.6-24.5c0.9-0.5,2-0.5,2.9,0l46.6,24.5c2.3,1.2,4.8,1.8,7.3,1.8c3.2,0,6.5-1,9.2-3
				c4.9-3.5,7.3-9.4,6.2-15.4l-8.9-51.9c-0.2-1,0.2-2.1,0.9-2.8L228.6,102.7z M177.6,144.4l8.9,51.9c0.3,1.7-0.8,2.7-1.2,3.1
				c-0.5,0.3-1.7,1.1-3.3,0.2l-46.6-24.5c-2.3-1.2-4.8-1.8-7.3-1.8c-2.5,0-5,0.6-7.3,1.8l-46.6,24.5c-1.6,0.8-2.8,0.1-3.3-0.2
				c-0.5-0.3-1.5-1.3-1.2-3.1l8.9-51.9c0.9-5.1-0.8-10.3-4.5-13.9L36.2,93.7c-1.3-1.2-1-2.7-0.8-3.2c0.2-0.6,0.8-1.9,2.5-2.1
				L90,80.8c5.1-0.7,9.5-4,11.8-8.6L125.2,25c0.8-1.6,2.2-1.8,2.8-1.8c0.6,0,2,0.2,2.8,1.8v0l23.3,47.2c2.3,4.6,6.7,7.8,11.8,8.6
				l52.1,7.6c1.7,0.3,2.4,1.6,2.5,2.1c0.2,0.6,0.5,2-0.8,3.2l-37.7,36.8C178.4,134.1,176.7,139.3,177.6,144.4z"/>
		</g>
	</g>
	<g>
		<g>
			<path class="st0" d="M201.4,19.4c-2.8-2-6.7-1.4-8.8,1.4L186,30c-2,2.8-1.4,6.7,1.4,8.8c1.1,0.8,2.4,1.2,3.7,1.2
				c1.9,0,3.9-0.9,5.1-2.6l6.7-9.2C204.8,25.4,204.2,21.5,201.4,19.4z"/>
		</g>
	</g>
	<g>
		<g>
			<path class="st0" d="M70,30l-6.7-9.2c-2-2.8-6-3.4-8.8-1.4c-2.8,2-3.4,6-1.4,8.8l6.7,9.2c1.2,1.7,3.1,2.6,5.1,2.6
				c1.3,0,2.6-0.4,3.7-1.2C71.4,36.7,72.1,32.8,70,30z"/>
		</g>
	</g>
	<g>
		<g>
			<path class="st0" d="M32,151.6c-1.1-3.3-4.6-5.1-7.9-4l-10.8,3.5c-3.3,1.1-5.1,4.6-4,7.9c0.9,2.7,3.3,4.3,6,4.3
				c0.6,0,1.3-0.1,1.9-0.3l10.8-3.5C31.2,158.5,33,154.9,32,151.6z"/>
		</g>
	</g>
	<g>
		<g>
			<path class="st0" d="M128,221.4c-3.5,0-6.3,2.8-6.3,6.3V239c0,3.5,2.8,6.3,6.3,6.3c3.5,0,6.3-2.8,6.3-6.3v-11.3
				C134.3,224.2,131.5,221.4,128,221.4z"/>
		</g>
	</g>
	<g>
		<g>
			<path class="st0" d="M242.8,151.1l-10.8-3.5c-3.3-1.1-6.8,0.7-7.9,4c-1.1,3.3,0.7,6.8,4,7.9l10.8,3.5c0.6,0.2,1.3,0.3,1.9,0.3
				c2.6,0,5.1-1.7,6-4.3C247.9,155.7,246.1,152.2,242.8,151.1z"/>
		</g>
	</g>
</g>
</svg>
