<?xml version="1.0" encoding="utf-8"?>
<!-- Generator: Adobe Illustrator 22.1.0, SVG Export Plug-In . SVG Version: 6.00 Build 0)  -->
<svg version="1.1" id="Layer_1" xmlns="http://www.w3.org/2000/svg" xmlns:xlink="http://www.w3.org/1999/xlink" x="0px" y="0px"
	 viewBox="0 0 256 256" style="enable-background:new 0 0 256 256;" xml:space="preserve">
<path d="M228.8,14c0-5.5-4.5-10-10-10H36.2c-5.5,0-10,4.5-10,10v229c0,5.5,4.5,10,10,10h182.6c5.5,0,10-4.5,10-10V14z M46.2,23.9
	h162.6v209.2H46.2V23.9z"/>
<path d="M172.3,62.1H82.7c-5.5-0.6-10.4,3.5-10.9,9c-0.6,5.5,3.5,10.4,9,10.9c0.7,0.1,1.3,0.1,2,0h89.6c5.5,0.6,10.4-3.5,10.9-9
	c0.6-5.5-3.5-10.4-9-10.9C173.6,62,173,62,172.3,62.1L172.3,62.1z"/>
<path d="M172.3,115.2H82.7c-5.5-0.6-10.4,3.5-10.9,9c-0.6,5.5,3.5,10.4,9,10.9c0.7,0.1,1.3,0.1,2,0h89.6c5.5,0.6,10.4-3.5,10.9-9
	c0.6-5.5-3.5-10.4-9-10.9C173.6,115.1,173,115.1,172.3,115.2L172.3,115.2z"/>
<path d="M172.3,171.7H82.7c-5.5-0.6-10.4,3.5-10.9,9c-0.6,5.5,3.5,10.4,9,10.9c0.7,0.1,1.3,0.1,2,0h89.6c5.5,0.6,10.4-3.5,10.9-9
	c0.6-5.5-3.5-10.4-9-10.9C173.6,171.6,173,171.6,172.3,171.7L172.3,171.7z"/>
</svg>
