<?xml version="1.0" encoding="utf-8"?>
<!-- Generator: Adobe Illustrator 24.0.1, SVG Export Plug-In . SVG Version: 6.00 Build 0)  -->
<svg version="1.1" id="Layer_1" xmlns="http://www.w3.org/2000/svg" xmlns:xlink="http://www.w3.org/1999/xlink" x="0px" y="0px"
	 viewBox="0 0 150 150" style="enable-background:new 0 0 150 150;" xml:space="preserve">
<style type="text/css">
	.st0{fill:none;stroke:#898585;stroke-width:5;stroke-linecap:round;stroke-miterlimit:10;}
	.st1{fill:#898585;}
</style>
<path class="st0" d="M82.53,111.5H17.5c-3.31,0-6-2.69-6-6v-69c0-3.31,2.69-6,6-6h115c3.31,0,6,2.69,6,6V85"/>
<g>
	<path class="st1" d="M133.08,107.05c-0.23-0.06-0.46-0.09-0.69-0.09c-1.19,0-2.26,0.79-2.58,1.99c-0.95,3.56-3.06,6.66-5.89,8.87
		c-2.84,2.21-6.38,3.52-10.26,3.52c-3.88,0-7.42-1.31-10.26-3.52c-1.87-1.46-3.41-3.3-4.53-5.41l1.07,0.11
		c0.09,0.01,0.19,0.01,0.28,0.01c1.36,0,2.51-1.02,2.66-2.4l0,0c0.01-0.09,0.01-0.19,0.01-0.28c0-1.36-1.02-2.52-2.4-2.66l-5.2-0.54
		l-0.09,0l-0.01,0l-0.11,0l-0.01,0h-0.01c-1.3,0-2.51,0.67-3.2,1.77l-0.01,0.02l-2.54,4.08c-0.27,0.44-0.41,0.93-0.4,1.41
		c0,0.89,0.45,1.77,1.26,2.27c0.44,0.27,0.93,0.4,1.41,0.4c0.89,0,1.77-0.45,2.27-1.26l0,0l0,0l0,0l0,0l0.28-0.45
		c1.47,2.79,3.5,5.22,5.97,7.14c3.73,2.91,8.44,4.64,13.53,4.65v0l0.01,0h0h0h0h0c5.1,0,9.81-1.74,13.55-4.65
		c3.74-2.91,6.51-6.99,7.77-11.71c0.06-0.23,0.09-0.46,0.09-0.69C135.07,108.45,134.28,107.38,133.08,107.05z"/>
	<polygon class="st1" points="124.72,98.4 124.72,98.4 124.72,98.4 	"/>
	<path class="st1" d="M138.17,94.21c-0.51-0.44-1.14-0.66-1.76-0.66c-0.74,0-1.49,0.31-2.01,0.91l-0.73,0.83
		c-1.49-3.2-3.71-5.98-6.46-8.12c-3.73-2.91-8.45-4.65-13.54-4.65v0h-0.01c0,0,0,0,0,0h-0.01v0c-5.09,0-9.81,1.74-13.54,4.65
		c-3.74,2.91-6.51,6.99-7.77,11.71c-0.06,0.23-0.09,0.46-0.09,0.69c0,1.19,0.79,2.26,1.99,2.58c0.23,0.06,0.46,0.09,0.69,0.09
		c1.19,0,2.26-0.79,2.58-1.99l-0.97-0.26l0.97,0.26c0.95-3.56,3.06-6.66,5.89-8.87c2.84-2.21,6.38-3.52,10.26-3.52
		c3.88,0,7.42,1.31,10.26,3.52c1.81,1.41,3.32,3.18,4.42,5.2l-0.33-0.09c-0.23-0.06-0.47-0.09-0.71-0.09
		c-1.18,0-2.25,0.78-2.58,1.97c-0.06,0.23-0.09,0.47-0.09,0.71c0,1.18,0.78,2.25,1.97,2.58l0,0l0,0c0,0,0,0,0,0l0,0l4.65,1.27
		l1.01,0.13c0.98,0,1.93-0.39,2.64-1.09l0,0l0.04-0.04l0.03-0.03l3.45-3.94c0.44-0.5,0.66-1.14,0.66-1.76
		C139.08,95.49,138.77,94.74,138.17,94.21z"/>
</g>
<path class="st1" d="M67.83,56.33H29.5c-2.3,0-4.17-1.87-4.17-4.17v0c0-2.3,1.87-4.17,4.17-4.17h38.33c2.3,0,4.17,1.87,4.17,4.17v0
	C72,54.47,70.13,56.33,67.83,56.33z"/>
<path class="st1" d="M67.83,74.33H29.5c-2.3,0-4.17-1.87-4.17-4.17v0c0-2.3,1.87-4.17,4.17-4.17h38.33c2.3,0,4.17,1.87,4.17,4.17v0
	C72,72.47,70.13,74.33,67.83,74.33z"/>
<path class="st1" d="M105.42,46.79l3.56,7.21c0.11,0.22,0.32,0.37,0.56,0.41l7.95,1.16c0.61,0.09,0.86,0.84,0.42,1.28l-5.76,5.61
	c-0.18,0.17-0.26,0.42-0.22,0.66l1.36,7.92c0.11,0.61-0.54,1.08-1.09,0.79l-7.11-3.74c-0.22-0.11-0.48-0.11-0.7,0l-7.11,3.74
	c-0.55,0.29-1.19-0.18-1.09-0.79l1.36-7.92c0.04-0.24-0.04-0.49-0.22-0.66l-5.76-5.61c-0.44-0.43-0.2-1.19,0.42-1.28l7.95-1.16
	c0.24-0.04,0.46-0.19,0.56-0.41l3.56-7.21C104.35,46.24,105.15,46.24,105.42,46.79z"/>
</svg>
