<?xml version="1.0" encoding="utf-8"?>
<!-- Generator: Adobe Illustrator 22.1.0, SVG Export Plug-In . SVG Version: 6.00 Build 0)  -->
<svg version="1.1" id="Layer_1" xmlns="http://www.w3.org/2000/svg" xmlns:xlink="http://www.w3.org/1999/xlink" x="0px" y="0px"
	 viewBox="0 0 256 256" style="enable-background:new 0 0 256 256;" xml:space="preserve">
<polygon points="172.3,82.2 112,143.7 81.1,112.7 64.5,129.2 113.2,177.9 191.5,101.9 "/>
<path d="M128,3.3C59.1,3.3,3.3,59.1,3.3,128S59.1,252.7,128,252.7S252.7,196.9,252.7,128S196.9,3.3,128,3.3C128,3.3,128,3.3,128,3.3
	z M128,230.1c-56.4,0-102.1-45.7-102.1-102.1S71.6,25.9,128,25.9S230.1,71.6,230.1,128S184.4,230.1,128,230.1
	C128,230.1,128,230.1,128,230.1z"/>
</svg>
