<?xml version="1.0" encoding="utf-8"?>
<!-- Generator: Adobe Illustrator 24.1.1, SVG Export Plug-In . SVG Version: 6.00 Build 0)  -->
<svg version="1.1" id="Layer_1" xmlns="http://www.w3.org/2000/svg" xmlns:xlink="http://www.w3.org/1999/xlink" x="0px" y="0px"
	 viewBox="0 0 100 100" style="enable-background:new 0 0 100 100;" xml:space="preserve">
<style type="text/css">
	.st0{fill:#29ABE2;}
</style>
<g>
	<path class="st0" d="M82.4,32.6L82.4,32.6c0-0.8-0.1-1.6-0.1-2.4c-0.1-4.2-3.4-7.7-7.6-7.9c-8.8-0.5-15.5-3.3-21.3-9l0,0
		c-1.9-1.7-4.7-1.7-6.6,0l0,0c-5.8,5.6-12.6,8.5-21.3,9c-4.2,0.2-7.5,3.7-7.6,7.9c0,0.9,0,1.6-0.1,2.4v0.1
		c-0.2,8.9-0.4,20.1,3.3,30.1c2,5.5,5.1,10.4,9.2,14.3c4.6,4.5,10.7,8.1,18,10.7c0.2,0.1,0.5,0.2,0.7,0.2c0.4,0.1,0.7,0.1,1.1,0.1
		c0.4,0,0.7,0,1.1-0.1c0.3-0.1,0.5-0.1,0.7-0.2c7.3-2.6,13.4-6.1,18-10.7c4.1-4,7.2-8.8,9.2-14.3C82.7,52.7,82.5,41.5,82.4,32.6
		L82.4,32.6z M74.8,61.2c-3.9,10.6-11.9,17.9-24.5,22.3h-0.1c-0.1,0-0.3,0-0.4,0h-0.1c-12.6-4.4-20.6-11.7-24.5-22.3
		c-3.4-9.3-3.2-19.5-3.1-28.5v-0.1c0-0.8,0.1-1.6,0.1-2.5c0-1.9,1.5-3.4,3.4-3.5c5-0.3,9.3-1.2,13.3-2.9c4-1.7,7.5-4.1,10.9-7.3
		c0.2-0.1,0.4-0.1,0.6,0c3.3,3.2,6.9,5.6,10.9,7.3c4,1.7,8.4,2.7,13.3,2.9c1.9,0.1,3.4,1.6,3.4,3.5c0,0.9,0,1.7,0.1,2.5
		C78.1,41.7,78.3,51.9,74.8,61.2L74.8,61.2z"/>
	<path class="st0" d="M50,31c-10.5,0-19,8.5-19,19s8.5,19,19,19s19-8.5,19-19S60.5,31,50,31L50,31z M50,64.5
		c-8,0-14.5-6.5-14.5-14.5S42,35.5,50,35.5S64.5,42,64.5,50S58,64.5,50,64.5L50,64.5z"/>
	<path class="st0" d="M55.5,44.1l-8.8,8.8l-2.4-2.4c-0.9-0.9-2.3-0.9-3.2,0s-0.9,2.3,0,3.2l4,4c0.4,0.4,1,0.7,1.6,0.7
		s1.1-0.2,1.6-0.7l10.4-10.4c0.9-0.9,0.9-2.3,0-3.2C57.7,43.2,56.3,43.2,55.5,44.1L55.5,44.1z"/>
</g>
</svg>
