<?xml version="1.0" encoding="utf-8"?>
<!-- Generator: Adobe Illustrator 23.1.0, SVG Export Plug-In . SVG Version: 6.00 Build 0)  -->
<svg version="1.1" id="Layer_1" xmlns="http://www.w3.org/2000/svg" xmlns:xlink="http://www.w3.org/1999/xlink" x="0px" y="0px"
	 viewBox="0 0 150 150" style="enable-background:new 0 0 150 150;" xml:space="preserve">
<style type="text/css">
	.st0{fill:none;stroke:#29ABE2;stroke-width:5;stroke-miterlimit:10;}
</style>
<g>
	<circle class="st0" cx="75" cy="75" r="25.5"/>
	<path class="st0" d="M131.75,84.4V65.6c0-1.75-1.42-3.16-3.16-3.16h-9.15c-1.34,0-2.53-0.85-2.98-2.11
		c-0.52-1.46-1.1-2.89-1.77-4.27c-0.58-1.21-0.33-2.65,0.61-3.59l6.47-6.47c1.24-1.24,1.24-3.24,0-4.47l-13.3-13.3
		c-1.24-1.24-3.24-1.24-4.47,0l-6.47,6.47c-0.95,0.95-2.38,1.19-3.59,0.61c-1.39-0.66-2.81-1.25-4.27-1.77
		c-1.26-0.45-2.11-1.64-2.11-2.98v-9.15c0-1.75-1.42-3.16-3.16-3.16H65.6c-1.75,0-3.16,1.42-3.16,3.16v9.15
		c0,1.34-0.85,2.53-2.11,2.98c-1.46,0.52-2.89,1.1-4.27,1.77c-1.21,0.58-2.65,0.33-3.59-0.61l-6.47-6.47
		c-1.24-1.24-3.24-1.24-4.47,0l-13.3,13.3c-1.24,1.24-1.24,3.24,0,4.47l6.47,6.47c0.95,0.95,1.19,2.38,0.61,3.59
		c-0.66,1.39-1.25,2.81-1.77,4.27c-0.45,1.26-1.64,2.11-2.98,2.11h-9.15c-1.75,0-3.16,1.42-3.16,3.16v18.8
		c0,1.75,1.42,3.16,3.16,3.16h9.15c1.34,0,2.53,0.85,2.98,2.11c0.52,1.46,1.1,2.89,1.77,4.27c0.58,1.21,0.33,2.65-0.61,3.59
		l-6.47,6.47c-1.24,1.24-1.24,3.24,0,4.47l13.3,13.3c1.24,1.24,3.24,1.24,4.47,0l6.47-6.47c0.95-0.95,2.38-1.19,3.59-0.61
		c1.39,0.66,2.81,1.25,4.27,1.77c1.26,0.45,2.11,1.64,2.11,2.98v9.15c0,1.75,1.42,3.16,3.16,3.16h18.8c1.75,0,3.16-1.42,3.16-3.16
		v-9.15c0-1.34,0.85-2.53,2.11-2.98c1.46-0.52,2.89-1.1,4.27-1.77c1.21-0.58,2.65-0.33,3.59,0.61l6.47,6.47
		c1.24,1.24,3.24,1.24,4.47,0l13.3-13.3c1.24-1.24,1.24-3.24,0-4.47l-6.47-6.47c-0.95-0.95-1.19-2.38-0.61-3.59
		c0.66-1.39,1.25-2.81,1.77-4.27c0.45-1.26,1.64-2.11,2.98-2.11h9.15C130.33,87.56,131.75,86.15,131.75,84.4z"/>
</g>
</svg>
