<?xml version="1.0" encoding="utf-8"?>
<!-- Generator: Adobe Illustrator 22.1.0, SVG Export Plug-In . SVG Version: 6.00 Build 0)  -->
<svg version="1.1" id="Layer_1" xmlns="http://www.w3.org/2000/svg" xmlns:xlink="http://www.w3.org/1999/xlink" x="0px" y="0px"
	 viewBox="0 0 256 256" style="enable-background:new 0 0 256 256;" xml:space="preserve">
<style type="text/css">
	.st0{fill:#4C4C4C;}
</style>
<g>
	<g>
		<g>
			<path class="st0" d="M247.1,30.2c-0.6-7.7-6.8-14.1-14.7-14.1H23.5c-7.8,0-14,6.5-14.7,14.1H8.6V225c0,8.2,6.7,14.9,14.9,14.9
				h208.9c8.2,0,14.9-6.7,14.9-14.9V30.2H247.1z M83.2,225H23.5v-44.8h59.7V225z M83.2,166.5H23.5v-46h59.7V166.5z M83.2,105.6H23.5
				V60.8h59.7V105.6z M157.8,225H98.2v-44.8h59.7V225z M157.8,166.5H98.2v-46h59.7V166.5z M157.8,105.6H98.2V60.8h59.7V105.6z
				 M232.5,225h-59.7v-44.8h59.7V225z M232.5,166.5h-59.7v-46h59.7V166.5z M232.5,105.6h-59.7V60.8h59.7V105.6z"/>
		</g>
	</g>
</g>
</svg>
