<svg xmlns="http://www.w3.org/2000/svg" width="256" height="256" viewBox="0 0 256 256"><title>Table-widget</title><path d="M223.2,241.2H32.8A28.3,28.3,0,0,1,4.5,212.9V43.1A28.3,28.3,0,0,1,32.8,14.8H223.2a28.3,28.3,0,0,1,28.3,28.3V212.9A28.3,28.3,0,0,1,223.2,241.2ZM32.8,30.2A12.9,12.9,0,0,0,19.9,43.1V212.9a12.9,12.9,0,0,0,12.9,12.9H223.2a12.9,12.9,0,0,0,12.9-12.9V43.1a12.9,12.9,0,0,0-12.9-12.9Z"/><path d="M243.8,92H12.2a7.8,7.8,0,0,1,0-15.5H243.8a7.8,7.8,0,0,1,0,15.5Z"/><path d="M243.8,143.4H12.2a7.7,7.7,0,1,1,0-15.4H243.8a7.7,7.7,0,0,1,0,15.4Z"/><path d="M243.8,194.9H12.2a7.7,7.7,0,0,1,0-15.4H243.8a7.7,7.7,0,1,1,0,15.4Z"/><path d="M68.8,241.2a7.7,7.7,0,0,1-7.7-7.7V84.3a7.7,7.7,0,1,1,15.4,0V233.5A7.6,7.6,0,0,1,68.8,241.2Z"/><path d="M128,241.2a7.6,7.6,0,0,1-7.7-7.7V84.3a7.7,7.7,0,1,1,15.4,0V233.5A7.6,7.6,0,0,1,128,241.2Z"/><path d="M187.2,241.2a7.6,7.6,0,0,1-7.7-7.7V84.3a7.7,7.7,0,1,1,15.4,0V233.5A7.7,7.7,0,0,1,187.2,241.2Z"/></svg>