<?xml version="1.0" encoding="utf-8"?>
<!-- Generator: Adobe Illustrator 22.1.0, SVG Export Plug-In . SVG Version: 6.00 Build 0)  -->
<svg version="1.1" id="Layer_1" xmlns="http://www.w3.org/2000/svg" xmlns:xlink="http://www.w3.org/1999/xlink" x="0px" y="0px"
	 viewBox="0 0 256 256" style="enable-background:new 0 0 256 256;" xml:space="preserve">
<style type="text/css">
	.st0{fill:#4C4C4C;}
</style>
<title>Text-area</title>
<path class="st0" d="M242.3,51.2H13.7c-5.5,0-10,4.5-10,10v133.6c0,5.5,4.5,10,10,10h228.6c5.5,0,10-4.5,10-10V61.2
	C252.3,55.7,247.8,51.2,242.3,51.2z M227,189.6H29c-5.6,0-10.1-4.5-10.1-10.1l0,0v-103c0-5.6,4.5-10.1,10.1-10.1h198
	c5.6,0,10.1,4.5,10.1,10.1l0,0v103C237.1,185.1,232.6,189.6,227,189.6C227,189.6,227,189.6,227,189.6z"/>
<polygon class="st0" points="44,106.4 64.9,106.4 64.9,168.9 54.5,168.9 54.5,179.4 96.2,179.4 96.2,168.9 85.7,168.9 85.7,106.4 
	106.6,106.4 106.6,116.8 117,116.8 117,106.4 117,96 33.6,96 33.6,106.4 33.6,116.8 44,116.8 "/>
<path class="st0" d="M207.6,162.7H222c1,0,1.8,0.8,1.8,1.8v14.4c0,1-0.8,1.8-1.8,1.8h-14.4c-1,0-1.8-0.8-1.8-1.8v-14.4
	C205.8,163.5,206.6,162.7,207.6,162.7z"/>
<path class="st0" d="M167.6,162.7H182c1,0,1.8,0.8,1.8,1.8v14.4c0,1-0.8,1.8-1.8,1.8h-14.4c-1,0-1.8-0.8-1.8-1.8v-14.4
	C165.8,163.5,166.6,162.7,167.6,162.7z"/>
<path class="st0" d="M127.6,162.7H142c1,0,1.8,0.8,1.8,1.8v14.4c0,1-0.8,1.8-1.8,1.8h-14.4c-1,0-1.8-0.8-1.8-1.8v-14.4
	C125.8,163.5,126.6,162.7,127.6,162.7z"/>
</svg>
