<?xml version="1.0" encoding="utf-8"?>
<!-- Generator: Adobe Illustrator 22.1.0, SVG Export Plug-In . SVG Version: 6.00 Build 0)  -->
<svg version="1.1" id="Layer_1" xmlns="http://www.w3.org/2000/svg" xmlns:xlink="http://www.w3.org/1999/xlink" x="0px" y="0px"
	 viewBox="0 0 256 256" style="enable-background:new 0 0 256 256;" xml:space="preserve">
<style type="text/css">
	.st0{fill:#4C4C4C;}
</style>
<title>Text_box</title>
<path class="st0" d="M224.8,21.2H31.2c-5.5,0-10,4.5-10,10v193.6c0,5.5,4.5,10,10,10h193.6c5.5,0,10-4.5,10-10V31.2
	C234.8,25.7,230.3,21.2,224.8,21.2z M209.5,219.6h-163c-5.6,0-10.1-4.5-10.1-10.1l0,0v-163c0-5.6,4.5-10.1,10.1-10.1h163
	c5.6,0,10.1,4.5,10.1,10.1v0v163C219.6,215.1,215.1,219.6,209.5,219.6C209.5,219.6,209.5,219.6,209.5,219.6z"/>
<polygon class="st0" points="82.2,82.2 112.7,82.2 112.7,173.8 97.5,173.8 97.5,189 158.5,189 158.5,173.8 143.3,173.8 143.3,82.2 
	173.8,82.2 173.8,97.5 189,97.5 189,82.2 189,67 67,67 67,82.2 67,97.5 82.2,97.5 "/>
</svg>
