<svg xmlns="http://www.w3.org/2000/svg" width="83.625" height="82.656" viewBox="0 0 83.625 82.656">
  <g id="Group_8" data-name="Group 8" transform="translate(-328.375 -943.25)">
    <path id="user" d="M64.9,23.776A23.776,23.776,0,1,0,27.673,43.369a40.959,40.959,0,0,0-15.628,9.8A41.918,41.918,0,0,0-.125,82.656H6.438c0-19.133,15.554-35.105,34.688-35.105A23.8,23.8,0,0,0,64.9,23.776ZM41.125,41.125a17.35,17.35,0,1,1,17.35-17.35A17.369,17.369,0,0,1,41.125,41.125ZM82.25,69.4Zm0,6.429v0Z" transform="translate(328.5 943.25)" fill="#4c4c4c"/>
    <path id="Path_73" data-name="Path 73" d="M3.5,0h38A3.475,3.475,0,0,1,45,3.45,3.475,3.475,0,0,1,41.5,6.9H3.5A3.475,3.475,0,0,1,0,3.45,3.475,3.475,0,0,1,3.5,0Z" transform="translate(329 1019)" fill="#4c4c4c"/>
    <path id="Path_74" data-name="Path 74" d="M3.5,0h25A3.475,3.475,0,0,1,32,3.45,3.475,3.475,0,0,1,28.5,6.9H3.5A3.475,3.475,0,0,1,0,3.45,3.475,3.475,0,0,1,3.5,0Z" transform="translate(380 1019)" fill="#4c4c4c"/>
    <path id="Path_75" data-name="Path 75" d="M3.5,0h25A3.475,3.475,0,0,1,32,3.45,3.475,3.475,0,0,1,28.5,6.9H3.5A3.475,3.475,0,0,1,0,3.45,3.475,3.475,0,0,1,3.5,0Z" transform="translate(380 1007)" fill="#4c4c4c"/>
    <path id="Path_76" data-name="Path 76" d="M3.5,0h25A3.475,3.475,0,0,1,32,3.45,3.475,3.475,0,0,1,28.5,6.9H3.5A3.475,3.475,0,0,1,0,3.45,3.475,3.475,0,0,1,3.5,0Z" transform="translate(380 995)" fill="#4c4c4c"/>
  </g>
</svg>
