<?xml version="1.0" encoding="utf-8"?>
<!-- Generator: Adobe Illustrator 22.1.0, SVG Export Plug-In . SVG Version: 6.00 Build 0)  -->
<svg version="1.1" id="Layer_1" xmlns="http://www.w3.org/2000/svg" xmlns:xlink="http://www.w3.org/1999/xlink" x="0px" y="0px"
	 viewBox="0 0 256 256" style="enable-background:new 0 0 256 256;" xml:space="preserve">
<style type="text/css">
	.st0{fill:#4C4C4C;}
</style>
<g>
	<g>
		<path class="st0" d="M8.8,144.2v60.4c0,14.1,13,24.5,27.1,24.5h123.7c14.1,0,24.1-10.4,24.1-24.5v-0.8l45.6,22.6
			c0.8,0.4,1.4,0.6,2.3,0.6c8.9,0,15.5-7.2,15.5-16.5v-78.1c0-9.2-6.2-16.4-15.1-16.4c-0.9,0-1.5,0.2-2.3,0.6l-45.1,22.8
			c-2.2-11.5-11.9-20.2-23.9-20.8c12.6-9.2,20.8-24.1,20.8-40.9c0-28-22.8-50.8-50.7-50.8C108,27,88.6,42.2,82.3,63
			c-7-7-16.6-11.4-27.2-11.4c-21.2,0-38.4,17.2-38.4,38.4c0,11.7,4.5,22.1,12.7,29.2C18,121.9,8.8,132.1,8.8,144.2z M232.4,128.2
			c1.8,0.6,2.7,2.4,2.7,4.2v78.1c0,1.8-0.8,3.7-2.6,4.2l-48.6-24.6v-37.6L232.4,128.2z M89.5,105.9c3.1,4.4,7,8.5,11.3,11.5h-20
			C84.4,114.4,87.3,110.3,89.5,105.9z M92.2,77.7c0-21.3,17.4-38.7,38.7-38.7c21.3,0,38.7,17.4,38.7,38.7
			c0,21.3-17.4,38.7-38.7,38.7c-18.1,0-33.4-12.6-37.5-29.5c-0.2-2.1-0.5-4.1-1-6.1C92.3,79.8,92.2,78.8,92.2,77.7z M55.1,63.7
			c12,0,22.1,8,25.3,19c0.2,2.1,0.6,4.1,1,6.1c0,0.4,0.1,0.8,0.1,1.3c0,14.5-11.8,26.4-26.4,26.4c-14.5,0-26.4-11.8-26.4-26.4
			S40.5,63.7,55.1,63.7z M171.7,203.4c0,7.5-6.1,13.6-13.6,13.6H34.5c-7.5,0-13.6-6.1-13.6-13.6V143c0-7.5,6.1-13.6,13.6-13.6h123.7
			c7.5,0,13.6,6.1,13.6,13.6C171.7,143,171.7,203.4,171.7,203.4z"/>
	</g>
</g>
</svg>
