<svg xmlns="http://www.w3.org/2000/svg" width="184.999" height="40.975" viewBox="0 0 184.999 40.975">
  <g id="Group_796" data-name="Group 796" transform="translate(-538 -291)">
    <g id="Group_805" data-name="Group 805">
      <g id="Group_795" data-name="Group 795" transform="translate(0 2)">
        <g id="Group_491" data-name="Group 491" transform="translate(-187 -17)">
          <path id="Path_833" data-name="Path 833" d="M751,15717H926" transform="translate(-20 -15383)" fill="none" stroke="#337e01" stroke-width="2"/>
          <g id="cursor" transform="translate(897.04 321.006) rotate(45)">
            <path id="Path_834" data-name="Path 834" d="M18.34.721A.778.778,0,0,0,18.1.272a.775.775,0,0,0-.586-.248.783.783,0,0,0-.378.091L.453,8.456a.787.787,0,0,0-.378.391.845.845,0,0,0-.052.547.789.789,0,0,0,.293.463.822.822,0,0,0,.515.176H8.337V17.54a.822.822,0,0,0,.176.515.787.787,0,0,0,.463.293,1.129,1.129,0,0,0,.2.026.764.764,0,0,0,.743-.456L18.255,1.236A.793.793,0,0,0,18.34.721Z" transform="translate(0)" fill="#337e01"/>
          </g>
          <circle id="Ellipse_57" data-name="Ellipse 57" cx="5.5" cy="5.5" r="5.5" transform="translate(725 329)" fill="#337e01"/>
        </g>
      </g>
      <text id="Accepted" transform="translate(590 310)" fill="#337e01" font-size="18" font-family="Roboto-Regular, Roboto"><tspan x="0" y="0">Accepted</tspan></text>
    </g>
  </g>
</svg>
