<svg xmlns="http://www.w3.org/2000/svg" width="256" height="256" viewBox="0 0 256 256"><title>warning</title><path d="M128,174.3a12.9,12.9,0,1,0,0,25.7c6.7,0,12.8-5.8,12.5-12.5A12.6,12.6,0,0,0,128,174.3Z"/><path d="M246.9,219.9a43.8,43.8,0,0,0,.1-44.4L166.5,36.1A44.2,44.2,0,0,0,89.6,36L9,175.6a44.5,44.5,0,0,0,38.5,66.7H208.3A44.2,44.2,0,0,0,246.9,219.9Zm-17.5-10.1a24.1,24.1,0,0,1-21.2,12.3H47.5a23.9,23.9,0,0,1-21-12.1,24.4,24.4,0,0,1-.1-24.5L107,46.1a23.8,23.8,0,0,1,21-12.2,24.2,24.2,0,0,1,21.1,12.2l80.5,139.5A23.8,23.8,0,0,1,229.4,209.8Z"/><path d="M124.8,84.1c-6.1,1.8-9.9,7.3-9.9,14.1l.9,12.2c.8,15.5,1.7,30.6,2.6,46.1a9.4,9.4,0,0,0,9.6,9,9.5,9.5,0,0,0,9.6-9.3c0-3.2,0-6.1.3-9.4l1.8-29.7c.3-6.4.8-12.9,1.1-19.3a16.9,16.9,0,0,0-1.1-6.4A13,13,0,0,0,124.8,84.1Z"/></svg>