<?xml version="1.0" encoding="utf-8"?>
<!-- Generator: Adobe Illustrator 22.1.0, SVG Export Plug-In . SVG Version: 6.00 Build 0)  -->
<svg version="1.1" id="Layer_1" xmlns="http://www.w3.org/2000/svg" xmlns:xlink="http://www.w3.org/1999/xlink" x="0px" y="0px"
	 viewBox="0 0 256 256" style="enable-background:new 0 0 256 256;" xml:space="preserve">
<path d="M128,174.3c-7.1-0.6-13.4,4.6-14,11.7c-0.6,7.1,4.6,13.4,11.7,14c0.8,0.1,1.5,0.1,2.3,0c6.7,0,12.8-5.8,12.5-12.5
	c0.3-7-5-12.9-12-13.2C128.3,174.3,128.2,174.3,128,174.3z"/>
<path d="M246.9,219.9c8.1-13.7,8.1-30.7,0.1-44.4L166.5,36.1c-12-21.3-39-28.7-60.2-16.7c-7,3.9-12.7,9.7-16.7,16.6L9,175.6
	c-12.3,21.3-4.9,48.5,16.4,60.8c6.7,3.9,14.4,5.9,22.1,5.9h160.8C224.3,242.4,239,233.8,246.9,219.9z M229.4,209.8
	c-4.3,7.7-12.4,12.4-21.2,12.3H47.5c-8.7,0.1-16.7-4.6-21-12.1c-4.4-7.6-4.5-16.9-0.1-24.5L107,46.1c4.2-7.6,12.3-12.3,21-12.2
	c8.7,0,16.8,4.6,21.1,12.2l80.5,139.5C233.9,193.1,233.9,202.4,229.4,209.8L229.4,209.8z"/>
<path d="M124.8,84.1c-6.1,1.8-9.9,7.3-9.9,14.1l0.9,12.2c0.8,15.5,1.7,30.6,2.6,46.1c0.2,5.1,4.5,9.1,9.6,9c5.2,0.1,9.5-4.1,9.6-9.3
	c0-3.2,0-6.1,0.3-9.4l1.8-29.7c0.3-6.4,0.8-12.9,1.1-19.3c0.1-2.2-0.3-4.4-1.1-6.4C137.1,85.7,130.9,82.6,124.8,84.1z"/>
</svg>
