<?xml version="1.0" encoding="utf-8"?>
<!-- Generator: Adobe Illustrator 24.0.1, SVG Export Plug-In . SVG Version: 6.00 Build 0)  -->
<svg version="1.1" id="Layer_1" xmlns="http://www.w3.org/2000/svg" xmlns:xlink="http://www.w3.org/1999/xlink" x="0px" y="0px"
	 viewBox="0 0 150 150" style="enable-background:new 0 0 150 150;" xml:space="preserve">
<style type="text/css">
	.st0{fill:#707070;}
	.st1{fill:none;stroke:#707070;stroke-width:5;stroke-miterlimit:10;}
	.st2{fill:#FFFFFF;}
</style>
<path class="st0" d="M92.33,61.33H60.67c-2.3,0-4.17-1.87-4.17-4.17V25.5c0-2.3,1.87-4.17,4.17-4.17h31.66
	c2.3,0,4.17,1.87,4.17,4.17v31.66C96.5,59.46,94.63,61.33,92.33,61.33z"/>
<path class="st0" d="M91.09,128.67H61.91c-2.99,0-5.41-2.42-5.41-5.41V94.09c0-2.99,2.42-5.41,5.41-5.41h29.17
	c2.99,0,5.41,2.42,5.41,5.41v29.17C96.5,126.25,94.08,128.67,91.09,128.67z"/>
<path class="st1" d="M49,41.5h-8.38c-3.66,0-6.63,2.97-6.63,6.63v19.75c0,3.66,2.97,6.63,6.63,6.63h68.75
	c3.66,0,6.63,2.97,6.63,6.63v21.75c0,3.66-2.97,6.63-6.63,6.63H102"/>
<g>
	<path class="st2" d="M66.48,43.82l4.16,4.16c0.97,0.97,2.27,1.47,3.54,1.47c1.33,0,2.69-0.54,3.67-1.6l-1.83-1.7l1.75,1.78
		L87,38.83c0.98-0.97,1-2.55,0.03-3.54c-0.97-0.98-2.55-1-3.54-0.03l-9.27,9.13l-0.04,0.04l0,0l0,0.01l0-0.01l0,0l0,0.01l0-0.01
		l-0.01,0l0,0l0,0.01l0.01-0.01l0,0l0,0.01l0.01-0.01l0,0l-4.16-4.16c-0.98-0.98-2.56-0.98-3.54,0
		C65.5,41.26,65.5,42.84,66.48,43.82L66.48,43.82z"/>
</g>
<g>
	<path class="st2" d="M66.48,110.82l4.16,4.16c0.97,0.97,2.27,1.47,3.54,1.47c1.33,0,2.69-0.54,3.67-1.6l-1.83-1.7l1.75,1.78
		l9.23-9.09c0.98-0.97,1-2.55,0.03-3.54c-0.97-0.98-2.55-1-3.54-0.03l-9.27,9.13l-0.04,0.04l0,0l0,0.01l0-0.01l0,0l0,0.01l0-0.01
		l-0.01,0l0,0l0,0.01l0.01-0.01l0,0l0,0.01l0.01-0.01l0,0l-4.16-4.16c-0.98-0.98-2.56-0.98-3.54,0
		C65.5,108.26,65.5,109.84,66.48,110.82L66.48,110.82z"/>
</g>
</svg>
