<svg xmlns="http://www.w3.org/2000/svg" width="109.5" height="80.2" viewBox="0 0 109.5 80.2"><defs><style>.a{fill:none;stroke:#eb0909;stroke-width:2px;}.b,.c{fill:#eb0909;}.c{writing-mode:tb;text-orientation:upright;glyph-orientation-vertical:0deg;font-size:10px;font-family:Roboto-Regular, Roboto;}</style></defs><title>Rejected_down</title><path class="a" d="M50.9,6.2V76.3"/><path class="b" d="M50.4,79.8l.5.2a.8.8,0,0,0,.6-.2.8.8,0,0,0,.2-.4l5.9-17.7a.5.5,0,0,0,0-.5l-.3-.4-.6-.2-.5.3-5.3,5.3-5.3-5.3c-.1-.2-.3-.2-.5-.3l-.5.2h-.2a.8.8,0,0,0-.2.8l5.9,17.7Z"/><circle class="b" cx="50.4" cy="5.7" r="5.5"/><text class="c" transform="translate(69 0.8)">Rejected</text></svg>