<?xml version="1.0" encoding="UTF-8" standalone="no"?>
<!DOCTYPE svg PUBLIC "-//W3C//DTD SVG 1.1//EN"
 "http://www.w3.org/Graphics/SVG/1.1/DTD/svg11.dtd">
<!-- Generated by graphviz version 2.40.1 (20161225.0304)
 -->
<!-- Title: dependencies Pages: 1 -->
<svg width="1092pt" height="284pt"
 viewBox="0.00 0.00 1092.00 284.00" xmlns="http://www.w3.org/2000/svg" xmlns:xlink="http://www.w3.org/1999/xlink">
<g id="graph0" class="graph" transform="scale(1 1) rotate(0) translate(4 280)">
<title>dependencies</title>
<polygon fill="#ffffff" stroke="transparent" points="-4,4 -4,-280 1088,-280 1088,4 -4,4"/>
<text text-anchor="start" x="521.0091" y="-42.4" font-family="sans-serif" font-weight="bold" font-size="14.00" fill="#000000">Legend</text>
<polygon fill="#ffffb3" stroke="transparent" points="308,-10 308,-30 328,-30 328,-10 308,-10"/>
<text text-anchor="start" x="331.629" y="-15.4" font-family="sans-serif" font-size="14.00" fill="#000000"> &#160;Declarations</text>
<polygon fill="#8dd3c7" stroke="transparent" points="421,-10 421,-30 441,-30 441,-10 421,-10"/>
<text text-anchor="start" x="444.7251" y="-15.4" font-family="sans-serif" font-size="14.00" fill="#000000"> &#160;Module</text>
<polygon fill="#80b1d3" stroke="transparent" points="507,-10 507,-30 527,-30 527,-10 507,-10"/>
<text text-anchor="start" x="530.7812" y="-15.4" font-family="sans-serif" font-size="14.00" fill="#000000"> &#160;Bootstrap</text>
<polygon fill="#fdb462" stroke="transparent" points="604,-10 604,-30 624,-30 624,-10 604,-10"/>
<text text-anchor="start" x="627.6732" y="-15.4" font-family="sans-serif" font-size="14.00" fill="#000000"> &#160;Providers</text>
<polygon fill="#fb8072" stroke="transparent" points="700,-10 700,-30 720,-30 720,-10 700,-10"/>
<text text-anchor="start" x="723.7258" y="-15.4" font-family="sans-serif" font-size="14.00" fill="#000000"> &#160;Exports</text>
<g id="clust1" class="cluster">
<title>cluster_SharedRecordsModule</title>
<polygon fill="none" stroke="#000000" stroke-dasharray="1,5" points="8,-70 8,-268 1076,-268 1076,-70 8,-70"/>
</g>
<g id="clust2" class="cluster">
<title>cluster_SharedRecordsModule_declarations</title>
<polygon fill="none" stroke="#000000" points="346,-78 346,-130 1068,-130 1068,-78 346,-78"/>
</g>
<g id="clust7" class="cluster">
<title>cluster_SharedRecordsModule_imports</title>
<polygon fill="none" stroke="#000000" points="16,-78 16,-130 338,-130 338,-78 16,-78"/>
</g>
<g id="clust8" class="cluster">
<title>cluster_SharedRecordsModule_exports</title>
<polygon fill="none" stroke="#000000" points="346,-208 346,-260 700,-260 700,-208 346,-208"/>
</g>
<!-- FullRecordViewComponent -->
<g id="node1" class="node">
<title>FullRecordViewComponent</title>
<polygon fill="#ffffb3" stroke="#000000" points="1060.1414,-122 885.8586,-122 885.8586,-86 1060.1414,-86 1060.1414,-122"/>
<text text-anchor="middle" x="973" y="-99.8" font-family="Times,serif" font-size="14.00" fill="#000000">FullRecordViewComponent</text>
</g>
<!-- SharedRecordsModule -->
<g id="node5" class="node">
<title>SharedRecordsModule</title>
<polygon fill="#8dd3c7" stroke="#000000" points="600.2935,-187 597.2935,-191 576.2935,-191 573.2935,-187 455.7065,-187 455.7065,-151 600.2935,-151 600.2935,-187"/>
<text text-anchor="middle" x="528" y="-164.8" font-family="Times,serif" font-size="14.00" fill="#000000">SharedRecordsModule</text>
</g>
<!-- FullRecordViewComponent&#45;&gt;SharedRecordsModule -->
<g id="edge1" class="edge">
<title>FullRecordViewComponent&#45;&gt;SharedRecordsModule</title>
<path fill="none" stroke="#000000" d="M973,-122.2843C973,-143.3211 973,-175 973,-175 973,-175 610.4873,-175 610.4873,-175"/>
<polygon fill="#000000" stroke="#000000" points="610.4874,-171.5001 600.4873,-175 610.4873,-178.5001 610.4874,-171.5001"/>
</g>
<!-- GetRecordsComponent -->
<g id="node2" class="node">
<title>GetRecordsComponent</title>
<polygon fill="#ffffb3" stroke="#000000" points="867.9158,-122 720.0842,-122 720.0842,-86 867.9158,-86 867.9158,-122"/>
<text text-anchor="middle" x="794" y="-99.8" font-family="Times,serif" font-size="14.00" fill="#000000">GetRecordsComponent</text>
</g>
<!-- GetRecordsComponent&#45;&gt;SharedRecordsModule -->
<g id="edge2" class="edge">
<title>GetRecordsComponent&#45;&gt;SharedRecordsModule</title>
<path fill="none" stroke="#000000" d="M794,-122.0225C794,-139.3734 794,-163 794,-163 794,-163 610.3343,-163 610.3343,-163"/>
<polygon fill="#000000" stroke="#000000" points="610.3343,-159.5001 600.3343,-163 610.3343,-166.5001 610.3343,-159.5001"/>
</g>
<!-- MediaWidgetsComponent -->
<g id="node3" class="node">
<title>MediaWidgetsComponent</title>
<polygon fill="#ffffb3" stroke="#000000" points="701.752,-122 538.248,-122 538.248,-86 701.752,-86 701.752,-122"/>
<text text-anchor="middle" x="620" y="-99.8" font-family="Times,serif" font-size="14.00" fill="#000000">MediaWidgetsComponent</text>
</g>
<!-- MediaWidgetsComponent&#45;&gt;SharedRecordsModule -->
<g id="edge3" class="edge">
<title>MediaWidgetsComponent&#45;&gt;SharedRecordsModule</title>
<path fill="none" stroke="#000000" d="M569.1354,-122.1061C569.1354,-122.1061 569.1354,-140.991 569.1354,-140.991"/>
<polygon fill="#000000" stroke="#000000" points="565.6354,-140.9909 569.1354,-150.991 572.6354,-140.991 565.6354,-140.9909"/>
</g>
<!-- SharedRecordsComponent -->
<g id="node4" class="node">
<title>SharedRecordsComponent</title>
<polygon fill="#ffffb3" stroke="#000000" points="520.0758,-122 353.9242,-122 353.9242,-86 520.0758,-86 520.0758,-122"/>
<text text-anchor="middle" x="437" y="-99.8" font-family="Times,serif" font-size="14.00" fill="#000000">SharedRecordsComponent</text>
</g>
<!-- SharedRecordsComponent&#45;&gt;SharedRecordsModule -->
<g id="edge4" class="edge">
<title>SharedRecordsComponent&#45;&gt;SharedRecordsModule</title>
<path fill="none" stroke="#000000" d="M487.9457,-122.1061C487.9457,-122.1061 487.9457,-140.991 487.9457,-140.991"/>
<polygon fill="#000000" stroke="#000000" points="484.4457,-140.9909 487.9457,-150.991 491.4457,-140.991 484.4457,-140.9909"/>
</g>
<!-- GetRecordsComponent  -->
<g id="node8" class="node">
<title>GetRecordsComponent </title>
<polygon fill="#fb8072" stroke="#000000" points="692.4152,-252 541.5848,-252 541.5848,-216 692.4152,-216 692.4152,-252"/>
<text text-anchor="middle" x="617" y="-229.8" font-family="Times,serif" font-size="14.00" fill="#000000">GetRecordsComponent </text>
</g>
<!-- SharedRecordsModule&#45;&gt;GetRecordsComponent  -->
<g id="edge7" class="edge">
<title>SharedRecordsModule&#45;&gt;GetRecordsComponent </title>
<path fill="none" stroke="#000000" stroke-dasharray="5,2" d="M570.8445,-187.1061C570.8445,-187.1061 570.8445,-205.991 570.8445,-205.991"/>
<polygon fill="#000000" stroke="#000000" points="567.3446,-205.9909 570.8445,-215.991 574.3446,-205.991 567.3446,-205.9909"/>
</g>
<!-- SharedRecordsComponent  -->
<g id="node9" class="node">
<title>SharedRecordsComponent </title>
<polygon fill="#fb8072" stroke="#000000" points="523.5763,-252 354.4237,-252 354.4237,-216 523.5763,-216 523.5763,-252"/>
<text text-anchor="middle" x="439" y="-229.8" font-family="Times,serif" font-size="14.00" fill="#000000">SharedRecordsComponent </text>
</g>
<!-- SharedRecordsModule&#45;&gt;SharedRecordsComponent  -->
<g id="edge8" class="edge">
<title>SharedRecordsModule&#45;&gt;SharedRecordsComponent </title>
<path fill="none" stroke="#000000" stroke-dasharray="5,2" d="M489.8207,-187.1061C489.8207,-187.1061 489.8207,-205.991 489.8207,-205.991"/>
<polygon fill="#000000" stroke="#000000" points="486.3207,-205.9909 489.8207,-215.991 493.3207,-205.991 486.3207,-205.9909"/>
</g>
<!-- DynamicFormModule -->
<g id="node6" class="node">
<title>DynamicFormModule</title>
<polygon fill="#8dd3c7" stroke="#000000" points="329.7007,-122 326.7007,-126 305.7007,-126 302.7007,-122 188.2993,-122 188.2993,-86 329.7007,-86 329.7007,-122"/>
<text text-anchor="middle" x="259" y="-99.8" font-family="Times,serif" font-size="14.00" fill="#000000">DynamicFormModule</text>
</g>
<!-- DynamicFormModule&#45;&gt;SharedRecordsModule -->
<g id="edge5" class="edge">
<title>DynamicFormModule&#45;&gt;SharedRecordsModule</title>
<path fill="none" stroke="#000000" d="M259,-122.0225C259,-139.3734 259,-163 259,-163 259,-163 445.5591,-163 445.5591,-163"/>
<polygon fill="#000000" stroke="#000000" points="445.5591,-166.5001 455.5591,-163 445.559,-159.5001 445.5591,-166.5001"/>
</g>
<!-- SharingModuleModule -->
<g id="node7" class="node">
<title>SharingModuleModule</title>
<polygon fill="#8dd3c7" stroke="#000000" points="170.1484,-122 167.1484,-126 146.1484,-126 143.1484,-122 23.8516,-122 23.8516,-86 170.1484,-86 170.1484,-122"/>
<text text-anchor="middle" x="97" y="-99.8" font-family="Times,serif" font-size="14.00" fill="#000000">SharingModuleModule</text>
</g>
<!-- SharingModuleModule&#45;&gt;SharedRecordsModule -->
<g id="edge6" class="edge">
<title>SharingModuleModule&#45;&gt;SharedRecordsModule</title>
<path fill="none" stroke="#000000" d="M97,-122.2843C97,-143.3211 97,-175 97,-175 97,-175 445.3741,-175 445.3741,-175"/>
<polygon fill="#000000" stroke="#000000" points="445.3741,-178.5001 455.3741,-175 445.3741,-171.5001 445.3741,-178.5001"/>
</g>
</g>
</svg>
