<?xml version="1.0" encoding="utf-8"?>
<!-- Generator: Adobe Illustrator 23.0.3, SVG Export Plug-In . SVG Version: 6.00 Build 0)  -->
<svg version="1.1" id="Layer_1" xmlns="http://www.w3.org/2000/svg" xmlns:xlink="http://www.w3.org/1999/xlink" x="0px" y="0px"
	 viewBox="0 0 200 200" style="enable-background:new 0 0 200 200;" xml:space="preserve">
<style type="text/css">
	.st0{fill:#FFFFFF;}
</style>
<g>
	<path class="st0" d="M128,32h19.5c1.52,0,2.88,0.61,3.89,1.61c1,1.01,1.61,2.36,1.61,3.89v133.33c0,1.53-0.61,2.89-1.61,3.89
		c-1,1-2.36,1.61-3.89,1.61H53.17c-1.53,0-2.89-0.61-3.89-1.61c-1-1-1.61-2.36-1.61-3.89V37.5c0-1.53,0.61-2.88,1.61-3.89
		c1-1,2.36-1.61,3.89-1.61h19.5v-6l-19.5,0c-3.17,0-6.06,1.29-8.13,3.37c-2.08,2.07-3.37,4.97-3.37,8.13v133.33
		c0,3.17,1.29,6.06,3.37,8.13c2.07,2.08,4.97,3.37,8.13,3.37h94.33c3.16,0,6.06-1.29,8.13-3.37c2.08-2.07,3.37-4.97,3.37-8.13V37.5
		c0-3.17-1.29-6.06-3.37-8.13c-2.07-2.08-4.96-3.37-8.13-3.37H128V32L128,32z"/>
	<path class="st0" d="M122.63,36.5v-3H78.04c-0.67,0-1.24-0.26-1.68-0.7c-0.43-0.44-0.69-1.01-0.7-1.68v-4.25
		c0-0.67,0.26-1.24,0.7-1.68c0.44-0.43,1.01-0.69,1.68-0.7h44.58c0.67,0,1.24,0.26,1.68,0.7c0.43,0.44,0.69,1.01,0.7,1.68v4.25
		c0,0.67-0.26,1.24-0.7,1.68c-0.44,0.43-1.01,0.69-1.68,0.7V36.5v3c2.3,0,4.42-0.94,5.92-2.45c1.51-1.51,2.45-3.62,2.45-5.92v-4.25
		c0-2.3-0.94-4.42-2.45-5.92c-1.51-1.51-3.62-2.45-5.92-2.45H78.04c-2.3,0-4.42,0.94-5.92,2.45c-1.51,1.51-2.45,3.62-2.45,5.92v4.25
		c0,2.3,0.94,4.42,2.45,5.92c1.51,1.51,3.62,2.45,5.92,2.45h44.58V36.5z"/>
	<path class="st0" d="M94,54h48.5c1.1,0,2-0.9,2-2s-0.9-2-2-2H94c-1.1,0-2,0.9-2,2S92.9,54,94,54"/>
	<path class="st0" d="M94,62.25h48.5c1.1,0,2-0.9,2-2s-0.9-2-2-2H94c-1.1,0-2,0.9-2,2S92.9,62.25,94,62.25"/>
	<path class="st0" d="M94,70.5h28.75c1.1,0,2-0.9,2-2s-0.9-2-2-2H94c-1.1,0-2,0.9-2,2S92.9,70.5,94,70.5"/>
	<path class="st0" d="M58.48,62.48l8.36,7.65l14.09-16.58c0.72-0.84,0.61-2.1-0.23-2.82c-0.84-0.72-2.1-0.61-2.82,0.23L66.49,64.37
		l-5.3-4.85c-0.82-0.75-2.08-0.69-2.83,0.13C57.61,60.47,57.67,61.73,58.48,62.48L58.48,62.48z"/>
	<path class="st0" d="M94,88.67h48.5c1.1,0,2-0.9,2-2s-0.9-2-2-2H94c-1.1,0-2,0.9-2,2S92.9,88.67,94,88.67"/>
	<path class="st0" d="M94,96.92h48.5c1.1,0,2-0.9,2-2s-0.9-2-2-2H94c-1.1,0-2,0.9-2,2S92.9,96.92,94,96.92"/>
	<path class="st0" d="M94,105.17h28.75c1.1,0,2-0.9,2-2s-0.9-2-2-2H94c-1.1,0-2,0.9-2,2S92.9,105.17,94,105.17"/>
	<path class="st0" d="M58.48,97.14l8.36,7.65l14.09-16.58c0.72-0.84,0.61-2.1-0.23-2.82c-0.84-0.72-2.1-0.61-2.82,0.23L66.49,99.04
		l-5.3-4.85c-0.82-0.75-2.08-0.69-2.83,0.13C57.61,95.13,57.67,96.4,58.48,97.14L58.48,97.14z"/>
	<path class="st0" d="M94,125h48.5c1.1,0,2-0.9,2-2c0-1.1-0.9-2-2-2H94c-1.1,0-2,0.9-2,2C92,124.1,92.9,125,94,125"/>
	<path class="st0" d="M94,133.25h48.5c1.1,0,2-0.9,2-2c0-1.1-0.9-2-2-2H94c-1.1,0-2,0.9-2,2C92,132.35,92.9,133.25,94,133.25"/>
	<path class="st0" d="M94,141.5h28.75c1.1,0,2-0.9,2-2c0-1.1-0.9-2-2-2H94c-1.1,0-2,0.9-2,2C92,140.6,92.9,141.5,94,141.5"/>
	<path class="st0" d="M61.54,142.23l16.38-19.75c0.71-0.85,0.59-2.11-0.26-2.82c-0.85-0.71-2.11-0.59-2.82,0.26l-16.38,19.75
		c-0.71,0.85-0.59,2.11,0.26,2.82S60.83,143.08,61.54,142.23"/>
	<path class="st0" d="M58.76,122.15l15.68,20.31c0.68,0.87,1.93,1.04,2.81,0.36c0.87-0.68,1.04-1.93,0.36-2.81l-15.68-20.31
		c-0.68-0.87-1.93-1.04-2.81-0.36C58.25,120.02,58.09,121.28,58.76,122.15"/>
</g>
</svg>
