<svg width="12" height="23" viewBox="0 0 12 23" fill="none" xmlns="http://www.w3.org/2000/svg">
<path d="M10.1873 5.24984V17.229C10.1873 19.5311 8.32275 21.3957 6.02067 21.3957C3.71859 21.3957 1.854 19.5311 1.854 17.229V4.20817C1.854 2.77067 3.02067 1.604 4.45817 1.604C5.89567 1.604 7.06234 2.77067 7.06234 4.20817V15.1457C7.06234 15.7186 6.59359 16.1873 6.02067 16.1873C5.44775 16.1873 4.979 15.7186 4.979 15.1457V5.24984H3.4165V15.1457C3.4165 16.5832 4.58317 17.7498 6.02067 17.7498C7.45817 17.7498 8.62484 16.5832 8.62484 15.1457V4.20817C8.62484 1.90609 6.76025 0.0415039 4.45817 0.0415039C2.15609 0.0415039 0.291504 1.90609 0.291504 4.20817V17.229C0.291504 20.3957 2.854 22.9582 6.02067 22.9582C9.18734 22.9582 11.7498 20.3957 11.7498 17.229V5.24984H10.1873Z" fill="white"/>
</svg>
