<?xml version="1.0" encoding="utf-8"?>
<!-- Generator: Adobe Illustrator 23.1.0, SVG Export Plug-In . SVG Version: 6.00 Build 0)  -->
<svg version="1.1" id="Layer_1" xmlns="http://www.w3.org/2000/svg" xmlns:xlink="http://www.w3.org/1999/xlink" x="0px" y="0px"
	 viewBox="0 0 69.86 69.86" style="enable-background:new 0 0 69.86 69.86;" xml:space="preserve">
<style type="text/css">
	.st0{fill:url(#Ellipse_51-2_1_);}
	.st1{fill:#FFFFFF;}
</style>
<g id="Forms" transform="translate(-45.142 -1273.46)">
	<g id="Forms_Icon" transform="translate(-9.358 -4.358)">
		<g transform="matrix(1, 0, 0, 1, 54.5, 1277.82)">
			
				<linearGradient id="Ellipse_51-2_1_" gradientUnits="userSpaceOnUse" x1="-209.099" y1="282.0424" x2="-210.099" y2="281.0424" gradientTransform="matrix(54.858 0 0 -54.858 11533.1123 15479.7793)">
				<stop  offset="0" style="stop-color:#4886F1"/>
				<stop  offset="1" style="stop-color:#40C1F6"/>
			</linearGradient>
			<circle id="Ellipse_51-2" class="st0" cx="34.93" cy="34.93" r="27.43"/>
		</g>
	</g>
	<g id="Forms_mode" transform="translate(-96.86 891.474)">
		<g id="copy" transform="translate(164.26 397.633)">
			<g id="Group_7" transform="translate(0)">
				<path id="Path_649" class="st1" d="M17.8,8H2.59C1.16,8,0,9.16,0,10.59v21.82C0,33.84,1.16,35,2.59,35H17.8
					c1.43,0,2.59-1.16,2.59-2.59V10.59C20.38,9.16,19.22,8.01,17.8,8z M18.57,32.4c0,0.43-0.35,0.78-0.78,0.78H2.58
					c-0.43,0-0.78-0.35-0.78-0.78V10.59c0-0.43,0.35-0.78,0.78-0.78h15.21c0.43,0,0.78,0.35,0.78,0.78V32.4z"/>
				<path id="Path_650" class="st1" d="M23.61,3H8.4C6.97,3,5.82,4.16,5.81,5.59c0,0.5,0.4,0.9,0.9,0.9c0.5,0,0.9-0.4,0.9-0.9
					c0-0.43,0.35-0.78,0.78-0.78h15.21c0.43,0,0.78,0.35,0.78,0.78v21.82c0,0.43-0.35,0.78-0.78,0.78c-0.5,0-0.9,0.4-0.9,0.9
					c0,0.5,0.4,0.9,0.9,0.9c1.43,0,2.59-1.16,2.59-2.59V5.59C26.2,4.16,25.04,3,23.61,3z"/>
				<path id="Path_651" class="st1" d="M16.01,21.47c0-0.52-0.42-0.93-0.93-0.93H5.45c-0.52,0-0.94,0.42-0.94,0.93
					c0,0.52,0.42,0.94,0.93,0.94c0,0,0,0,0,0h9.63C15.59,22.4,16.01,21.99,16.01,21.47C16.01,21.47,16.01,21.47,16.01,21.47z"/>
				<path id="Path_654" class="st1" d="M16.01,24.97c0-0.52-0.42-0.93-0.93-0.93H5.45c-0.52,0-0.94,0.42-0.94,0.93
					c0,0.52,0.42,0.94,0.93,0.94c0,0,0,0,0,0h9.63C15.59,25.9,16.01,25.49,16.01,24.97C16.01,24.97,16.01,24.97,16.01,24.97z"/>
				<path id="Path_653" class="st1" d="M15.08,16.88H5.45c-0.52,0-0.94,0.42-0.94,0.94c0,0.52,0.42,0.93,0.94,0.93h9.63
					c0.52,0,0.94-0.42,0.94-0.93C16.01,17.3,15.59,16.88,15.08,16.88L15.08,16.88z"/>
			</g>
		</g>
	</g>
</g>
</svg>
