<svg xmlns="http://www.w3.org/2000/svg" xmlns:xlink="http://www.w3.org/1999/xlink" width="69.858" height="69.858" viewBox="0 0 69.858 69.858">
  <defs>
    <linearGradient id="linear-gradient" x1="1" x2="0" y2="1" gradientUnits="objectBoundingBox">
      <stop offset="0" stop-color="#4886f1"/>
      <stop offset="1" stop-color="#40c1f6"/>
    </linearGradient>
    <filter id="Ellipse_51" x="0" y="0" width="69.858" height="69.858" filterUnits="userSpaceOnUse">
      <feOffset dy="3" input="SourceAlpha"/>
      <feGaussianBlur stdDeviation="2.5" result="blur"/>
      <feFlood flood-opacity="0.149"/>
      <feComposite operator="in" in2="blur"/>
      <feComposite in="SourceGraphic"/>
    </filter>
  </defs>
  <g id="Forms" transform="translate(-45.142 -1273.46)">
    <g id="Forms_Icon" transform="translate(-9.358 -4.358)">
      <g transform="matrix(1, 0, 0, 1, 54.5, 1277.82)" filter="url(#Ellipse_51)">
        <circle id="Ellipse_51-2" data-name="Ellipse 51" cx="27.429" cy="27.429" r="27.429" transform="translate(7.5 4.5)" fill="url(#linear-gradient)"/>
      </g>
    </g>
    <g id="Forms_mode" data-name="Forms mode" transform="translate(-96.86 891.474)">
      <g id="copy" transform="translate(164.26 397.633)">
        <g id="Group_7" data-name="Group 7" transform="translate(0)">
          <path id="Path_649" data-name="Path 649" d="M66.447,85.4H51.237a2.588,2.588,0,0,0-2.587,2.587v21.824a2.588,2.588,0,0,0,2.587,2.587H66.447a2.588,2.588,0,0,0,2.587-2.587V87.986A2.6,2.6,0,0,0,66.447,85.4Zm.771,24.4a.778.778,0,0,1-.777.777H51.23a.778.778,0,0,1-.777-.777V87.986a.778.778,0,0,1,.777-.777H66.441a.778.778,0,0,1,.777.777Z" transform="translate(-48.65 -80.397)" fill="#fff"/>
          <path id="Path_650" data-name="Path 650" d="M153.247,0H138.036a2.588,2.588,0,0,0-2.587,2.587.9.9,0,0,0,1.809,0,.778.778,0,0,1,.777-.777h15.211a.778.778,0,0,1,.777.777V24.411a.778.778,0,0,1-.777.777.9.9,0,0,0,0,1.809,2.588,2.588,0,0,0,2.587-2.587V2.587A2.588,2.588,0,0,0,153.247,0Z" transform="translate(-129.634)" fill="#fff"/>
          <path id="Path_651" data-name="Path 651" d="M107.553,181.382a.935.935,0,0,0-.935-.935H96.986a.935.935,0,1,0,0,1.87h9.631A.935.935,0,0,0,107.553,181.382Z" transform="translate(-91.54 -162.911)" fill="#fff"/>
          <path id="Path_654" data-name="Path 654" d="M107.553,181.382a.935.935,0,0,0-.935-.935H96.986a.935.935,0,1,0,0,1.87h9.631A.935.935,0,0,0,107.553,181.382Z" transform="translate(-91.54 -159.411)" fill="#fff"/>
          <path id="Path_653" data-name="Path 653" d="M106.617,108.268H96.986a.935.935,0,1,0,0,1.87h9.631a.935.935,0,1,0,0-1.87Z" transform="translate(-91.54 -94.386)" fill="#fff"/>
        </g>
      </g>
    </g>
  </g>
</svg>
