<?xml version="1.0" encoding="utf-8"?>
<!-- Generator: Adobe Illustrator 23.1.0, SVG Export Plug-In . SVG Version: 6.00 Build 0)  -->
<svg version="1.1" id="Layer_1" xmlns="http://www.w3.org/2000/svg" xmlns:xlink="http://www.w3.org/1999/xlink" x="0px" y="0px"
	 viewBox="0 0 38.48 40.36" style="enable-background:new 0 0 38.48 40.36;" xml:space="preserve">
<style type="text/css">
	.st0{fill:#FFFFFF;}
</style>
<g id="Forms_mode" transform="translate(-96.86 891.474)">
	<g id="copy" transform="translate(164.26 397.633)">
		<g id="Group_7" transform="translate(0)">
			<path id="Path_649" class="st0" d="M-43.37-1280.29h-16.16c-1.52,0-2.75,1.23-2.75,2.75v23.19c0,1.52,1.23,2.75,2.75,2.75h16.16
				c1.52,0,2.75-1.23,2.75-2.75v-23.19C-40.63-1279.06-41.85-1280.28-43.37-1280.29z M-42.55-1254.37c0,0.46-0.37,0.82-0.83,0.83
				h-16.16c-0.46,0-0.82-0.37-0.83-0.83v-23.17c0-0.46,0.37-0.82,0.83-0.83h16.16c0.46,0,0.82,0.37,0.83,0.83V-1254.37z"/>
			<path id="Path_650" class="st0" d="M-37.19-1285.61h-16.16c-1.52,0-2.75,1.23-2.75,2.75c0,0.53,0.43,0.96,0.96,0.96
				c0.53,0,0.96-0.43,0.96-0.96c0-0.46,0.37-0.82,0.83-0.83h16.16c0.46,0,0.82,0.37,0.83,0.83v23.19c0,0.46-0.37,0.82-0.83,0.83
				c-0.53,0-0.96,0.43-0.96,0.96c0,0.53,0.43,0.96,0.96,0.96c1.52,0,2.75-1.23,2.75-2.75v-23.18
				C-34.44-1284.37-35.67-1285.6-37.19-1285.61z"/>
			<path id="Path_651" class="st0" d="M-45.26-1265.98c0-0.55-0.44-0.99-0.99-0.99h-10.23c-0.55,0-0.99,0.44-1,0.99
				c0,0.55,0.44,0.99,0.99,1c0,0,0,0,0,0h10.23C-45.71-1264.99-45.26-1265.43-45.26-1265.98
				C-45.26-1265.98-45.26-1265.98-45.26-1265.98z"/>
			<path id="Path_654" class="st0" d="M-45.26-1262.26c0-0.55-0.44-0.99-0.99-0.99h-10.23c-0.55,0-0.99,0.44-1,0.99
				c0,0.55,0.44,0.99,0.99,1c0,0,0,0,0,0h10.23C-45.71-1261.27-45.26-1261.71-45.26-1262.26
				C-45.26-1262.26-45.26-1262.26-45.26-1262.26z"/>
			<path id="Path_653" class="st0" d="M-46.26-1270.86h-10.23c-0.55,0-0.99,0.44-0.99,0.99c0,0.55,0.44,0.99,0.99,0.99h10.23
				c0.55,0,0.99-0.44,0.99-0.99C-45.26-1270.41-45.71-1270.86-46.26-1270.86L-46.26-1270.86z"/>
		</g>
	</g>
</g>
</svg>
