<?xml version="1.0" encoding="utf-8"?>
<!-- Generator: Adobe Illustrator 23.1.0, SVG Export Plug-In . SVG Version: 6.00 Build 0)  -->
<svg version="1.1" id="Layer_1" xmlns="http://www.w3.org/2000/svg" xmlns:xlink="http://www.w3.org/1999/xlink" x="0px" y="0px"
	 viewBox="0 0 500 500" style="enable-background:new 0 0 500 500;" xml:space="preserve">
<style type="text/css">
	.st0{fill:#D5EEF7;}
	.st1{fill:none;stroke:#29ABE2;stroke-width:2;stroke-miterlimit:10;}
	.st2{fill:none;stroke:#29ABE2;stroke-width:3;stroke-miterlimit:10;}
	.st3{fill:#1A1A1A;}
	.st4{fill:none;stroke:#B9D6DB;stroke-miterlimit:10;}
	.st5{fill:none;stroke:#B9D6DB;stroke-miterlimit:10;stroke-dasharray:0.01,0,0,0;}
	.st6{fill:none;stroke:#B9D6DB;stroke-miterlimit:10;stroke-dasharray:10.0454,5.0127,0.01,0,0,0;}
	.st7{fill:none;stroke:#B9D6DB;stroke-miterlimit:10;stroke-dasharray:9.753594e-03,0,0,0;}
	.st8{fill:none;stroke:#B9D6DB;stroke-miterlimit:10;stroke-dasharray:9.7536,4.867,9.753594e-03,0,0,0;}
	.st9{fill:none;}
</style>
<g>
	<path class="st0" d="M190.41,218l2,15l-3.94-1.2c-34.44-10.51-63.96-33.06-83.15-63.53l-1.66-2.64c-1.31-2.07,0.1-4.79,2.55-4.92
		l4.13,6.79l0.46,0.66C129.42,194.98,159.37,207.83,190.41,218L190.41,218z"/>
	<path class="st0" d="M329.66,218l-2,15l3.94-1.2c34.44-10.51,63.96-33.06,83.15-63.53l1.66-2.64c1.31-2.07-0.1-4.79-2.55-4.92
		l-4.13,6.79l-0.46,0.66C390.65,194.98,360.7,207.83,329.66,218L329.66,218z"/>
	<rect x="214.75" y="197.25" class="st0" width="91" height="11.13"/>
	<path class="st0" d="M260.5,348.5L260.5,348.5c-26.3,0-48.61-19.33-52.35-45.37l-12.8-89.14c-0.37-2.55,1.61-4.82,4.18-4.82h121.92
		c2.57,0,4.55,2.28,4.18,4.82l-12.8,89.14C309.11,329.17,286.8,348.5,260.5,348.5z"/>
	<path class="st0" d="M310.58,197.5H210.42c-2.99,0-5.42-2.43-5.42-5.42V163c0-30.65,24.85-55.5,55.5-55.5h0
		c30.65,0,55.5,24.85,55.5,55.5v29.08C316,195.07,313.57,197.5,310.58,197.5z"/>
	<path class="st1" d="M310.58,197.5H210.42c-2.99,0-5.42-2.43-5.42-5.42V163c0-30.65,24.85-55.5,55.5-55.5h0
		c30.65,0,55.5,24.85,55.5,55.5v29.08C316,195.07,313.57,197.5,310.58,197.5z"/>
	<path class="st1" d="M260.5,348.5L260.5,348.5c-26.3,0-48.61-19.33-52.35-45.37l-12.8-89.14c-0.37-2.55,1.61-4.82,4.18-4.82h121.92
		c2.57,0,4.55,2.28,4.18,4.82l-12.8,89.14C309.11,329.17,286.8,348.5,260.5,348.5z"/>
	<line class="st1" x1="214.67" y1="197" x2="214.67" y2="209"/>
	<line class="st1" x1="306" y1="197" x2="306" y2="209"/>
	<path class="st1" d="M247.75,346.94v-79.19c0-7.18,5.82-13,13-13l0,0c7.18,0,13,5.82,13,13v79.07"/>
	<path class="st1" d="M273.75,109.1v22.92c0,7.18-5.82,13-13,13c-3.59,0-6.84-1.46-9.19-3.81c-2.36-2.35-3.81-5.6-3.81-9.19v-23.05"
		/>
	<path class="st1" d="M190.41,218l2,15l-3.94-1.2c-34.44-10.51-63.96-33.06-83.15-63.53l-1.66-2.64c-1.31-2.07,0.1-4.79,2.55-4.92
		l4.13,6.79l0.46,0.66C129.42,194.98,159.37,207.83,190.41,218L190.41,218z"/>
	<path class="st1" d="M329.66,218l-2,15l3.94-1.2c34.44-10.51,63.96-33.06,83.15-63.53l1.66-2.64c1.31-2.07-0.1-4.79-2.55-4.92
		l-4.13,6.79l-0.46,0.66C390.65,194.98,360.7,207.83,329.66,218L329.66,218z"/>
	<path class="st2" d="M254.13,177.5l1.66-0.45c3.71-1.01,7.63-0.97,11.31,0.13l0.53,0.16"/>
	<g>
		<path class="st2" d="M294.88,149.07l-1.66,0.45c-3.71,1.01-7.63,0.97-11.31-0.13l-0.53-0.16"/>
		<path class="st2" d="M240.63,149.07l-1.66,0.45c-3.71,1.01-7.63,0.97-11.31-0.13l-0.53-0.16"/>
	</g>
	<g>
		<g>
			<g>
				<path class="st3" d="M201.81,296.69c-9.6,4.58-20.14,12.77-19.1,24.7c0.87,9.95,10.11,15.68,18.63,18.78
					c5.45,1.99,11.19,3.27,16.88,4.37c6.19,1.2,12.46,2.05,18.75,2.52c12.65,0.96,25.4,0.43,37.94-1.55
					c6.98-1.1,13.88-2.66,20.66-4.68c6.34-1.89,12.71-4.12,17.82-8.48c0.98-0.84-0.44-2.25-1.41-1.41
					c-4.35,3.72-9.78,5.75-15.17,7.43c-5.72,1.78-11.54,3.23-17.43,4.35c-11.83,2.25-23.92,3.15-35.96,2.71
					c-12.04-0.44-24.02-2.22-35.65-5.36c-8.19-2.21-18.26-5.9-21.92-14.31c-2.38-5.47-0.89-11.63,2.42-16.36
					c3.55-5.07,9.07-8.37,14.56-10.99C203.98,297.86,202.97,296.14,201.81,296.69L201.81,296.69z"/>
			</g>
		</g>
		<g>
			<g>
				<path class="st3" d="M218.54,326.85c18.32,1.69,36.73,3.32,55.14,2.47c8.94-0.41,17.87-1.42,26.63-3.31
					c4.44-0.96,8.84-2.15,13.14-3.59c3.49-1.17,7.03-2.44,9.98-4.7c2.93-2.24,5.01-5.53,4.45-9.34c-0.62-4.23-4.05-7.38-7.33-9.77
					c-1.04-0.76-2.04,0.97-1.01,1.73c2.83,2.07,6.07,4.95,6.42,8.67c0.32,3.43-2.07,6.11-4.77,7.85c-3.11,2.01-6.71,3.15-10.21,4.26
					c-4.04,1.28-8.15,2.33-12.3,3.19c-16.81,3.48-34.11,3.68-51.18,2.79c-9.66-0.5-19.31-1.37-28.94-2.26
					C217.26,324.73,217.27,326.73,218.54,326.85L218.54,326.85z"/>
			</g>
		</g>
		<g>
			<g>
				<path class="st3" d="M219.26,357.33c19.89,3.86,40.44,3.89,60.35,0.07c5.65-1.08,11.24-2.49,16.74-4.18
					c1.23-0.38,0.7-2.31-0.53-1.93c-19.11,5.89-39.27,8.09-59.2,6.45c-5.65-0.47-11.26-1.25-16.82-2.33
					C218.54,355.15,218,357.08,219.26,357.33L219.26,357.33z"/>
			</g>
		</g>
	</g>
	<g>
		<g>
			<path class="st4" d="M258.67,369.66c-1.65-0.13-3.32-0.22-4.99-0.23"/>
			<line class="st5" x1="248.66" y1="369.59" x2="248.65" y2="369.59"/>
			<path class="st6" d="M248.65,369.59c-5.5,0.44-10.87,1.78-15.57,4.61c-7.54,4.54-12.8,13.71-10.63,22.24
				c1.31,5.14,5.07,9.4,9.54,12.24s9.63,4.41,14.79,5.63c4.86,1.14,9.91,2,14.84,1.2c3.26-0.53,6.92-2.44,7.18-5.74
				c0.17-2.06-1.14-4.03-2.87-5.16c-1.72-1.14-3.81-1.58-5.85-1.88c-4.08-0.58-8.4-0.61-12.13,1.12
				c-7.63,3.54-10.38,13.85-7.39,21.71c2.99,7.87,10.34,13.36,18.14,16.51c1.94,0.78,4.24,1.36,6.3,1.23"/>
			<path class="st4" d="M265.01,443.31c1.73-0.11,3.3-0.71,4.37-2.09c-0.96-1.4-2.29-2.43-3.8-3.16"/>
			<line class="st7" x1="260.92" y1="436.71" x2="260.91" y2="436.71"/>
			<path class="st8" d="M260.91,436.71c-0.86-0.12-1.73-0.19-2.59-0.2c-6.96-0.15-13.94,2.11-19.5,6.3
				c-1.92,1.45-3.72,3.18-4.63,5.41c-1.44,3.53-0.33,7.71,1.95,10.77c2.28,3.06,3.95,7.79,7.35,9.52
				c11.15,5.69,17.33,5.58,32.13-0.34"/>
			<path class="st4" d="M275.63,468.16c1.45-0.58,2.99-1.22,4.62-1.91"/>
		</g>
	</g>
</g>
<path id="SVGID_x5F_1_x5F_" class="st9" d="M120.33,158.33L159,137c54.37-63.05,132.61-69.32,186.67-6l24.67,18.67"/>
<text><textPath  xlink:href="#SVGID_x5F_1_x5F_" startOffset="36.3494%">
<tspan  style="fill:#808080; font-family:'Poppins-Bold'; font-size:24px;">NO DATA FOUND</tspan></textPath>
</text>
</svg>
