<?xml version="1.0" encoding="utf-8"?>
<!-- Generator: Adobe Illustrator 23.0.3, SVG Export Plug-In . SVG Version: 6.00 Build 0)  -->
<svg version="1.1" id="Layer_1" xmlns="http://www.w3.org/2000/svg" xmlns:xlink="http://www.w3.org/1999/xlink" x="0px" y="0px"
	 viewBox="0 0 100 100" style="enable-background:new 0 0 100 100;" xml:space="preserve">
<style type="text/css">
	.st0{fill-rule:evenodd;clip-rule:evenodd;fill:#FFFFFF;}
</style>
<path id="P4_completed_mobile" class="st0" d="M67.99,53.7V16.59H17.9L18.02,84l49.97,0.62c0,0-1.54-0.47,0-2.89
	c1.86-2.44,3.92-4.71,6.16-6.8v12.78c-0.6,1.51-2.07,2.5-3.7,2.47H14.32c-1.49-0.27-2.54-1.59-2.47-3.1V14.12
	c0,0,0.12-2.97,2.47-3.71H71.7c0,0,2.47,1.11,2.47,3.09v34.63L67.99,53.7z M26.14,32.21c-0.03-1.72,1.34-3.15,3.06-3.19h27.55
	c1.76,0.05,3.15,1.53,3.09,3.29c-0.05,1.69-1.41,3.04-3.09,3.09H29.2C27.48,35.36,26.11,33.94,26.14,32.21z M26.14,49.23
	c-0.03-1.72,1.34-3.15,3.06-3.19h27.55c1.76,0.05,3.15,1.53,3.09,3.29c-0.05,1.69-1.41,3.04-3.09,3.09H29.2
	C27.48,52.38,26.11,50.96,26.14,49.23z M50.43,67.32c0.03,1.72-1.34,3.15-3.06,3.19H29.2c-1.76-0.05-3.15-1.53-3.09-3.29
	c0.05-1.69,1.41-3.04,3.09-3.09h18.17C49.09,64.16,50.46,65.59,50.43,67.32 M54.07,62.96c-0.5-0.49-0.51-1.29-0.03-1.8
	c0.01-0.01,0.02-0.02,0.03-0.03l1.79-1.82c0.46-0.5,1.24-0.52,1.73-0.06c0.02,0.02,0.04,0.04,0.06,0.06l0.13,0.13l7.04,7.67
	c0.23,0.25,0.62,0.26,0.87,0.03c0.01-0.01,0.02-0.02,0.03-0.03L82.9,49.04h0.13c0.46-0.5,1.24-0.52,1.73-0.06
	c0.02,0.02,0.04,0.04,0.06,0.06l1.79,1.82c0.5,0.49,0.51,1.29,0.03,1.8c-0.01,0.01-0.02,0.02-0.03,0.03l0,0l-20.48,21.6
	c-0.46,0.5-1.24,0.52-1.73,0.06c-0.02-0.02-0.04-0.04-0.06-0.06l-10-10.93L54.07,62.96z"/>
</svg>
