<?xml version="1.0" encoding="utf-8"?>
<!-- Generator: Adobe Illustrator 23.1.0, SVG Export Plug-In . SVG Version: 6.00 Build 0)  -->
<svg version="1.1" id="Layer_1" xmlns="http://www.w3.org/2000/svg" xmlns:xlink="http://www.w3.org/1999/xlink" x="0px" y="0px"
	 viewBox="0 0 38.48 40.36" style="enable-background:new 0 0 38.48 40.36;" xml:space="preserve">
<style type="text/css">
	.st0{fill-rule:evenodd;clip-rule:evenodd;fill:#FFFFFF;}
</style>
<g id="Tasks" transform="translate(-45.142 -1273.46)">
	<path id="P4_completed_mobile" class="st0" d="M72.54,1295.19v-15.57H51.52l0.05,28.29l20.97,0.26c0,0-0.65-0.2,0-1.21
		c0.78-1.02,1.65-1.98,2.59-2.85v5.36c-0.25,0.64-0.87,1.05-1.55,1.04H50.02c-0.62-0.11-1.07-0.67-1.04-1.3v-30.62
		c0,0,0.05-1.25,1.04-1.56H74.1c0,0,1.04,0.47,1.04,1.3v14.53L72.54,1295.19z M54.98,1286.17c-0.01-0.72,0.56-1.32,1.28-1.34h11.56
		c0.74,0.02,1.32,0.64,1.3,1.38c-0.02,0.71-0.59,1.28-1.3,1.3H56.27C55.54,1287.5,54.97,1286.9,54.98,1286.17z M54.98,1293.32
		c-0.01-0.72,0.56-1.32,1.28-1.34h11.56c0.74,0.02,1.32,0.64,1.3,1.38c-0.02,0.71-0.59,1.28-1.3,1.3H56.27
		C55.54,1294.64,54.97,1294.04,54.98,1293.32z M65.17,1300.9c0.01,0.72-0.56,1.32-1.28,1.34h-7.62c-0.74-0.02-1.32-0.64-1.3-1.38
		c0.02-0.71,0.59-1.28,1.3-1.3h7.62C64.61,1299.58,65.19,1300.18,65.17,1300.9 M66.7,1299.07c-0.21-0.21-0.22-0.54-0.01-0.75
		c0,0,0.01-0.01,0.01-0.01l0.75-0.76c0.19-0.21,0.52-0.22,0.73-0.02c0.01,0.01,0.02,0.02,0.02,0.02l0.05,0.06l2.96,3.22
		c0.1,0.1,0.26,0.11,0.36,0.01c0,0,0.01-0.01,0.01-0.01l7.2-7.59h0.05c0.19-0.21,0.52-0.22,0.73-0.02c0.01,0.01,0.02,0.02,0.02,0.02
		l0.75,0.76c0.21,0.21,0.22,0.54,0.01,0.75c0,0-0.01,0.01-0.01,0.01l0,0l-8.59,9.06c-0.19,0.21-0.52,0.22-0.73,0.02
		c-0.01-0.01-0.02-0.02-0.02-0.02l-4.2-4.59L66.7,1299.07z"/>
</g>
</svg>
