<?xml version="1.0" encoding="utf-8"?>
<!-- Generator: Adobe Illustrator 23.1.0, SVG Export Plug-In . SVG Version: 6.00 Build 0)  -->
<svg version="1.1" id="Layer_1" xmlns="http://www.w3.org/2000/svg" xmlns:xlink="http://www.w3.org/1999/xlink" x="0px" y="0px"
	 viewBox="0 0 69.86 69.86" style="enable-background:new 0 0 69.86 69.86;" xml:space="preserve">
<style type="text/css">
	.st0{fill:url(#Path_749-2_1_);}
	.st1{fill-rule:evenodd;clip-rule:evenodd;fill:#FFFFFF;}
</style>
<g id="Tasks" transform="translate(-45.142 -1273.46)">
	<g id="Tasks_Icon" transform="translate(-9.358 -4.358)">
		<g transform="matrix(1, 0, 0, 1, 54.5, 1277.82)">
			
				<linearGradient id="Path_749-2_1_" gradientUnits="userSpaceOnUse" x1="-209.0985" y1="282.0424" x2="-210.0985" y2="281.0424" gradientTransform="matrix(54.8515 0 0 -54.858 11531.7314 15479.7793)">
				<stop  offset="0" style="stop-color:#4886F1"/>
				<stop  offset="1" style="stop-color:#40C1F6"/>
			</linearGradient>
			<path id="Path_749-2" class="st0" d="M34.93,7.5c15.15,0,27.43,12.29,27.42,27.44c0,15.15-12.29,27.43-27.44,27.42
				c-12.41,0-23.27-8.33-26.48-20.32c-0.63-2.32-0.94-4.71-0.93-7.11C7.5,19.78,19.78,7.5,34.93,7.5z"/>
		</g>
	</g>
	<path id="P4_completed_mobile" class="st1" d="M88.7,1308.55v-12.65H71.63l0.04,22.97l17.03,0.21c0,0-0.53-0.16,0-0.98
		c0.63-0.83,1.34-1.61,2.1-2.32v4.36c-0.2,0.52-0.71,0.85-1.26,0.84H70.41c-0.51-0.09-0.87-0.54-0.84-1.06v-24.87
		c0,0,0.04-1.01,0.84-1.27h19.55c0,0,0.84,0.38,0.84,1.05v11.8L88.7,1308.55z M74.44,1301.22c-0.01-0.59,0.46-1.07,1.04-1.09h9.39
		c0.6,0.02,1.07,0.52,1.05,1.12c-0.02,0.57-0.48,1.04-1.05,1.05h-9.39C74.9,1302.3,74.43,1301.81,74.44,1301.22z M74.44,1307.02
		c-0.01-0.59,0.46-1.07,1.04-1.09h9.39c0.6,0.02,1.07,0.52,1.05,1.12c-0.02,0.57-0.48,1.04-1.05,1.05h-9.39
		C74.9,1308.1,74.43,1307.61,74.44,1307.02z M82.72,1313.19c0.01,0.59-0.46,1.07-1.04,1.09h-6.19c-0.6-0.02-1.07-0.52-1.05-1.12
		c0.02-0.57,0.48-1.04,1.05-1.05h6.19C82.26,1312.11,82.73,1312.6,82.72,1313.19 M83.96,1311.7c-0.17-0.17-0.18-0.44-0.01-0.61
		c0,0,0.01-0.01,0.01-0.01l0.61-0.62c0.16-0.17,0.42-0.18,0.59-0.02c0.01,0.01,0.01,0.01,0.02,0.02l0.04,0.04l2.4,2.61
		c0.08,0.08,0.21,0.09,0.3,0.01c0,0,0.01-0.01,0.01-0.01l5.85-6.16h0.04c0.16-0.17,0.42-0.18,0.59-0.02
		c0.01,0.01,0.01,0.01,0.02,0.02l0.61,0.62c0.17,0.17,0.18,0.44,0.01,0.61c0,0-0.01,0.01-0.01,0.01l0,0l-6.98,7.36
		c-0.16,0.17-0.42,0.18-0.59,0.02c-0.01-0.01-0.01-0.01-0.02-0.02l-3.41-3.72L83.96,1311.7z"/>
</g>
</svg>
