<svg xmlns="http://www.w3.org/2000/svg" xmlns:xlink="http://www.w3.org/1999/xlink" width="69.858" height="69.857" viewBox="0 0 69.858 69.857">
  <defs>
    <linearGradient id="linear-gradient" x1="1" x2="0" y2="1" gradientUnits="objectBoundingBox">
      <stop offset="0" stop-color="#4886f1"/>
      <stop offset="1" stop-color="#40c1f6"/>
    </linearGradient>
    <filter id="Path_749" x="0" y="0" width="69.858" height="69.857" filterUnits="userSpaceOnUse">
      <feOffset dy="3" input="SourceAlpha"/>
      <feGaussianBlur stdDeviation="2.5" result="blur"/>
      <feFlood flood-opacity="0.149"/>
      <feComposite operator="in" in2="blur"/>
      <feComposite in="SourceGraphic"/>
    </filter>
  </defs>
  <g id="Tasks" transform="translate(-45.142 -1273.46)">
    <g id="Tasks_Icon" transform="translate(-9.358 -4.358)">
      <g transform="matrix(1, 0, 0, 1, 54.5, 1277.82)" filter="url(#Path_749)">
        <path id="Path_749-2" data-name="Path 749" d="M27.429,0A27.429,27.429,0,1,1,.932,34.543,26.934,26.934,0,0,1,0,27.429,27.429,27.429,0,0,1,27.429,0Z" transform="translate(7.5 4.5)" fill="url(#linear-gradient)"/>
      </g>
    </g>
    <path id="P4_completed_mobile" d="M28.544,19.823V7.177H11.473l.042,22.972,17.029.211s-.526-.159,0-.984a18.733,18.733,0,0,1,2.1-2.318v4.356a1.333,1.333,0,0,1-1.261.843H10.254A1.023,1.023,0,0,1,9.413,31.2V6.334s.042-1.012.841-1.265H29.806s.841.379.841,1.054v11.8ZM14.282,12.5a1.069,1.069,0,0,1,1.043-1.087h9.389a1.088,1.088,0,0,1,0,2.175H15.325A1.069,1.069,0,0,1,14.282,12.5Zm0,5.8a1.069,1.069,0,0,1,1.043-1.087h9.389a1.088,1.088,0,0,1,0,2.175H15.325A1.069,1.069,0,0,1,14.282,18.3Zm8.277,6.162a1.069,1.069,0,0,1-1.043,1.087H15.325a1.088,1.088,0,0,1,0-2.175h6.191a1.069,1.069,0,0,1,1.043,1.087M23.8,22.977a.433.433,0,0,1,0-.621l.611-.621a.418.418,0,0,1,.611,0l.044.045,2.4,2.615a.209.209,0,0,0,.306,0l5.851-6.162h.044a.418.418,0,0,1,.611,0l.611.621a.433.433,0,0,1,0,.621h0L27.91,26.834a.418.418,0,0,1-.611,0L23.892,23.11Z" transform="translate(60.156 1285.727)" fill="#fff" fill-rule="evenodd"/>
  </g>
</svg>
