<?xml version="1.0" encoding="UTF-8" standalone="no"?>
<!DOCTYPE svg PUBLIC "-//W3C//DTD SVG 1.1//EN"
 "http://www.w3.org/Graphics/SVG/1.1/DTD/svg11.dtd">
<!-- Generated by graphviz version 2.40.1 (20161225.0304)
 -->
<!-- Title: dependencies Pages: 1 -->
<svg width="670pt" height="349pt"
 viewBox="0.00 0.00 670.00 349.00" xmlns="http://www.w3.org/2000/svg" xmlns:xlink="http://www.w3.org/1999/xlink">
<g id="graph0" class="graph" transform="scale(1 1) rotate(0) translate(4 345)">
<title>dependencies</title>
<polygon fill="#ffffff" stroke="transparent" points="-4,4 -4,-345 666,-345 666,4 -4,4"/>
<text text-anchor="start" x="310.0091" y="-42.4" font-family="sans-serif" font-weight="bold" font-size="14.00" fill="#000000">Legend</text>
<polygon fill="#ffffb3" stroke="transparent" points="97,-10 97,-30 117,-30 117,-10 97,-10"/>
<text text-anchor="start" x="120.629" y="-15.4" font-family="sans-serif" font-size="14.00" fill="#000000"> &#160;Declarations</text>
<polygon fill="#8dd3c7" stroke="transparent" points="210,-10 210,-30 230,-30 230,-10 210,-10"/>
<text text-anchor="start" x="233.7251" y="-15.4" font-family="sans-serif" font-size="14.00" fill="#000000"> &#160;Module</text>
<polygon fill="#80b1d3" stroke="transparent" points="296,-10 296,-30 316,-30 316,-10 296,-10"/>
<text text-anchor="start" x="319.7812" y="-15.4" font-family="sans-serif" font-size="14.00" fill="#000000"> &#160;Bootstrap</text>
<polygon fill="#fdb462" stroke="transparent" points="393,-10 393,-30 413,-30 413,-10 393,-10"/>
<text text-anchor="start" x="416.6732" y="-15.4" font-family="sans-serif" font-size="14.00" fill="#000000"> &#160;Providers</text>
<polygon fill="#fb8072" stroke="transparent" points="489,-10 489,-30 509,-30 509,-10 489,-10"/>
<text text-anchor="start" x="512.7258" y="-15.4" font-family="sans-serif" font-size="14.00" fill="#000000"> &#160;Exports</text>
<g id="clust1" class="cluster">
<title>cluster_LoginModule</title>
<polygon fill="none" stroke="#000000" stroke-dasharray="1,5" points="8,-70 8,-333 654,-333 654,-70 8,-70"/>
</g>
<g id="clust2" class="cluster">
<title>cluster_LoginModule_declarations</title>
<polygon fill="none" stroke="#000000" points="516,-143 516,-195 646,-195 646,-143 516,-143"/>
</g>
<g id="clust3" class="cluster">
<title>cluster_LoginModule_LoginComponent_providers</title>
<polygon fill="none" stroke="#000000" points="502,-78 502,-130 646,-130 646,-78 502,-78"/>
</g>
<g id="clust4" class="cluster">
<title>cluster_LoginModule_imports</title>
<polygon fill="none" stroke="#000000" points="16,-143 16,-195 508,-195 508,-143 16,-143"/>
</g>
<g id="clust5" class="cluster">
<title>cluster_LoginModule_exports</title>
<polygon fill="none" stroke="#000000" points="272,-273 272,-325 406,-325 406,-273 272,-273"/>
</g>
<!-- LoginComponent -->
<g id="node1" class="node">
<title>LoginComponent</title>
<polygon fill="#ffffb3" stroke="#000000" points="638.2758,-187 523.7242,-187 523.7242,-151 638.2758,-151 638.2758,-187"/>
<text text-anchor="middle" x="581" y="-164.8" font-family="Times,serif" font-size="14.00" fill="#000000">LoginComponent</text>
</g>
<!-- LoginModule -->
<g id="node2" class="node">
<title>LoginModule</title>
<polygon fill="#8dd3c7" stroke="#000000" points="385.493,-252 382.493,-256 361.493,-256 358.493,-252 292.507,-252 292.507,-216 385.493,-216 385.493,-252"/>
<text text-anchor="middle" x="339" y="-229.8" font-family="Times,serif" font-size="14.00" fill="#000000">LoginModule</text>
</g>
<!-- LoginComponent&#45;&gt;LoginModule -->
<g id="edge1" class="edge">
<title>LoginComponent&#45;&gt;LoginModule</title>
<path fill="none" stroke="#000000" d="M581,-187.1061C581,-206.3391 581,-234 581,-234 581,-234 395.66,-234 395.66,-234"/>
<polygon fill="#000000" stroke="#000000" points="395.6601,-230.5001 385.66,-234 395.66,-237.5001 395.6601,-230.5001"/>
</g>
<!-- LoginComponent  -->
<g id="node7" class="node">
<title>LoginComponent </title>
<polygon fill="#fb8072" stroke="#000000" points="398.2759,-317 279.7241,-317 279.7241,-281 398.2759,-281 398.2759,-317"/>
<text text-anchor="middle" x="339" y="-294.8" font-family="Times,serif" font-size="14.00" fill="#000000">LoginComponent </text>
</g>
<!-- LoginModule&#45;&gt;LoginComponent  -->
<g id="edge6" class="edge">
<title>LoginModule&#45;&gt;LoginComponent </title>
<path fill="none" stroke="#000000" stroke-dasharray="5,2" d="M339,-252.1061C339,-252.1061 339,-270.991 339,-270.991"/>
<polygon fill="#000000" stroke="#000000" points="335.5001,-270.9909 339,-280.991 342.5001,-270.991 335.5001,-270.9909"/>
</g>
<!-- loginServices -->
<g id="node3" class="node">
<title>loginServices</title>
<ellipse fill="#fdb462" stroke="#000000" cx="574" cy="-104" rx="63.7006" ry="18"/>
<text text-anchor="middle" x="574" y="-99.8" font-family="Times,serif" font-size="14.00" fill="#000000">loginServices</text>
</g>
<!-- loginServices&#45;&gt;LoginComponent -->
<g id="edge2" class="edge">
<title>loginServices&#45;&gt;LoginComponent</title>
<path fill="none" stroke="#000000" d="M580.6062,-122.1061C580.6062,-122.1061 580.6062,-140.991 580.6062,-140.991"/>
<polygon fill="#000000" stroke="#000000" points="577.1063,-140.9909 580.6062,-150.991 584.1063,-140.991 577.1063,-140.9909"/>
</g>
<!-- ChangepasswordModule -->
<g id="node4" class="node">
<title>ChangepasswordModule</title>
<polygon fill="#8dd3c7" stroke="#000000" points="499.6867,-187 496.6867,-191 475.6867,-191 472.6867,-187 344.3133,-187 344.3133,-151 499.6867,-151 499.6867,-187"/>
<text text-anchor="middle" x="422" y="-164.8" font-family="Times,serif" font-size="14.00" fill="#000000">ChangepasswordModule</text>
</g>
<!-- ChangepasswordModule&#45;&gt;LoginModule -->
<g id="edge3" class="edge">
<title>ChangepasswordModule&#45;&gt;LoginModule</title>
<path fill="none" stroke="#000000" d="M364.9516,-187.1061C364.9516,-187.1061 364.9516,-205.991 364.9516,-205.991"/>
<polygon fill="#000000" stroke="#000000" points="361.4517,-205.9909 364.9516,-215.991 368.4517,-205.991 361.4517,-205.9909"/>
</g>
<!-- LoginRoutingModule -->
<g id="node5" class="node">
<title>LoginRoutingModule</title>
<polygon fill="#8dd3c7" stroke="#000000" points="326.1108,-187 323.1108,-191 302.1108,-191 299.1108,-187 187.8892,-187 187.8892,-151 326.1108,-151 326.1108,-187"/>
<text text-anchor="middle" x="257" y="-164.8" font-family="Times,serif" font-size="14.00" fill="#000000">LoginRoutingModule</text>
</g>
<!-- LoginRoutingModule&#45;&gt;LoginModule -->
<g id="edge4" class="edge">
<title>LoginRoutingModule&#45;&gt;LoginModule</title>
<path fill="none" stroke="#000000" d="M309.2795,-187.1061C309.2795,-187.1061 309.2795,-205.991 309.2795,-205.991"/>
<polygon fill="#000000" stroke="#000000" points="305.7795,-205.9909 309.2795,-215.991 312.7795,-205.991 305.7795,-205.9909"/>
</g>
<!-- SharingModuleModule -->
<g id="node6" class="node">
<title>SharingModuleModule</title>
<polygon fill="#8dd3c7" stroke="#000000" points="170.1484,-187 167.1484,-191 146.1484,-191 143.1484,-187 23.8516,-187 23.8516,-151 170.1484,-151 170.1484,-187"/>
<text text-anchor="middle" x="97" y="-164.8" font-family="Times,serif" font-size="14.00" fill="#000000">SharingModuleModule</text>
</g>
<!-- SharingModuleModule&#45;&gt;LoginModule -->
<g id="edge5" class="edge">
<title>SharingModuleModule&#45;&gt;LoginModule</title>
<path fill="none" stroke="#000000" d="M97,-187.1061C97,-206.3391 97,-234 97,-234 97,-234 282.34,-234 282.34,-234"/>
<polygon fill="#000000" stroke="#000000" points="282.34,-237.5001 292.34,-234 282.3399,-230.5001 282.34,-237.5001"/>
</g>
</g>
</svg>
