<?xml version="1.0" encoding="UTF-8" standalone="no"?>
<!DOCTYPE svg PUBLIC "-//W3C//DTD SVG 1.1//EN"
 "http://www.w3.org/Graphics/SVG/1.1/DTD/svg11.dtd">
<!-- Generated by graphviz version 2.40.1 (20161225.0304)
 -->
<!-- Title: dependencies Pages: 1 -->
<svg width="2006pt" height="349pt"
 viewBox="0.00 0.00 2006.00 349.00" xmlns="http://www.w3.org/2000/svg" xmlns:xlink="http://www.w3.org/1999/xlink">
<g id="graph0" class="graph" transform="scale(1 1) rotate(0) translate(4 345)">
<title>dependencies</title>
<polygon fill="#ffffff" stroke="transparent" points="-4,4 -4,-345 2002,-345 2002,4 -4,4"/>
<text text-anchor="start" x="978.0091" y="-42.4" font-family="sans-serif" font-weight="bold" font-size="14.00" fill="#000000">Legend</text>
<polygon fill="#ffffb3" stroke="transparent" points="765,-10 765,-30 785,-30 785,-10 765,-10"/>
<text text-anchor="start" x="788.629" y="-15.4" font-family="sans-serif" font-size="14.00" fill="#000000"> &#160;Declarations</text>
<polygon fill="#8dd3c7" stroke="transparent" points="878,-10 878,-30 898,-30 898,-10 878,-10"/>
<text text-anchor="start" x="901.7251" y="-15.4" font-family="sans-serif" font-size="14.00" fill="#000000"> &#160;Module</text>
<polygon fill="#80b1d3" stroke="transparent" points="964,-10 964,-30 984,-30 984,-10 964,-10"/>
<text text-anchor="start" x="987.7812" y="-15.4" font-family="sans-serif" font-size="14.00" fill="#000000"> &#160;Bootstrap</text>
<polygon fill="#fdb462" stroke="transparent" points="1061,-10 1061,-30 1081,-30 1081,-10 1061,-10"/>
<text text-anchor="start" x="1084.6732" y="-15.4" font-family="sans-serif" font-size="14.00" fill="#000000"> &#160;Providers</text>
<polygon fill="#fb8072" stroke="transparent" points="1157,-10 1157,-30 1177,-30 1177,-10 1157,-10"/>
<text text-anchor="start" x="1180.7258" y="-15.4" font-family="sans-serif" font-size="14.00" fill="#000000"> &#160;Exports</text>
<g id="clust1" class="cluster">
<title>cluster_SharingModuleModule</title>
<polygon fill="none" stroke="#000000" stroke-dasharray="1,5" points="8,-70 8,-333 1990,-333 1990,-70 8,-70"/>
</g>
<g id="clust2" class="cluster">
<title>cluster_SharingModuleModule_declarations</title>
<polygon fill="none" stroke="#000000" points="16,-143 16,-195 1982,-195 1982,-143 16,-143"/>
</g>
<g id="clust7" class="cluster">
<title>cluster_SharingModuleModule_NoWhitespaceDirective_providers</title>
<polygon fill="none" stroke="#000000" points="1042,-78 1042,-130 1724,-130 1724,-78 1042,-78"/>
</g>
<g id="clust19" class="cluster">
<title>cluster_SharingModuleModule_exports</title>
<polygon fill="none" stroke="#000000" points="101,-273 101,-325 1941,-325 1941,-273 101,-273"/>
</g>
<!-- AppPasswordDirective -->
<g id="node1" class="node">
<title>AppPasswordDirective</title>
<polygon fill="#ffffb3" stroke="#000000" points="1973.8431,-187 1828.1569,-187 1828.1569,-151 1973.8431,-151 1973.8431,-187"/>
<text text-anchor="middle" x="1901" y="-164.8" font-family="Times,serif" font-size="14.00" fill="#000000">AppPasswordDirective</text>
</g>
<!-- SharingModuleModule -->
<g id="node16" class="node">
<title>SharingModuleModule</title>
<polygon fill="#8dd3c7" stroke="#000000" points="1093.1484,-252 1090.1484,-256 1069.1484,-256 1066.1484,-252 946.8516,-252 946.8516,-216 1093.1484,-216 1093.1484,-252"/>
<text text-anchor="middle" x="1020" y="-229.8" font-family="Times,serif" font-size="14.00" fill="#000000">SharingModuleModule</text>
</g>
<!-- AppPasswordDirective&#45;&gt;SharingModuleModule -->
<g id="edge1" class="edge">
<title>AppPasswordDirective&#45;&gt;SharingModuleModule</title>
<path fill="none" stroke="#000000" d="M1880.375,-187.1686C1880.375,-206.0898 1880.375,-233 1880.375,-233 1880.375,-233 1103.3551,-233 1103.3551,-233"/>
<polygon fill="#000000" stroke="#000000" points="1103.3551,-229.5001 1093.3551,-233 1103.3551,-236.5001 1103.3551,-229.5001"/>
</g>
<!-- DeleteTemplateComponent -->
<g id="node2" class="node">
<title>DeleteTemplateComponent</title>
<polygon fill="#ffffb3" stroke="#000000" points="1810.2324,-187 1639.7676,-187 1639.7676,-151 1810.2324,-151 1810.2324,-187"/>
<text text-anchor="middle" x="1725" y="-164.8" font-family="Times,serif" font-size="14.00" fill="#000000">DeleteTemplateComponent</text>
</g>
<!-- DeleteTemplateComponent&#45;&gt;SharingModuleModule -->
<g id="edge2" class="edge">
<title>DeleteTemplateComponent&#45;&gt;SharingModuleModule</title>
<path fill="none" stroke="#000000" d="M1702.375,-187.302C1702.375,-205.2699 1702.375,-230 1702.375,-230 1702.375,-230 1103.35,-230 1103.35,-230"/>
<polygon fill="#000000" stroke="#000000" points="1103.35,-226.5001 1093.35,-230 1103.3499,-233.5001 1103.35,-226.5001"/>
</g>
<!-- FilterPipe -->
<g id="node3" class="node">
<title>FilterPipe</title>
<polygon fill="#ffffb3" stroke="#000000" points="1621.7177,-187 1550.2823,-187 1550.2823,-151 1621.7177,-151 1621.7177,-187"/>
<text text-anchor="middle" x="1586" y="-164.8" font-family="Times,serif" font-size="14.00" fill="#000000">FilterPipe</text>
</g>
<!-- FilterPipe&#45;&gt;SharingModuleModule -->
<g id="edge3" class="edge">
<title>FilterPipe&#45;&gt;SharingModuleModule</title>
<path fill="none" stroke="#000000" d="M1561.875,-187.0225C1561.875,-204.3734 1561.875,-228 1561.875,-228 1561.875,-228 1103.3614,-228 1103.3614,-228"/>
<polygon fill="#000000" stroke="#000000" points="1103.3615,-224.5001 1093.3614,-228 1103.3614,-231.5001 1103.3615,-224.5001"/>
</g>
<!-- Format -->
<g id="node4" class="node">
<title>Format</title>
<polygon fill="#ffffb3" stroke="#000000" points="1532.4407,-187 1475.5593,-187 1475.5593,-151 1532.4407,-151 1532.4407,-187"/>
<text text-anchor="middle" x="1504" y="-164.8" font-family="Times,serif" font-size="14.00" fill="#000000">Format</text>
</g>
<!-- Format&#45;&gt;SharingModuleModule -->
<g id="edge4" class="edge">
<title>Format&#45;&gt;SharingModuleModule</title>
<path fill="none" stroke="#000000" d="M1489.8054,-187.027C1489.8054,-203.3976 1489.8054,-225 1489.8054,-225 1489.8054,-225 1103.1492,-225 1103.1492,-225"/>
<polygon fill="#000000" stroke="#000000" points="1103.1492,-221.5001 1093.1492,-225 1103.1492,-228.5001 1103.1492,-221.5001"/>
</g>
<!-- NoWhitespaceDirective -->
<g id="node5" class="node">
<title>NoWhitespaceDirective</title>
<polygon fill="#ffffb3" stroke="#000000" points="1458.489,-187 1307.511,-187 1307.511,-151 1458.489,-151 1458.489,-187"/>
<text text-anchor="middle" x="1383" y="-164.8" font-family="Times,serif" font-size="14.00" fill="#000000">NoWhitespaceDirective</text>
</g>
<!-- NoWhitespaceDirective&#45;&gt;SharingModuleModule -->
<g id="edge5" class="edge">
<title>NoWhitespaceDirective&#45;&gt;SharingModuleModule</title>
<path fill="none" stroke="#000000" d="M1355.375,-187.2396C1355.375,-202.5706 1355.375,-222 1355.375,-222 1355.375,-222 1103.185,-222 1103.185,-222"/>
<polygon fill="#000000" stroke="#000000" points="1103.1851,-218.5001 1093.185,-222 1103.185,-225.5001 1103.1851,-218.5001"/>
</g>
<!-- NofdaysPipe -->
<g id="node6" class="node">
<title>NofdaysPipe</title>
<polygon fill="#ffffb3" stroke="#000000" points="1290.3148,-187 1201.6852,-187 1201.6852,-151 1290.3148,-151 1290.3148,-187"/>
<text text-anchor="middle" x="1246" y="-164.8" font-family="Times,serif" font-size="14.00" fill="#000000">NofdaysPipe</text>
</g>
<!-- NofdaysPipe&#45;&gt;SharingModuleModule -->
<g id="edge7" class="edge">
<title>NofdaysPipe&#45;&gt;SharingModuleModule</title>
<path fill="none" stroke="#000000" d="M1216.375,-187.0511C1216.375,-201.373 1216.375,-219 1216.375,-219 1216.375,-219 1103.4021,-219 1103.4021,-219"/>
<polygon fill="#000000" stroke="#000000" points="1103.4021,-215.5001 1093.4021,-219 1103.402,-222.5001 1103.4021,-215.5001"/>
</g>
<!-- NumberDirective -->
<g id="node7" class="node">
<title>NumberDirective</title>
<polygon fill="#ffffb3" stroke="#000000" points="1183.9552,-187 1070.0448,-187 1070.0448,-151 1183.9552,-151 1183.9552,-187"/>
<text text-anchor="middle" x="1127" y="-164.8" font-family="Times,serif" font-size="14.00" fill="#000000">NumberDirective</text>
</g>
<!-- NumberDirective&#45;&gt;SharingModuleModule -->
<g id="edge8" class="edge">
<title>NumberDirective&#45;&gt;SharingModuleModule</title>
<path fill="none" stroke="#000000" d="M1081.6732,-187.1061C1081.6732,-187.1061 1081.6732,-205.991 1081.6732,-205.991"/>
<polygon fill="#000000" stroke="#000000" points="1078.1733,-205.9909 1081.6732,-215.991 1085.1733,-205.991 1078.1733,-205.9909"/>
</g>
<!-- OrderBy -->
<g id="node8" class="node">
<title>OrderBy</title>
<polygon fill="#ffffb3" stroke="#000000" points="1052.479,-187 987.521,-187 987.521,-151 1052.479,-151 1052.479,-187"/>
<text text-anchor="middle" x="1020" y="-164.8" font-family="Times,serif" font-size="14.00" fill="#000000">OrderBy</text>
</g>
<!-- OrderBy&#45;&gt;SharingModuleModule -->
<g id="edge9" class="edge">
<title>OrderBy&#45;&gt;SharingModuleModule</title>
<path fill="none" stroke="#000000" d="M1020,-187.1061C1020,-187.1061 1020,-205.991 1020,-205.991"/>
<polygon fill="#000000" stroke="#000000" points="1016.5001,-205.9909 1020,-215.991 1023.5001,-205.991 1016.5001,-205.9909"/>
</g>
<!-- RemoveSpacePipe -->
<g id="node9" class="node">
<title>RemoveSpacePipe</title>
<polygon fill="#ffffb3" stroke="#000000" points="969.4706,-187 848.5294,-187 848.5294,-151 969.4706,-151 969.4706,-187"/>
<text text-anchor="middle" x="909" y="-164.8" font-family="Times,serif" font-size="14.00" fill="#000000">RemoveSpacePipe</text>
</g>
<!-- RemoveSpacePipe&#45;&gt;SharingModuleModule -->
<g id="edge10" class="edge">
<title>RemoveSpacePipe&#45;&gt;SharingModuleModule</title>
<path fill="none" stroke="#000000" d="M958.0807,-187.1061C958.0807,-187.1061 958.0807,-205.991 958.0807,-205.991"/>
<polygon fill="#000000" stroke="#000000" points="954.5807,-205.9909 958.0807,-215.991 961.5807,-205.991 954.5807,-205.9909"/>
</g>
<!-- ScrollToBottomDirective -->
<g id="node10" class="node">
<title>ScrollToBottomDirective</title>
<polygon fill="#ffffb3" stroke="#000000" points="830.5828,-187 671.4172,-187 671.4172,-151 830.5828,-151 830.5828,-187"/>
<text text-anchor="middle" x="751" y="-164.8" font-family="Times,serif" font-size="14.00" fill="#000000">ScrollToBottomDirective</text>
</g>
<!-- ScrollToBottomDirective&#45;&gt;SharingModuleModule -->
<g id="edge11" class="edge">
<title>ScrollToBottomDirective&#45;&gt;SharingModuleModule</title>
<path fill="none" stroke="#000000" d="M802.653,-187.0511C802.653,-201.373 802.653,-219 802.653,-219 802.653,-219 936.7192,-219 936.7192,-219"/>
<polygon fill="#000000" stroke="#000000" points="936.7193,-222.5001 946.7192,-219 936.7192,-215.5001 936.7193,-222.5001"/>
</g>
<!-- ShortenPipe -->
<g id="node11" class="node">
<title>ShortenPipe</title>
<polygon fill="#ffffb3" stroke="#000000" points="653.4373,-187 568.5627,-187 568.5627,-151 653.4373,-151 653.4373,-187"/>
<text text-anchor="middle" x="611" y="-164.8" font-family="Times,serif" font-size="14.00" fill="#000000">ShortenPipe</text>
</g>
<!-- ShortenPipe&#45;&gt;SharingModuleModule -->
<g id="edge12" class="edge">
<title>ShortenPipe&#45;&gt;SharingModuleModule</title>
<path fill="none" stroke="#000000" d="M623.3264,-187.2396C623.3264,-202.5706 623.3264,-222 623.3264,-222 623.3264,-222 936.7817,-222 936.7817,-222"/>
<polygon fill="#000000" stroke="#000000" points="936.7817,-225.5001 946.7817,-222 936.7816,-218.5001 936.7817,-225.5001"/>
</g>
<!-- SpecialCharacterDirective -->
<g id="node12" class="node">
<title>SpecialCharacterDirective</title>
<polygon fill="#ffffb3" stroke="#000000" points="550.6975,-187 387.3025,-187 387.3025,-151 550.6975,-151 550.6975,-187"/>
<text text-anchor="middle" x="469" y="-164.8" font-family="Times,serif" font-size="14.00" fill="#000000">SpecialCharacterDirective</text>
</g>
<!-- SpecialCharacterDirective&#45;&gt;SharingModuleModule -->
<g id="edge13" class="edge">
<title>SpecialCharacterDirective&#45;&gt;SharingModuleModule</title>
<path fill="none" stroke="#000000" d="M517.125,-187.027C517.125,-203.3976 517.125,-225 517.125,-225 517.125,-225 936.6086,-225 936.6086,-225"/>
<polygon fill="#000000" stroke="#000000" points="936.6086,-228.5001 946.6086,-225 936.6085,-221.5001 936.6086,-228.5001"/>
</g>
<!-- TimeHrsPipe -->
<g id="node13" class="node">
<title>TimeHrsPipe</title>
<polygon fill="#ffffb3" stroke="#000000" points="369.1487,-187 278.8513,-187 278.8513,-151 369.1487,-151 369.1487,-187"/>
<text text-anchor="middle" x="324" y="-164.8" font-family="Times,serif" font-size="14.00" fill="#000000">TimeHrsPipe</text>
</g>
<!-- TimeHrsPipe&#45;&gt;SharingModuleModule -->
<g id="edge14" class="edge">
<title>TimeHrsPipe&#45;&gt;SharingModuleModule</title>
<path fill="none" stroke="#000000" d="M361.2845,-187.0225C361.2845,-204.3734 361.2845,-228 361.2845,-228 361.2845,-228 936.672,-228 936.672,-228"/>
<polygon fill="#000000" stroke="#000000" points="936.672,-231.5001 946.672,-228 936.672,-224.5001 936.672,-231.5001"/>
</g>
<!-- ToogleComponent -->
<g id="node14" class="node">
<title>ToogleComponent</title>
<polygon fill="#ffffb3" stroke="#000000" points="260.4902,-187 139.5098,-187 139.5098,-151 260.4902,-151 260.4902,-187"/>
<text text-anchor="middle" x="200" y="-164.8" font-family="Times,serif" font-size="14.00" fill="#000000">ToogleComponent</text>
</g>
<!-- ToogleComponent&#45;&gt;SharingModuleModule -->
<g id="edge15" class="edge">
<title>ToogleComponent&#45;&gt;SharingModuleModule</title>
<path fill="none" stroke="#000000" d="M244.625,-187.302C244.625,-205.2699 244.625,-230 244.625,-230 244.625,-230 936.7054,-230 936.7054,-230"/>
<polygon fill="#000000" stroke="#000000" points="936.7055,-233.5001 946.7054,-230 936.7054,-226.5001 936.7055,-233.5001"/>
</g>
<!-- TrimmingPipe -->
<g id="node15" class="node">
<title>TrimmingPipe</title>
<polygon fill="#ffffb3" stroke="#000000" points="121.664,-187 24.336,-187 24.336,-151 121.664,-151 121.664,-187"/>
<text text-anchor="middle" x="73" y="-164.8" font-family="Times,serif" font-size="14.00" fill="#000000">TrimmingPipe</text>
</g>
<!-- TrimmingPipe&#45;&gt;SharingModuleModule -->
<g id="edge16" class="edge">
<title>TrimmingPipe&#45;&gt;SharingModuleModule</title>
<path fill="none" stroke="#000000" d="M115.625,-187.1686C115.625,-206.0898 115.625,-233 115.625,-233 115.625,-233 936.7573,-233 936.7573,-233"/>
<polygon fill="#000000" stroke="#000000" points="936.7573,-236.5001 946.7573,-233 936.7572,-229.5001 936.7573,-236.5001"/>
</g>
<!-- AppPasswordDirective  -->
<g id="node18" class="node">
<title>AppPasswordDirective </title>
<polygon fill="#fb8072" stroke="#000000" points="1932.8434,-317 1783.1566,-317 1783.1566,-281 1932.8434,-281 1932.8434,-317"/>
<text text-anchor="middle" x="1858" y="-294.8" font-family="Times,serif" font-size="14.00" fill="#000000">AppPasswordDirective </text>
</g>
<!-- SharingModuleModule&#45;&gt;AppPasswordDirective  -->
<g id="edge17" class="edge">
<title>SharingModuleModule&#45;&gt;AppPasswordDirective </title>
<path fill="none" stroke="#000000" stroke-dasharray="5,2" d="M1093.4337,-236C1287.084,-236 1796.8473,-236 1796.8473,-236 1796.8473,-236 1796.8473,-270.7778 1796.8473,-270.7778"/>
<polygon fill="#000000" stroke="#000000" points="1793.3474,-270.7778 1796.8473,-280.7778 1800.3474,-270.7778 1793.3474,-270.7778"/>
</g>
<!-- DeleteTemplateComponent  -->
<g id="node19" class="node">
<title>DeleteTemplateComponent </title>
<polygon fill="#fb8072" stroke="#000000" points="1765.2324,-317 1590.7676,-317 1590.7676,-281 1765.2324,-281 1765.2324,-317"/>
<text text-anchor="middle" x="1678" y="-294.8" font-family="Times,serif" font-size="14.00" fill="#000000">DeleteTemplateComponent </text>
</g>
<!-- SharingModuleModule&#45;&gt;DeleteTemplateComponent  -->
<g id="edge18" class="edge">
<title>SharingModuleModule&#45;&gt;DeleteTemplateComponent </title>
<path fill="none" stroke="#000000" stroke-dasharray="5,2" d="M1093.3588,-239C1250.6628,-239 1606.2463,-239 1606.2463,-239 1606.2463,-239 1606.2463,-270.998 1606.2463,-270.998"/>
<polygon fill="#000000" stroke="#000000" points="1602.7464,-270.998 1606.2463,-280.998 1609.7464,-270.9981 1602.7464,-270.998"/>
</g>
<!-- FilterPipe  -->
<g id="node20" class="node">
<title>FilterPipe </title>
<polygon fill="#fb8072" stroke="#000000" points="1573.2179,-317 1498.7821,-317 1498.7821,-281 1573.2179,-281 1573.2179,-317"/>
<text text-anchor="middle" x="1536" y="-294.8" font-family="Times,serif" font-size="14.00" fill="#000000">FilterPipe </text>
</g>
<!-- SharingModuleModule&#45;&gt;FilterPipe  -->
<g id="edge19" class="edge">
<title>SharingModuleModule&#45;&gt;FilterPipe </title>
<path fill="none" stroke="#000000" stroke-dasharray="5,2" d="M1093.369,-241C1231.2813,-241 1515.4304,-241 1515.4304,-241 1515.4304,-241 1515.4304,-270.9664 1515.4304,-270.9664"/>
<polygon fill="#000000" stroke="#000000" points="1511.9305,-270.9663 1515.4304,-280.9664 1518.9305,-270.9664 1511.9305,-270.9663"/>
</g>
<!-- Format  -->
<g id="node21" class="node">
<title>Format </title>
<polygon fill="#fb8072" stroke="#000000" points="1480.939,-317 1421.061,-317 1421.061,-281 1480.939,-281 1480.939,-317"/>
<text text-anchor="middle" x="1451" y="-294.8" font-family="Times,serif" font-size="14.00" fill="#000000">Format </text>
</g>
<!-- SharingModuleModule&#45;&gt;Format  -->
<g id="edge20" class="edge">
<title>SharingModuleModule&#45;&gt;Format </title>
<path fill="none" stroke="#000000" stroke-dasharray="5,2" d="M1093.5754,-244C1213.9256,-244 1439.6373,-244 1439.6373,-244 1439.6373,-244 1439.6373,-270.9909 1439.6373,-270.9909"/>
<polygon fill="#000000" stroke="#000000" points="1436.1374,-270.9909 1439.6373,-280.9909 1443.1374,-270.991 1436.1374,-270.9909"/>
</g>
<!-- NoWhitespaceDirective  -->
<g id="node22" class="node">
<title>NoWhitespaceDirective </title>
<polygon fill="#fb8072" stroke="#000000" points="1402.9882,-317 1249.0118,-317 1249.0118,-281 1402.9882,-281 1402.9882,-317"/>
<text text-anchor="middle" x="1326" y="-294.8" font-family="Times,serif" font-size="14.00" fill="#000000">NoWhitespaceDirective </text>
</g>
<!-- SharingModuleModule&#45;&gt;NoWhitespaceDirective  -->
<g id="edge21" class="edge">
<title>SharingModuleModule&#45;&gt;NoWhitespaceDirective </title>
<path fill="none" stroke="#000000" stroke-dasharray="5,2" d="M1093.1963,-247C1166.8406,-247 1269.5815,-247 1269.5815,-247 1269.5815,-247 1269.5815,-270.8129 1269.5815,-270.8129"/>
<polygon fill="#000000" stroke="#000000" points="1266.0816,-270.8129 1269.5815,-280.8129 1273.0816,-270.813 1266.0816,-270.8129"/>
</g>
<!-- NofdaysPipe  -->
<g id="node23" class="node">
<title>NofdaysPipe </title>
<polygon fill="#fb8072" stroke="#000000" points="1230.8144,-317 1139.1856,-317 1139.1856,-281 1230.8144,-281 1230.8144,-317"/>
<text text-anchor="middle" x="1185" y="-294.8" font-family="Times,serif" font-size="14.00" fill="#000000">NofdaysPipe </text>
</g>
<!-- SharingModuleModule&#45;&gt;NofdaysPipe  -->
<g id="edge22" class="edge">
<title>SharingModuleModule&#45;&gt;NofdaysPipe </title>
<path fill="none" stroke="#000000" stroke-dasharray="5,2" d="M1093.2551,-250C1127.7906,-250 1161.5352,-250 1161.5352,-250 1161.5352,-250 1161.5352,-270.7542 1161.5352,-270.7542"/>
<polygon fill="#000000" stroke="#000000" points="1158.0353,-270.7542 1161.5352,-280.7542 1165.0353,-270.7542 1158.0353,-270.7542"/>
</g>
<!-- NumberDirective  -->
<g id="node24" class="node">
<title>NumberDirective </title>
<polygon fill="#fb8072" stroke="#000000" points="1120.9561,-317 1003.0439,-317 1003.0439,-281 1120.9561,-281 1120.9561,-317"/>
<text text-anchor="middle" x="1062" y="-294.8" font-family="Times,serif" font-size="14.00" fill="#000000">NumberDirective </text>
</g>
<!-- SharingModuleModule&#45;&gt;NumberDirective  -->
<g id="edge23" class="edge">
<title>SharingModuleModule&#45;&gt;NumberDirective </title>
<path fill="none" stroke="#000000" stroke-dasharray="5,2" d="M1048.2982,-252.1061C1048.2982,-252.1061 1048.2982,-270.991 1048.2982,-270.991"/>
<polygon fill="#000000" stroke="#000000" points="1044.7983,-270.9909 1048.2982,-280.991 1051.7983,-270.991 1044.7983,-270.9909"/>
</g>
<!-- OrderBy  -->
<g id="node25" class="node">
<title>OrderBy </title>
<polygon fill="#fb8072" stroke="#000000" points="985.4807,-317 916.5193,-317 916.5193,-281 985.4807,-281 985.4807,-317"/>
<text text-anchor="middle" x="951" y="-294.8" font-family="Times,serif" font-size="14.00" fill="#000000">OrderBy </text>
</g>
<!-- SharingModuleModule&#45;&gt;OrderBy  -->
<g id="edge24" class="edge">
<title>SharingModuleModule&#45;&gt;OrderBy </title>
<path fill="none" stroke="#000000" stroke-dasharray="5,2" d="M965.9578,-252.1061C965.9578,-252.1061 965.9578,-270.991 965.9578,-270.991"/>
<polygon fill="#000000" stroke="#000000" points="962.4578,-270.9909 965.9578,-280.991 969.4578,-270.991 962.4578,-270.9909"/>
</g>
<!-- RemoveSpacePipe  -->
<g id="node26" class="node">
<title>RemoveSpacePipe </title>
<polygon fill="#fb8072" stroke="#000000" points="899.4715,-317 774.5285,-317 774.5285,-281 899.4715,-281 899.4715,-317"/>
<text text-anchor="middle" x="837" y="-294.8" font-family="Times,serif" font-size="14.00" fill="#000000">RemoveSpacePipe </text>
</g>
<!-- SharingModuleModule&#45;&gt;RemoveSpacePipe  -->
<g id="edge25" class="edge">
<title>SharingModuleModule&#45;&gt;RemoveSpacePipe </title>
<path fill="none" stroke="#000000" stroke-dasharray="5,2" d="M946.5094,-250C910.1214,-250 873.875,-250 873.875,-250 873.875,-250 873.875,-270.7542 873.875,-270.7542"/>
<polygon fill="#000000" stroke="#000000" points="870.3751,-270.7542 873.875,-280.7542 877.3751,-270.7542 870.3751,-270.7542"/>
</g>
<!-- ShortenPipe  -->
<g id="node27" class="node">
<title>ShortenPipe </title>
<polygon fill="#fb8072" stroke="#000000" points="756.9362,-317 669.0638,-317 669.0638,-281 756.9362,-281 756.9362,-317"/>
<text text-anchor="middle" x="713" y="-294.8" font-family="Times,serif" font-size="14.00" fill="#000000">ShortenPipe </text>
</g>
<!-- SharingModuleModule&#45;&gt;ShortenPipe  -->
<g id="edge26" class="edge">
<title>SharingModuleModule&#45;&gt;ShortenPipe </title>
<path fill="none" stroke="#000000" stroke-dasharray="5,2" d="M946.7565,-247C856.2922,-247 714.2134,-247 714.2134,-247 714.2134,-247 714.2134,-270.8129 714.2134,-270.8129"/>
<polygon fill="#000000" stroke="#000000" points="710.7134,-270.8129 714.2134,-280.8129 717.7134,-270.813 710.7134,-270.8129"/>
</g>
<!-- SpecialCharacterDirective  -->
<g id="node28" class="node">
<title>SpecialCharacterDirective </title>
<polygon fill="#fb8072" stroke="#000000" points="650.6973,-317 483.3027,-317 483.3027,-281 650.6973,-281 650.6973,-317"/>
<text text-anchor="middle" x="567" y="-294.8" font-family="Times,serif" font-size="14.00" fill="#000000">SpecialCharacterDirective </text>
</g>
<!-- SharingModuleModule&#45;&gt;SpecialCharacterDirective  -->
<g id="edge27" class="edge">
<title>SharingModuleModule&#45;&gt;SpecialCharacterDirective </title>
<path fill="none" stroke="#000000" stroke-dasharray="5,2" d="M946.6383,-244C825.2994,-244 596.0541,-244 596.0541,-244 596.0541,-244 596.0541,-270.9909 596.0541,-270.9909"/>
<polygon fill="#000000" stroke="#000000" points="592.5542,-270.9909 596.0541,-280.9909 599.5542,-270.991 592.5542,-270.9909"/>
</g>
<!-- TimeHrsPipe  -->
<g id="node29" class="node">
<title>TimeHrsPipe </title>
<polygon fill="#fb8072" stroke="#000000" points="465.1481,-317 370.8519,-317 370.8519,-281 465.1481,-281 465.1481,-317"/>
<text text-anchor="middle" x="418" y="-294.8" font-family="Times,serif" font-size="14.00" fill="#000000">TimeHrsPipe </text>
</g>
<!-- SharingModuleModule&#45;&gt;TimeHrsPipe  -->
<g id="edge28" class="edge">
<title>SharingModuleModule&#45;&gt;TimeHrsPipe </title>
<path fill="none" stroke="#000000" stroke-dasharray="5,2" d="M946.5821,-241C787.6871,-241 426.1127,-241 426.1127,-241 426.1127,-241 426.1127,-270.9664 426.1127,-270.9664"/>
<polygon fill="#000000" stroke="#000000" points="422.6128,-270.9663 426.1127,-280.9664 429.6128,-270.9664 422.6128,-270.9663"/>
</g>
<!-- ToogleComponent  -->
<g id="node30" class="node">
<title>ToogleComponent </title>
<polygon fill="#fb8072" stroke="#000000" points="353.4912,-317 228.5088,-317 228.5088,-281 353.4912,-281 353.4912,-317"/>
<text text-anchor="middle" x="291" y="-294.8" font-family="Times,serif" font-size="14.00" fill="#000000">ToogleComponent </text>
</g>
<!-- SharingModuleModule&#45;&gt;ToogleComponent  -->
<g id="edge29" class="edge">
<title>SharingModuleModule&#45;&gt;ToogleComponent </title>
<path fill="none" stroke="#000000" stroke-dasharray="5,2" d="M946.6478,-239C766.3258,-239 315.9606,-239 315.9606,-239 315.9606,-239 315.9606,-270.998 315.9606,-270.998"/>
<polygon fill="#000000" stroke="#000000" points="312.4606,-270.998 315.9606,-280.998 319.4606,-270.9981 312.4606,-270.998"/>
</g>
<!-- TrimmingPipe  -->
<g id="node31" class="node">
<title>TrimmingPipe </title>
<polygon fill="#fb8072" stroke="#000000" points="210.6635,-317 109.3365,-317 109.3365,-281 210.6635,-281 210.6635,-317"/>
<text text-anchor="middle" x="160" y="-294.8" font-family="Times,serif" font-size="14.00" fill="#000000">TrimmingPipe </text>
</g>
<!-- SharingModuleModule&#45;&gt;TrimmingPipe  -->
<g id="edge30" class="edge">
<title>SharingModuleModule&#45;&gt;TrimmingPipe </title>
<path fill="none" stroke="#000000" stroke-dasharray="5,2" d="M946.4938,-236C740.921,-236 175.0433,-236 175.0433,-236 175.0433,-236 175.0433,-270.7778 175.0433,-270.7778"/>
<polygon fill="#000000" stroke="#000000" points="171.5434,-270.7778 175.0433,-280.7778 178.5434,-270.7778 171.5434,-270.7778"/>
</g>
<!-- { provide: NG_VALIDATORS, useExisting: NoWhitespaceDirective, multi: true } -->
<g id="node17" class="node">
<title>{ provide: NG_VALIDATORS, useExisting: NoWhitespaceDirective, multi: true }</title>
<ellipse fill="#fdb462" stroke="#000000" cx="1383" cy="-104" rx="333.0371" ry="18"/>
<text text-anchor="middle" x="1383" y="-99.8" font-family="Times,serif" font-size="14.00" fill="#000000">{ provide: NG_VALIDATORS, useExisting: NoWhitespaceDirective, multi: true }</text>
</g>
<!-- { provide: NG_VALIDATORS, useExisting: NoWhitespaceDirective, multi: true }&#45;&gt;NoWhitespaceDirective -->
<g id="edge6" class="edge">
<title>{ provide: NG_VALIDATORS, useExisting: NoWhitespaceDirective, multi: true }&#45;&gt;NoWhitespaceDirective</title>
<path fill="none" stroke="#000000" d="M1383,-122.1061C1383,-122.1061 1383,-140.991 1383,-140.991"/>
<polygon fill="#000000" stroke="#000000" points="1379.5001,-140.9909 1383,-150.991 1386.5001,-140.991 1379.5001,-140.9909"/>
</g>
</g>
</svg>
