<?xml version="1.0" encoding="UTF-8" standalone="no"?>
<!DOCTYPE svg PUBLIC "-//W3C//DTD SVG 1.1//EN"
 "http://www.w3.org/Graphics/SVG/1.1/DTD/svg11.dtd">
<!-- Generated by graphviz version 2.40.1 (20161225.0304)
 -->
<!-- Title: dependencies Pages: 1 -->
<svg width="572pt" height="211pt"
 viewBox="0.00 0.00 572.00 211.00" xmlns="http://www.w3.org/2000/svg" xmlns:xlink="http://www.w3.org/1999/xlink">
<g id="graph0" class="graph" transform="scale(1 1) rotate(0) translate(4 207)">
<title>dependencies</title>
<polygon fill="#ffffff" stroke="transparent" points="-4,4 -4,-207 568,-207 568,4 -4,4"/>
<text text-anchor="start" x="261.0091" y="-42.4" font-family="sans-serif" font-weight="bold" font-size="14.00" fill="#000000">Legend</text>
<polygon fill="#ffffb3" stroke="transparent" points="48,-10 48,-30 68,-30 68,-10 48,-10"/>
<text text-anchor="start" x="71.629" y="-15.4" font-family="sans-serif" font-size="14.00" fill="#000000"> &#160;Declarations</text>
<polygon fill="#8dd3c7" stroke="transparent" points="161,-10 161,-30 181,-30 181,-10 161,-10"/>
<text text-anchor="start" x="184.7251" y="-15.4" font-family="sans-serif" font-size="14.00" fill="#000000"> &#160;Module</text>
<polygon fill="#80b1d3" stroke="transparent" points="247,-10 247,-30 267,-30 267,-10 247,-10"/>
<text text-anchor="start" x="270.7812" y="-15.4" font-family="sans-serif" font-size="14.00" fill="#000000"> &#160;Bootstrap</text>
<polygon fill="#fdb462" stroke="transparent" points="344,-10 344,-30 364,-30 364,-10 344,-10"/>
<text text-anchor="start" x="367.6732" y="-15.4" font-family="sans-serif" font-size="14.00" fill="#000000"> &#160;Providers</text>
<polygon fill="#fb8072" stroke="transparent" points="440,-10 440,-30 460,-30 460,-10 440,-10"/>
<text text-anchor="start" x="463.7258" y="-15.4" font-family="sans-serif" font-size="14.00" fill="#000000"> &#160;Exports</text>
<g id="clust1" class="cluster">
<title>cluster_FormLinkModule</title>
<polygon fill="none" stroke="#000000" stroke-dasharray="1,5" points="8,-70 8,-195 556,-195 556,-70 8,-70"/>
</g>
<g id="clust2" class="cluster">
<title>cluster_FormLinkModule_declarations</title>
<polygon fill="none" stroke="#000000" points="202,-78 202,-130 548,-130 548,-78 202,-78"/>
</g>
<g id="clust5" class="cluster">
<title>cluster_FormLinkModule_imports</title>
<polygon fill="none" stroke="#000000" points="16,-78 16,-130 194,-130 194,-78 16,-78"/>
</g>
<!-- FormExpiredComponent -->
<g id="node1" class="node">
<title>FormExpiredComponent</title>
<polygon fill="#ffffb3" stroke="#000000" points="539.9846,-122 384.0154,-122 384.0154,-86 539.9846,-86 539.9846,-122"/>
<text text-anchor="middle" x="462" y="-99.8" font-family="Times,serif" font-size="14.00" fill="#000000">FormExpiredComponent</text>
</g>
<!-- FormLinkModule -->
<g id="node3" class="node">
<title>FormLinkModule</title>
<polygon fill="#8dd3c7" stroke="#000000" points="346.3273,-187 343.3273,-191 322.3273,-191 319.3273,-187 229.6727,-187 229.6727,-151 346.3273,-151 346.3273,-187"/>
<text text-anchor="middle" x="288" y="-164.8" font-family="Times,serif" font-size="14.00" fill="#000000">FormLinkModule</text>
</g>
<!-- FormExpiredComponent&#45;&gt;FormLinkModule -->
<g id="edge1" class="edge">
<title>FormExpiredComponent&#45;&gt;FormLinkModule</title>
<path fill="none" stroke="#000000" d="M462,-122.1061C462,-141.3391 462,-169 462,-169 462,-169 356.4235,-169 356.4235,-169"/>
<polygon fill="#000000" stroke="#000000" points="356.4236,-165.5001 346.4235,-169 356.4235,-172.5001 356.4236,-165.5001"/>
</g>
<!-- FormSuccessComponent -->
<g id="node2" class="node">
<title>FormSuccessComponent</title>
<polygon fill="#ffffb3" stroke="#000000" points="365.9818,-122 210.0182,-122 210.0182,-86 365.9818,-86 365.9818,-122"/>
<text text-anchor="middle" x="288" y="-99.8" font-family="Times,serif" font-size="14.00" fill="#000000">FormSuccessComponent</text>
</g>
<!-- FormSuccessComponent&#45;&gt;FormLinkModule -->
<g id="edge2" class="edge">
<title>FormSuccessComponent&#45;&gt;FormLinkModule</title>
<path fill="none" stroke="#000000" d="M288,-122.1061C288,-122.1061 288,-140.991 288,-140.991"/>
<polygon fill="#000000" stroke="#000000" points="284.5001,-140.9909 288,-150.991 291.5001,-140.991 284.5001,-140.9909"/>
</g>
<!-- FormLinkRoutingModule -->
<g id="node4" class="node">
<title>FormLinkRoutingModule</title>
<polygon fill="#8dd3c7" stroke="#000000" points="185.9452,-122 182.9452,-126 161.9452,-126 158.9452,-122 24.0548,-122 24.0548,-86 185.9452,-86 185.9452,-122"/>
<text text-anchor="middle" x="105" y="-99.8" font-family="Times,serif" font-size="14.00" fill="#000000">FormLinkRoutingModule</text>
</g>
<!-- FormLinkRoutingModule&#45;&gt;FormLinkModule -->
<g id="edge3" class="edge">
<title>FormLinkRoutingModule&#45;&gt;FormLinkModule</title>
<path fill="none" stroke="#000000" d="M105,-122.1061C105,-141.3391 105,-169 105,-169 105,-169 219.5945,-169 219.5945,-169"/>
<polygon fill="#000000" stroke="#000000" points="219.5945,-172.5001 229.5945,-169 219.5945,-165.5001 219.5945,-172.5001"/>
</g>
</g>
</svg>
