<?xml version="1.0" encoding="utf-8"?>
<!-- Generator: Adobe Illustrator 24.2.1, SVG Export Plug-In . SVG Version: 6.00 Build 0)  -->
<svg version="1.1" id="Layer_1" xmlns="http://www.w3.org/2000/svg" xmlns:xlink="http://www.w3.org/1999/xlink" x="0px" y="0px"
	 viewBox="0 0 150 150" style="enable-background:new 0 0 150 150;" xml:space="preserve">
<style type="text/css">
	.st0{fill:#444444;}
</style>
<g>
	<path class="st0" d="M127.4,95.6c-1.2-1.2-2.7-1.8-4.4-1.8H95.1c-0.9,2.4-2.4,4.4-4.6,6c-2.2,1.6-4.6,2.3-7.2,2.3H66.7
		c-2.7,0-5.1-0.8-7.2-2.3c-2.2-1.6-3.7-3.6-4.6-6H27c-1.7,0-3.2,0.6-4.4,1.8c-1.2,1.2-1.8,2.7-1.8,4.4v20.9c0,1.7,0.6,3.2,1.8,4.4
		c1.2,1.2,2.7,1.8,4.4,1.8H123c1.7,0,3.2-0.6,4.4-1.8c1.2-1.2,1.8-2.7,1.8-4.4V100C129.2,98.3,128.6,96.8,127.4,95.6L127.4,95.6z
		 M103,117.6c-0.8,0.8-1.8,1.2-2.9,1.2c-1.1,0-2.1-0.4-2.9-1.2c-0.8-0.8-1.2-1.8-1.2-2.9c0-1.1,0.4-2.1,1.2-2.9
		c0.8-0.8,1.8-1.2,2.9-1.2c1.1,0,2.1,0.4,2.9,1.2c0.8,0.8,1.2,1.8,1.2,2.9C104.2,115.8,103.8,116.7,103,117.6L103,117.6z
		 M119.6,117.6c-0.8,0.8-1.8,1.2-2.9,1.2c-1.1,0-2.1-0.4-2.9-1.2c-0.8-0.8-1.2-1.8-1.2-2.9c0-1.1,0.4-2.1,1.2-2.9
		c0.8-0.8,1.8-1.2,2.9-1.2c1.1,0,2.1,0.4,2.9,1.2c0.8,0.8,1.2,1.8,1.2,2.9C120.9,115.8,120.5,116.7,119.6,117.6L119.6,117.6z
		 M119.6,117.6"/>
	<path class="st0" d="M45.8,60.4h16.7v29.2c0,1.1,0.4,2.1,1.2,2.9c0.8,0.8,1.8,1.2,2.9,1.2h16.7c1.1,0,2.1-0.4,2.9-1.2
		c0.8-0.8,1.2-1.8,1.2-2.9V60.4h16.7c1.8,0,3.1-0.9,3.8-2.6c0.7-1.7,0.4-3.2-0.9-4.5L77.9,24.1c-0.8-0.8-1.8-1.2-2.9-1.2
		c-1.2,0-2.1,0.4-2.9,1.2L42.9,53.3c-1.3,1.3-1.6,2.8-0.9,4.5C42.7,59.5,44,60.4,45.8,60.4L45.8,60.4z M45.8,60.4"/>
</g>
</svg>
