<?xml version="1.0" encoding="UTF-8" standalone="no"?>
<!DOCTYPE svg PUBLIC "-//W3C//DTD SVG 1.1//EN"
 "http://www.w3.org/Graphics/SVG/1.1/DTD/svg11.dtd">
<!-- Generated by graphviz version 2.40.1 (20161225.0304)
 -->
<!-- Title: dependencies Pages: 1 -->
<svg width="1141pt" height="284pt"
 viewBox="0.00 0.00 1141.00 284.00" xmlns="http://www.w3.org/2000/svg" xmlns:xlink="http://www.w3.org/1999/xlink">
<g id="graph0" class="graph" transform="scale(1 1) rotate(0) translate(4 280)">
<title>dependencies</title>
<polygon fill="#ffffff" stroke="transparent" points="-4,4 -4,-280 1137,-280 1137,4 -4,4"/>
<text text-anchor="start" x="545.5091" y="-42.4" font-family="sans-serif" font-weight="bold" font-size="14.00" fill="#000000">Legend</text>
<polygon fill="#ffffb3" stroke="transparent" points="332.5,-10 332.5,-30 352.5,-30 352.5,-10 332.5,-10"/>
<text text-anchor="start" x="356.129" y="-15.4" font-family="sans-serif" font-size="14.00" fill="#000000"> &#160;Declarations</text>
<polygon fill="#8dd3c7" stroke="transparent" points="445.5,-10 445.5,-30 465.5,-30 465.5,-10 445.5,-10"/>
<text text-anchor="start" x="469.2251" y="-15.4" font-family="sans-serif" font-size="14.00" fill="#000000"> &#160;Module</text>
<polygon fill="#80b1d3" stroke="transparent" points="531.5,-10 531.5,-30 551.5,-30 551.5,-10 531.5,-10"/>
<text text-anchor="start" x="555.2812" y="-15.4" font-family="sans-serif" font-size="14.00" fill="#000000"> &#160;Bootstrap</text>
<polygon fill="#fdb462" stroke="transparent" points="628.5,-10 628.5,-30 648.5,-30 648.5,-10 628.5,-10"/>
<text text-anchor="start" x="652.1732" y="-15.4" font-family="sans-serif" font-size="14.00" fill="#000000"> &#160;Providers</text>
<polygon fill="#fb8072" stroke="transparent" points="724.5,-10 724.5,-30 744.5,-30 744.5,-10 724.5,-10"/>
<text text-anchor="start" x="748.2258" y="-15.4" font-family="sans-serif" font-size="14.00" fill="#000000"> &#160;Exports</text>
<g id="clust1" class="cluster">
<title>cluster_QuickSidebarModule</title>
<polygon fill="none" stroke="#000000" stroke-dasharray="1,5" points="8,-70 8,-268 1125,-268 1125,-70 8,-70"/>
</g>
<g id="clust2" class="cluster">
<title>cluster_QuickSidebarModule_declarations</title>
<polygon fill="none" stroke="#000000" points="943,-78 943,-130 1117,-130 1117,-78 943,-78"/>
</g>
<g id="clust4" class="cluster">
<title>cluster_QuickSidebarModule_imports</title>
<polygon fill="none" stroke="#000000" points="16,-78 16,-130 935,-130 935,-78 16,-78"/>
</g>
<g id="clust5" class="cluster">
<title>cluster_QuickSidebarModule_exports</title>
<polygon fill="none" stroke="#000000" points="463,-208 463,-260 641,-260 641,-208 463,-208"/>
</g>
<!-- QuickSidebarComponent -->
<g id="node1" class="node">
<title>QuickSidebarComponent</title>
<polygon fill="#ffffb3" stroke="#000000" points="1109.3075,-122 950.6925,-122 950.6925,-86 1109.3075,-86 1109.3075,-122"/>
<text text-anchor="middle" x="1030" y="-99.8" font-family="Times,serif" font-size="14.00" fill="#000000">QuickSidebarComponent</text>
</g>
<!-- QuickSidebarModule -->
<g id="node2" class="node">
<title>QuickSidebarModule</title>
<polygon fill="#8dd3c7" stroke="#000000" points="620.0254,-187 617.0254,-191 596.0254,-191 593.0254,-187 483.9746,-187 483.9746,-151 620.0254,-151 620.0254,-187"/>
<text text-anchor="middle" x="552" y="-164.8" font-family="Times,serif" font-size="14.00" fill="#000000">QuickSidebarModule</text>
</g>
<!-- QuickSidebarComponent&#45;&gt;QuickSidebarModule -->
<g id="edge1" class="edge">
<title>QuickSidebarComponent&#45;&gt;QuickSidebarModule</title>
<path fill="none" stroke="#000000" d="M1030,-122.2921C1030,-144.2057 1030,-178 1030,-178 1030,-178 630.2317,-178 630.2317,-178"/>
<polygon fill="#000000" stroke="#000000" points="630.2318,-174.5001 620.2317,-178 630.2317,-181.5001 630.2318,-174.5001"/>
</g>
<!-- QuickSidebarComponent  -->
<g id="node9" class="node">
<title>QuickSidebarComponent </title>
<polygon fill="#fb8072" stroke="#000000" points="632.8073,-252 471.1927,-252 471.1927,-216 632.8073,-216 632.8073,-252"/>
<text text-anchor="middle" x="552" y="-229.8" font-family="Times,serif" font-size="14.00" fill="#000000">QuickSidebarComponent </text>
</g>
<!-- QuickSidebarModule&#45;&gt;QuickSidebarComponent  -->
<g id="edge8" class="edge">
<title>QuickSidebarModule&#45;&gt;QuickSidebarComponent </title>
<path fill="none" stroke="#000000" stroke-dasharray="5,2" d="M552,-187.1061C552,-187.1061 552,-205.991 552,-205.991"/>
<polygon fill="#000000" stroke="#000000" points="548.5001,-205.9909 552,-215.991 555.5001,-205.991 548.5001,-205.9909"/>
</g>
<!-- DashboardsModule -->
<g id="node3" class="node">
<title>DashboardsModule</title>
<polygon fill="#8dd3c7" stroke="#000000" points="926.6359,-122 923.6359,-126 902.6359,-126 899.6359,-122 801.3641,-122 801.3641,-86 926.6359,-86 926.6359,-122"/>
<text text-anchor="middle" x="864" y="-99.8" font-family="Times,serif" font-size="14.00" fill="#000000">DashboardsModule</text>
</g>
<!-- DashboardsModule&#45;&gt;QuickSidebarModule -->
<g id="edge2" class="edge">
<title>DashboardsModule&#45;&gt;QuickSidebarModule</title>
<path fill="none" stroke="#000000" d="M864,-122.1061C864,-141.3391 864,-169 864,-169 864,-169 630.0842,-169 630.0842,-169"/>
<polygon fill="#000000" stroke="#000000" points="630.0842,-165.5001 620.0842,-169 630.0841,-172.5001 630.0842,-165.5001"/>
</g>
<!-- DynamicFormModule -->
<g id="node4" class="node">
<title>DynamicFormModule</title>
<polygon fill="#8dd3c7" stroke="#000000" points="783.7007,-122 780.7007,-126 759.7007,-126 756.7007,-122 642.2993,-122 642.2993,-86 783.7007,-86 783.7007,-122"/>
<text text-anchor="middle" x="713" y="-99.8" font-family="Times,serif" font-size="14.00" fill="#000000">DynamicFormModule</text>
</g>
<!-- DynamicFormModule&#45;&gt;QuickSidebarModule -->
<g id="edge3" class="edge">
<title>DynamicFormModule&#45;&gt;QuickSidebarModule</title>
<path fill="none" stroke="#000000" d="M713,-122.027C713,-138.3976 713,-160 713,-160 713,-160 630.2785,-160 630.2785,-160"/>
<polygon fill="#000000" stroke="#000000" points="630.2785,-156.5001 620.2785,-160 630.2785,-163.5001 630.2785,-156.5001"/>
</g>
<!-- SharedRecordsModule -->
<g id="node5" class="node">
<title>SharedRecordsModule</title>
<polygon fill="#8dd3c7" stroke="#000000" points="624.2935,-122 621.2935,-126 600.2935,-126 597.2935,-122 479.7065,-122 479.7065,-86 624.2935,-86 624.2935,-122"/>
<text text-anchor="middle" x="552" y="-99.8" font-family="Times,serif" font-size="14.00" fill="#000000">SharedRecordsModule</text>
</g>
<!-- SharedRecordsModule&#45;&gt;QuickSidebarModule -->
<g id="edge4" class="edge">
<title>SharedRecordsModule&#45;&gt;QuickSidebarModule</title>
<path fill="none" stroke="#000000" d="M552,-122.1061C552,-122.1061 552,-140.991 552,-140.991"/>
<polygon fill="#000000" stroke="#000000" points="548.5001,-140.9909 552,-150.991 555.5001,-140.991 548.5001,-140.9909"/>
</g>
<!-- TasksModule -->
<g id="node6" class="node">
<title>TasksModule</title>
<polygon fill="#8dd3c7" stroke="#000000" points="462.2064,-122 459.2064,-126 438.2064,-126 435.2064,-122 369.7936,-122 369.7936,-86 462.2064,-86 462.2064,-122"/>
<text text-anchor="middle" x="416" y="-99.8" font-family="Times,serif" font-size="14.00" fill="#000000">TasksModule</text>
</g>
<!-- TasksModule&#45;&gt;QuickSidebarModule -->
<g id="edge5" class="edge">
<title>TasksModule&#45;&gt;QuickSidebarModule</title>
<path fill="none" stroke="#000000" d="M416,-122.027C416,-138.3976 416,-160 416,-160 416,-160 473.6016,-160 473.6016,-160"/>
<polygon fill="#000000" stroke="#000000" points="473.6016,-163.5001 483.6016,-160 473.6015,-156.5001 473.6016,-163.5001"/>
</g>
<!-- WorkAssignmentsModule -->
<g id="node7" class="node">
<title>WorkAssignmentsModule</title>
<polygon fill="#8dd3c7" stroke="#000000" points="351.752,-122 348.752,-126 327.752,-126 324.752,-122 188.248,-122 188.248,-86 351.752,-86 351.752,-122"/>
<text text-anchor="middle" x="270" y="-99.8" font-family="Times,serif" font-size="14.00" fill="#000000">WorkAssignmentsModule</text>
</g>
<!-- WorkAssignmentsModule&#45;&gt;QuickSidebarModule -->
<g id="edge6" class="edge">
<title>WorkAssignmentsModule&#45;&gt;QuickSidebarModule</title>
<path fill="none" stroke="#000000" d="M270,-122.1061C270,-141.3391 270,-169 270,-169 270,-169 473.7357,-169 473.7357,-169"/>
<polygon fill="#000000" stroke="#000000" points="473.7357,-172.5001 483.7357,-169 473.7356,-165.5001 473.7357,-172.5001"/>
</g>
<!-- workflowCycleModule -->
<g id="node8" class="node">
<title>workflowCycleModule</title>
<polygon fill="#8dd3c7" stroke="#000000" points="170.1317,-122 167.1317,-126 146.1317,-126 143.1317,-122 23.8683,-122 23.8683,-86 170.1317,-86 170.1317,-122"/>
<text text-anchor="middle" x="97" y="-99.8" font-family="Times,serif" font-size="14.00" fill="#000000">workflowCycleModule</text>
</g>
<!-- workflowCycleModule&#45;&gt;QuickSidebarModule -->
<g id="edge7" class="edge">
<title>workflowCycleModule&#45;&gt;QuickSidebarModule</title>
<path fill="none" stroke="#000000" d="M97,-122.2921C97,-144.2057 97,-178 97,-178 97,-178 473.8819,-178 473.8819,-178"/>
<polygon fill="#000000" stroke="#000000" points="473.8819,-181.5001 483.8819,-178 473.8819,-174.5001 473.8819,-181.5001"/>
</g>
</g>
</svg>
