<?xml version="1.0" encoding="UTF-8" standalone="no"?>
<!DOCTYPE svg PUBLIC "-//W3C//DTD SVG 1.1//EN"
 "http://www.w3.org/Graphics/SVG/1.1/DTD/svg11.dtd">
<!-- Generated by graphviz version 2.40.1 (20161225.0304)
 -->
<!-- Title: dependencies Pages: 1 -->
<svg width="1296pt" height="211pt"
 viewBox="0.00 0.00 1296.00 211.00" xmlns="http://www.w3.org/2000/svg" xmlns:xlink="http://www.w3.org/1999/xlink">
<g id="graph0" class="graph" transform="scale(1 1) rotate(0) translate(4 207)">
<title>dependencies</title>
<polygon fill="#ffffff" stroke="transparent" points="-4,4 -4,-207 1292,-207 1292,4 -4,4"/>
<text text-anchor="start" x="623.0091" y="-42.4" font-family="sans-serif" font-weight="bold" font-size="14.00" fill="#000000">Legend</text>
<polygon fill="#ffffb3" stroke="transparent" points="410,-10 410,-30 430,-30 430,-10 410,-10"/>
<text text-anchor="start" x="433.629" y="-15.4" font-family="sans-serif" font-size="14.00" fill="#000000"> &#160;Declarations</text>
<polygon fill="#8dd3c7" stroke="transparent" points="523,-10 523,-30 543,-30 543,-10 523,-10"/>
<text text-anchor="start" x="546.7251" y="-15.4" font-family="sans-serif" font-size="14.00" fill="#000000"> &#160;Module</text>
<polygon fill="#80b1d3" stroke="transparent" points="609,-10 609,-30 629,-30 629,-10 609,-10"/>
<text text-anchor="start" x="632.7812" y="-15.4" font-family="sans-serif" font-size="14.00" fill="#000000"> &#160;Bootstrap</text>
<polygon fill="#fdb462" stroke="transparent" points="706,-10 706,-30 726,-30 726,-10 706,-10"/>
<text text-anchor="start" x="729.6732" y="-15.4" font-family="sans-serif" font-size="14.00" fill="#000000"> &#160;Providers</text>
<polygon fill="#fb8072" stroke="transparent" points="802,-10 802,-30 822,-30 822,-10 802,-10"/>
<text text-anchor="start" x="825.7258" y="-15.4" font-family="sans-serif" font-size="14.00" fill="#000000"> &#160;Exports</text>
<g id="clust1" class="cluster">
<title>cluster_ApprovalsModule</title>
<polygon fill="none" stroke="#000000" stroke-dasharray="1,5" points="8,-70 8,-195 1280,-195 1280,-70 8,-70"/>
</g>
<g id="clust2" class="cluster">
<title>cluster_ApprovalsModule_declarations</title>
<polygon fill="none" stroke="#000000" points="674,-78 674,-130 1272,-130 1272,-78 674,-78"/>
</g>
<g id="clust6" class="cluster">
<title>cluster_ApprovalsModule_imports</title>
<polygon fill="none" stroke="#000000" points="16,-78 16,-130 666,-130 666,-78 16,-78"/>
</g>
<!-- ApprovalsComponent -->
<g id="node1" class="node">
<title>ApprovalsComponent</title>
<polygon fill="#ffffb3" stroke="#000000" points="1263.6498,-122 1124.3502,-122 1124.3502,-86 1263.6498,-86 1263.6498,-122"/>
<text text-anchor="middle" x="1194" y="-99.8" font-family="Times,serif" font-size="14.00" fill="#000000">ApprovalsComponent</text>
</g>
<!-- ApprovalsModule -->
<g id="node4" class="node">
<title>ApprovalsModule</title>
<polygon fill="#8dd3c7" stroke="#000000" points="635.8669,-187 632.8669,-191 611.8669,-191 608.8669,-187 518.1331,-187 518.1331,-151 635.8669,-151 635.8669,-187"/>
<text text-anchor="middle" x="577" y="-164.8" font-family="Times,serif" font-size="14.00" fill="#000000">ApprovalsModule</text>
</g>
<!-- ApprovalsComponent&#45;&gt;ApprovalsModule -->
<g id="edge1" class="edge">
<title>ApprovalsComponent&#45;&gt;ApprovalsModule</title>
<path fill="none" stroke="#000000" d="M1194,-122.2921C1194,-144.2057 1194,-178 1194,-178 1194,-178 645.8811,-178 645.8811,-178"/>
<polygon fill="#000000" stroke="#000000" points="645.8811,-174.5001 635.8811,-178 645.881,-181.5001 645.8811,-174.5001"/>
</g>
<!-- ApprovalsListComponent -->
<g id="node2" class="node">
<title>ApprovalsListComponent</title>
<polygon fill="#ffffb3" stroke="#000000" points="1105.9284,-122 944.0716,-122 944.0716,-86 1105.9284,-86 1105.9284,-122"/>
<text text-anchor="middle" x="1025" y="-99.8" font-family="Times,serif" font-size="14.00" fill="#000000">ApprovalsListComponent</text>
</g>
<!-- ApprovalsListComponent&#45;&gt;ApprovalsModule -->
<g id="edge2" class="edge">
<title>ApprovalsListComponent&#45;&gt;ApprovalsModule</title>
<path fill="none" stroke="#000000" d="M1025,-122.1061C1025,-141.3391 1025,-169 1025,-169 1025,-169 646.0289,-169 646.0289,-169"/>
<polygon fill="#000000" stroke="#000000" points="646.0289,-165.5001 636.0289,-169 646.0288,-172.5001 646.0289,-165.5001"/>
</g>
<!-- ApprovalsWorkAssignmentsComponent -->
<g id="node3" class="node">
<title>ApprovalsWorkAssignmentsComponent</title>
<polygon fill="#ffffb3" stroke="#000000" points="925.8514,-122 682.1486,-122 682.1486,-86 925.8514,-86 925.8514,-122"/>
<text text-anchor="middle" x="804" y="-99.8" font-family="Times,serif" font-size="14.00" fill="#000000">ApprovalsWorkAssignmentsComponent</text>
</g>
<!-- ApprovalsWorkAssignmentsComponent&#45;&gt;ApprovalsModule -->
<g id="edge3" class="edge">
<title>ApprovalsWorkAssignmentsComponent&#45;&gt;ApprovalsModule</title>
<path fill="none" stroke="#000000" d="M804,-122.027C804,-138.3976 804,-160 804,-160 804,-160 646.049,-160 646.049,-160"/>
<polygon fill="#000000" stroke="#000000" points="646.049,-156.5001 636.049,-160 646.049,-163.5001 646.049,-156.5001"/>
</g>
<!-- ApprovalsRoutingModule -->
<g id="node5" class="node">
<title>ApprovalsRoutingModule</title>
<polygon fill="#8dd3c7" stroke="#000000" points="658.4846,-122 655.4846,-126 634.4846,-126 631.4846,-122 495.5154,-122 495.5154,-86 658.4846,-86 658.4846,-122"/>
<text text-anchor="middle" x="577" y="-99.8" font-family="Times,serif" font-size="14.00" fill="#000000">ApprovalsRoutingModule</text>
</g>
<!-- ApprovalsRoutingModule&#45;&gt;ApprovalsModule -->
<g id="edge4" class="edge">
<title>ApprovalsRoutingModule&#45;&gt;ApprovalsModule</title>
<path fill="none" stroke="#000000" d="M577,-122.1061C577,-122.1061 577,-140.991 577,-140.991"/>
<polygon fill="#000000" stroke="#000000" points="573.5001,-140.9909 577,-150.991 580.5001,-140.991 573.5001,-140.9909"/>
</g>
<!-- PageHeaderModule -->
<g id="node6" class="node">
<title>PageHeaderModule</title>
<polygon fill="#8dd3c7" stroke="#000000" points="477.6727,-122 474.6727,-126 453.6727,-126 450.6727,-122 350.3273,-122 350.3273,-86 477.6727,-86 477.6727,-122"/>
<text text-anchor="middle" x="414" y="-99.8" font-family="Times,serif" font-size="14.00" fill="#000000">PageHeaderModule</text>
</g>
<!-- PageHeaderModule&#45;&gt;ApprovalsModule -->
<g id="edge5" class="edge">
<title>PageHeaderModule&#45;&gt;ApprovalsModule</title>
<path fill="none" stroke="#000000" d="M414,-122.027C414,-138.3976 414,-160 414,-160 414,-160 507.6922,-160 507.6922,-160"/>
<polygon fill="#000000" stroke="#000000" points="507.6922,-163.5001 517.6922,-160 507.6921,-156.5001 507.6922,-163.5001"/>
</g>
<!-- SharedRecordsModule -->
<g id="node7" class="node">
<title>SharedRecordsModule</title>
<polygon fill="#8dd3c7" stroke="#000000" points="332.2935,-122 329.2935,-126 308.2935,-126 305.2935,-122 187.7065,-122 187.7065,-86 332.2935,-86 332.2935,-122"/>
<text text-anchor="middle" x="260" y="-99.8" font-family="Times,serif" font-size="14.00" fill="#000000">SharedRecordsModule</text>
</g>
<!-- SharedRecordsModule&#45;&gt;ApprovalsModule -->
<g id="edge6" class="edge">
<title>SharedRecordsModule&#45;&gt;ApprovalsModule</title>
<path fill="none" stroke="#000000" d="M260,-122.1061C260,-141.3391 260,-169 260,-169 260,-169 508.1176,-169 508.1176,-169"/>
<polygon fill="#000000" stroke="#000000" points="508.1177,-172.5001 518.1176,-169 508.1176,-165.5001 508.1177,-172.5001"/>
</g>
<!-- SharingModuleModule -->
<g id="node8" class="node">
<title>SharingModuleModule</title>
<polygon fill="#8dd3c7" stroke="#000000" points="170.1484,-122 167.1484,-126 146.1484,-126 143.1484,-122 23.8516,-122 23.8516,-86 170.1484,-86 170.1484,-122"/>
<text text-anchor="middle" x="97" y="-99.8" font-family="Times,serif" font-size="14.00" fill="#000000">SharingModuleModule</text>
</g>
<!-- SharingModuleModule&#45;&gt;ApprovalsModule -->
<g id="edge7" class="edge">
<title>SharingModuleModule&#45;&gt;ApprovalsModule</title>
<path fill="none" stroke="#000000" d="M97,-122.2921C97,-144.2057 97,-178 97,-178 97,-178 507.6612,-178 507.6612,-178"/>
<polygon fill="#000000" stroke="#000000" points="507.6612,-181.5001 517.6612,-178 507.6611,-174.5001 507.6612,-181.5001"/>
</g>
</g>
</svg>
