<?xml version="1.0" encoding="UTF-8" standalone="no"?>
<!DOCTYPE svg PUBLIC "-//W3C//DTD SVG 1.1//EN"
 "http://www.w3.org/Graphics/SVG/1.1/DTD/svg11.dtd">
<!-- Generated by graphviz version 2.40.1 (20161225.0304)
 -->
<!-- Title: dependencies Pages: 1 -->
<svg width="1842pt" height="211pt"
 viewBox="0.00 0.00 1842.00 211.00" xmlns="http://www.w3.org/2000/svg" xmlns:xlink="http://www.w3.org/1999/xlink">
<g id="graph0" class="graph" transform="scale(1 1) rotate(0) translate(4 207)">
<title>dependencies</title>
<polygon fill="#ffffff" stroke="transparent" points="-4,4 -4,-207 1838,-207 1838,4 -4,4"/>
<text text-anchor="start" x="896.0091" y="-42.4" font-family="sans-serif" font-weight="bold" font-size="14.00" fill="#000000">Legend</text>
<polygon fill="#ffffb3" stroke="transparent" points="683,-10 683,-30 703,-30 703,-10 683,-10"/>
<text text-anchor="start" x="706.629" y="-15.4" font-family="sans-serif" font-size="14.00" fill="#000000"> &#160;Declarations</text>
<polygon fill="#8dd3c7" stroke="transparent" points="796,-10 796,-30 816,-30 816,-10 796,-10"/>
<text text-anchor="start" x="819.7251" y="-15.4" font-family="sans-serif" font-size="14.00" fill="#000000"> &#160;Module</text>
<polygon fill="#80b1d3" stroke="transparent" points="882,-10 882,-30 902,-30 902,-10 882,-10"/>
<text text-anchor="start" x="905.7812" y="-15.4" font-family="sans-serif" font-size="14.00" fill="#000000"> &#160;Bootstrap</text>
<polygon fill="#fdb462" stroke="transparent" points="979,-10 979,-30 999,-30 999,-10 979,-10"/>
<text text-anchor="start" x="1002.6732" y="-15.4" font-family="sans-serif" font-size="14.00" fill="#000000"> &#160;Providers</text>
<polygon fill="#fb8072" stroke="transparent" points="1075,-10 1075,-30 1095,-30 1095,-10 1075,-10"/>
<text text-anchor="start" x="1098.7258" y="-15.4" font-family="sans-serif" font-size="14.00" fill="#000000"> &#160;Exports</text>
<g id="clust1" class="cluster">
<title>cluster_AdministratorsModule</title>
<polygon fill="none" stroke="#000000" stroke-dasharray="1,5" points="8,-70 8,-195 1826,-195 1826,-70 8,-70"/>
</g>
<g id="clust2" class="cluster">
<title>cluster_AdministratorsModule_declarations</title>
<polygon fill="none" stroke="#000000" points="808,-78 808,-130 1818,-130 1818,-78 808,-78"/>
</g>
<g id="clust8" class="cluster">
<title>cluster_AdministratorsModule_imports</title>
<polygon fill="none" stroke="#000000" points="286,-78 286,-130 800,-130 800,-78 286,-78"/>
</g>
<g id="clust11" class="cluster">
<title>cluster_AdministratorsModule_providers</title>
<polygon fill="none" stroke="#000000" points="16,-78 16,-130 278,-130 278,-78 16,-78"/>
</g>
<!-- AdministratorCreateComponent -->
<g id="node1" class="node">
<title>AdministratorCreateComponent</title>
<polygon fill="#ffffb3" stroke="#000000" points="1810.4044,-122 1613.5956,-122 1613.5956,-86 1810.4044,-86 1810.4044,-122"/>
<text text-anchor="middle" x="1712" y="-99.8" font-family="Times,serif" font-size="14.00" fill="#000000">AdministratorCreateComponent</text>
</g>
<!-- AdministratorsModule -->
<g id="node6" class="node">
<title>AdministratorsModule</title>
<polygon fill="#8dd3c7" stroke="#000000" points="970.5352,-187 967.5352,-191 946.5352,-191 943.5352,-187 827.4648,-187 827.4648,-151 970.5352,-151 970.5352,-187"/>
<text text-anchor="middle" x="899" y="-164.8" font-family="Times,serif" font-size="14.00" fill="#000000">AdministratorsModule</text>
</g>
<!-- AdministratorCreateComponent&#45;&gt;AdministratorsModule -->
<g id="edge1" class="edge">
<title>AdministratorCreateComponent&#45;&gt;AdministratorsModule</title>
<path fill="none" stroke="#000000" d="M1712,-122.0109C1712,-144.4852 1712,-180 1712,-180 1712,-180 980.7917,-180 980.7917,-180"/>
<polygon fill="#000000" stroke="#000000" points="980.7917,-176.5001 970.7917,-180 980.7917,-183.5001 980.7917,-176.5001"/>
</g>
<!-- AdministratorDeleteComponent -->
<g id="node2" class="node">
<title>AdministratorDeleteComponent</title>
<polygon fill="#ffffb3" stroke="#000000" points="1596.4044,-122 1399.5956,-122 1399.5956,-86 1596.4044,-86 1596.4044,-122"/>
<text text-anchor="middle" x="1498" y="-99.8" font-family="Times,serif" font-size="14.00" fill="#000000">AdministratorDeleteComponent</text>
</g>
<!-- AdministratorDeleteComponent&#45;&gt;AdministratorsModule -->
<g id="edge2" class="edge">
<title>AdministratorDeleteComponent&#45;&gt;AdministratorsModule</title>
<path fill="none" stroke="#000000" d="M1498,-122.1289C1498,-142.5724 1498,-173 1498,-173 1498,-173 980.6584,-173 980.6584,-173"/>
<polygon fill="#000000" stroke="#000000" points="980.6585,-169.5001 970.6584,-173 980.6584,-176.5001 980.6585,-169.5001"/>
</g>
<!-- AdministratorEditComponent -->
<g id="node3" class="node">
<title>AdministratorEditComponent</title>
<polygon fill="#ffffb3" stroke="#000000" points="1381.7063,-122 1198.2937,-122 1198.2937,-86 1381.7063,-86 1381.7063,-122"/>
<text text-anchor="middle" x="1290" y="-99.8" font-family="Times,serif" font-size="14.00" fill="#000000">AdministratorEditComponent</text>
</g>
<!-- AdministratorEditComponent&#45;&gt;AdministratorsModule -->
<g id="edge3" class="edge">
<title>AdministratorEditComponent&#45;&gt;AdministratorsModule</title>
<path fill="none" stroke="#000000" d="M1290,-122.2667C1290,-140.5552 1290,-166 1290,-166 1290,-166 980.7154,-166 980.7154,-166"/>
<polygon fill="#000000" stroke="#000000" points="980.7155,-162.5001 970.7154,-166 980.7154,-169.5001 980.7155,-162.5001"/>
</g>
<!-- AdministratorListComponent -->
<g id="node4" class="node">
<title>AdministratorListComponent</title>
<polygon fill="#ffffb3" stroke="#000000" points="1180.6511,-122 999.3489,-122 999.3489,-86 1180.6511,-86 1180.6511,-122"/>
<text text-anchor="middle" x="1090" y="-99.8" font-family="Times,serif" font-size="14.00" fill="#000000">AdministratorListComponent</text>
</g>
<!-- AdministratorListComponent&#45;&gt;AdministratorsModule -->
<g id="edge4" class="edge">
<title>AdministratorListComponent&#45;&gt;AdministratorsModule</title>
<path fill="none" stroke="#000000" d="M1090,-122.0091C1090,-138.0494 1090,-159 1090,-159 1090,-159 980.6648,-159 980.6648,-159"/>
<polygon fill="#000000" stroke="#000000" points="980.6648,-155.5001 970.6648,-159 980.6647,-162.5001 980.6648,-155.5001"/>
</g>
<!-- AdministratorsComponent -->
<g id="node5" class="node">
<title>AdministratorsComponent</title>
<polygon fill="#ffffb3" stroke="#000000" points="981.8173,-122 816.1827,-122 816.1827,-86 981.8173,-86 981.8173,-122"/>
<text text-anchor="middle" x="899" y="-99.8" font-family="Times,serif" font-size="14.00" fill="#000000">AdministratorsComponent</text>
</g>
<!-- AdministratorsComponent&#45;&gt;AdministratorsModule -->
<g id="edge5" class="edge">
<title>AdministratorsComponent&#45;&gt;AdministratorsModule</title>
<path fill="none" stroke="#000000" d="M899,-122.1061C899,-122.1061 899,-140.991 899,-140.991"/>
<polygon fill="#000000" stroke="#000000" points="895.5001,-140.9909 899,-150.991 902.5001,-140.991 895.5001,-140.9909"/>
</g>
<!-- AdministratorsRoutingModule -->
<g id="node7" class="node">
<title>AdministratorsRoutingModule</title>
<polygon fill="#8dd3c7" stroke="#000000" points="792.1525,-122 789.1525,-126 768.1525,-126 765.1525,-122 603.8475,-122 603.8475,-86 792.1525,-86 792.1525,-122"/>
<text text-anchor="middle" x="698" y="-99.8" font-family="Times,serif" font-size="14.00" fill="#000000">AdministratorsRoutingModule</text>
</g>
<!-- AdministratorsRoutingModule&#45;&gt;AdministratorsModule -->
<g id="edge6" class="edge">
<title>AdministratorsRoutingModule&#45;&gt;AdministratorsModule</title>
<path fill="none" stroke="#000000" d="M698,-122.0091C698,-138.0494 698,-159 698,-159 698,-159 817.2857,-159 817.2857,-159"/>
<polygon fill="#000000" stroke="#000000" points="817.2857,-162.5001 827.2857,-159 817.2856,-155.5001 817.2857,-162.5001"/>
</g>
<!-- PageHeaderModule -->
<g id="node8" class="node">
<title>PageHeaderModule</title>
<polygon fill="#8dd3c7" stroke="#000000" points="585.6727,-122 582.6727,-126 561.6727,-126 558.6727,-122 458.3273,-122 458.3273,-86 585.6727,-86 585.6727,-122"/>
<text text-anchor="middle" x="522" y="-99.8" font-family="Times,serif" font-size="14.00" fill="#000000">PageHeaderModule</text>
</g>
<!-- PageHeaderModule&#45;&gt;AdministratorsModule -->
<g id="edge7" class="edge">
<title>PageHeaderModule&#45;&gt;AdministratorsModule</title>
<path fill="none" stroke="#000000" d="M522,-122.2667C522,-140.5552 522,-166 522,-166 522,-166 817.2018,-166 817.2018,-166"/>
<polygon fill="#000000" stroke="#000000" points="817.2018,-169.5001 827.2018,-166 817.2018,-162.5001 817.2018,-169.5001"/>
</g>
<!-- SharingModuleModule -->
<g id="node9" class="node">
<title>SharingModuleModule</title>
<polygon fill="#8dd3c7" stroke="#000000" points="440.1484,-122 437.1484,-126 416.1484,-126 413.1484,-122 293.8516,-122 293.8516,-86 440.1484,-86 440.1484,-122"/>
<text text-anchor="middle" x="367" y="-99.8" font-family="Times,serif" font-size="14.00" fill="#000000">SharingModuleModule</text>
</g>
<!-- SharingModuleModule&#45;&gt;AdministratorsModule -->
<g id="edge8" class="edge">
<title>SharingModuleModule&#45;&gt;AdministratorsModule</title>
<path fill="none" stroke="#000000" d="M367,-122.1289C367,-142.5724 367,-173 367,-173 367,-173 817.2521,-173 817.2521,-173"/>
<polygon fill="#000000" stroke="#000000" points="817.2521,-176.5001 827.2521,-173 817.2521,-169.5001 817.2521,-176.5001"/>
</g>
<!-- AdministratorServiceService -->
<g id="node10" class="node">
<title>AdministratorServiceService</title>
<ellipse fill="#fdb462" stroke="#000000" cx="147" cy="-104" rx="123.2456" ry="18"/>
<text text-anchor="middle" x="147" y="-99.8" font-family="Times,serif" font-size="14.00" fill="#000000">AdministratorServiceService</text>
</g>
<!-- AdministratorServiceService&#45;&gt;AdministratorsModule -->
<g id="edge9" class="edge">
<title>AdministratorServiceService&#45;&gt;AdministratorsModule</title>
<path fill="none" stroke="#000000" d="M147,-122.0109C147,-144.4852 147,-180 147,-180 147,-180 817.2357,-180 817.2357,-180"/>
<polygon fill="#000000" stroke="#000000" points="817.2358,-183.5001 827.2357,-180 817.2357,-176.5001 817.2358,-183.5001"/>
</g>
</g>
</svg>
