<?xml version="1.0" encoding="UTF-8" standalone="no"?>
<!DOCTYPE svg PUBLIC "-//W3C//DTD SVG 1.1//EN"
 "http://www.w3.org/Graphics/SVG/1.1/DTD/svg11.dtd">
<!-- Generated by graphviz version 2.40.1 (20161225.0304)
 -->
<!-- Title: dependencies Pages: 1 -->
<svg width="1553pt" height="211pt"
 viewBox="0.00 0.00 1553.00 211.00" xmlns="http://www.w3.org/2000/svg" xmlns:xlink="http://www.w3.org/1999/xlink">
<g id="graph0" class="graph" transform="scale(1 1) rotate(0) translate(4 207)">
<title>dependencies</title>
<polygon fill="#ffffff" stroke="transparent" points="-4,4 -4,-207 1549,-207 1549,4 -4,4"/>
<text text-anchor="start" x="751.5091" y="-42.4" font-family="sans-serif" font-weight="bold" font-size="14.00" fill="#000000">Legend</text>
<polygon fill="#ffffb3" stroke="transparent" points="538.5,-10 538.5,-30 558.5,-30 558.5,-10 538.5,-10"/>
<text text-anchor="start" x="562.129" y="-15.4" font-family="sans-serif" font-size="14.00" fill="#000000"> &#160;Declarations</text>
<polygon fill="#8dd3c7" stroke="transparent" points="651.5,-10 651.5,-30 671.5,-30 671.5,-10 651.5,-10"/>
<text text-anchor="start" x="675.2251" y="-15.4" font-family="sans-serif" font-size="14.00" fill="#000000"> &#160;Module</text>
<polygon fill="#80b1d3" stroke="transparent" points="737.5,-10 737.5,-30 757.5,-30 757.5,-10 737.5,-10"/>
<text text-anchor="start" x="761.2812" y="-15.4" font-family="sans-serif" font-size="14.00" fill="#000000"> &#160;Bootstrap</text>
<polygon fill="#fdb462" stroke="transparent" points="834.5,-10 834.5,-30 854.5,-30 854.5,-10 834.5,-10"/>
<text text-anchor="start" x="858.1732" y="-15.4" font-family="sans-serif" font-size="14.00" fill="#000000"> &#160;Providers</text>
<polygon fill="#fb8072" stroke="transparent" points="930.5,-10 930.5,-30 950.5,-30 950.5,-10 930.5,-10"/>
<text text-anchor="start" x="954.2258" y="-15.4" font-family="sans-serif" font-size="14.00" fill="#000000"> &#160;Exports</text>
<g id="clust1" class="cluster">
<title>cluster_LicenseManagementModule</title>
<polygon fill="none" stroke="#000000" stroke-dasharray="1,5" points="8,-70 8,-195 1537,-195 1537,-70 8,-70"/>
</g>
<g id="clust2" class="cluster">
<title>cluster_LicenseManagementModule_declarations</title>
<polygon fill="none" stroke="#000000" points="571,-78 571,-130 1529,-130 1529,-78 571,-78"/>
</g>
<g id="clust7" class="cluster">
<title>cluster_LicenseManagementModule_imports</title>
<polygon fill="none" stroke="#000000" points="16,-78 16,-130 563,-130 563,-78 16,-78"/>
</g>
<!-- LicenseManagementComponent -->
<g id="node1" class="node">
<title>LicenseManagementComponent</title>
<polygon fill="#ffffb3" stroke="#000000" points="1520.9482,-122 1323.0518,-122 1323.0518,-86 1520.9482,-86 1520.9482,-122"/>
<text text-anchor="middle" x="1422" y="-99.8" font-family="Times,serif" font-size="14.00" fill="#000000">LicenseManagementComponent</text>
</g>
<!-- LicenseManagementModule -->
<g id="node5" class="node">
<title>LicenseManagementModule</title>
<polygon fill="#8dd3c7" stroke="#000000" points="785.1657,-187 782.1657,-191 761.1657,-191 758.1657,-187 608.8343,-187 608.8343,-151 785.1657,-151 785.1657,-187"/>
<text text-anchor="middle" x="697" y="-164.8" font-family="Times,serif" font-size="14.00" fill="#000000">LicenseManagementModule</text>
</g>
<!-- LicenseManagementComponent&#45;&gt;LicenseManagementModule -->
<g id="edge1" class="edge">
<title>LicenseManagementComponent&#45;&gt;LicenseManagementModule</title>
<path fill="none" stroke="#000000" d="M1422,-122.2921C1422,-144.2057 1422,-178 1422,-178 1422,-178 795.1744,-178 795.1744,-178"/>
<polygon fill="#000000" stroke="#000000" points="795.1744,-174.5001 785.1744,-178 795.1744,-181.5001 795.1744,-174.5001"/>
</g>
<!-- LicenseManagementCreateComponent -->
<g id="node2" class="node">
<title>LicenseManagementCreateComponent</title>
<polygon fill="#ffffb3" stroke="#000000" points="1305.4803,-122 1070.5197,-122 1070.5197,-86 1305.4803,-86 1305.4803,-122"/>
<text text-anchor="middle" x="1188" y="-99.8" font-family="Times,serif" font-size="14.00" fill="#000000">LicenseManagementCreateComponent</text>
</g>
<!-- LicenseManagementCreateComponent&#45;&gt;LicenseManagementModule -->
<g id="edge2" class="edge">
<title>LicenseManagementCreateComponent&#45;&gt;LicenseManagementModule</title>
<path fill="none" stroke="#000000" d="M1188,-122.1061C1188,-141.3391 1188,-169 1188,-169 1188,-169 795.348,-169 795.348,-169"/>
<polygon fill="#000000" stroke="#000000" points="795.3481,-165.5001 785.348,-169 795.348,-172.5001 795.3481,-165.5001"/>
</g>
<!-- LicenseManagementListComponent -->
<g id="node3" class="node">
<title>LicenseManagementListComponent</title>
<polygon fill="#ffffb3" stroke="#000000" points="1052.7268,-122 833.2732,-122 833.2732,-86 1052.7268,-86 1052.7268,-122"/>
<text text-anchor="middle" x="943" y="-99.8" font-family="Times,serif" font-size="14.00" fill="#000000">LicenseManagementListComponent</text>
</g>
<!-- LicenseManagementListComponent&#45;&gt;LicenseManagementModule -->
<g id="edge3" class="edge">
<title>LicenseManagementListComponent&#45;&gt;LicenseManagementModule</title>
<path fill="none" stroke="#000000" d="M943,-122.027C943,-138.3976 943,-160 943,-160 943,-160 795.1168,-160 795.1168,-160"/>
<polygon fill="#000000" stroke="#000000" points="795.1168,-156.5001 785.1168,-160 795.1168,-163.5001 795.1168,-156.5001"/>
</g>
<!-- LicenseManagementRenewComponent -->
<g id="node4" class="node">
<title>LicenseManagementRenewComponent</title>
<polygon fill="#ffffb3" stroke="#000000" points="815.3207,-122 578.6793,-122 578.6793,-86 815.3207,-86 815.3207,-122"/>
<text text-anchor="middle" x="697" y="-99.8" font-family="Times,serif" font-size="14.00" fill="#000000">LicenseManagementRenewComponent</text>
</g>
<!-- LicenseManagementRenewComponent&#45;&gt;LicenseManagementModule -->
<g id="edge4" class="edge">
<title>LicenseManagementRenewComponent&#45;&gt;LicenseManagementModule</title>
<path fill="none" stroke="#000000" d="M697,-122.1061C697,-122.1061 697,-140.991 697,-140.991"/>
<polygon fill="#000000" stroke="#000000" points="693.5001,-140.9909 697,-150.991 700.5001,-140.991 693.5001,-140.9909"/>
</g>
<!-- LicenseManagementRoutingModule -->
<g id="node6" class="node">
<title>LicenseManagementRoutingModule</title>
<polygon fill="#8dd3c7" stroke="#000000" points="554.7836,-122 551.7836,-126 530.7836,-126 527.7836,-122 333.2164,-122 333.2164,-86 554.7836,-86 554.7836,-122"/>
<text text-anchor="middle" x="444" y="-99.8" font-family="Times,serif" font-size="14.00" fill="#000000">LicenseManagementRoutingModule</text>
</g>
<!-- LicenseManagementRoutingModule&#45;&gt;LicenseManagementModule -->
<g id="edge5" class="edge">
<title>LicenseManagementRoutingModule&#45;&gt;LicenseManagementModule</title>
<path fill="none" stroke="#000000" d="M444,-122.027C444,-138.3976 444,-160 444,-160 444,-160 598.868,-160 598.868,-160"/>
<polygon fill="#000000" stroke="#000000" points="598.8681,-163.5001 608.868,-160 598.868,-156.5001 598.8681,-163.5001"/>
</g>
<!-- PageHeaderModule -->
<g id="node7" class="node">
<title>PageHeaderModule</title>
<polygon fill="#8dd3c7" stroke="#000000" points="315.6727,-122 312.6727,-126 291.6727,-126 288.6727,-122 188.3273,-122 188.3273,-86 315.6727,-86 315.6727,-122"/>
<text text-anchor="middle" x="252" y="-99.8" font-family="Times,serif" font-size="14.00" fill="#000000">PageHeaderModule</text>
</g>
<!-- PageHeaderModule&#45;&gt;LicenseManagementModule -->
<g id="edge6" class="edge">
<title>PageHeaderModule&#45;&gt;LicenseManagementModule</title>
<path fill="none" stroke="#000000" d="M252,-122.1061C252,-141.3391 252,-169 252,-169 252,-169 598.8164,-169 598.8164,-169"/>
<polygon fill="#000000" stroke="#000000" points="598.8165,-172.5001 608.8164,-169 598.8164,-165.5001 598.8165,-172.5001"/>
</g>
<!-- SharingModuleModule -->
<g id="node8" class="node">
<title>SharingModuleModule</title>
<polygon fill="#8dd3c7" stroke="#000000" points="170.1484,-122 167.1484,-126 146.1484,-126 143.1484,-122 23.8516,-122 23.8516,-86 170.1484,-86 170.1484,-122"/>
<text text-anchor="middle" x="97" y="-99.8" font-family="Times,serif" font-size="14.00" fill="#000000">SharingModuleModule</text>
</g>
<!-- SharingModuleModule&#45;&gt;LicenseManagementModule -->
<g id="edge7" class="edge">
<title>SharingModuleModule&#45;&gt;LicenseManagementModule</title>
<path fill="none" stroke="#000000" d="M97,-122.2921C97,-144.2057 97,-178 97,-178 97,-178 598.7903,-178 598.7903,-178"/>
<polygon fill="#000000" stroke="#000000" points="598.7904,-181.5001 608.7903,-178 598.7903,-174.5001 598.7904,-181.5001"/>
</g>
</g>
</svg>
