<?xml version="1.0" encoding="utf-8"?>
<!-- Generator: Adobe Illustrator 22.1.0, SVG Export Plug-In . SVG Version: 6.00 Build 0)  -->
<svg version="1.1" id="Layer_1" xmlns="http://www.w3.org/2000/svg" xmlns:xlink="http://www.w3.org/1999/xlink" x="0px" y="0px"
	 viewBox="0 0 1246 296" style="enable-background:new 0 0 1246 296;" xml:space="preserve">
<style type="text/css">
	.st0{fill:#FFFFFF;}
	.st1{font-family:'Roboto-Regular';}
	.st2{font-size:42px;}
	.st3{enable-background:new    ;}
	.st4{font-size:22px;}
</style>
<g id="Group_484" transform="translate(-226 -446.986)">
	<text transform="matrix(1 0 0 1 588.3767 639)" class="st0 st1 st2">Built-in Services Integration</text>
	<text transform="matrix(1 0 0 1 432.1873 686)" class="st3"><tspan x="0" y="0" class="st0 st1 st4">Enhance, data storage, security and authorisation by integrating your forms with any</tspan><tspan x="-154" y="30" class="st0 st1 st4">existing system, like, SAP, Oracle, CIS etc.Automate processes and integrate collected information with any system.</tspan></text>
</g>
<g>
	<path class="st0" d="M635.2,42.1c0-6.2-5-11.2-11.2-11.2s-11.2,5-11.2,11.2V44c0,1,0.8,1.9,1.9,1.9s1.9-0.8,1.9-1.9v-1.9
		c0-4.1,3.3-7.5,7.5-7.5s7.5,3.3,7.5,7.5v13.1h-28v35.5h41.1V55.2h-9.3V42.1z M640.8,86.9h-33.6v-28h33.6V86.9z"/>
	<path class="st0" d="M624,62.7c-4.1,0-7.5,3.3-7.5,7.5c0,3.5,2.4,6.4,5.6,7.2v4c0,1,0.8,1.9,1.9,1.9s1.9-0.8,1.9-1.9v-4
		c3.2-0.8,5.6-3.7,5.6-7.2C631.5,66,628.1,62.7,624,62.7z M624,73.9c-2.1,0-3.7-1.7-3.7-3.7c0-2.1,1.7-3.7,3.7-3.7s3.7,1.7,3.7,3.7
		C627.7,72.2,626.1,73.9,624,73.9z"/>
	<path class="st0" d="M624,16c-27.8,0-50.4,22.6-50.4,50.4c0,26.3,20.3,48,46.1,50.2l-8.2,8.2c-0.7,0.7-0.7,1.9,0,2.6
		c0.4,0.4,0.8,0.5,1.3,0.5s1-0.2,1.3-0.5l11.2-11.2c0.2-0.2,0.3-0.4,0.4-0.6c0.2-0.5,0.2-1,0-1.4c-0.1-0.2-0.2-0.4-0.4-0.6
		l-11.2-11.2c-0.7-0.7-1.9-0.7-2.6,0c-0.7,0.7-0.7,1.9,0,2.6l7.8,7.8c-23.5-2.4-41.9-22.3-41.9-46.4c0-25.7,20.9-46.7,46.7-46.7
		s46.7,20.9,46.7,46.7c0,12.4-4.8,24.1-13.5,32.8c-0.7,0.7-0.7,1.9,0,2.6c0.7,0.7,1.9,0.7,2.6,0c9.4-9.5,14.6-22.1,14.6-35.5
		C674.4,38.6,651.8,16,624,16z"/>
</g>
</svg>
