<?xml version="1.0" encoding="utf-8"?>
<!-- Generator: Adobe Illustrator 22.1.0, SVG Export Plug-In . SVG Version: 6.00 Build 0)  -->
<svg version="1.1" id="Layer_1" xmlns="http://www.w3.org/2000/svg" xmlns:xlink="http://www.w3.org/1999/xlink" x="0px" y="0px"
	 viewBox="0 0 1246 296" style="enable-background:new 0 0 1246 296;" xml:space="preserve">
<style type="text/css">
	.st0{fill:#FFFFFF;}
	.st1{font-family:'Roboto-Regular';}
	.st2{font-size:42px;}
	.st3{enable-background:new    ;}
	.st4{font-size:22px;}
</style>
<g id="Group_484" transform="translate(-226 -446.986)">
	<text transform="matrix(1 0 0 1 639.2253 639)" class="st0 st1 st2">Design Custom Forms</text>
	<text transform="matrix(1 0 0 1 278.2569 686)" class="st3"><tspan x="0" y="0" class="st0 st1 st4">Create forms from scratch according to your needs or use standard templates designed for diverse business types. </tspan><tspan x="303.6" y="30" class="st0 st1 st4">Launch and assign tasks using our forms, in real-time.</tspan></text>
</g>
<g>
	<g>
		<g>
			<path class="st0" d="M683,16H563c-1,0-1.8,0.8-1.8,1.8v108.4c0,1,0.8,1.8,1.8,1.8h120c1,0,1.8-0.8,1.8-1.8V17.8
				C684.8,16.8,684,16,683,16z M681.2,31.5h-95.9c-1,0-1.8,0.8-1.8,1.8s0.8,1.8,1.8,1.8h95.9v89.3H564.8V35.1h12.1
				c1,0,1.8-0.8,1.8-1.8s-0.8-1.8-1.8-1.8h-12.1V19.6h116.4L681.2,31.5L681.2,31.5z"/>
		</g>
	</g>
	<g>
		<g>
			<path class="st0" d="M628.8,101.2h-11.6c-4.2,0-7.6,3.4-7.6,7.6c0,4.2,3.4,7.6,7.6,7.6h11.6c4.2,0,7.6-3.4,7.6-7.6
				C636.4,104.6,633,101.2,628.8,101.2z M628.8,112.8h-11.6c-2.2,0-4-1.8-4-4s1.8-4,4-4h11.6c2.2,0,4,1.8,4,4S631,112.8,628.8,112.8
				z"/>
		</g>
	</g>
	<g>
		<g>
			<path class="st0" d="M667.5,23.7h-0.2c-1,0-1.8,0.8-1.8,1.8c0,1,0.8,1.8,1.8,1.8h0.2c1,0,1.8-0.8,1.8-1.8S668.5,23.7,667.5,23.7z
				"/>
		</g>
	</g>
	<g>
		<g>
			<path class="st0" d="M675.3,23.7H675c-1,0-1.8,0.8-1.8,1.8c0,1,0.8,1.8,1.8,1.8h0.2c1,0,1.8-0.8,1.8-1.8S676.3,23.7,675.3,23.7z"
				/>
		</g>
	</g>
	<g>
		<g>
			<path class="st0" d="M659.5,23.7h-0.2c-1,0-1.8,0.8-1.8,1.8c0,1,0.8,1.8,1.8,1.8h0.2c1,0,1.8-0.8,1.8-1.8S660.5,23.7,659.5,23.7z
				"/>
		</g>
	</g>
	<g>
		<g>
			<path class="st0" d="M674.6,105.9l-12.4-12.4l6.9-6.9c1-1,0.5-2.7-0.8-3l-12.5-3.4V56.5c0-1-0.8-1.8-1.8-1.8H592
				c-1,0-1.8,0.8-1.8,1.8v38.7c0,1,0.8,1.8,1.8,1.8h49.3l2.9,10.6c0.4,1.3,2.1,1.8,3,0.8l6.9-6.9l12.4,12.4c0.7,0.7,1.9,0.7,2.6,0
				l5.5-5.5C675.3,107.8,675.3,106.6,674.6,105.9z M593.8,93.4V58.3h58.3v20.8l-13.9-3.8c-1.3-0.4-2.6,0.9-2.2,2.2l4.3,15.9
				L593.8,93.4L593.8,93.4z M667.9,110.1l-12.4-12.4c-0.7-0.7-1.9-0.7-2.6,0l-6,6l-6.6-24l24,6.6l-6,6c-0.7,0.7-0.7,1.9,0,2.6
				l12.4,12.4L667.9,110.1z"/>
		</g>
	</g>
	<g>
		<g>
			<path class="st0" d="M630.7,47H592c-1,0-1.8,0.8-1.8,1.8c0,1,0.8,1.8,1.8,1.8h38.7c1,0,1.8-0.8,1.8-1.8
				C632.6,47.8,631.7,47,630.7,47z"/>
		</g>
	</g>
	<g>
		<g>
			<path class="st0" d="M655.9,47h-19.4c-1,0-1.8,0.8-1.8,1.8c0,1,0.8,1.8,1.8,1.8h19.4c1,0,1.8-0.8,1.8-1.8
				C657.7,47.8,656.9,47,655.9,47z"/>
		</g>
	</g>
</g>
</svg>
