<?xml version="1.0" encoding="utf-8"?>
<!-- Generator: Adobe Illustrator 22.1.0, SVG Export Plug-In . SVG Version: 6.00 Build 0)  -->
<svg version="1.1" id="Layer_1" xmlns="http://www.w3.org/2000/svg" xmlns:xlink="http://www.w3.org/1999/xlink" x="0px" y="0px"
	 viewBox="0 0 850 296" style="enable-background:new 0 0 850 296;" xml:space="preserve">
<style type="text/css">
	.st0{fill:#FFFFFF;}
	.st1{font-family:'Roboto-Regular';}
	.st2{font-size:42px;}
	.st3{enable-background:new    ;}
	.st4{font-size:22px;}
</style>
<g id="Group_484" transform="translate(-226 -446.986)">
	<text transform="matrix(1 0 0 1 494.2283 639)" class="st0 st1 st2">Digital Signature</text>
	<text transform="matrix(1 0 0 1 267.3482 695)" class="st3"><tspan x="0" y="0" class="st0 st1 st4">Expedite client approvals, sign contracts and agreements on time.</tspan><tspan x="0" y="30" class="st0 st1 st4">Notify your team once work is completed and send work order copy on-the-fly.</tspan></text>
</g>
<g>
	<g id="Layer_1_155_">
		<g>
			<path class="st0" d="M430.9,41.1H396c-2.6,0-4.6,2.1-4.6,4.6s2.1,4.6,4.6,4.6h34.8c2.6,0,4.6-2.1,4.6-4.6
				C435.5,43.2,433.4,41.1,430.9,41.1z"/>
			<path class="st0" d="M435.5,63.1c0-2.6-2.1-4.6-4.6-4.6H396c-2.6,0-4.6,2.1-4.6,4.6c0,2.6,2.1,4.6,4.6,4.6h34.8
				C433.4,67.8,435.5,65.7,435.5,63.1z"/>
			<path class="st0" d="M413.5,85.2c2.6,0,4.6-2.1,4.6-4.6c0-2.6-2.1-4.6-4.6-4.6H396c-2.6,0-4.6,2.1-4.6,4.6s2.1,4.6,4.6,4.6H413.5
				z"/>
			<path class="st0" d="M448.5,101l-4.9,3.2v11.6h-60.3V32.2h60.3v18.3l9.3-16.1v-6.9c0-2.6-2.1-4.6-4.6-4.6h-69.6
				c-2.6,0-4.6,2.1-4.6,4.6v92.8c0,2.6,2.1,4.6,4.6,4.6h69.6c2.6,0,4.6-2.1,4.6-4.6V94.8l-2.2,3.8C450.2,99.6,449.4,100.4,448.5,101
				z"/>
			<path class="st0" d="M475.9,44.4c-0.1-0.4-1.1-4.2-7-7.6c-5.9-3.4-9.6-2.4-10.1-2.3c-0.6,0.2-1,0.5-1.3,1.1l-29,50.2
				c-0.2,0.3-0.3,0.7-0.3,1l-1.1,18.1c-0.1,0.9,0.4,1.7,1.2,2.1c0.8,0.4,1.7,0.4,2.4-0.1l15.2-10c0.3-0.2,0.6-0.5,0.7-0.8l29-50.3
				C476,45.5,476.1,45,475.9,44.4z M436.6,99.1c-0.8-0.6-1.6-1.2-2.6-1.8c-0.9-0.5-1.9-1-2.8-1.4l0.3-5.4c1.2,0.2,3,0.6,5.3,2
				c2.3,1.3,3.6,2.6,4.3,3.6L436.6,99.1z"/>
			<path class="st0" d="M406.4,106.6c0.2,0.9,1.2,1.2,1.9,1.5c0.7,0.3,1.5-0.3,2.1-0.5c3.5-1.7,8.3,0.3,12.1,0.3
				c2.2,0,2.2-3.5,0-3.5c-4.4,0-8.1-1.1-12.5-0.4c0-0.3-0.1-0.6-0.4-1.1c-0.8-1.4-1.9-1.8-2.9-1.6c-0.1-0.2-0.1-0.3-0.2-0.5
				c-0.3-0.4-0.7-0.7-1.1-0.8c1.2-2.1,2-4.4,1.2-6.2c-0.2-0.6-0.9-0.8-1.5-0.9c-2.3-0.1-4.3,2.4-5.8,3.8c-3.7,3.7-7,7.8-10.2,12
				c-1.4,1.8,1.7,3.5,3,1.8c2.8-3.7,5.8-7.2,9-10.6c-0.8,1.3-1.6,2.5-2.5,3.7c-1.2,1.9,1.7,3.5,3,1.8c0.3-0.5,0.7-0.8,1.1-1.1
				c-0.1,0.2-0.2,0.4-0.3,0.6c0,0,0,0,0,0c-0.1,0.1-0.1,0.3-0.2,0.4c-0.8,1.9,2.1,2.8,3.2,1.3c0.3-0.4,0.5-0.8,0.7-1.2
				C406.3,105.8,406.3,106.2,406.4,106.6z"/>
		</g>
	</g>
</g>
</svg>
