<?xml version="1.0" encoding="utf-8"?>
<!-- Generator: Adobe Illustrator 22.1.0, SVG Export Plug-In . SVG Version: 6.00 Build 0)  -->
<svg version="1.1" id="Layer_1" xmlns="http://www.w3.org/2000/svg" xmlns:xlink="http://www.w3.org/1999/xlink" x="0px" y="0px"
	 viewBox="0 0 1200 296" style="enable-background:new 0 0 1200 296;" xml:space="preserve">
<style type="text/css">
	.st0{fill:#FFFFFF;}
	.st1{font-family:'Roboto-Regular';}
	.st2{font-size:42px;}
	.st3{enable-background:new    ;}
	.st4{font-size:22px;}
</style>
<g id="Group_484" transform="translate(-226 -446.986)">
	<text transform="matrix(1 0 0 1 634.3337 639)" class="st0 st1 st2">Flexible Dashboards</text>
	<text transform="matrix(1 0 0 1 399.3738 686)" class="st3"><tspan x="0" y="0" class="st0 st1 st4">Customise your forms to suit your business type using our administrative dashboards.</tspan><tspan x="32" y="30" class="st0 st1 st4">Export, evaluate and review collected data and make timely, informed decisions.</tspan></text>
</g>
<g transform="translate(1 1)">
	<g>
		<g>
			<path class="st0" d="M617.7,61.4l-9.5,5.7c-3.4,2-6.9,3.7-10.3,5.3c-1,0.4-2.2,1-3.4,1.6c-4.1,2.2-6.3,6.7-5.3,11.2
				c0.8,3.5,3.7,6.5,7.3,7.3c0.8,0.2,1.6,0.2,2.4,0.2c3.7,0,7.1-2.2,8.9-5.5c0.4-1,1-2.2,1.6-3.4c1.8-3.4,3.4-6.9,5.3-10.3l5.7-9.5
				c0.4-0.8,0.2-1.6-0.4-2.4C619.5,61,618.5,61,617.7,61.4z M611.4,71.4c-2.2,3.5-3.9,7.1-5.5,10.6c-0.4,1.2-1,2.2-1.6,3.4
				c-1.2,2.6-3.9,3.7-6.7,3.2c-2.2-0.4-3.9-2.2-4.3-4.3c-0.6-2.8,0.6-5.5,3.2-6.7c1-0.6,2.2-1,3.4-1.6c3.5-1.8,7.3-3.5,10.6-5.5
				l2.6-1.6L611.4,71.4z"/>
			<path class="st0" d="M653.9,61c0-0.1-0.1-0.3-0.1-0.4c-0.1-0.1-0.1-0.2-0.2-0.4c-3-7.1-7.2-13.5-12.6-18.8
				c-0.1-0.1-0.2-0.2-0.3-0.3s-0.2-0.2-0.3-0.3c-10.7-10.5-25.4-17.1-41.5-17.1c-7.7,0-15.1,1.5-21.9,4.2c-0.1,0-0.3,0.1-0.4,0.1
				c-0.1,0.1-0.2,0.1-0.4,0.2c-7.1,3-13.5,7.2-18.8,12.6c-0.1,0.1-0.2,0.2-0.3,0.3s-0.2,0.2-0.3,0.3c-10.5,10.7-17.1,25.4-17.1,41.5
				c0,13.4,4.3,26.2,12.8,36.7c0.4,0.6,1,0.8,1.6,0.8h89.5c0.6,0,1.2-0.2,1.6-0.8c8.5-10.4,12.8-23.3,12.8-36.7
				C658.1,75.1,656.6,67.7,653.9,61z M643,116.4h-87.7c-2.7-3.4-4.9-7.1-6.6-11l5.4-2.2c1-0.4,1.4-1.6,1-2.6c-0.4-1-1.6-1.4-2.6-1
				l-5.3,2.2c-2-5.4-3.1-11.1-3.3-16.9h13.8c1.2,0,2-0.8,2-2s-0.8-2-2-2h-13.8c0.2-6.2,1.5-12.2,3.6-17.7l5.4,2.3
				c0.2,0.2,0.6,0.2,0.8,0.2c0.8,0,1.4-0.4,1.8-1.2c0.4-1,0-2.2-1-2.6l-5.5-2.4c2.5-5.3,5.8-10.1,9.7-14.3l4.1,4.1
				c0.4,0.4,0.8,0.6,1.4,0.6c0.6,0,1-0.2,1.4-0.6c0.8-0.8,0.8-2,0-2.8l-4.1-4.1c4.4-4.1,9.5-7.5,15.1-10l2.2,5.4
				c0.2,0.8,1,1.2,1.8,1.2c0.2,0,0.4,0,0.8-0.2c1-0.4,1.4-1.6,1-2.6l-2.2-5.3c5.3-2,11-3.1,16.9-3.3v13.8c0,1.2,0.8,2,2,2s2-0.8,2-2
				V27.7c6.2,0.2,12.2,1.5,17.7,3.6l-2.3,5.4c-0.4,1,0,2.2,1,2.6c0.2,0.2,0.6,0.2,0.8,0.2c0.8,0,1.6-0.6,1.8-1.2l2.4-5.5
				c5.3,2.5,10.1,5.8,14.3,9.7l-4.1,4.1c-0.8,0.8-0.8,2,0,2.8c0.4,0.4,0.8,0.6,1.4,0.6c0.4,0,1-0.2,1.4-0.6l4.1-4.1
				c4.1,4.4,7.5,9.5,10,15.1l-5.4,2.2c-1,0.4-1.4,1.6-1,2.6c0.2,0.8,1,1.2,1.8,1.2c0.2,0,0.4-0.2,0.8-0.2l5.3-2.2
				c2,5.3,3.1,11,3.3,16.9h-13.8c-1.2,0-2,0.8-2,2s0.8,2,2,2h13.8c-0.2,6.1-1.4,12.1-3.6,17.7l-5.5-2.4c-1-0.4-2.2,0-2.6,1
				c-0.4,1,0,2.2,1,2.6l5.5,2.4C647.4,109.7,645.4,113.1,643,116.4z"/>
		</g>
	</g>
</g>
</svg>
