<?xml version="1.0" encoding="utf-8"?>
<!-- Generator: Adobe Illustrator 22.1.0, SVG Export Plug-In . SVG Version: 6.00 Build 0)  -->
<svg version="1.1" id="Layer_1" xmlns="http://www.w3.org/2000/svg" xmlns:xlink="http://www.w3.org/1999/xlink" x="0px" y="0px"
	 viewBox="0 0 850 296" style="enable-background:new 0 0 850 296;" xml:space="preserve">
<style type="text/css">
	.st0{fill:#FFFFFF;}
	.st1{font-family:'Roboto-Regular';}
	.st2{font-size:42px;}
	.st3{enable-background:new    ;}
	.st4{font-size:22px;}
</style>
<g id="Group_484" transform="translate(-226 -446.986)">
	<text transform="matrix(1 0 0 1 521 639)" class="st0 st1 st2">GPS &amp; Bar Code</text>
	<text transform="matrix(1 0 0 1 279.5618 695)" class="st3"><tspan x="0" y="0" class="st0 st1 st4">Supervisors can control the field from multiple locations with user tracking </tspan><tspan x="0" y="30" class="st0 st1 st4">and real time data . Scan QR and barcodes from your device into the forms.</tspan></text>
	<g id="location-on-map" transform="translate(518.999 429.979)">
		<path id="Path_826" class="st0" d="M129.1,100.8c1.6,1.4,4.1,1.4,5.8,0c1-0.9,25.5-22.8,25.5-45.4c0-15.7-12.7-28.4-28.4-28.4
			s-28.4,12.7-28.4,28.4C103.5,78.1,128,99.9,129.1,100.8z M131.9,48c4.1,0,7.5,3.3,7.5,7.4c0,4.1-3.3,7.5-7.4,7.5
			c-4.1,0-7.5-3.3-7.5-7.4c0,0,0,0,0-0.1C124.6,51.4,127.9,48,131.9,48L131.9,48z"/>
		<path id="Path_827" class="st0" d="M186.5,100.8l-3.3-11.5c-0.5-1.9-2.2-3.2-4.2-3.2h-23.5c-0.8,1.3-1.7,2.5-2.7,3.8
			c-4.2,5.6-8.9,10.8-14,15.5c-4,3.5-9.9,3.5-13.8,0c-5.2-4.7-9.9-9.9-14-15.5c-0.9-1.3-1.8-2.5-2.7-3.8H84.8
			c-1.9,0-3.7,1.3-4.2,3.2L76.7,103l87.7,16.1L186.5,100.8z"/>
		<path id="Path_828" class="st0" d="M196.7,136.5l-8.4-29.5l-41.7,35h45.9c2.4,0,4.4-2,4.4-4.4
			C196.9,137.3,196.8,136.9,196.7,136.5L196.7,136.5z"/>
		<path id="Path_829" class="st0" d="M88.3,111.4L75,108.9l-7.9,27.5c-0.7,2.3,0.7,4.7,3,5.4c0.4,0.1,0.8,0.2,1.2,0.2h17V111.4z"/>
		<path id="Path_830" class="st0" d="M94.4,112.5V142h42.7l21.2-17.8L94.4,112.5z"/>
	</g>
</g>
</svg>
