<?xml version="1.0" encoding="utf-8"?>
<!-- Generator: Adobe Illustrator 22.1.0, SVG Export Plug-In . SVG Version: 6.00 Build 0)  -->
<svg version="1.1" id="Layer_1" xmlns="http://www.w3.org/2000/svg" xmlns:xlink="http://www.w3.org/1999/xlink" x="0px" y="0px"
	 viewBox="0 0 1246 296" style="enable-background:new 0 0 1246 296;" xml:space="preserve">
<style type="text/css">
	.st0{fill:#FFFFFF;}
	.st1{font-family:'Roboto-Regular';}
	.st2{font-size:42px;}
	.st3{enable-background:new    ;}
	.st4{font-size:22px;}
</style>
<g id="Group_484" transform="translate(-226 -446.986)">
	<text transform="matrix(1 0 0 1 650.238 639)" class="st0 st1 st2">Multiple User Facility</text>
	<text transform="matrix(1 0 0 1 435.0657 686)" class="st3"><tspan x="0" y="0" class="st0 st1 st4">Enable your users to access data across departments with admins and sub-admins.</tspan><tspan x="-187" y="30" class="st0 st1 st4">Empower users to create and customise their forms and improve functionality with user-groups for different departments.</tspan></text>
</g>
<g>
	<g>
		<g>
			<path class="st0" d="M623,34.9c5.9,0,10.6-4.7,10.6-10.6s-4.7-10.6-10.6-10.6c-5.9,0-10.6,4.7-10.6,10.6S617.1,34.9,623,34.9z
				 M623,19c2.9,0,5.3,2.4,5.3,5.3s-2.4,5.3-5.3,5.3s-5.3-2.4-5.3-5.3S620.1,19,623,19z"/>
			<path class="st0" d="M626.8,36.6c0,0-0.1,0-0.1,0h-7.4c-8-0.2-14.6,6.1-14.8,14c0,0,0,0.1,0,0.1v2.1c0,1.5,1.5,2.3,2.9,2.3h31.3
				c1.5,0,2.9-0.8,2.9-2.3v-2.1C641.4,42.8,634.8,36.5,626.8,36.6z M610,49.9c0.3-4,4.4-7.9,9.3-7.9h7.4c4.9,0,9,4,9.3,7.9H610z"/>
			<path class="st0" d="M580,81c1.5,0,2.6-1.2,2.6-2.6c0-12.3,5.5-23.8,15.1-31.5c1-1,1.1-2.7,0-3.7c-0.9-0.9-2.3-1.1-3.4-0.4
				c-10.8,8.7-17.1,21.8-17.1,35.6C577.3,79.8,578.5,81,580,81z"/>
			<path class="st0" d="M635.9,116.6C635.9,116.6,635.9,116.6,635.9,116.6c-8.4,2.8-17.3,2.8-25.6,0c-1.4-0.4-2.9,0.3-3.3,1.7
				c-0.5,1.3,0.1,2.8,1.4,3.3c0.1,0,0.1,0,0.2,0.1c9.4,3.2,19.6,3.2,29,0c1.4-0.5,2.2-2,1.7-3.4
				C638.8,116.8,637.3,116.1,635.9,116.6z"/>
			<path class="st0" d="M646.3,45.4c10.7,7.6,17.1,19.9,17.1,33c0,1.5,1.2,2.6,2.6,2.6s2.6-1.2,2.6-2.6c0-14.8-7.2-28.7-19.3-37.3
				c-1.2-0.8-2.9-0.5-3.7,0.7C644.8,42.9,645.1,44.5,646.3,45.4z"/>
			<path class="st0" d="M583.3,107.8c5.9,0,10.6-4.7,10.6-10.6s-4.7-10.6-10.6-10.6c-5.9,0-10.6,4.7-10.6,10.6
				S577.4,107.8,583.3,107.8z M583.3,91.9c2.9,0,5.3,2.4,5.3,5.3s-2.4,5.3-5.3,5.3c-2.9,0-5.3-2.4-5.3-5.3S580.3,91.9,583.3,91.9z"
				/>
			<path class="st0" d="M587.1,109.5c0,0-0.1,0-0.1,0h-7.4c-8-0.2-14.6,6.1-14.8,14c0,0,0,0.1,0,0.1v2.1c0,1.5,1.5,2.3,2.9,2.3h31.3
				c1.5,0,2.9-0.8,2.9-2.3v-2.1C601.7,115.7,595.1,109.3,587.1,109.5z M570.3,122.7c0.3-4,4.4-7.9,9.3-7.9h7.4c4.9,0,9,4,9.3,7.9
				L570.3,122.7L570.3,122.7z"/>
			<path class="st0" d="M652.1,97.2c0,5.9,4.7,10.6,10.6,10.6s10.6-4.7,10.6-10.6s-4.7-10.6-10.6-10.6S652.1,91.3,652.1,97.2z
				 M668,97.2c0,2.9-2.4,5.3-5.3,5.3c-2.9,0-5.3-2.4-5.3-5.3s2.4-5.3,5.3-5.3C665.7,91.9,668,94.2,668,97.2z"/>
			<path class="st0" d="M666.6,109.5c0,0-0.1,0-0.1,0H659c-8-0.2-14.6,6.1-14.8,14c0,0,0,0.1,0,0.1v2.1c0,1.5,1.5,2.3,2.9,2.3h31.3
				c1.5,0,2.9-0.8,2.9-2.3v-2.1C681.1,115.7,674.5,109.3,666.6,109.5z M649.7,122.7c0.3-4,4.4-7.9,9.3-7.9h7.4c4.9,0,9,4,9.3,7.9
				L649.7,122.7L649.7,122.7z"/>
		</g>
	</g>
</g>
</svg>
