<?xml version="1.0" encoding="utf-8"?>
<!-- Generator: Adobe Illustrator 22.1.0, SVG Export Plug-In . SVG Version: 6.00 Build 0)  -->
<svg version="1.1" id="Layer_1" xmlns="http://www.w3.org/2000/svg" xmlns:xlink="http://www.w3.org/1999/xlink" x="0px" y="0px"
	 viewBox="0 0 1200 296" style="enable-background:new 0 0 1200 296;" xml:space="preserve">
<style type="text/css">
	.st0{fill:#FFFFFF;}
	.st1{font-family:'Roboto-Regular';}
	.st2{font-size:42px;}
	.st3{enable-background:new    ;}
	.st4{font-size:22px;}
</style>
<g id="Group_484" transform="translate(-226 -446.986)">
	<text transform="matrix(1 0 0 1 690.1765 639)" class="st0 st1 st2">Photo Capture</text>
	<text transform="matrix(1 0 0 1 534.0648 691)" class="st3"><tspan x="0" y="0" class="st0 st1 st4">Easily capture explicate image data with any smart device. </tspan><tspan x="-75.1" y="30" class="st0 st1 st4">Real-time accessing and storing of data is a cake walk with photo capture.</tspan></text>
</g>
<g>
	<g>
		<g>
			<path class="st0" d="M657.2,39.2c-2.4-2.6-5.8-4.1-9.7-4.1h-19.3v-0.2c0-2.9-1.2-5.7-3.1-7.6c-2-2-4.7-3.1-7.6-3.1h-34.9
				c-3,0-5.7,1.2-7.7,3.1c-2,2-3.1,4.7-3.1,7.6v0.2h-19.2c-3.8,0-7.2,1.5-9.7,4.1c-2.4,2.4-4.1,5.9-4.1,9.7v58
				c0,3.8,1.5,7.2,4.1,9.7c2.4,2.4,5.9,4.1,9.7,4.1h95c3.8,0,7.2-1.5,9.7-4.1c2.4-2.4,4.1-5.9,4.1-9.7v-58
				C661.2,45,659.7,41.7,657.2,39.2z M655.2,106.9h-0.1c0,2.1-0.8,4-2.2,5.4c-1.4,1.4-3.3,2.2-5.4,2.2h-95c-2.1,0-4-0.8-5.4-2.2
				c-1.4-1.4-2.2-3.3-2.2-5.4v-58c0-2.1,0.8-4,2.2-5.4c1.4-1.4,3.3-2.2,5.4-2.2H575c1.7,0,3.1-1.4,3.1-3.1v-3.4
				c0-1.3,0.5-2.4,1.3-3.3c0.8-0.8,2-1.3,3.3-1.3h34.8c1.3,0,2.4,0.5,3.3,1.3c0.8,0.8,1.3,2,1.3,3.3v3.4c0,1.7,1.4,3.1,3.1,3.1h22.5
				c2.1,0,4,0.8,5.4,2.2c1.4,1.4,2.2,3.3,2.2,5.4V106.9z"/>
			<path class="st0" d="M600,49.2c-7.9,0-15.1,3.3-20.3,8.4c-5.2,5.2-8.4,12.3-8.4,20.3s3.3,15.1,8.4,20.3
				c5.2,5.2,12.3,8.4,20.3,8.4s15.1-3.3,20.3-8.4c5.2-5.2,8.4-12.3,8.4-20.3s-3.3-15.1-8.4-20.3C615.1,52.5,607.9,49.2,600,49.2z
				 M615.8,93.8c-4.1,4-9.7,6.5-15.8,6.5s-11.8-2.6-15.8-6.5c-4.1-4.1-6.5-9.7-6.5-15.8s2.6-11.8,6.5-15.8c4.1-4.1,9.7-6.5,15.8-6.5
				s11.8,2.6,15.8,6.5c4.1,4.1,6.5,9.7,6.5,15.8C622.5,84.2,619.9,89.7,615.8,93.8z"/>
			<circle class="st0" cx="641.4" cy="54.8" r="5.7"/>
		</g>
	</g>
</g>
</svg>
