<?xml version="1.0" encoding="utf-8"?>
<!-- Generator: Adobe Illustrator 22.1.0, SVG Export Plug-In . SVG Version: 6.00 Build 0)  -->
<svg version="1.1" id="Layer_1" xmlns="http://www.w3.org/2000/svg" xmlns:xlink="http://www.w3.org/1999/xlink" x="0px" y="0px"
	 viewBox="0 0 1200 296" style="enable-background:new 0 0 1200 296;" xml:space="preserve">
<style type="text/css">
	.st0{fill:#FFFFFF;}
	.st1{font-family:'Roboto-Regular';}
	.st2{font-size:42px;}
	.st3{enable-background:new    ;}
	.st4{font-size:22px;}
</style>
<g id="Group_484" transform="translate(-226 -446.986)">
	<text transform="matrix(1 0 0 1 700.5535 639)" class="st0 st1 st2">Time Stamps</text>
	<text transform="matrix(1 0 0 1 304.2034 695)" class="st3"><tspan x="0" y="0" class="st0 st1 st4">Use timestamp features to show when work was performed, how long it took and when it was completed. </tspan><tspan x="112.2" y="30" class="st0 st1 st4">Get all the history you need to manage assets and report time and work accurately.</tspan></text>
</g>
<g>
	<path class="st0" d="M600,20c-28.7,0-52,23.3-52,52s23.3,52,52,52s52-23.3,52-52S628.7,20,600,20z M600,120.6
		c-26.8,0-48.6-21.8-48.6-48.6s21.8-48.6,48.6-48.6s48.6,21.8,48.6,48.6S626.8,120.6,600,120.6z"/>
	<path class="st0" d="M601.7,65.1V47.5c0-1-0.8-1.7-1.7-1.7s-1.7,0.8-1.7,1.7v17.6c-2.4,0.6-4.3,2.5-5,5h-12.4c-1,0-1.7,0.8-1.7,1.7
		c0,1,0.8,1.7,1.7,1.7h12.4c0.8,3,3.5,5.2,6.7,5.2c3.8,0,6.9-3.1,6.9-6.9C606.9,68.6,604.7,65.9,601.7,65.1z M600,75.3
		c-1.9,0-3.5-1.6-3.5-3.5s1.6-3.5,3.5-3.5s3.5,1.6,3.5,3.5S601.9,75.3,600,75.3z"/>
	<path class="st0" d="M600,37.1c1,0,1.7-0.8,1.7-1.7v-1.7c0-1-0.8-1.7-1.7-1.7s-1.7,0.8-1.7,1.7v1.7C598.3,36.3,599,37.1,600,37.1z"
		/>
	<path class="st0" d="M600,106.5c-1,0-1.7,0.8-1.7,1.7v1.7c0,1,0.8,1.7,1.7,1.7s1.7-0.8,1.7-1.7v-1.7
		C601.7,107.3,601,106.5,600,106.5z"/>
	<path class="st0" d="M638.2,70.1h-1.7c-1,0-1.7,0.8-1.7,1.7c0,1,0.8,1.7,1.7,1.7h1.7c1,0,1.7-0.8,1.7-1.7
		C639.9,70.8,639.1,70.1,638.2,70.1z"/>
	<path class="st0" d="M563.6,70.1h-1.7c-1,0-1.7,0.8-1.7,1.7c0,1,0.8,1.7,1.7,1.7h1.7c1,0,1.7-0.8,1.7-1.7
		C565.3,70.8,564.5,70.1,563.6,70.1z"/>
	<path class="st0" d="M625.8,43.6l-1.2,1.2c-0.7,0.7-0.7,1.8,0,2.5c0.3,0.3,0.8,0.5,1.2,0.5c0.4,0,0.9-0.2,1.2-0.5l1.2-1.2
		c0.7-0.7,0.7-1.8,0-2.5C627.5,42.9,626.4,42.9,625.8,43.6z"/>
	<path class="st0" d="M573,96.3l-1.2,1.2c-0.7,0.7-0.7,1.8,0,2.5c0.3,0.3,0.8,0.5,1.2,0.5s0.9-0.2,1.2-0.5l1.2-1.2
		c0.7-0.7,0.7-1.8,0-2.5S573.7,95.7,573,96.3z"/>
	<path class="st0" d="M627,96.3c-0.7-0.7-1.8-0.7-2.5,0s-0.7,1.8,0,2.5l1.2,1.2c0.3,0.3,0.8,0.5,1.2,0.5c0.4,0,0.9-0.2,1.2-0.5
		c0.7-0.7,0.7-1.8,0-2.5L627,96.3z"/>
	<path class="st0" d="M574.2,43.6c-0.7-0.7-1.8-0.7-2.5,0c-0.7,0.7-0.7,1.8,0,2.5l1.2,1.2c0.3,0.3,0.8,0.5,1.2,0.5
		c0.4,0,0.9-0.2,1.2-0.5c0.7-0.7,0.7-1.8,0-2.5L574.2,43.6z"/>
</g>
</svg>
