<?xml version="1.0" encoding="UTF-8" standalone="no"?>
<!DOCTYPE svg PUBLIC "-//W3C//DTD SVG 1.1//EN"
 "http://www.w3.org/Graphics/SVG/1.1/DTD/svg11.dtd">
<!-- Generated by graphviz version 2.40.1 (20161225.0304)
 -->
<!-- Title: dependencies Pages: 1 -->
<svg width="950pt" height="211pt"
 viewBox="0.00 0.00 950.00 211.00" xmlns="http://www.w3.org/2000/svg" xmlns:xlink="http://www.w3.org/1999/xlink">
<g id="graph0" class="graph" transform="scale(1 1) rotate(0) translate(4 207)">
<title>dependencies</title>
<polygon fill="#ffffff" stroke="transparent" points="-4,4 -4,-207 946,-207 946,4 -4,4"/>
<text text-anchor="start" x="450.0091" y="-42.4" font-family="sans-serif" font-weight="bold" font-size="14.00" fill="#000000">Legend</text>
<polygon fill="#ffffb3" stroke="transparent" points="237,-10 237,-30 257,-30 257,-10 237,-10"/>
<text text-anchor="start" x="260.629" y="-15.4" font-family="sans-serif" font-size="14.00" fill="#000000"> &#160;Declarations</text>
<polygon fill="#8dd3c7" stroke="transparent" points="350,-10 350,-30 370,-30 370,-10 350,-10"/>
<text text-anchor="start" x="373.7251" y="-15.4" font-family="sans-serif" font-size="14.00" fill="#000000"> &#160;Module</text>
<polygon fill="#80b1d3" stroke="transparent" points="436,-10 436,-30 456,-30 456,-10 436,-10"/>
<text text-anchor="start" x="459.7812" y="-15.4" font-family="sans-serif" font-size="14.00" fill="#000000"> &#160;Bootstrap</text>
<polygon fill="#fdb462" stroke="transparent" points="533,-10 533,-30 553,-30 553,-10 533,-10"/>
<text text-anchor="start" x="556.6732" y="-15.4" font-family="sans-serif" font-size="14.00" fill="#000000"> &#160;Providers</text>
<polygon fill="#fb8072" stroke="transparent" points="629,-10 629,-30 649,-30 649,-10 629,-10"/>
<text text-anchor="start" x="652.7258" y="-15.4" font-family="sans-serif" font-size="14.00" fill="#000000"> &#160;Exports</text>
<g id="clust1" class="cluster">
<title>cluster_HomeModule</title>
<polygon fill="none" stroke="#000000" stroke-dasharray="1,5" points="8,-70 8,-195 934,-195 934,-70 8,-70"/>
</g>
<g id="clust2" class="cluster">
<title>cluster_HomeModule_declarations</title>
<polygon fill="none" stroke="#000000" points="16,-78 16,-130 926,-130 926,-78 16,-78"/>
</g>
<!-- AssignmentHistoryComponent -->
<g id="node1" class="node">
<title>AssignmentHistoryComponent</title>
<polygon fill="#ffffb3" stroke="#000000" points="918.2077,-122 727.7923,-122 727.7923,-86 918.2077,-86 918.2077,-122"/>
<text text-anchor="middle" x="823" y="-99.8" font-family="Times,serif" font-size="14.00" fill="#000000">AssignmentHistoryComponent</text>
</g>
<!-- HomeModule -->
<g id="node6" class="node">
<title>HomeModule</title>
<polygon fill="#8dd3c7" stroke="#000000" points="522.7619,-187 519.7619,-191 498.7619,-191 495.7619,-187 429.2381,-187 429.2381,-151 522.7619,-151 522.7619,-187"/>
<text text-anchor="middle" x="476" y="-164.8" font-family="Times,serif" font-size="14.00" fill="#000000">HomeModule</text>
</g>
<!-- AssignmentHistoryComponent&#45;&gt;HomeModule -->
<g id="edge1" class="edge">
<title>AssignmentHistoryComponent&#45;&gt;HomeModule</title>
<path fill="none" stroke="#000000" d="M823,-122.2843C823,-143.3211 823,-175 823,-175 823,-175 532.798,-175 532.798,-175"/>
<polygon fill="#000000" stroke="#000000" points="532.798,-171.5001 522.798,-175 532.7979,-178.5001 532.798,-171.5001"/>
</g>
<!-- AssignmentListComponent -->
<g id="node2" class="node">
<title>AssignmentListComponent</title>
<polygon fill="#ffffb3" stroke="#000000" points="709.993,-122 540.007,-122 540.007,-86 709.993,-86 709.993,-122"/>
<text text-anchor="middle" x="625" y="-99.8" font-family="Times,serif" font-size="14.00" fill="#000000">AssignmentListComponent</text>
</g>
<!-- AssignmentListComponent&#45;&gt;HomeModule -->
<g id="edge2" class="edge">
<title>AssignmentListComponent&#45;&gt;HomeModule</title>
<path fill="none" stroke="#000000" d="M625,-122.0225C625,-139.3734 625,-163 625,-163 625,-163 533.1445,-163 533.1445,-163"/>
<polygon fill="#000000" stroke="#000000" points="533.1446,-159.5001 523.1445,-163 533.1445,-166.5001 533.1446,-159.5001"/>
</g>
<!-- DateAgoPipe -->
<g id="node3" class="node">
<title>DateAgoPipe</title>
<polygon fill="#ffffb3" stroke="#000000" points="521.9218,-122 430.0782,-122 430.0782,-86 521.9218,-86 521.9218,-122"/>
<text text-anchor="middle" x="476" y="-99.8" font-family="Times,serif" font-size="14.00" fill="#000000">DateAgoPipe</text>
</g>
<!-- DateAgoPipe&#45;&gt;HomeModule -->
<g id="edge3" class="edge">
<title>DateAgoPipe&#45;&gt;HomeModule</title>
<path fill="none" stroke="#000000" d="M476,-122.1061C476,-122.1061 476,-140.991 476,-140.991"/>
<polygon fill="#000000" stroke="#000000" points="472.5001,-140.9909 476,-150.991 479.5001,-140.991 472.5001,-140.9909"/>
</g>
<!-- WorkordersListComponent -->
<g id="node4" class="node">
<title>WorkordersListComponent</title>
<polygon fill="#ffffb3" stroke="#000000" points="411.9664,-122 242.0336,-122 242.0336,-86 411.9664,-86 411.9664,-122"/>
<text text-anchor="middle" x="327" y="-99.8" font-family="Times,serif" font-size="14.00" fill="#000000">WorkordersListComponent</text>
</g>
<!-- WorkordersListComponent&#45;&gt;HomeModule -->
<g id="edge4" class="edge">
<title>WorkordersListComponent&#45;&gt;HomeModule</title>
<path fill="none" stroke="#000000" d="M327,-122.0225C327,-139.3734 327,-163 327,-163 327,-163 418.8555,-163 418.8555,-163"/>
<polygon fill="#000000" stroke="#000000" points="418.8555,-166.5001 428.8555,-163 418.8554,-159.5001 418.8555,-166.5001"/>
</g>
<!-- WorkordersListViewComponent -->
<g id="node5" class="node">
<title>WorkordersListViewComponent</title>
<polygon fill="#ffffb3" stroke="#000000" points="224.285,-122 23.715,-122 23.715,-86 224.285,-86 224.285,-122"/>
<text text-anchor="middle" x="124" y="-99.8" font-family="Times,serif" font-size="14.00" fill="#000000">WorkordersListViewComponent</text>
</g>
<!-- WorkordersListViewComponent&#45;&gt;HomeModule -->
<g id="edge5" class="edge">
<title>WorkordersListViewComponent&#45;&gt;HomeModule</title>
<path fill="none" stroke="#000000" d="M124,-122.2843C124,-143.3211 124,-175 124,-175 124,-175 418.893,-175 418.893,-175"/>
<polygon fill="#000000" stroke="#000000" points="418.893,-178.5001 428.893,-175 418.8929,-171.5001 418.893,-178.5001"/>
</g>
</g>
</svg>
