<?xml version="1.0" encoding="UTF-8" standalone="no"?>
<!DOCTYPE svg PUBLIC "-//W3C//DTD SVG 1.1//EN"
 "http://www.w3.org/Graphics/SVG/1.1/DTD/svg11.dtd">
<!-- Generated by graphviz version 2.40.1 (20161225.0304)
 -->
<!-- Title: dependencies Pages: 1 -->
<svg width="1429pt" height="284pt"
 viewBox="0.00 0.00 1429.00 284.00" xmlns="http://www.w3.org/2000/svg" xmlns:xlink="http://www.w3.org/1999/xlink">
<g id="graph0" class="graph" transform="scale(1 1) rotate(0) translate(4 280)">
<title>dependencies</title>
<polygon fill="#ffffff" stroke="transparent" points="-4,4 -4,-280 1425,-280 1425,4 -4,4"/>
<text text-anchor="start" x="689.5091" y="-42.4" font-family="sans-serif" font-weight="bold" font-size="14.00" fill="#000000">Legend</text>
<polygon fill="#ffffb3" stroke="transparent" points="476.5,-10 476.5,-30 496.5,-30 496.5,-10 476.5,-10"/>
<text text-anchor="start" x="500.129" y="-15.4" font-family="sans-serif" font-size="14.00" fill="#000000"> &#160;Declarations</text>
<polygon fill="#8dd3c7" stroke="transparent" points="589.5,-10 589.5,-30 609.5,-30 609.5,-10 589.5,-10"/>
<text text-anchor="start" x="613.2251" y="-15.4" font-family="sans-serif" font-size="14.00" fill="#000000"> &#160;Module</text>
<polygon fill="#80b1d3" stroke="transparent" points="675.5,-10 675.5,-30 695.5,-30 695.5,-10 675.5,-10"/>
<text text-anchor="start" x="699.2812" y="-15.4" font-family="sans-serif" font-size="14.00" fill="#000000"> &#160;Bootstrap</text>
<polygon fill="#fdb462" stroke="transparent" points="772.5,-10 772.5,-30 792.5,-30 792.5,-10 772.5,-10"/>
<text text-anchor="start" x="796.1732" y="-15.4" font-family="sans-serif" font-size="14.00" fill="#000000"> &#160;Providers</text>
<polygon fill="#fb8072" stroke="transparent" points="868.5,-10 868.5,-30 888.5,-30 888.5,-10 868.5,-10"/>
<text text-anchor="start" x="892.2258" y="-15.4" font-family="sans-serif" font-size="14.00" fill="#000000"> &#160;Exports</text>
<g id="clust1" class="cluster">
<title>cluster_AppModule</title>
<polygon fill="none" stroke="#000000" stroke-dasharray="1,5" points="8,-70 8,-268 1413,-268 1413,-70 8,-70"/>
</g>
<g id="clust2" class="cluster">
<title>cluster_AppModule_declarations</title>
<polygon fill="none" stroke="#000000" points="1283,-78 1283,-130 1405,-130 1405,-78 1283,-78"/>
</g>
<g id="clust4" class="cluster">
<title>cluster_AppModule_imports</title>
<polygon fill="none" stroke="#000000" points="566,-78 566,-130 1275,-130 1275,-78 566,-78"/>
</g>
<g id="clust6" class="cluster">
<title>cluster_AppModule_bootstrap</title>
<polygon fill="none" stroke="#000000" points="762,-208 762,-260 886,-260 886,-208 762,-208"/>
</g>
<g id="clust7" class="cluster">
<title>cluster_AppModule_providers</title>
<polygon fill="none" stroke="#000000" points="16,-78 16,-130 558,-130 558,-78 16,-78"/>
</g>
<!-- AppComponent -->
<g id="node1" class="node">
<title>AppComponent</title>
<polygon fill="#ffffb3" stroke="#000000" points="1396.9399,-122 1291.0601,-122 1291.0601,-86 1396.9399,-86 1396.9399,-122"/>
<text text-anchor="middle" x="1344" y="-99.8" font-family="Times,serif" font-size="14.00" fill="#000000">AppComponent</text>
</g>
<!-- AppModule -->
<g id="node2" class="node">
<title>AppModule</title>
<polygon fill="#8dd3c7" stroke="#000000" points="865.6571,-187 862.6571,-191 841.6571,-191 838.6571,-187 782.3429,-187 782.3429,-151 865.6571,-151 865.6571,-187"/>
<text text-anchor="middle" x="824" y="-164.8" font-family="Times,serif" font-size="14.00" fill="#000000">AppModule</text>
</g>
<!-- AppComponent&#45;&gt;AppModule -->
<g id="edge1" class="edge">
<title>AppComponent&#45;&gt;AppModule</title>
<path fill="none" stroke="#000000" d="M1344,-122.0109C1344,-144.4852 1344,-180 1344,-180 1344,-180 875.6748,-180 875.6748,-180"/>
<polygon fill="#000000" stroke="#000000" points="875.6748,-176.5001 865.6748,-180 875.6747,-183.5001 875.6748,-176.5001"/>
</g>
<!-- AppComponent  -->
<g id="node8" class="node">
<title>AppComponent </title>
<polygon fill="#80b1d3" stroke="#000000" points="878.439,-252 769.561,-252 769.561,-216 878.439,-216 878.439,-252"/>
<text text-anchor="middle" x="824" y="-229.8" font-family="Times,serif" font-size="14.00" fill="#000000">AppComponent </text>
</g>
<!-- AppModule&#45;&gt;AppComponent  -->
<g id="edge7" class="edge">
<title>AppModule&#45;&gt;AppComponent </title>
<path fill="none" stroke="#000000" stroke-dasharray="1,5" d="M824,-187.1061C824,-187.1061 824,-205.991 824,-205.991"/>
<polygon fill="#000000" stroke="#000000" points="820.5001,-205.9909 824,-215.991 827.5001,-205.991 820.5001,-205.9909"/>
</g>
<!-- AppRoutingModule -->
<g id="node3" class="node">
<title>AppRoutingModule</title>
<polygon fill="#8dd3c7" stroke="#000000" points="1267.2744,-122 1264.2744,-126 1243.2744,-126 1240.2744,-122 1138.7256,-122 1138.7256,-86 1267.2744,-86 1267.2744,-122"/>
<text text-anchor="middle" x="1203" y="-99.8" font-family="Times,serif" font-size="14.00" fill="#000000">AppRoutingModule</text>
</g>
<!-- AppRoutingModule&#45;&gt;AppModule -->
<g id="edge2" class="edge">
<title>AppRoutingModule&#45;&gt;AppModule</title>
<path fill="none" stroke="#000000" d="M1203,-122.1289C1203,-142.5724 1203,-173 1203,-173 1203,-173 876.0077,-173 876.0077,-173"/>
<polygon fill="#000000" stroke="#000000" points="876.0077,-169.5001 866.0077,-173 876.0077,-176.5001 876.0077,-169.5001"/>
</g>
<!-- LayoutModule -->
<g id="node4" class="node">
<title>LayoutModule</title>
<polygon fill="#8dd3c7" stroke="#000000" points="1120.7078,-122 1117.7078,-126 1096.7078,-126 1093.7078,-122 1021.2922,-122 1021.2922,-86 1120.7078,-86 1120.7078,-122"/>
<text text-anchor="middle" x="1071" y="-99.8" font-family="Times,serif" font-size="14.00" fill="#000000">LayoutModule</text>
</g>
<!-- LayoutModule&#45;&gt;AppModule -->
<g id="edge3" class="edge">
<title>LayoutModule&#45;&gt;AppModule</title>
<path fill="none" stroke="#000000" d="M1071,-122.2667C1071,-140.5552 1071,-166 1071,-166 1071,-166 875.9002,-166 875.9002,-166"/>
<polygon fill="#000000" stroke="#000000" points="875.9002,-162.5001 865.9002,-166 875.9001,-169.5001 875.9002,-162.5001"/>
</g>
<!-- LoginModule -->
<g id="node5" class="node">
<title>LoginModule</title>
<polygon fill="#8dd3c7" stroke="#000000" points="1003.493,-122 1000.493,-126 979.493,-126 976.493,-122 910.507,-122 910.507,-86 1003.493,-86 1003.493,-122"/>
<text text-anchor="middle" x="957" y="-99.8" font-family="Times,serif" font-size="14.00" fill="#000000">LoginModule</text>
</g>
<!-- LoginModule&#45;&gt;AppModule -->
<g id="edge4" class="edge">
<title>LoginModule&#45;&gt;AppModule</title>
<path fill="none" stroke="#000000" d="M957,-122.0091C957,-138.0494 957,-159 957,-159 957,-159 875.7171,-159 875.7171,-159"/>
<polygon fill="#000000" stroke="#000000" points="875.7172,-155.5001 865.7171,-159 875.7171,-162.5001 875.7172,-155.5001"/>
</g>
<!-- QuickSidebarModule -->
<g id="node6" class="node">
<title>QuickSidebarModule</title>
<polygon fill="#8dd3c7" stroke="#000000" points="892.0254,-122 889.0254,-126 868.0254,-126 865.0254,-122 755.9746,-122 755.9746,-86 892.0254,-86 892.0254,-122"/>
<text text-anchor="middle" x="824" y="-99.8" font-family="Times,serif" font-size="14.00" fill="#000000">QuickSidebarModule</text>
</g>
<!-- QuickSidebarModule&#45;&gt;AppModule -->
<g id="edge5" class="edge">
<title>QuickSidebarModule&#45;&gt;AppModule</title>
<path fill="none" stroke="#000000" d="M824,-122.1061C824,-122.1061 824,-140.991 824,-140.991"/>
<polygon fill="#000000" stroke="#000000" points="820.5001,-140.9909 824,-150.991 827.5001,-140.991 820.5001,-140.9909"/>
</g>
<!-- WorkAssignmentsModule -->
<g id="node7" class="node">
<title>WorkAssignmentsModule</title>
<polygon fill="#8dd3c7" stroke="#000000" points="737.752,-122 734.752,-126 713.752,-126 710.752,-122 574.248,-122 574.248,-86 737.752,-86 737.752,-122"/>
<text text-anchor="middle" x="656" y="-99.8" font-family="Times,serif" font-size="14.00" fill="#000000">WorkAssignmentsModule</text>
</g>
<!-- WorkAssignmentsModule&#45;&gt;AppModule -->
<g id="edge6" class="edge">
<title>WorkAssignmentsModule&#45;&gt;AppModule</title>
<path fill="none" stroke="#000000" d="M656,-122.0091C656,-138.0494 656,-159 656,-159 656,-159 772.0399,-159 772.0399,-159"/>
<polygon fill="#000000" stroke="#000000" points="772.0399,-162.5001 782.0399,-159 772.0398,-155.5001 772.0399,-162.5001"/>
</g>
<!-- AuthService -->
<g id="node9" class="node">
<title>AuthService</title>
<ellipse fill="#fdb462" stroke="#000000" cx="491" cy="-104" rx="59.1083" ry="18"/>
<text text-anchor="middle" x="491" y="-99.8" font-family="Times,serif" font-size="14.00" fill="#000000">AuthService</text>
</g>
<!-- AuthService&#45;&gt;AppModule -->
<g id="edge8" class="edge">
<title>AuthService&#45;&gt;AppModule</title>
<path fill="none" stroke="#000000" d="M491,-122.2667C491,-140.5552 491,-166 491,-166 491,-166 772.1625,-166 772.1625,-166"/>
<polygon fill="#000000" stroke="#000000" points="772.1625,-169.5001 782.1625,-166 772.1625,-162.5001 772.1625,-169.5001"/>
</g>
<!-- NoCacheHeadersInterceptor -->
<g id="node10" class="node">
<title>NoCacheHeadersInterceptor</title>
<ellipse fill="#fdb462" stroke="#000000" cx="293" cy="-104" rx="120.9057" ry="18"/>
<text text-anchor="middle" x="293" y="-99.8" font-family="Times,serif" font-size="14.00" fill="#000000">NoCacheHeadersInterceptor</text>
</g>
<!-- NoCacheHeadersInterceptor&#45;&gt;AppModule -->
<g id="edge9" class="edge">
<title>NoCacheHeadersInterceptor&#45;&gt;AppModule</title>
<path fill="none" stroke="#000000" d="M293,-122.1289C293,-142.5724 293,-173 293,-173 293,-173 772.3333,-173 772.3333,-173"/>
<polygon fill="#000000" stroke="#000000" points="772.3334,-176.5001 782.3333,-173 772.3333,-169.5001 772.3334,-176.5001"/>
</g>
<!-- ServerService -->
<g id="node11" class="node">
<title>ServerService</title>
<ellipse fill="#fdb462" stroke="#000000" cx="89" cy="-104" rx="65.3839" ry="18"/>
<text text-anchor="middle" x="89" y="-99.8" font-family="Times,serif" font-size="14.00" fill="#000000">ServerService</text>
</g>
<!-- ServerService&#45;&gt;AppModule -->
<g id="edge10" class="edge">
<title>ServerService&#45;&gt;AppModule</title>
<path fill="none" stroke="#000000" d="M89,-122.0109C89,-144.4852 89,-180 89,-180 89,-180 772.1107,-180 772.1107,-180"/>
<polygon fill="#000000" stroke="#000000" points="772.1107,-183.5001 782.1107,-180 772.1106,-176.5001 772.1107,-183.5001"/>
</g>
</g>
</svg>
