<?xml version="1.0" encoding="UTF-8" standalone="no"?>
<!DOCTYPE svg PUBLIC "-//W3C//DTD SVG 1.1//EN"
 "http://www.w3.org/Graphics/SVG/1.1/DTD/svg11.dtd">
<!-- Generated by graphviz version 2.40.1 (20161225.0304)
 -->
<!-- Title: dependencies Pages: 1 -->
<svg width="2080pt" height="284pt"
 viewBox="0.00 0.00 2080.00 284.00" xmlns="http://www.w3.org/2000/svg" xmlns:xlink="http://www.w3.org/1999/xlink">
<g id="graph0" class="graph" transform="scale(1 1) rotate(0) translate(4 280)">
<title>dependencies</title>
<polygon fill="#ffffff" stroke="transparent" points="-4,4 -4,-280 2076,-280 2076,4 -4,4"/>
<text text-anchor="start" x="1015.0091" y="-42.4" font-family="sans-serif" font-weight="bold" font-size="14.00" fill="#000000">Legend</text>
<polygon fill="#ffffb3" stroke="transparent" points="802,-10 802,-30 822,-30 822,-10 802,-10"/>
<text text-anchor="start" x="825.629" y="-15.4" font-family="sans-serif" font-size="14.00" fill="#000000"> &#160;Declarations</text>
<polygon fill="#8dd3c7" stroke="transparent" points="915,-10 915,-30 935,-30 935,-10 915,-10"/>
<text text-anchor="start" x="938.7251" y="-15.4" font-family="sans-serif" font-size="14.00" fill="#000000"> &#160;Module</text>
<polygon fill="#80b1d3" stroke="transparent" points="1001,-10 1001,-30 1021,-30 1021,-10 1001,-10"/>
<text text-anchor="start" x="1024.7812" y="-15.4" font-family="sans-serif" font-size="14.00" fill="#000000"> &#160;Bootstrap</text>
<polygon fill="#fdb462" stroke="transparent" points="1098,-10 1098,-30 1118,-30 1118,-10 1098,-10"/>
<text text-anchor="start" x="1121.6732" y="-15.4" font-family="sans-serif" font-size="14.00" fill="#000000"> &#160;Providers</text>
<polygon fill="#fb8072" stroke="transparent" points="1194,-10 1194,-30 1214,-30 1214,-10 1194,-10"/>
<text text-anchor="start" x="1217.7258" y="-15.4" font-family="sans-serif" font-size="14.00" fill="#000000"> &#160;Exports</text>
<g id="clust1" class="cluster">
<title>cluster_ComponentsModule</title>
<polygon fill="none" stroke="#000000" stroke-dasharray="1,5" points="8,-70 8,-268 2064,-268 2064,-70 8,-70"/>
</g>
<g id="clust2" class="cluster">
<title>cluster_ComponentsModule_declarations</title>
<polygon fill="none" stroke="#000000" points="16,-78 16,-130 2056,-130 2056,-78 16,-78"/>
</g>
<g id="clust15" class="cluster">
<title>cluster_ComponentsModule_exports</title>
<polygon fill="none" stroke="#000000" points="183,-208 183,-260 1921,-260 1921,-208 183,-208"/>
</g>
<!-- ApiCallResComponent -->
<g id="node1" class="node">
<title>ApiCallResComponent</title>
<polygon fill="#ffffb3" stroke="#000000" points="2048.1582,-122 1901.8418,-122 1901.8418,-86 2048.1582,-86 2048.1582,-122"/>
<text text-anchor="middle" x="1975" y="-99.8" font-family="Times,serif" font-size="14.00" fill="#000000">ApiCallResComponent</text>
</g>
<!-- ComponentsModule -->
<g id="node12" class="node">
<title>ComponentsModule</title>
<polygon fill="#8dd3c7" stroke="#000000" points="1182.3272,-187 1179.3272,-191 1158.3272,-191 1155.3272,-187 1051.6728,-187 1051.6728,-151 1182.3272,-151 1182.3272,-187"/>
<text text-anchor="middle" x="1117" y="-164.8" font-family="Times,serif" font-size="14.00" fill="#000000">ComponentsModule</text>
</g>
<!-- ApiCallResComponent&#45;&gt;ComponentsModule -->
<g id="edge1" class="edge">
<title>ApiCallResComponent&#45;&gt;ComponentsModule</title>
<path fill="none" stroke="#000000" d="M1907.375,-122.1061C1907.375,-141.3391 1907.375,-169 1907.375,-169 1907.375,-169 1192.3521,-169 1192.3521,-169"/>
<polygon fill="#000000" stroke="#000000" points="1192.3522,-165.5001 1182.3521,-169 1192.3521,-172.5001 1192.3522,-165.5001"/>
</g>
<!-- BreadcumbLayoutComponent -->
<g id="node2" class="node">
<title>BreadcumbLayoutComponent</title>
<polygon fill="#ffffb3" stroke="#000000" points="1883.5224,-122 1698.4776,-122 1698.4776,-86 1883.5224,-86 1883.5224,-122"/>
<text text-anchor="middle" x="1791" y="-99.8" font-family="Times,serif" font-size="14.00" fill="#000000">BreadcumbLayoutComponent</text>
</g>
<!-- BreadcumbLayoutComponent&#45;&gt;ComponentsModule -->
<g id="edge2" class="edge">
<title>BreadcumbLayoutComponent&#45;&gt;ComponentsModule</title>
<path fill="none" stroke="#000000" d="M1721.375,-122.2667C1721.375,-140.5552 1721.375,-166 1721.375,-166 1721.375,-166 1192.2529,-166 1192.2529,-166"/>
<polygon fill="#000000" stroke="#000000" points="1192.253,-162.5001 1182.2529,-166 1192.2529,-169.5001 1192.253,-162.5001"/>
</g>
<!-- InfoModelComponent -->
<g id="node3" class="node">
<title>InfoModelComponent</title>
<polygon fill="#ffffb3" stroke="#000000" points="1680.7035,-122 1539.2965,-122 1539.2965,-86 1680.7035,-86 1680.7035,-122"/>
<text text-anchor="middle" x="1610" y="-99.8" font-family="Times,serif" font-size="14.00" fill="#000000">InfoModelComponent</text>
</g>
<!-- InfoModelComponent&#45;&gt;ComponentsModule -->
<g id="edge3" class="edge">
<title>InfoModelComponent&#45;&gt;ComponentsModule</title>
<path fill="none" stroke="#000000" d="M1547.4437,-122.0336C1547.4437,-139.0597 1547.4437,-162 1547.4437,-162 1547.4437,-162 1192.3751,-162 1192.3751,-162"/>
<polygon fill="#000000" stroke="#000000" points="1192.3752,-158.5001 1182.3751,-162 1192.3751,-165.5001 1192.3752,-158.5001"/>
</g>
<!-- LargeTextElipsePipe -->
<g id="node4" class="node">
<title>LargeTextElipsePipe</title>
<polygon fill="#ffffb3" stroke="#000000" points="1521.1811,-122 1386.8189,-122 1386.8189,-86 1521.1811,-86 1521.1811,-122"/>
<text text-anchor="middle" x="1454" y="-99.8" font-family="Times,serif" font-size="14.00" fill="#000000">LargeTextElipsePipe</text>
</g>
<!-- LargeTextElipsePipe&#45;&gt;ComponentsModule -->
<g id="edge4" class="edge">
<title>LargeTextElipsePipe&#45;&gt;ComponentsModule</title>
<path fill="none" stroke="#000000" d="M1478.2764,-122.0091C1478.2764,-138.0494 1478.2764,-159 1478.2764,-159 1478.2764,-159 1192.4244,-159 1192.4244,-159"/>
<polygon fill="#000000" stroke="#000000" points="1192.4245,-155.5001 1182.4244,-159 1192.4244,-162.5001 1192.4245,-155.5001"/>
</g>
<!-- NoDataFoundComponent -->
<g id="node5" class="node">
<title>NoDataFoundComponent</title>
<polygon fill="#ffffb3" stroke="#000000" points="1369.1484,-122 1208.8516,-122 1208.8516,-86 1369.1484,-86 1369.1484,-122"/>
<text text-anchor="middle" x="1289" y="-99.8" font-family="Times,serif" font-size="14.00" fill="#000000">NoDataFoundComponent</text>
</g>
<!-- NoDataFoundComponent&#45;&gt;ComponentsModule -->
<g id="edge5" class="edge">
<title>NoDataFoundComponent&#45;&gt;ComponentsModule</title>
<path fill="none" stroke="#000000" d="M1316.5247,-122.1243C1316.5247,-136.7832 1316.5247,-155 1316.5247,-155 1316.5247,-155 1192.3318,-155 1192.3318,-155"/>
<polygon fill="#000000" stroke="#000000" points="1192.3319,-151.5001 1182.3318,-155 1192.3318,-158.5001 1192.3319,-151.5001"/>
</g>
<!-- PageLoaderComponent -->
<g id="node6" class="node">
<title>PageLoaderComponent</title>
<polygon fill="#ffffb3" stroke="#000000" points="1191.1867,-122 1042.8133,-122 1042.8133,-86 1191.1867,-86 1191.1867,-122"/>
<text text-anchor="middle" x="1117" y="-99.8" font-family="Times,serif" font-size="14.00" fill="#000000">PageLoaderComponent</text>
</g>
<!-- PageLoaderComponent&#45;&gt;ComponentsModule -->
<g id="edge6" class="edge">
<title>PageLoaderComponent&#45;&gt;ComponentsModule</title>
<path fill="none" stroke="#000000" d="M1117,-122.1061C1117,-122.1061 1117,-140.991 1117,-140.991"/>
<polygon fill="#000000" stroke="#000000" points="1113.5001,-140.9909 1117,-150.991 1120.5001,-140.991 1113.5001,-140.9909"/>
</g>
<!-- SideBarMenuComponent -->
<g id="node7" class="node">
<title>SideBarMenuComponent</title>
<polygon fill="#ffffb3" stroke="#000000" points="1024.5912,-122 865.4088,-122 865.4088,-86 1024.5912,-86 1024.5912,-122"/>
<text text-anchor="middle" x="945" y="-99.8" font-family="Times,serif" font-size="14.00" fill="#000000">SideBarMenuComponent</text>
</g>
<!-- SideBarMenuComponent&#45;&gt;ComponentsModule -->
<g id="edge7" class="edge">
<title>SideBarMenuComponent&#45;&gt;ComponentsModule</title>
<path fill="none" stroke="#000000" d="M970.6819,-122.1243C970.6819,-136.7832 970.6819,-155 970.6819,-155 970.6819,-155 1041.5442,-155 1041.5442,-155"/>
<polygon fill="#000000" stroke="#000000" points="1041.5442,-158.5001 1051.5442,-155 1041.5442,-151.5001 1041.5442,-158.5001"/>
</g>
<!-- SpecialCharacterDirective -->
<g id="node8" class="node">
<title>SpecialCharacterDirective</title>
<polygon fill="#ffffb3" stroke="#000000" points="847.6975,-122 684.3025,-122 684.3025,-86 847.6975,-86 847.6975,-122"/>
<text text-anchor="middle" x="766" y="-99.8" font-family="Times,serif" font-size="14.00" fill="#000000">SpecialCharacterDirective</text>
</g>
<!-- SpecialCharacterDirective&#45;&gt;ComponentsModule -->
<g id="edge8" class="edge">
<title>SpecialCharacterDirective&#45;&gt;ComponentsModule</title>
<path fill="none" stroke="#000000" d="M790.0091,-122.0091C790.0091,-138.0494 790.0091,-159 790.0091,-159 790.0091,-159 1041.6144,-159 1041.6144,-159"/>
<polygon fill="#000000" stroke="#000000" points="1041.6145,-162.5001 1051.6144,-159 1041.6144,-155.5001 1041.6145,-162.5001"/>
</g>
<!-- WebUserHeaderRightMenuComponent -->
<g id="node9" class="node">
<title>WebUserHeaderRightMenuComponent</title>
<polygon fill="#ffffb3" stroke="#000000" points="666.3763,-122 427.6237,-122 427.6237,-86 666.3763,-86 666.3763,-122"/>
<text text-anchor="middle" x="547" y="-99.8" font-family="Times,serif" font-size="14.00" fill="#000000">WebUserHeaderRightMenuComponent</text>
</g>
<!-- WebUserHeaderRightMenuComponent&#45;&gt;ComponentsModule -->
<g id="edge9" class="edge">
<title>WebUserHeaderRightMenuComponent&#45;&gt;ComponentsModule</title>
<path fill="none" stroke="#000000" d="M633.625,-122.0336C633.625,-139.0597 633.625,-162 633.625,-162 633.625,-162 1041.8099,-162 1041.8099,-162"/>
<polygon fill="#000000" stroke="#000000" points="1041.8099,-165.5001 1051.8099,-162 1041.8099,-158.5001 1041.8099,-165.5001"/>
</g>
<!-- WebuserHeaderComponent -->
<g id="node10" class="node">
<title>WebuserHeaderComponent</title>
<polygon fill="#ffffb3" stroke="#000000" points="409.9931,-122 238.0069,-122 238.0069,-86 409.9931,-86 409.9931,-122"/>
<text text-anchor="middle" x="324" y="-99.8" font-family="Times,serif" font-size="14.00" fill="#000000">WebuserHeaderComponent</text>
</g>
<!-- WebuserHeaderComponent&#45;&gt;ComponentsModule -->
<g id="edge10" class="edge">
<title>WebuserHeaderComponent&#45;&gt;ComponentsModule</title>
<path fill="none" stroke="#000000" d="M399.5336,-122.2667C399.5336,-140.5552 399.5336,-166 399.5336,-166 399.5336,-166 1041.7463,-166 1041.7463,-166"/>
<polygon fill="#000000" stroke="#000000" points="1041.7463,-169.5001 1051.7463,-166 1041.7462,-162.5001 1041.7463,-169.5001"/>
</g>
<!-- WebuserSideLayoutComponent -->
<g id="node11" class="node">
<title>WebuserSideLayoutComponent</title>
<polygon fill="#ffffb3" stroke="#000000" points="219.6274,-122 24.3726,-122 24.3726,-86 219.6274,-86 219.6274,-122"/>
<text text-anchor="middle" x="122" y="-99.8" font-family="Times,serif" font-size="14.00" fill="#000000">WebuserSideLayoutComponent</text>
</g>
<!-- WebuserSideLayoutComponent&#45;&gt;ComponentsModule -->
<g id="edge11" class="edge">
<title>WebuserSideLayoutComponent&#45;&gt;ComponentsModule</title>
<path fill="none" stroke="#000000" d="M205.625,-122.1061C205.625,-141.3391 205.625,-169 205.625,-169 205.625,-169 1041.8219,-169 1041.8219,-169"/>
<polygon fill="#000000" stroke="#000000" points="1041.8219,-172.5001 1051.8219,-169 1041.8219,-165.5001 1041.8219,-172.5001"/>
</g>
<!-- ApiCallResComponent  -->
<g id="node13" class="node">
<title>ApiCallResComponent </title>
<polygon fill="#fb8072" stroke="#000000" points="1913.1579,-252 1762.8421,-252 1762.8421,-216 1913.1579,-216 1913.1579,-252"/>
<text text-anchor="middle" x="1838" y="-229.8" font-family="Times,serif" font-size="14.00" fill="#000000">ApiCallResComponent </text>
</g>
<!-- ComponentsModule&#45;&gt;ApiCallResComponent  -->
<g id="edge12" class="edge">
<title>ComponentsModule&#45;&gt;ApiCallResComponent </title>
<path fill="none" stroke="#000000" stroke-dasharray="5,2" d="M1182.1848,-173C1357.0456,-173 1823.341,-173 1823.341,-173 1823.341,-173 1823.341,-205.698 1823.341,-205.698"/>
<polygon fill="#000000" stroke="#000000" points="1819.8411,-205.698 1823.341,-215.698 1826.8411,-205.698 1819.8411,-205.698"/>
</g>
<!-- BreadcumbLayoutComponent  -->
<g id="node14" class="node">
<title>BreadcumbLayoutComponent </title>
<polygon fill="#fb8072" stroke="#000000" points="1744.5218,-252 1555.4782,-252 1555.4782,-216 1744.5218,-216 1744.5218,-252"/>
<text text-anchor="middle" x="1650" y="-229.8" font-family="Times,serif" font-size="14.00" fill="#000000">BreadcumbLayoutComponent </text>
</g>
<!-- ComponentsModule&#45;&gt;BreadcumbLayoutComponent  -->
<g id="edge13" class="edge">
<title>ComponentsModule&#45;&gt;BreadcumbLayoutComponent </title>
<path fill="none" stroke="#000000" stroke-dasharray="5,2" d="M1182.2459,-177C1317.9387,-177 1618.0454,-177 1618.0454,-177 1618.0454,-177 1618.0454,-205.9648 1618.0454,-205.9648"/>
<polygon fill="#000000" stroke="#000000" points="1614.5455,-205.9648 1618.0454,-215.9648 1621.5455,-205.9649 1614.5455,-205.9648"/>
</g>
<!-- InfoModelComponent  -->
<g id="node15" class="node">
<title>InfoModelComponent </title>
<polygon fill="#fb8072" stroke="#000000" points="1537.2037,-252 1392.7963,-252 1392.7963,-216 1537.2037,-216 1537.2037,-252"/>
<text text-anchor="middle" x="1465" y="-229.8" font-family="Times,serif" font-size="14.00" fill="#000000">InfoModelComponent </text>
</g>
<!-- ComponentsModule&#45;&gt;InfoModelComponent  -->
<g id="edge14" class="edge">
<title>ComponentsModule&#45;&gt;InfoModelComponent </title>
<path fill="none" stroke="#000000" stroke-dasharray="5,2" d="M1182.2141,-180C1275.3844,-180 1435.4624,-180 1435.4624,-180 1435.4624,-180 1435.4624,-205.7181 1435.4624,-205.7181"/>
<polygon fill="#000000" stroke="#000000" points="1431.9625,-205.718 1435.4624,-215.7181 1438.9625,-205.7181 1431.9625,-205.718"/>
</g>
<!-- NoDataFoundComponent  -->
<g id="node16" class="node">
<title>NoDataFoundComponent </title>
<polygon fill="#fb8072" stroke="#000000" points="1375.1481,-252 1210.8519,-252 1210.8519,-216 1375.1481,-216 1375.1481,-252"/>
<text text-anchor="middle" x="1293" y="-229.8" font-family="Times,serif" font-size="14.00" fill="#000000">NoDataFoundComponent </text>
</g>
<!-- ComponentsModule&#45;&gt;NoDataFoundComponent  -->
<g id="edge15" class="edge">
<title>ComponentsModule&#45;&gt;NoDataFoundComponent </title>
<path fill="none" stroke="#000000" stroke-dasharray="5,2" d="M1182.2103,-184C1221.3971,-184 1263.7253,-184 1263.7253,-184 1263.7253,-184 1263.7253,-205.9489 1263.7253,-205.9489"/>
<polygon fill="#000000" stroke="#000000" points="1260.2254,-205.9488 1263.7253,-215.9489 1267.2254,-205.9489 1260.2254,-205.9488"/>
</g>
<!-- PageLoaderComponent  -->
<g id="node17" class="node">
<title>PageLoaderComponent </title>
<polygon fill="#fb8072" stroke="#000000" points="1192.6869,-252 1041.3131,-252 1041.3131,-216 1192.6869,-216 1192.6869,-252"/>
<text text-anchor="middle" x="1117" y="-229.8" font-family="Times,serif" font-size="14.00" fill="#000000">PageLoaderComponent </text>
</g>
<!-- ComponentsModule&#45;&gt;PageLoaderComponent  -->
<g id="edge16" class="edge">
<title>ComponentsModule&#45;&gt;PageLoaderComponent </title>
<path fill="none" stroke="#000000" stroke-dasharray="5,2" d="M1117,-187.1061C1117,-187.1061 1117,-205.991 1117,-205.991"/>
<polygon fill="#000000" stroke="#000000" points="1113.5001,-205.9909 1117,-215.991 1120.5001,-205.991 1113.5001,-205.9909"/>
</g>
<!-- SideBarMenuComponent  -->
<g id="node18" class="node">
<title>SideBarMenuComponent </title>
<polygon fill="#fb8072" stroke="#000000" points="1023.0917,-252 860.9083,-252 860.9083,-216 1023.0917,-216 1023.0917,-252"/>
<text text-anchor="middle" x="942" y="-229.8" font-family="Times,serif" font-size="14.00" fill="#000000">SideBarMenuComponent </text>
</g>
<!-- ComponentsModule&#45;&gt;SideBarMenuComponent  -->
<g id="edge17" class="edge">
<title>ComponentsModule&#45;&gt;SideBarMenuComponent </title>
<path fill="none" stroke="#000000" stroke-dasharray="5,2" d="M1051.5867,-184C993.6057,-184 918.0681,-184 918.0681,-184 918.0681,-184 918.0681,-205.9489 918.0681,-205.9489"/>
<polygon fill="#000000" stroke="#000000" points="914.5682,-205.9488 918.0681,-215.9489 921.5682,-205.9489 914.5682,-205.9488"/>
</g>
<!-- WebUserHeaderRightMenuComponent  -->
<g id="node19" class="node">
<title>WebUserHeaderRightMenuComponent </title>
<polygon fill="#fb8072" stroke="#000000" points="842.876,-252 601.124,-252 601.124,-216 842.876,-216 842.876,-252"/>
<text text-anchor="middle" x="722" y="-229.8" font-family="Times,serif" font-size="14.00" fill="#000000">WebUserHeaderRightMenuComponent </text>
</g>
<!-- ComponentsModule&#45;&gt;WebUserHeaderRightMenuComponent  -->
<g id="edge18" class="edge">
<title>ComponentsModule&#45;&gt;WebUserHeaderRightMenuComponent </title>
<path fill="none" stroke="#000000" stroke-dasharray="5,2" d="M1051.6895,-180C943.0648,-180 737.0803,-180 737.0803,-180 737.0803,-180 737.0803,-205.7181 737.0803,-205.7181"/>
<polygon fill="#000000" stroke="#000000" points="733.5804,-205.718 737.0803,-215.7181 740.5804,-205.7181 733.5804,-205.718"/>
</g>
<!-- WebuserHeaderComponent  -->
<g id="node20" class="node">
<title>WebuserHeaderComponent </title>
<polygon fill="#fb8072" stroke="#000000" points="583.4924,-252 408.5076,-252 408.5076,-216 583.4924,-216 583.4924,-252"/>
<text text-anchor="middle" x="496" y="-229.8" font-family="Times,serif" font-size="14.00" fill="#000000">WebuserHeaderComponent </text>
</g>
<!-- ComponentsModule&#45;&gt;WebuserHeaderComponent  -->
<g id="edge19" class="edge">
<title>ComponentsModule&#45;&gt;WebuserHeaderComponent </title>
<path fill="none" stroke="#000000" stroke-dasharray="5,2" d="M1051.5753,-177C893.8647,-177 505.6541,-177 505.6541,-177 505.6541,-177 505.6541,-205.9648 505.6541,-205.9648"/>
<polygon fill="#000000" stroke="#000000" points="502.154,-205.9649 505.6541,-215.9648 509.154,-205.9648 502.154,-205.9649"/>
</g>
<!-- WebuserSideLayoutComponent  -->
<g id="node21" class="node">
<title>WebuserSideLayoutComponent </title>
<polygon fill="#fb8072" stroke="#000000" points="390.627,-252 191.373,-252 191.373,-216 390.627,-216 390.627,-252"/>
<text text-anchor="middle" x="291" y="-229.8" font-family="Times,serif" font-size="14.00" fill="#000000">WebuserSideLayoutComponent </text>
</g>
<!-- ComponentsModule&#45;&gt;WebuserSideLayoutComponent  -->
<g id="edge20" class="edge">
<title>ComponentsModule&#45;&gt;WebuserSideLayoutComponent </title>
<path fill="none" stroke="#000000" stroke-dasharray="5,2" d="M1051.6609,-173C860.2845,-173 314.4086,-173 314.4086,-173 314.4086,-173 314.4086,-205.698 314.4086,-205.698"/>
<polygon fill="#000000" stroke="#000000" points="310.9087,-205.698 314.4086,-215.698 317.9087,-205.698 310.9087,-205.698"/>
</g>
</g>
</svg>
