<?xml version="1.0" encoding="UTF-8" standalone="no"?>
<!DOCTYPE svg PUBLIC "-//W3C//DTD SVG 1.1//EN"
 "http://www.w3.org/Graphics/SVG/1.1/DTD/svg11.dtd">
<!-- Generated by graphviz version 2.40.1 (20161225.0304)
 -->
<!-- Title: dependencies Pages: 1 -->
<svg width="1469pt" height="284pt"
 viewBox="0.00 0.00 1469.00 284.00" xmlns="http://www.w3.org/2000/svg" xmlns:xlink="http://www.w3.org/1999/xlink">
<g id="graph0" class="graph" transform="scale(1 1) rotate(0) translate(4 280)">
<title>dependencies</title>
<polygon fill="#ffffff" stroke="transparent" points="-4,4 -4,-280 1465,-280 1465,4 -4,4"/>
<text text-anchor="start" x="709.5091" y="-42.4" font-family="sans-serif" font-weight="bold" font-size="14.00" fill="#000000">Legend</text>
<polygon fill="#ffffb3" stroke="transparent" points="496.5,-10 496.5,-30 516.5,-30 516.5,-10 496.5,-10"/>
<text text-anchor="start" x="520.129" y="-15.4" font-family="sans-serif" font-size="14.00" fill="#000000"> &#160;Declarations</text>
<polygon fill="#8dd3c7" stroke="transparent" points="609.5,-10 609.5,-30 629.5,-30 629.5,-10 609.5,-10"/>
<text text-anchor="start" x="633.2251" y="-15.4" font-family="sans-serif" font-size="14.00" fill="#000000"> &#160;Module</text>
<polygon fill="#80b1d3" stroke="transparent" points="695.5,-10 695.5,-30 715.5,-30 715.5,-10 695.5,-10"/>
<text text-anchor="start" x="719.2812" y="-15.4" font-family="sans-serif" font-size="14.00" fill="#000000"> &#160;Bootstrap</text>
<polygon fill="#fdb462" stroke="transparent" points="792.5,-10 792.5,-30 812.5,-30 812.5,-10 792.5,-10"/>
<text text-anchor="start" x="816.1732" y="-15.4" font-family="sans-serif" font-size="14.00" fill="#000000"> &#160;Providers</text>
<polygon fill="#fb8072" stroke="transparent" points="888.5,-10 888.5,-30 908.5,-30 908.5,-10 888.5,-10"/>
<text text-anchor="start" x="912.2258" y="-15.4" font-family="sans-serif" font-size="14.00" fill="#000000"> &#160;Exports</text>
<g id="clust1" class="cluster">
<title>cluster_WorkAssignmentsModule</title>
<polygon fill="none" stroke="#000000" stroke-dasharray="1,5" points="8,-70 8,-268 1453,-268 1453,-70 8,-70"/>
</g>
<g id="clust2" class="cluster">
<title>cluster_WorkAssignmentsModule_declarations</title>
<polygon fill="none" stroke="#000000" points="332,-78 332,-130 1445,-130 1445,-78 332,-78"/>
</g>
<g id="clust8" class="cluster">
<title>cluster_WorkAssignmentsModule_imports</title>
<polygon fill="none" stroke="#000000" points="16,-78 16,-130 324,-130 324,-78 16,-78"/>
</g>
<g id="clust9" class="cluster">
<title>cluster_WorkAssignmentsModule_exports</title>
<polygon fill="none" stroke="#000000" points="310,-208 310,-260 995,-260 995,-208 310,-208"/>
</g>
<!-- WorkAssignmentCreateComponent -->
<g id="node1" class="node">
<title>WorkAssignmentCreateComponent</title>
<polygon fill="#ffffb3" stroke="#000000" points="1437.1217,-122 1220.8783,-122 1220.8783,-86 1437.1217,-86 1437.1217,-122"/>
<text text-anchor="middle" x="1329" y="-99.8" font-family="Times,serif" font-size="14.00" fill="#000000">WorkAssignmentCreateComponent</text>
</g>
<!-- WorkAssignmentsModule -->
<g id="node6" class="node">
<title>WorkAssignmentsModule</title>
<polygon fill="#8dd3c7" stroke="#000000" points="726.752,-187 723.752,-191 702.752,-191 699.752,-187 563.248,-187 563.248,-151 726.752,-151 726.752,-187"/>
<text text-anchor="middle" x="645" y="-164.8" font-family="Times,serif" font-size="14.00" fill="#000000">WorkAssignmentsModule</text>
</g>
<!-- WorkAssignmentCreateComponent&#45;&gt;WorkAssignmentsModule -->
<g id="edge1" class="edge">
<title>WorkAssignmentCreateComponent&#45;&gt;WorkAssignmentsModule</title>
<path fill="none" stroke="#000000" d="M1329,-122.1289C1329,-142.5724 1329,-173 1329,-173 1329,-173 736.827,-173 736.827,-173"/>
<polygon fill="#000000" stroke="#000000" points="736.827,-169.5001 726.827,-173 736.8269,-176.5001 736.827,-169.5001"/>
</g>
<!-- WorkAssignmentDeleteComponent -->
<g id="node2" class="node">
<title>WorkAssignmentDeleteComponent</title>
<polygon fill="#ffffb3" stroke="#000000" points="1202.1217,-122 985.8783,-122 985.8783,-86 1202.1217,-86 1202.1217,-122"/>
<text text-anchor="middle" x="1094" y="-99.8" font-family="Times,serif" font-size="14.00" fill="#000000">WorkAssignmentDeleteComponent</text>
</g>
<!-- WorkAssignmentDeleteComponent&#45;&gt;WorkAssignmentsModule -->
<g id="edge2" class="edge">
<title>WorkAssignmentDeleteComponent&#45;&gt;WorkAssignmentsModule</title>
<path fill="none" stroke="#000000" d="M1094.6857,-122.2667C1094.6857,-140.5552 1094.6857,-166 1094.6857,-166 1094.6857,-166 736.9564,-166 736.9564,-166"/>
<polygon fill="#000000" stroke="#000000" points="736.9564,-162.5001 726.9564,-166 736.9564,-169.5001 736.9564,-162.5001"/>
</g>
<!-- WorkAssignmentEditComponent -->
<g id="node3" class="node">
<title>WorkAssignmentEditComponent</title>
<polygon fill="#ffffb3" stroke="#000000" points="967.924,-122 764.076,-122 764.076,-86 967.924,-86 967.924,-122"/>
<text text-anchor="middle" x="866" y="-99.8" font-family="Times,serif" font-size="14.00" fill="#000000">WorkAssignmentEditComponent</text>
</g>
<!-- WorkAssignmentEditComponent&#45;&gt;WorkAssignmentsModule -->
<g id="edge3" class="edge">
<title>WorkAssignmentEditComponent&#45;&gt;WorkAssignmentsModule</title>
<path fill="none" stroke="#000000" d="M900.7876,-122.0091C900.7876,-138.0494 900.7876,-159 900.7876,-159 900.7876,-159 736.9883,-159 736.9883,-159"/>
<polygon fill="#000000" stroke="#000000" points="736.9883,-155.5001 726.9883,-159 736.9882,-162.5001 736.9883,-155.5001"/>
</g>
<!-- WorkAssignmentListComponent -->
<g id="node4" class="node">
<title>WorkAssignmentListComponent</title>
<polygon fill="#ffffb3" stroke="#000000" points="745.8682,-122 544.1318,-122 544.1318,-86 745.8682,-86 745.8682,-122"/>
<text text-anchor="middle" x="645" y="-99.8" font-family="Times,serif" font-size="14.00" fill="#000000">WorkAssignmentListComponent</text>
</g>
<!-- WorkAssignmentListComponent&#45;&gt;WorkAssignmentsModule -->
<g id="edge4" class="edge">
<title>WorkAssignmentListComponent&#45;&gt;WorkAssignmentsModule</title>
<path fill="none" stroke="#000000" d="M645,-122.1061C645,-122.1061 645,-140.991 645,-140.991"/>
<polygon fill="#000000" stroke="#000000" points="641.5001,-140.9909 645,-150.991 648.5001,-140.991 641.5001,-140.9909"/>
</g>
<!-- WorkAssignmentsComponent -->
<g id="node5" class="node">
<title>WorkAssignmentsComponent</title>
<polygon fill="#ffffb3" stroke="#000000" points="525.535,-122 340.465,-122 340.465,-86 525.535,-86 525.535,-122"/>
<text text-anchor="middle" x="433" y="-99.8" font-family="Times,serif" font-size="14.00" fill="#000000">WorkAssignmentsComponent</text>
</g>
<!-- WorkAssignmentsComponent&#45;&gt;WorkAssignmentsModule -->
<g id="edge5" class="edge">
<title>WorkAssignmentsComponent&#45;&gt;WorkAssignmentsModule</title>
<path fill="none" stroke="#000000" d="M462.5337,-122.0091C462.5337,-138.0494 462.5337,-159 462.5337,-159 462.5337,-159 553.1072,-159 553.1072,-159"/>
<polygon fill="#000000" stroke="#000000" points="553.1073,-162.5001 563.1072,-159 553.1072,-155.5001 553.1073,-162.5001"/>
</g>
<!-- WorkAssignmentCreateComponent  -->
<g id="node9" class="node">
<title>WorkAssignmentCreateComponent </title>
<polygon fill="#fb8072" stroke="#000000" points="987.1214,-252 766.8786,-252 766.8786,-216 987.1214,-216 987.1214,-252"/>
<text text-anchor="middle" x="877" y="-229.8" font-family="Times,serif" font-size="14.00" fill="#000000">WorkAssignmentCreateComponent </text>
</g>
<!-- WorkAssignmentsModule&#45;&gt;WorkAssignmentCreateComponent  -->
<g id="edge8" class="edge">
<title>WorkAssignmentsModule&#45;&gt;WorkAssignmentCreateComponent </title>
<path fill="none" stroke="#000000" stroke-dasharray="5,2" d="M727.0143,-180C777.9832,-180 833.8635,-180 833.8635,-180 833.8635,-180 833.8635,-205.7181 833.8635,-205.7181"/>
<polygon fill="#000000" stroke="#000000" points="830.3636,-205.718 833.8635,-215.7181 837.3636,-205.7181 830.3636,-205.718"/>
</g>
<!-- WorkAssignmentEditComponent  -->
<g id="node10" class="node">
<title>WorkAssignmentEditComponent </title>
<polygon fill="#fb8072" stroke="#000000" points="748.4236,-252 541.5764,-252 541.5764,-216 748.4236,-216 748.4236,-252"/>
<text text-anchor="middle" x="645" y="-229.8" font-family="Times,serif" font-size="14.00" fill="#000000">WorkAssignmentEditComponent </text>
</g>
<!-- WorkAssignmentsModule&#45;&gt;WorkAssignmentEditComponent  -->
<g id="edge9" class="edge">
<title>WorkAssignmentsModule&#45;&gt;WorkAssignmentEditComponent </title>
<path fill="none" stroke="#000000" stroke-dasharray="5,2" d="M645,-187.1061C645,-187.1061 645,-205.991 645,-205.991"/>
<polygon fill="#000000" stroke="#000000" points="641.5001,-205.9909 645,-215.991 648.5001,-205.991 641.5001,-205.9909"/>
</g>
<!-- WorkAssignmentListComponent  -->
<g id="node11" class="node">
<title>WorkAssignmentListComponent </title>
<polygon fill="#fb8072" stroke="#000000" points="523.8685,-252 318.1315,-252 318.1315,-216 523.8685,-216 523.8685,-252"/>
<text text-anchor="middle" x="421" y="-229.8" font-family="Times,serif" font-size="14.00" fill="#000000">WorkAssignmentListComponent </text>
</g>
<!-- WorkAssignmentsModule&#45;&gt;WorkAssignmentListComponent  -->
<g id="edge10" class="edge">
<title>WorkAssignmentsModule&#45;&gt;WorkAssignmentListComponent </title>
<path fill="none" stroke="#000000" stroke-dasharray="5,2" d="M563.2014,-180C492.4282,-180 401.3832,-180 401.3832,-180 401.3832,-180 401.3832,-205.7181 401.3832,-205.7181"/>
<polygon fill="#000000" stroke="#000000" points="397.8833,-205.718 401.3832,-215.7181 404.8833,-205.7181 397.8833,-205.718"/>
</g>
<!-- PageHeaderModule -->
<g id="node7" class="node">
<title>PageHeaderModule</title>
<polygon fill="#8dd3c7" stroke="#000000" points="315.6727,-122 312.6727,-126 291.6727,-126 288.6727,-122 188.3273,-122 188.3273,-86 315.6727,-86 315.6727,-122"/>
<text text-anchor="middle" x="252" y="-99.8" font-family="Times,serif" font-size="14.00" fill="#000000">PageHeaderModule</text>
</g>
<!-- PageHeaderModule&#45;&gt;WorkAssignmentsModule -->
<g id="edge6" class="edge">
<title>PageHeaderModule&#45;&gt;WorkAssignmentsModule</title>
<path fill="none" stroke="#000000" d="M252,-122.2667C252,-140.5552 252,-166 252,-166 252,-166 553.0927,-166 553.0927,-166"/>
<polygon fill="#000000" stroke="#000000" points="553.0927,-169.5001 563.0927,-166 553.0927,-162.5001 553.0927,-169.5001"/>
</g>
<!-- SharingModuleModule -->
<g id="node8" class="node">
<title>SharingModuleModule</title>
<polygon fill="#8dd3c7" stroke="#000000" points="170.1484,-122 167.1484,-126 146.1484,-126 143.1484,-122 23.8516,-122 23.8516,-86 170.1484,-86 170.1484,-122"/>
<text text-anchor="middle" x="97" y="-99.8" font-family="Times,serif" font-size="14.00" fill="#000000">SharingModuleModule</text>
</g>
<!-- SharingModuleModule&#45;&gt;WorkAssignmentsModule -->
<g id="edge7" class="edge">
<title>SharingModuleModule&#45;&gt;WorkAssignmentsModule</title>
<path fill="none" stroke="#000000" d="M97,-122.1289C97,-142.5724 97,-173 97,-173 97,-173 552.9589,-173 552.9589,-173"/>
<polygon fill="#000000" stroke="#000000" points="552.9589,-176.5001 562.9589,-173 552.9588,-169.5001 552.9589,-176.5001"/>
</g>
</g>
</svg>
