<?xml version="1.0" encoding="UTF-8" standalone="no"?>
<!DOCTYPE svg PUBLIC "-//W3C//DTD SVG 1.1//EN"
 "http://www.w3.org/Graphics/SVG/1.1/DTD/svg11.dtd">
<!-- Generated by graphviz version 2.40.1 (20161225.0304)
 -->
<!-- Title: dependencies Pages: 1 -->
<svg width="1923pt" height="211pt"
 viewBox="0.00 0.00 1923.00 211.00" xmlns="http://www.w3.org/2000/svg" xmlns:xlink="http://www.w3.org/1999/xlink">
<g id="graph0" class="graph" transform="scale(1 1) rotate(0) translate(4 207)">
<title>dependencies</title>
<polygon fill="#ffffff" stroke="transparent" points="-4,4 -4,-207 1919,-207 1919,4 -4,4"/>
<text text-anchor="start" x="936.5091" y="-42.4" font-family="sans-serif" font-weight="bold" font-size="14.00" fill="#000000">Legend</text>
<polygon fill="#ffffb3" stroke="transparent" points="723.5,-10 723.5,-30 743.5,-30 743.5,-10 723.5,-10"/>
<text text-anchor="start" x="747.129" y="-15.4" font-family="sans-serif" font-size="14.00" fill="#000000"> &#160;Declarations</text>
<polygon fill="#8dd3c7" stroke="transparent" points="836.5,-10 836.5,-30 856.5,-30 856.5,-10 836.5,-10"/>
<text text-anchor="start" x="860.2251" y="-15.4" font-family="sans-serif" font-size="14.00" fill="#000000"> &#160;Module</text>
<polygon fill="#80b1d3" stroke="transparent" points="922.5,-10 922.5,-30 942.5,-30 942.5,-10 922.5,-10"/>
<text text-anchor="start" x="946.2812" y="-15.4" font-family="sans-serif" font-size="14.00" fill="#000000"> &#160;Bootstrap</text>
<polygon fill="#fdb462" stroke="transparent" points="1019.5,-10 1019.5,-30 1039.5,-30 1039.5,-10 1019.5,-10"/>
<text text-anchor="start" x="1043.1732" y="-15.4" font-family="sans-serif" font-size="14.00" fill="#000000"> &#160;Providers</text>
<polygon fill="#fb8072" stroke="transparent" points="1115.5,-10 1115.5,-30 1135.5,-30 1135.5,-10 1115.5,-10"/>
<text text-anchor="start" x="1139.2258" y="-15.4" font-family="sans-serif" font-size="14.00" fill="#000000"> &#160;Exports</text>
<g id="clust1" class="cluster">
<title>cluster_DepartmentsModule</title>
<polygon fill="none" stroke="#000000" stroke-dasharray="1,5" points="8,-70 8,-195 1907,-195 1907,-70 8,-70"/>
</g>
<g id="clust2" class="cluster">
<title>cluster_DepartmentsModule_declarations</title>
<polygon fill="none" stroke="#000000" points="728,-78 728,-130 1899,-130 1899,-78 728,-78"/>
</g>
<g id="clust9" class="cluster">
<title>cluster_DepartmentsModule_imports</title>
<polygon fill="none" stroke="#000000" points="218,-78 218,-130 720,-130 720,-78 218,-78"/>
</g>
<g id="clust12" class="cluster">
<title>cluster_DepartmentsModule_providers</title>
<polygon fill="none" stroke="#000000" points="16,-78 16,-130 210,-130 210,-78 16,-78"/>
</g>
<!-- DepartmentCreateComponent -->
<g id="node1" class="node">
<title>DepartmentCreateComponent</title>
<polygon fill="#ffffb3" stroke="#000000" points="1890.9468,-122 1707.0532,-122 1707.0532,-86 1890.9468,-86 1890.9468,-122"/>
<text text-anchor="middle" x="1799" y="-99.8" font-family="Times,serif" font-size="14.00" fill="#000000">DepartmentCreateComponent</text>
</g>
<!-- DepartmentsModule -->
<g id="node7" class="node">
<title>DepartmentsModule</title>
<polygon fill="#8dd3c7" stroke="#000000" points="1001.5772,-187 998.5772,-191 977.5772,-191 974.5772,-187 870.4228,-187 870.4228,-151 1001.5772,-151 1001.5772,-187"/>
<text text-anchor="middle" x="936" y="-164.8" font-family="Times,serif" font-size="14.00" fill="#000000">DepartmentsModule</text>
</g>
<!-- DepartmentCreateComponent&#45;&gt;DepartmentsModule -->
<g id="edge1" class="edge">
<title>DepartmentCreateComponent&#45;&gt;DepartmentsModule</title>
<path fill="none" stroke="#000000" d="M1799,-122.0109C1799,-144.4852 1799,-180 1799,-180 1799,-180 1011.5736,-180 1011.5736,-180"/>
<polygon fill="#000000" stroke="#000000" points="1011.5736,-176.5001 1001.5736,-180 1011.5736,-183.5001 1011.5736,-176.5001"/>
</g>
<!-- DepartmentDeleteComponent -->
<g id="node2" class="node">
<title>DepartmentDeleteComponent</title>
<polygon fill="#ffffb3" stroke="#000000" points="1688.9468,-122 1505.0532,-122 1505.0532,-86 1688.9468,-86 1688.9468,-122"/>
<text text-anchor="middle" x="1597" y="-99.8" font-family="Times,serif" font-size="14.00" fill="#000000">DepartmentDeleteComponent</text>
</g>
<!-- DepartmentDeleteComponent&#45;&gt;DepartmentsModule -->
<g id="edge2" class="edge">
<title>DepartmentDeleteComponent&#45;&gt;DepartmentsModule</title>
<path fill="none" stroke="#000000" d="M1597,-122.1289C1597,-142.5724 1597,-173 1597,-173 1597,-173 1011.7958,-173 1011.7958,-173"/>
<polygon fill="#000000" stroke="#000000" points="1011.7958,-169.5001 1001.7958,-173 1011.7957,-176.5001 1011.7958,-169.5001"/>
</g>
<!-- DepartmentEditComponent -->
<g id="node3" class="node">
<title>DepartmentEditComponent</title>
<polygon fill="#ffffb3" stroke="#000000" points="1487.2492,-122 1316.7508,-122 1316.7508,-86 1487.2492,-86 1487.2492,-122"/>
<text text-anchor="middle" x="1402" y="-99.8" font-family="Times,serif" font-size="14.00" fill="#000000">DepartmentEditComponent</text>
</g>
<!-- DepartmentEditComponent&#45;&gt;DepartmentsModule -->
<g id="edge3" class="edge">
<title>DepartmentEditComponent&#45;&gt;DepartmentsModule</title>
<path fill="none" stroke="#000000" d="M1402,-122.2667C1402,-140.5552 1402,-166 1402,-166 1402,-166 1011.7781,-166 1011.7781,-166"/>
<polygon fill="#000000" stroke="#000000" points="1011.7781,-162.5001 1001.7781,-166 1011.778,-169.5001 1011.7781,-162.5001"/>
</g>
<!-- DepartmentListComponent -->
<g id="node4" class="node">
<title>DepartmentListComponent</title>
<polygon fill="#ffffb3" stroke="#000000" points="1298.6937,-122 1129.3063,-122 1129.3063,-86 1298.6937,-86 1298.6937,-122"/>
<text text-anchor="middle" x="1214" y="-99.8" font-family="Times,serif" font-size="14.00" fill="#000000">DepartmentListComponent</text>
</g>
<!-- DepartmentListComponent&#45;&gt;DepartmentsModule -->
<g id="edge4" class="edge">
<title>DepartmentListComponent&#45;&gt;DepartmentsModule</title>
<path fill="none" stroke="#000000" d="M1214,-122.0091C1214,-138.0494 1214,-159 1214,-159 1214,-159 1011.8821,-159 1011.8821,-159"/>
<polygon fill="#000000" stroke="#000000" points="1011.8822,-155.5001 1001.8821,-159 1011.8821,-162.5001 1011.8822,-155.5001"/>
</g>
<!-- DepartmentsComponent -->
<g id="node5" class="node">
<title>DepartmentsComponent</title>
<polygon fill="#ffffb3" stroke="#000000" points="1111.3599,-122 958.6401,-122 958.6401,-86 1111.3599,-86 1111.3599,-122"/>
<text text-anchor="middle" x="1035" y="-99.8" font-family="Times,serif" font-size="14.00" fill="#000000">DepartmentsComponent</text>
</g>
<!-- DepartmentsComponent&#45;&gt;DepartmentsModule -->
<g id="edge5" class="edge">
<title>DepartmentsComponent&#45;&gt;DepartmentsModule</title>
<path fill="none" stroke="#000000" d="M980.0544,-122.1061C980.0544,-122.1061 980.0544,-140.991 980.0544,-140.991"/>
<polygon fill="#000000" stroke="#000000" points="976.5544,-140.9909 980.0544,-150.991 983.5544,-140.991 976.5544,-140.9909"/>
</g>
<!-- RemoveAdminsUsersComponent -->
<g id="node6" class="node">
<title>RemoveAdminsUsersComponent</title>
<polygon fill="#ffffb3" stroke="#000000" points="940.1923,-122 735.8077,-122 735.8077,-86 940.1923,-86 940.1923,-122"/>
<text text-anchor="middle" x="838" y="-99.8" font-family="Times,serif" font-size="14.00" fill="#000000">RemoveAdminsUsersComponent</text>
</g>
<!-- RemoveAdminsUsersComponent&#45;&gt;DepartmentsModule -->
<g id="edge6" class="edge">
<title>RemoveAdminsUsersComponent&#45;&gt;DepartmentsModule</title>
<path fill="none" stroke="#000000" d="M905.2788,-122.1061C905.2788,-122.1061 905.2788,-140.991 905.2788,-140.991"/>
<polygon fill="#000000" stroke="#000000" points="901.7788,-140.9909 905.2788,-150.991 908.7788,-140.991 901.7788,-140.9909"/>
</g>
<!-- DepartmentsRoutingModule -->
<g id="node8" class="node">
<title>DepartmentsRoutingModule</title>
<polygon fill="#8dd3c7" stroke="#000000" points="712.1951,-122 709.1951,-126 688.1951,-126 685.1951,-122 535.8049,-122 535.8049,-86 712.1951,-86 712.1951,-122"/>
<text text-anchor="middle" x="624" y="-99.8" font-family="Times,serif" font-size="14.00" fill="#000000">DepartmentsRoutingModule</text>
</g>
<!-- DepartmentsRoutingModule&#45;&gt;DepartmentsModule -->
<g id="edge7" class="edge">
<title>DepartmentsRoutingModule&#45;&gt;DepartmentsModule</title>
<path fill="none" stroke="#000000" d="M624,-122.0091C624,-138.0494 624,-159 624,-159 624,-159 860.2141,-159 860.2141,-159"/>
<polygon fill="#000000" stroke="#000000" points="860.2141,-162.5001 870.2141,-159 860.214,-155.5001 860.2141,-162.5001"/>
</g>
<!-- PageHeaderModule -->
<g id="node9" class="node">
<title>PageHeaderModule</title>
<polygon fill="#8dd3c7" stroke="#000000" points="517.6727,-122 514.6727,-126 493.6727,-126 490.6727,-122 390.3273,-122 390.3273,-86 517.6727,-86 517.6727,-122"/>
<text text-anchor="middle" x="454" y="-99.8" font-family="Times,serif" font-size="14.00" fill="#000000">PageHeaderModule</text>
</g>
<!-- PageHeaderModule&#45;&gt;DepartmentsModule -->
<g id="edge8" class="edge">
<title>PageHeaderModule&#45;&gt;DepartmentsModule</title>
<path fill="none" stroke="#000000" d="M454,-122.2667C454,-140.5552 454,-166 454,-166 454,-166 860.2423,-166 860.2423,-166"/>
<polygon fill="#000000" stroke="#000000" points="860.2424,-169.5001 870.2423,-166 860.2423,-162.5001 860.2424,-169.5001"/>
</g>
<!-- SharingModuleModule -->
<g id="node10" class="node">
<title>SharingModuleModule</title>
<polygon fill="#8dd3c7" stroke="#000000" points="372.1484,-122 369.1484,-126 348.1484,-126 345.1484,-122 225.8516,-122 225.8516,-86 372.1484,-86 372.1484,-122"/>
<text text-anchor="middle" x="299" y="-99.8" font-family="Times,serif" font-size="14.00" fill="#000000">SharingModuleModule</text>
</g>
<!-- SharingModuleModule&#45;&gt;DepartmentsModule -->
<g id="edge9" class="edge">
<title>SharingModuleModule&#45;&gt;DepartmentsModule</title>
<path fill="none" stroke="#000000" d="M299,-122.1289C299,-142.5724 299,-173 299,-173 299,-173 860.229,-173 860.229,-173"/>
<polygon fill="#000000" stroke="#000000" points="860.2291,-176.5001 870.229,-173 860.229,-169.5001 860.2291,-176.5001"/>
</g>
<!-- DepartmentsService -->
<g id="node11" class="node">
<title>DepartmentsService</title>
<ellipse fill="#fdb462" stroke="#000000" cx="113" cy="-104" rx="89.1607" ry="18"/>
<text text-anchor="middle" x="113" y="-99.8" font-family="Times,serif" font-size="14.00" fill="#000000">DepartmentsService</text>
</g>
<!-- DepartmentsService&#45;&gt;DepartmentsModule -->
<g id="edge10" class="edge">
<title>DepartmentsService&#45;&gt;DepartmentsModule</title>
<path fill="none" stroke="#000000" d="M113,-122.0109C113,-144.4852 113,-180 113,-180 113,-180 860.3875,-180 860.3875,-180"/>
<polygon fill="#000000" stroke="#000000" points="860.3876,-183.5001 870.3875,-180 860.3875,-176.5001 860.3876,-183.5001"/>
</g>
</g>
</svg>
