<?xml version="1.0" encoding="UTF-8" standalone="no"?>
<!DOCTYPE svg PUBLIC "-//W3C//DTD SVG 1.1//EN"
 "http://www.w3.org/Graphics/SVG/1.1/DTD/svg11.dtd">
<!-- Generated by graphviz version 2.40.1 (20161225.0304)
 -->
<!-- Title: dependencies Pages: 1 -->
<svg width="1604pt" height="211pt"
 viewBox="0.00 0.00 1604.00 211.00" xmlns="http://www.w3.org/2000/svg" xmlns:xlink="http://www.w3.org/1999/xlink">
<g id="graph0" class="graph" transform="scale(1 1) rotate(0) translate(4 207)">
<title>dependencies</title>
<polygon fill="#ffffff" stroke="transparent" points="-4,4 -4,-207 1600,-207 1600,4 -4,4"/>
<text text-anchor="start" x="777.0091" y="-42.4" font-family="sans-serif" font-weight="bold" font-size="14.00" fill="#000000">Legend</text>
<polygon fill="#ffffb3" stroke="transparent" points="564,-10 564,-30 584,-30 584,-10 564,-10"/>
<text text-anchor="start" x="587.629" y="-15.4" font-family="sans-serif" font-size="14.00" fill="#000000"> &#160;Declarations</text>
<polygon fill="#8dd3c7" stroke="transparent" points="677,-10 677,-30 697,-30 697,-10 677,-10"/>
<text text-anchor="start" x="700.7251" y="-15.4" font-family="sans-serif" font-size="14.00" fill="#000000"> &#160;Module</text>
<polygon fill="#80b1d3" stroke="transparent" points="763,-10 763,-30 783,-30 783,-10 763,-10"/>
<text text-anchor="start" x="786.7812" y="-15.4" font-family="sans-serif" font-size="14.00" fill="#000000"> &#160;Bootstrap</text>
<polygon fill="#fdb462" stroke="transparent" points="860,-10 860,-30 880,-30 880,-10 860,-10"/>
<text text-anchor="start" x="883.6732" y="-15.4" font-family="sans-serif" font-size="14.00" fill="#000000"> &#160;Providers</text>
<polygon fill="#fb8072" stroke="transparent" points="956,-10 956,-30 976,-30 976,-10 956,-10"/>
<text text-anchor="start" x="979.7258" y="-15.4" font-family="sans-serif" font-size="14.00" fill="#000000"> &#160;Exports</text>
<g id="clust1" class="cluster">
<title>cluster_ProjectsModule</title>
<polygon fill="none" stroke="#000000" stroke-dasharray="1,5" points="8,-70 8,-195 1588,-195 1588,-70 8,-70"/>
</g>
<g id="clust2" class="cluster">
<title>cluster_ProjectsModule_declarations</title>
<polygon fill="none" stroke="#000000" points="609,-78 609,-130 1580,-130 1580,-78 609,-78"/>
</g>
<g id="clust9" class="cluster">
<title>cluster_ProjectsModule_imports</title>
<polygon fill="none" stroke="#000000" points="16,-78 16,-130 601,-130 601,-78 16,-78"/>
</g>
<!-- BlankComponent -->
<g id="node1" class="node">
<title>BlankComponent</title>
<polygon fill="#ffffb3" stroke="#000000" points="1572.2744,-122 1457.7256,-122 1457.7256,-86 1572.2744,-86 1572.2744,-122"/>
<text text-anchor="middle" x="1515" y="-99.8" font-family="Times,serif" font-size="14.00" fill="#000000">BlankComponent</text>
</g>
<!-- ProjectsModule -->
<g id="node7" class="node">
<title>ProjectsModule</title>
<polygon fill="#8dd3c7" stroke="#000000" points="826.1486,-187 823.1486,-191 802.1486,-191 799.1486,-187 721.8514,-187 721.8514,-151 826.1486,-151 826.1486,-187"/>
<text text-anchor="middle" x="774" y="-164.8" font-family="Times,serif" font-size="14.00" fill="#000000">ProjectsModule</text>
</g>
<!-- BlankComponent&#45;&gt;ProjectsModule -->
<g id="edge1" class="edge">
<title>BlankComponent&#45;&gt;ProjectsModule</title>
<path fill="none" stroke="#000000" d="M1515,-122.0109C1515,-144.4852 1515,-180 1515,-180 1515,-180 836.4009,-180 836.4009,-180"/>
<polygon fill="#000000" stroke="#000000" points="836.4009,-176.5001 826.4009,-180 836.4009,-183.5001 836.4009,-176.5001"/>
</g>
<!-- ProjectsComponent -->
<g id="node2" class="node">
<title>ProjectsComponent</title>
<polygon fill="#ffffb3" stroke="#000000" points="1439.4313,-122 1312.5687,-122 1312.5687,-86 1439.4313,-86 1439.4313,-122"/>
<text text-anchor="middle" x="1376" y="-99.8" font-family="Times,serif" font-size="14.00" fill="#000000">ProjectsComponent</text>
</g>
<!-- ProjectsComponent&#45;&gt;ProjectsModule -->
<g id="edge2" class="edge">
<title>ProjectsComponent&#45;&gt;ProjectsModule</title>
<path fill="none" stroke="#000000" d="M1376,-122.1289C1376,-142.5724 1376,-173 1376,-173 1376,-173 836.3704,-173 836.3704,-173"/>
<polygon fill="#000000" stroke="#000000" points="836.3705,-169.5001 826.3704,-173 836.3704,-176.5001 836.3705,-169.5001"/>
</g>
<!-- ProjectsCreateComponent -->
<g id="node3" class="node">
<title>ProjectsCreateComponent</title>
<polygon fill="#ffffb3" stroke="#000000" points="1294.4622,-122 1131.5378,-122 1131.5378,-86 1294.4622,-86 1294.4622,-122"/>
<text text-anchor="middle" x="1213" y="-99.8" font-family="Times,serif" font-size="14.00" fill="#000000">ProjectsCreateComponent</text>
</g>
<!-- ProjectsCreateComponent&#45;&gt;ProjectsModule -->
<g id="edge3" class="edge">
<title>ProjectsCreateComponent&#45;&gt;ProjectsModule</title>
<path fill="none" stroke="#000000" d="M1213,-122.2667C1213,-140.5552 1213,-166 1213,-166 1213,-166 836.5176,-166 836.5176,-166"/>
<polygon fill="#000000" stroke="#000000" points="836.5176,-162.5001 826.5176,-166 836.5176,-169.5001 836.5176,-162.5001"/>
</g>
<!-- ProjectsDeleteComponent -->
<g id="node4" class="node">
<title>ProjectsDeleteComponent</title>
<polygon fill="#ffffb3" stroke="#000000" points="1113.4622,-122 950.5378,-122 950.5378,-86 1113.4622,-86 1113.4622,-122"/>
<text text-anchor="middle" x="1032" y="-99.8" font-family="Times,serif" font-size="14.00" fill="#000000">ProjectsDeleteComponent</text>
</g>
<!-- ProjectsDeleteComponent&#45;&gt;ProjectsModule -->
<g id="edge4" class="edge">
<title>ProjectsDeleteComponent&#45;&gt;ProjectsModule</title>
<path fill="none" stroke="#000000" d="M1032,-122.0091C1032,-138.0494 1032,-159 1032,-159 1032,-159 836.2101,-159 836.2101,-159"/>
<polygon fill="#000000" stroke="#000000" points="836.2102,-155.5001 826.2101,-159 836.2101,-162.5001 836.2102,-155.5001"/>
</g>
<!-- ProjectsEditComponent -->
<g id="node5" class="node">
<title>ProjectsEditComponent</title>
<polygon fill="#ffffb3" stroke="#000000" points="932.7646,-122 783.2354,-122 783.2354,-86 932.7646,-86 932.7646,-122"/>
<text text-anchor="middle" x="858" y="-99.8" font-family="Times,serif" font-size="14.00" fill="#000000">ProjectsEditComponent</text>
</g>
<!-- ProjectsEditComponent&#45;&gt;ProjectsModule -->
<g id="edge5" class="edge">
<title>ProjectsEditComponent&#45;&gt;ProjectsModule</title>
<path fill="none" stroke="#000000" d="M804.7209,-122.1061C804.7209,-122.1061 804.7209,-140.991 804.7209,-140.991"/>
<polygon fill="#000000" stroke="#000000" points="801.221,-140.9909 804.7209,-150.991 808.221,-140.991 801.221,-140.9909"/>
</g>
<!-- ProjectsListComponent -->
<g id="node6" class="node">
<title>ProjectsListComponent</title>
<polygon fill="#ffffb3" stroke="#000000" points="765.2091,-122 616.7909,-122 616.7909,-86 765.2091,-86 765.2091,-122"/>
<text text-anchor="middle" x="691" y="-99.8" font-family="Times,serif" font-size="14.00" fill="#000000">ProjectsListComponent</text>
</g>
<!-- ProjectsListComponent&#45;&gt;ProjectsModule -->
<g id="edge6" class="edge">
<title>ProjectsListComponent&#45;&gt;ProjectsModule</title>
<path fill="none" stroke="#000000" d="M743.3903,-122.1061C743.3903,-122.1061 743.3903,-140.991 743.3903,-140.991"/>
<polygon fill="#000000" stroke="#000000" points="739.8903,-140.9909 743.3903,-150.991 746.8903,-140.991 739.8903,-140.9909"/>
</g>
<!-- PageHeaderModule -->
<g id="node8" class="node">
<title>PageHeaderModule</title>
<polygon fill="#8dd3c7" stroke="#000000" points="592.6727,-122 589.6727,-126 568.6727,-126 565.6727,-122 465.3273,-122 465.3273,-86 592.6727,-86 592.6727,-122"/>
<text text-anchor="middle" x="529" y="-99.8" font-family="Times,serif" font-size="14.00" fill="#000000">PageHeaderModule</text>
</g>
<!-- PageHeaderModule&#45;&gt;ProjectsModule -->
<g id="edge7" class="edge">
<title>PageHeaderModule&#45;&gt;ProjectsModule</title>
<path fill="none" stroke="#000000" d="M529,-122.0091C529,-138.0494 529,-159 529,-159 529,-159 711.7419,-159 711.7419,-159"/>
<polygon fill="#000000" stroke="#000000" points="711.7419,-162.5001 721.7419,-159 711.7418,-155.5001 711.7419,-162.5001"/>
</g>
<!-- ProjectsRoutingModule -->
<g id="node9" class="node">
<title>ProjectsRoutingModule</title>
<polygon fill="#8dd3c7" stroke="#000000" points="447.766,-122 444.766,-126 423.766,-126 420.766,-122 298.234,-122 298.234,-86 447.766,-86 447.766,-122"/>
<text text-anchor="middle" x="373" y="-99.8" font-family="Times,serif" font-size="14.00" fill="#000000">ProjectsRoutingModule</text>
</g>
<!-- ProjectsRoutingModule&#45;&gt;ProjectsModule -->
<g id="edge8" class="edge">
<title>ProjectsRoutingModule&#45;&gt;ProjectsModule</title>
<path fill="none" stroke="#000000" d="M373,-122.2667C373,-140.5552 373,-166 373,-166 373,-166 711.5763,-166 711.5763,-166"/>
<polygon fill="#000000" stroke="#000000" points="711.5763,-169.5001 721.5763,-166 711.5762,-162.5001 711.5763,-169.5001"/>
</g>
<!-- SharingModuleModule -->
<g id="node10" class="node">
<title>SharingModuleModule</title>
<polygon fill="#8dd3c7" stroke="#000000" points="280.1484,-122 277.1484,-126 256.1484,-126 253.1484,-122 133.8516,-122 133.8516,-86 280.1484,-86 280.1484,-122"/>
<text text-anchor="middle" x="207" y="-99.8" font-family="Times,serif" font-size="14.00" fill="#000000">SharingModuleModule</text>
</g>
<!-- SharingModuleModule&#45;&gt;ProjectsModule -->
<g id="edge9" class="edge">
<title>SharingModuleModule&#45;&gt;ProjectsModule</title>
<path fill="none" stroke="#000000" d="M207,-122.1289C207,-142.5724 207,-173 207,-173 207,-173 711.6743,-173 711.6743,-173"/>
<polygon fill="#000000" stroke="#000000" points="711.6744,-176.5001 721.6743,-173 711.6743,-169.5001 711.6744,-176.5001"/>
</g>
<!-- TasksModule -->
<g id="node11" class="node">
<title>TasksModule</title>
<polygon fill="#8dd3c7" stroke="#000000" points="116.2064,-122 113.2064,-126 92.2064,-126 89.2064,-122 23.7936,-122 23.7936,-86 116.2064,-86 116.2064,-122"/>
<text text-anchor="middle" x="70" y="-99.8" font-family="Times,serif" font-size="14.00" fill="#000000">TasksModule</text>
</g>
<!-- TasksModule&#45;&gt;ProjectsModule -->
<g id="edge10" class="edge">
<title>TasksModule&#45;&gt;ProjectsModule</title>
<path fill="none" stroke="#000000" d="M70,-122.0109C70,-144.4852 70,-180 70,-180 70,-180 711.6607,-180 711.6607,-180"/>
<polygon fill="#000000" stroke="#000000" points="711.6608,-183.5001 721.6607,-180 711.6607,-176.5001 711.6608,-183.5001"/>
</g>
</g>
</svg>
