<?xml version="1.0" encoding="UTF-8" standalone="no"?>
<!DOCTYPE svg PUBLIC "-//W3C//DTD SVG 1.1//EN"
 "http://www.w3.org/Graphics/SVG/1.1/DTD/svg11.dtd">
<!-- Generated by graphviz version 2.40.1 (20161225.0304)
 -->
<!-- Title: dependencies Pages: 1 -->
<svg width="504pt" height="284pt"
 viewBox="0.00 0.00 504.00 284.00" xmlns="http://www.w3.org/2000/svg" xmlns:xlink="http://www.w3.org/1999/xlink">
<g id="graph0" class="graph" transform="scale(1 1) rotate(0) translate(4 280)">
<title>dependencies</title>
<polygon fill="#ffffff" stroke="transparent" points="-4,4 -4,-280 500,-280 500,4 -4,4"/>
<text text-anchor="start" x="227.0091" y="-42.4" font-family="sans-serif" font-weight="bold" font-size="14.00" fill="#000000">Legend</text>
<polygon fill="#ffffb3" stroke="transparent" points="14,-10 14,-30 34,-30 34,-10 14,-10"/>
<text text-anchor="start" x="37.629" y="-15.4" font-family="sans-serif" font-size="14.00" fill="#000000"> &#160;Declarations</text>
<polygon fill="#8dd3c7" stroke="transparent" points="127,-10 127,-30 147,-30 147,-10 127,-10"/>
<text text-anchor="start" x="150.7251" y="-15.4" font-family="sans-serif" font-size="14.00" fill="#000000"> &#160;Module</text>
<polygon fill="#80b1d3" stroke="transparent" points="213,-10 213,-30 233,-30 233,-10 213,-10"/>
<text text-anchor="start" x="236.7812" y="-15.4" font-family="sans-serif" font-size="14.00" fill="#000000"> &#160;Bootstrap</text>
<polygon fill="#fdb462" stroke="transparent" points="310,-10 310,-30 330,-30 330,-10 310,-10"/>
<text text-anchor="start" x="333.6732" y="-15.4" font-family="sans-serif" font-size="14.00" fill="#000000"> &#160;Providers</text>
<polygon fill="#fb8072" stroke="transparent" points="406,-10 406,-30 426,-30 426,-10 406,-10"/>
<text text-anchor="start" x="429.7258" y="-15.4" font-family="sans-serif" font-size="14.00" fill="#000000"> &#160;Exports</text>
<g id="clust1" class="cluster">
<title>cluster_SortingTableModule</title>
<polygon fill="none" stroke="#000000" stroke-dasharray="1,5" points="70,-70 70,-268 426,-268 426,-70 70,-70"/>
</g>
<g id="clust2" class="cluster">
<title>cluster_SortingTableModule_declarations</title>
<polygon fill="none" stroke="#000000" points="248,-78 248,-130 418,-130 418,-78 248,-78"/>
</g>
<g id="clust4" class="cluster">
<title>cluster_SortingTableModule_imports</title>
<polygon fill="none" stroke="#000000" points="78,-78 78,-130 240,-130 240,-78 78,-78"/>
</g>
<g id="clust5" class="cluster">
<title>cluster_SortingTableModule_exports</title>
<polygon fill="none" stroke="#000000" points="161,-208 161,-260 335,-260 335,-208 161,-208"/>
</g>
<!-- SortingTableComponent -->
<g id="node1" class="node">
<title>SortingTableComponent</title>
<polygon fill="#ffffb3" stroke="#000000" points="410.4298,-122 255.5702,-122 255.5702,-86 410.4298,-86 410.4298,-122"/>
<text text-anchor="middle" x="333" y="-99.8" font-family="Times,serif" font-size="14.00" fill="#000000">SortingTableComponent</text>
</g>
<!-- SortingTableModule -->
<g id="node2" class="node">
<title>SortingTableModule</title>
<polygon fill="#8dd3c7" stroke="#000000" points="314.1471,-187 311.1471,-191 290.1471,-191 287.1471,-187 181.8529,-187 181.8529,-151 314.1471,-151 314.1471,-187"/>
<text text-anchor="middle" x="248" y="-164.8" font-family="Times,serif" font-size="14.00" fill="#000000">SortingTableModule</text>
</g>
<!-- SortingTableComponent&#45;&gt;SortingTableModule -->
<g id="edge1" class="edge">
<title>SortingTableComponent&#45;&gt;SortingTableModule</title>
<path fill="none" stroke="#000000" d="M285.0544,-122.1061C285.0544,-122.1061 285.0544,-140.991 285.0544,-140.991"/>
<polygon fill="#000000" stroke="#000000" points="281.5544,-140.9909 285.0544,-150.991 288.5544,-140.991 281.5544,-140.9909"/>
</g>
<!-- SortingTableComponent  -->
<g id="node4" class="node">
<title>SortingTableComponent </title>
<polygon fill="#fb8072" stroke="#000000" points="326.9292,-252 169.0708,-252 169.0708,-216 326.9292,-216 326.9292,-252"/>
<text text-anchor="middle" x="248" y="-229.8" font-family="Times,serif" font-size="14.00" fill="#000000">SortingTableComponent </text>
</g>
<!-- SortingTableModule&#45;&gt;SortingTableComponent  -->
<g id="edge3" class="edge">
<title>SortingTableModule&#45;&gt;SortingTableComponent </title>
<path fill="none" stroke="#000000" stroke-dasharray="5,2" d="M248,-187.1061C248,-187.1061 248,-205.991 248,-205.991"/>
<polygon fill="#000000" stroke="#000000" points="244.5001,-205.9909 248,-215.991 251.5001,-205.991 244.5001,-205.9909"/>
</g>
<!-- SharingModuleModule -->
<g id="node3" class="node">
<title>SharingModuleModule</title>
<polygon fill="#8dd3c7" stroke="#000000" points="232.1484,-122 229.1484,-126 208.1484,-126 205.1484,-122 85.8516,-122 85.8516,-86 232.1484,-86 232.1484,-122"/>
<text text-anchor="middle" x="159" y="-99.8" font-family="Times,serif" font-size="14.00" fill="#000000">SharingModuleModule</text>
</g>
<!-- SharingModuleModule&#45;&gt;SortingTableModule -->
<g id="edge2" class="edge">
<title>SharingModuleModule&#45;&gt;SortingTableModule</title>
<path fill="none" stroke="#000000" d="M207.0004,-122.1061C207.0004,-122.1061 207.0004,-140.991 207.0004,-140.991"/>
<polygon fill="#000000" stroke="#000000" points="203.5004,-140.9909 207.0004,-150.991 210.5004,-140.991 203.5004,-140.9909"/>
</g>
</g>
</svg>
