<?xml version="1.0" encoding="UTF-8" standalone="no"?>
<!DOCTYPE svg PUBLIC "-//W3C//DTD SVG 1.1//EN"
 "http://www.w3.org/Graphics/SVG/1.1/DTD/svg11.dtd">
<!-- Generated by graphviz version 2.40.1 (20161225.0304)
 -->
<!-- Title: dependencies Pages: 1 -->
<svg width="1295pt" height="284pt"
 viewBox="0.00 0.00 1295.00 284.00" xmlns="http://www.w3.org/2000/svg" xmlns:xlink="http://www.w3.org/1999/xlink">
<g id="graph0" class="graph" transform="scale(1 1) rotate(0) translate(4 280)">
<title>dependencies</title>
<polygon fill="#ffffff" stroke="transparent" points="-4,4 -4,-280 1291,-280 1291,4 -4,4"/>
<text text-anchor="start" x="622.5091" y="-42.4" font-family="sans-serif" font-weight="bold" font-size="14.00" fill="#000000">Legend</text>
<polygon fill="#ffffb3" stroke="transparent" points="409.5,-10 409.5,-30 429.5,-30 429.5,-10 409.5,-10"/>
<text text-anchor="start" x="433.129" y="-15.4" font-family="sans-serif" font-size="14.00" fill="#000000"> &#160;Declarations</text>
<polygon fill="#8dd3c7" stroke="transparent" points="522.5,-10 522.5,-30 542.5,-30 542.5,-10 522.5,-10"/>
<text text-anchor="start" x="546.2251" y="-15.4" font-family="sans-serif" font-size="14.00" fill="#000000"> &#160;Module</text>
<polygon fill="#80b1d3" stroke="transparent" points="608.5,-10 608.5,-30 628.5,-30 628.5,-10 608.5,-10"/>
<text text-anchor="start" x="632.2812" y="-15.4" font-family="sans-serif" font-size="14.00" fill="#000000"> &#160;Bootstrap</text>
<polygon fill="#fdb462" stroke="transparent" points="705.5,-10 705.5,-30 725.5,-30 725.5,-10 705.5,-10"/>
<text text-anchor="start" x="729.1732" y="-15.4" font-family="sans-serif" font-size="14.00" fill="#000000"> &#160;Providers</text>
<polygon fill="#fb8072" stroke="transparent" points="801.5,-10 801.5,-30 821.5,-30 821.5,-10 801.5,-10"/>
<text text-anchor="start" x="825.2258" y="-15.4" font-family="sans-serif" font-size="14.00" fill="#000000"> &#160;Exports</text>
<g id="clust1" class="cluster">
<title>cluster_LayoutModule</title>
<polygon fill="none" stroke="#000000" stroke-dasharray="1,5" points="8,-70 8,-268 1279,-268 1279,-70 8,-70"/>
</g>
<g id="clust2" class="cluster">
<title>cluster_LayoutModule_declarations</title>
<polygon fill="none" stroke="#000000" points="341,-78 341,-130 1271,-130 1271,-78 341,-78"/>
</g>
<g id="clust9" class="cluster">
<title>cluster_LayoutModule_imports</title>
<polygon fill="none" stroke="#000000" points="16,-78 16,-130 333,-130 333,-78 16,-78"/>
</g>
<g id="clust10" class="cluster">
<title>cluster_LayoutModule_exports</title>
<polygon fill="none" stroke="#000000" points="567,-208 567,-260 737,-260 737,-208 567,-208"/>
</g>
<!-- FooterComponent -->
<g id="node1" class="node">
<title>FooterComponent</title>
<polygon fill="#ffffb3" stroke="#000000" points="1262.8809,-122 1145.1191,-122 1145.1191,-86 1262.8809,-86 1262.8809,-122"/>
<text text-anchor="middle" x="1204" y="-99.8" font-family="Times,serif" font-size="14.00" fill="#000000">FooterComponent</text>
</g>
<!-- LayoutModule -->
<g id="node7" class="node">
<title>LayoutModule</title>
<polygon fill="#8dd3c7" stroke="#000000" points="701.7078,-187 698.7078,-191 677.7078,-191 674.7078,-187 602.2922,-187 602.2922,-151 701.7078,-151 701.7078,-187"/>
<text text-anchor="middle" x="652" y="-164.8" font-family="Times,serif" font-size="14.00" fill="#000000">LayoutModule</text>
</g>
<!-- FooterComponent&#45;&gt;LayoutModule -->
<g id="edge1" class="edge">
<title>FooterComponent&#45;&gt;LayoutModule</title>
<path fill="none" stroke="#000000" d="M1204,-122.2921C1204,-144.2057 1204,-178 1204,-178 1204,-178 711.9599,-178 711.9599,-178"/>
<polygon fill="#000000" stroke="#000000" points="711.9599,-174.5001 701.9599,-178 711.9599,-181.5001 711.9599,-174.5001"/>
</g>
<!-- HeaderComponent -->
<g id="node2" class="node">
<title>HeaderComponent</title>
<polygon fill="#ffffb3" stroke="#000000" points="1126.7437,-122 1005.2563,-122 1005.2563,-86 1126.7437,-86 1126.7437,-122"/>
<text text-anchor="middle" x="1066" y="-99.8" font-family="Times,serif" font-size="14.00" fill="#000000">HeaderComponent</text>
</g>
<!-- HeaderComponent&#45;&gt;LayoutModule -->
<g id="edge2" class="edge">
<title>HeaderComponent&#45;&gt;LayoutModule</title>
<path fill="none" stroke="#000000" d="M1066,-122.1061C1066,-141.3391 1066,-169 1066,-169 1066,-169 711.9381,-169 711.9381,-169"/>
<polygon fill="#000000" stroke="#000000" points="711.9381,-165.5001 701.9381,-169 711.938,-172.5001 711.9381,-165.5001"/>
</g>
<!-- HeaderFilterComponent -->
<g id="node3" class="node">
<title>HeaderFilterComponent</title>
<polygon fill="#ffffb3" stroke="#000000" points="987.073,-122 834.927,-122 834.927,-86 987.073,-86 987.073,-122"/>
<text text-anchor="middle" x="911" y="-99.8" font-family="Times,serif" font-size="14.00" fill="#000000">HeaderFilterComponent</text>
</g>
<!-- HeaderFilterComponent&#45;&gt;LayoutModule -->
<g id="edge3" class="edge">
<title>HeaderFilterComponent&#45;&gt;LayoutModule</title>
<path fill="none" stroke="#000000" d="M911,-122.027C911,-138.3976 911,-160 911,-160 911,-160 711.6314,-160 711.6314,-160"/>
<polygon fill="#000000" stroke="#000000" points="711.6314,-156.5001 701.6314,-160 711.6313,-163.5001 711.6314,-156.5001"/>
</g>
<!-- HeaderModalComponent -->
<g id="node4" class="node">
<title>HeaderModalComponent</title>
<polygon fill="#ffffb3" stroke="#000000" points="817.2935,-122 658.7065,-122 658.7065,-86 817.2935,-86 817.2935,-122"/>
<text text-anchor="middle" x="738" y="-99.8" font-family="Times,serif" font-size="14.00" fill="#000000">HeaderModalComponent</text>
</g>
<!-- HeaderModalComponent&#45;&gt;LayoutModule -->
<g id="edge4" class="edge">
<title>HeaderModalComponent&#45;&gt;LayoutModule</title>
<path fill="none" stroke="#000000" d="M680.2286,-122.1061C680.2286,-122.1061 680.2286,-140.991 680.2286,-140.991"/>
<polygon fill="#000000" stroke="#000000" points="676.7287,-140.9909 680.2286,-150.991 683.7287,-140.991 676.7287,-140.9909"/>
</g>
<!-- MainLayoutComponent -->
<g id="node5" class="node">
<title>MainLayoutComponent</title>
<polygon fill="#ffffb3" stroke="#000000" points="641.0407,-122 490.9593,-122 490.9593,-86 641.0407,-86 641.0407,-122"/>
<text text-anchor="middle" x="566" y="-99.8" font-family="Times,serif" font-size="14.00" fill="#000000">MainLayoutComponent</text>
</g>
<!-- MainLayoutComponent&#45;&gt;LayoutModule -->
<g id="edge5" class="edge">
<title>MainLayoutComponent&#45;&gt;LayoutModule</title>
<path fill="none" stroke="#000000" d="M621.8331,-122.1061C621.8331,-122.1061 621.8331,-140.991 621.8331,-140.991"/>
<polygon fill="#000000" stroke="#000000" points="618.3332,-140.9909 621.8331,-150.991 625.3332,-140.991 618.3332,-140.9909"/>
</g>
<!-- SidebarComponent -->
<g id="node6" class="node">
<title>SidebarComponent</title>
<polygon fill="#ffffb3" stroke="#000000" points="473.0954,-122 348.9046,-122 348.9046,-86 473.0954,-86 473.0954,-122"/>
<text text-anchor="middle" x="411" y="-99.8" font-family="Times,serif" font-size="14.00" fill="#000000">SidebarComponent</text>
</g>
<!-- SidebarComponent&#45;&gt;LayoutModule -->
<g id="edge6" class="edge">
<title>SidebarComponent&#45;&gt;LayoutModule</title>
<path fill="none" stroke="#000000" d="M411,-122.027C411,-138.3976 411,-160 411,-160 411,-160 592.3569,-160 592.3569,-160"/>
<polygon fill="#000000" stroke="#000000" points="592.3569,-163.5001 602.3569,-160 592.3568,-156.5001 592.3569,-163.5001"/>
</g>
<!-- MainLayoutComponent  -->
<g id="node10" class="node">
<title>MainLayoutComponent </title>
<polygon fill="#fb8072" stroke="#000000" points="729.04,-252 574.96,-252 574.96,-216 729.04,-216 729.04,-252"/>
<text text-anchor="middle" x="652" y="-229.8" font-family="Times,serif" font-size="14.00" fill="#000000">MainLayoutComponent </text>
</g>
<!-- LayoutModule&#45;&gt;MainLayoutComponent  -->
<g id="edge9" class="edge">
<title>LayoutModule&#45;&gt;MainLayoutComponent </title>
<path fill="none" stroke="#000000" stroke-dasharray="5,2" d="M652,-187.1061C652,-187.1061 652,-205.991 652,-205.991"/>
<polygon fill="#000000" stroke="#000000" points="648.5001,-205.9909 652,-215.991 655.5001,-205.991 648.5001,-205.9909"/>
</g>
<!-- QuickSidebarModule -->
<g id="node8" class="node">
<title>QuickSidebarModule</title>
<polygon fill="#8dd3c7" stroke="#000000" points="325.0254,-122 322.0254,-126 301.0254,-126 298.0254,-122 188.9746,-122 188.9746,-86 325.0254,-86 325.0254,-122"/>
<text text-anchor="middle" x="257" y="-99.8" font-family="Times,serif" font-size="14.00" fill="#000000">QuickSidebarModule</text>
</g>
<!-- QuickSidebarModule&#45;&gt;LayoutModule -->
<g id="edge7" class="edge">
<title>QuickSidebarModule&#45;&gt;LayoutModule</title>
<path fill="none" stroke="#000000" d="M257,-122.1061C257,-141.3391 257,-169 257,-169 257,-169 592.3729,-169 592.3729,-169"/>
<polygon fill="#000000" stroke="#000000" points="592.373,-172.5001 602.3729,-169 592.3729,-165.5001 592.373,-172.5001"/>
</g>
<!-- SharingModuleModule -->
<g id="node9" class="node">
<title>SharingModuleModule</title>
<polygon fill="#8dd3c7" stroke="#000000" points="170.1484,-122 167.1484,-126 146.1484,-126 143.1484,-122 23.8516,-122 23.8516,-86 170.1484,-86 170.1484,-122"/>
<text text-anchor="middle" x="97" y="-99.8" font-family="Times,serif" font-size="14.00" fill="#000000">SharingModuleModule</text>
</g>
<!-- SharingModuleModule&#45;&gt;LayoutModule -->
<g id="edge8" class="edge">
<title>SharingModuleModule&#45;&gt;LayoutModule</title>
<path fill="none" stroke="#000000" d="M97,-122.2921C97,-144.2057 97,-178 97,-178 97,-178 592.259,-178 592.259,-178"/>
<polygon fill="#000000" stroke="#000000" points="592.2591,-181.5001 602.259,-178 592.259,-174.5001 592.2591,-181.5001"/>
</g>
</g>
</svg>
