<?xml version="1.0" encoding="UTF-8" standalone="no"?>
<!DOCTYPE svg PUBLIC "-//W3C//DTD SVG 1.1//EN"
 "http://www.w3.org/Graphics/SVG/1.1/DTD/svg11.dtd">
<!-- Generated by graphviz version 2.40.1 (20161225.0304)
 -->
<!-- Title: dependencies Pages: 1 -->
<svg width="504pt" height="211pt"
 viewBox="0.00 0.00 504.00 211.00" xmlns="http://www.w3.org/2000/svg" xmlns:xlink="http://www.w3.org/1999/xlink">
<g id="graph0" class="graph" transform="scale(1 1) rotate(0) translate(4 207)">
<title>dependencies</title>
<polygon fill="#ffffff" stroke="transparent" points="-4,4 -4,-207 500,-207 500,4 -4,4"/>
<text text-anchor="start" x="227.0091" y="-42.4" font-family="sans-serif" font-weight="bold" font-size="14.00" fill="#000000">Legend</text>
<polygon fill="#ffffb3" stroke="transparent" points="14,-10 14,-30 34,-30 34,-10 14,-10"/>
<text text-anchor="start" x="37.629" y="-15.4" font-family="sans-serif" font-size="14.00" fill="#000000"> &#160;Declarations</text>
<polygon fill="#8dd3c7" stroke="transparent" points="127,-10 127,-30 147,-30 147,-10 127,-10"/>
<text text-anchor="start" x="150.7251" y="-15.4" font-family="sans-serif" font-size="14.00" fill="#000000"> &#160;Module</text>
<polygon fill="#80b1d3" stroke="transparent" points="213,-10 213,-30 233,-30 233,-10 213,-10"/>
<text text-anchor="start" x="236.7812" y="-15.4" font-family="sans-serif" font-size="14.00" fill="#000000"> &#160;Bootstrap</text>
<polygon fill="#fdb462" stroke="transparent" points="310,-10 310,-30 330,-30 330,-10 310,-10"/>
<text text-anchor="start" x="333.6732" y="-15.4" font-family="sans-serif" font-size="14.00" fill="#000000"> &#160;Providers</text>
<polygon fill="#fb8072" stroke="transparent" points="406,-10 406,-30 426,-30 426,-10 406,-10"/>
<text text-anchor="start" x="429.7258" y="-15.4" font-family="sans-serif" font-size="14.00" fill="#000000"> &#160;Exports</text>
<g id="clust1" class="cluster">
<title>cluster_WebUserModule</title>
<polygon fill="none" stroke="#000000" stroke-dasharray="1,5" points="115,-70 115,-195 381,-195 381,-70 115,-70"/>
</g>
<g id="clust2" class="cluster">
<title>cluster_WebUserModule_declarations</title>
<polygon fill="none" stroke="#000000" points="241,-78 241,-130 373,-130 373,-78 241,-78"/>
</g>
<g id="clust4" class="cluster">
<title>cluster_WebUserModule_imports</title>
<polygon fill="none" stroke="#000000" points="123,-78 123,-130 233,-130 233,-78 123,-78"/>
</g>
<!-- HomeComponent -->
<g id="node1" class="node">
<title>HomeComponent</title>
<polygon fill="#ffffb3" stroke="#000000" points="364.5451,-122 249.4549,-122 249.4549,-86 364.5451,-86 364.5451,-122"/>
<text text-anchor="middle" x="307" y="-99.8" font-family="Times,serif" font-size="14.00" fill="#000000">HomeComponent</text>
</g>
<!-- WebUserModule -->
<g id="node2" class="node">
<title>WebUserModule</title>
<polygon fill="#8dd3c7" stroke="#000000" points="299.4061,-187 296.4061,-191 275.4061,-191 272.4061,-187 186.5939,-187 186.5939,-151 299.4061,-151 299.4061,-187"/>
<text text-anchor="middle" x="243" y="-164.8" font-family="Times,serif" font-size="14.00" fill="#000000">WebUserModule</text>
</g>
<!-- HomeComponent&#45;&gt;WebUserModule -->
<g id="edge1" class="edge">
<title>HomeComponent&#45;&gt;WebUserModule</title>
<path fill="none" stroke="#000000" d="M274.2153,-122.1061C274.2153,-122.1061 274.2153,-140.991 274.2153,-140.991"/>
<polygon fill="#000000" stroke="#000000" points="270.7154,-140.9909 274.2153,-150.991 277.7154,-140.991 270.7154,-140.9909"/>
</g>
<!-- HomeModule -->
<g id="node3" class="node">
<title>HomeModule</title>
<polygon fill="#8dd3c7" stroke="#000000" points="224.7619,-122 221.7619,-126 200.7619,-126 197.7619,-122 131.2381,-122 131.2381,-86 224.7619,-86 224.7619,-122"/>
<text text-anchor="middle" x="178" y="-99.8" font-family="Times,serif" font-size="14.00" fill="#000000">HomeModule</text>
</g>
<!-- HomeModule&#45;&gt;WebUserModule -->
<g id="edge2" class="edge">
<title>HomeModule&#45;&gt;WebUserModule</title>
<path fill="none" stroke="#000000" d="M205.839,-122.1061C205.839,-122.1061 205.839,-140.991 205.839,-140.991"/>
<polygon fill="#000000" stroke="#000000" points="202.3391,-140.9909 205.839,-150.991 209.3391,-140.991 202.3391,-140.9909"/>
</g>
</g>
</svg>
