<?xml version="1.0" encoding="UTF-8" standalone="no"?>
<!DOCTYPE svg PUBLIC "-//W3C//DTD SVG 1.1//EN"
 "http://www.w3.org/Graphics/SVG/1.1/DTD/svg11.dtd">
<!-- Generated by graphviz version 2.40.1 (20161225.0304)
 -->
<!-- Title: dependencies Pages: 1 -->
<svg width="592pt" height="211pt"
 viewBox="0.00 0.00 592.00 211.00" xmlns="http://www.w3.org/2000/svg" xmlns:xlink="http://www.w3.org/1999/xlink">
<g id="graph0" class="graph" transform="scale(1 1) rotate(0) translate(4 207)">
<title>dependencies</title>
<polygon fill="#ffffff" stroke="transparent" points="-4,4 -4,-207 588,-207 588,4 -4,4"/>
<text text-anchor="start" x="271.0091" y="-42.4" font-family="sans-serif" font-weight="bold" font-size="14.00" fill="#000000">Legend</text>
<polygon fill="#ffffb3" stroke="transparent" points="58,-10 58,-30 78,-30 78,-10 58,-10"/>
<text text-anchor="start" x="81.629" y="-15.4" font-family="sans-serif" font-size="14.00" fill="#000000"> &#160;Declarations</text>
<polygon fill="#8dd3c7" stroke="transparent" points="171,-10 171,-30 191,-30 191,-10 171,-10"/>
<text text-anchor="start" x="194.7251" y="-15.4" font-family="sans-serif" font-size="14.00" fill="#000000"> &#160;Module</text>
<polygon fill="#80b1d3" stroke="transparent" points="257,-10 257,-30 277,-30 277,-10 257,-10"/>
<text text-anchor="start" x="280.7812" y="-15.4" font-family="sans-serif" font-size="14.00" fill="#000000"> &#160;Bootstrap</text>
<polygon fill="#fdb462" stroke="transparent" points="354,-10 354,-30 374,-30 374,-10 354,-10"/>
<text text-anchor="start" x="377.6732" y="-15.4" font-family="sans-serif" font-size="14.00" fill="#000000"> &#160;Providers</text>
<polygon fill="#fb8072" stroke="transparent" points="450,-10 450,-30 470,-30 470,-10 450,-10"/>
<text text-anchor="start" x="473.7258" y="-15.4" font-family="sans-serif" font-size="14.00" fill="#000000"> &#160;Exports</text>
<g id="clust1" class="cluster">
<title>cluster_MapLocationsModule</title>
<polygon fill="none" stroke="#000000" stroke-dasharray="1,5" points="8,-70 8,-195 576,-195 576,-70 8,-70"/>
</g>
<g id="clust2" class="cluster">
<title>cluster_MapLocationsModule_declarations</title>
<polygon fill="none" stroke="#000000" points="390,-78 390,-130 568,-130 568,-78 390,-78"/>
</g>
<g id="clust4" class="cluster">
<title>cluster_MapLocationsModule_imports</title>
<polygon fill="none" stroke="#000000" points="16,-78 16,-130 382,-130 382,-78 16,-78"/>
</g>
<!-- MapLocationsComponent -->
<g id="node1" class="node">
<title>MapLocationsComponent</title>
<polygon fill="#ffffb3" stroke="#000000" points="560.1993,-122 397.8007,-122 397.8007,-86 560.1993,-86 560.1993,-122"/>
<text text-anchor="middle" x="479" y="-99.8" font-family="Times,serif" font-size="14.00" fill="#000000">MapLocationsComponent</text>
</g>
<!-- MapLocationsModule -->
<g id="node2" class="node">
<title>MapLocationsModule</title>
<polygon fill="#8dd3c7" stroke="#000000" points="351.4172,-187 348.4172,-191 327.4172,-191 324.4172,-187 210.5828,-187 210.5828,-151 351.4172,-151 351.4172,-187"/>
<text text-anchor="middle" x="281" y="-164.8" font-family="Times,serif" font-size="14.00" fill="#000000">MapLocationsModule</text>
</g>
<!-- MapLocationsComponent&#45;&gt;MapLocationsModule -->
<g id="edge1" class="edge">
<title>MapLocationsComponent&#45;&gt;MapLocationsModule</title>
<path fill="none" stroke="#000000" d="M479,-122.1061C479,-141.3391 479,-169 479,-169 479,-169 361.3649,-169 361.3649,-169"/>
<polygon fill="#000000" stroke="#000000" points="361.3649,-165.5001 351.3649,-169 361.3649,-172.5001 361.3649,-165.5001"/>
</g>
<!-- MapLocationsRoutingModule -->
<g id="node3" class="node">
<title>MapLocationsRoutingModule</title>
<polygon fill="#8dd3c7" stroke="#000000" points="373.535,-122 370.535,-126 349.535,-126 346.535,-122 188.465,-122 188.465,-86 373.535,-86 373.535,-122"/>
<text text-anchor="middle" x="281" y="-99.8" font-family="Times,serif" font-size="14.00" fill="#000000">MapLocationsRoutingModule</text>
</g>
<!-- MapLocationsRoutingModule&#45;&gt;MapLocationsModule -->
<g id="edge2" class="edge">
<title>MapLocationsRoutingModule&#45;&gt;MapLocationsModule</title>
<path fill="none" stroke="#000000" d="M281,-122.1061C281,-122.1061 281,-140.991 281,-140.991"/>
<polygon fill="#000000" stroke="#000000" points="277.5001,-140.9909 281,-150.991 284.5001,-140.991 277.5001,-140.9909"/>
</g>
<!-- SharingModuleModule -->
<g id="node4" class="node">
<title>SharingModuleModule</title>
<polygon fill="#8dd3c7" stroke="#000000" points="170.1484,-122 167.1484,-126 146.1484,-126 143.1484,-122 23.8516,-122 23.8516,-86 170.1484,-86 170.1484,-122"/>
<text text-anchor="middle" x="97" y="-99.8" font-family="Times,serif" font-size="14.00" fill="#000000">SharingModuleModule</text>
</g>
<!-- SharingModuleModule&#45;&gt;MapLocationsModule -->
<g id="edge3" class="edge">
<title>SharingModuleModule&#45;&gt;MapLocationsModule</title>
<path fill="none" stroke="#000000" d="M97,-122.1061C97,-141.3391 97,-169 97,-169 97,-169 200.6499,-169 200.6499,-169"/>
<polygon fill="#000000" stroke="#000000" points="200.6499,-172.5001 210.6499,-169 200.6499,-165.5001 200.6499,-172.5001"/>
</g>
</g>
</svg>
