<?xml version="1.0" encoding="utf-8"?>
<!-- Generator: Adobe Illustrator 23.0.3, SVG Export Plug-In . SVG Version: 6.00 Build 0)  -->
<svg version="1.1" id="Layer_1" xmlns="http://www.w3.org/2000/svg" xmlns:xlink="http://www.w3.org/1999/xlink" x="0px" y="0px"
	 viewBox="0 0 50 50" style="enable-background:new 0 0 50 50;" xml:space="preserve">
<style type="text/css">
	.st0{fill:#898585;}
</style>
<g>
	<path class="st0" d="M30.13,13.85h-1.5c0,1.85-0.75,3.51-1.96,4.73c-1.21,1.21-2.88,1.96-4.73,1.96c-1.85,0-3.51-0.75-4.73-1.96
		c-1.21-1.21-1.96-2.88-1.96-4.73c0-1.85,0.75-3.51,1.96-4.73c1.21-1.21,2.88-1.96,4.73-1.96c1.85,0,3.51,0.75,4.73,1.96
		c1.21,1.21,1.96,2.88,1.96,4.73H30.13h1.5c0-5.35-4.33-9.68-9.68-9.68c-5.35,0-9.68,4.33-9.68,9.68c0,5.35,4.33,9.68,9.68,9.68
		c5.35,0,9.68-4.34,9.68-9.68H30.13z"/>
	<path class="st0" d="M27.58,39.21H8.53l0-3.34c0-2.09,0.84-3.97,2.22-5.34c1.37-1.37,3.26-2.22,5.35-2.22h11.46
		c0.3,0,0.59,0.02,0.87,0.05l0.35-2.98c-0.4-0.05-0.81-0.07-1.23-0.07H16.1c-5.84,0-10.57,4.73-10.57,10.56v6.34h22.05V39.21
		L27.58,39.21z"/>
	<path class="st0" d="M44.58,34h-1.5c0,2.28-0.92,4.34-2.42,5.83c-1.5,1.5-3.55,2.42-5.83,2.42c-2.28,0-4.34-0.92-5.83-2.42
		c-1.5-1.5-2.42-3.55-2.42-5.83c0-2.28,0.92-4.34,2.42-5.83c1.5-1.5,3.55-2.42,5.83-2.42c2.28,0,4.34,0.92,5.83,2.42
		c1.5,1.5,2.42,3.55,2.42,5.83H44.58h1.5c0-6.21-5.04-11.25-11.25-11.25c-6.21,0-11.25,5.04-11.25,11.25
		c0,6.21,5.04,11.25,11.25,11.25c6.21,0,11.25-5.04,11.25-11.25H44.58z"/>
	<path class="st0" d="M29.87,30.52l1.43,1.43c0.13,0.13,0.32,0.17,0.49,0.11l0.9-0.31c0.14-0.05,0.25-0.16,0.3-0.31l0.28-0.91
		c0.05-0.17,0.01-0.35-0.12-0.48l-1.47-1.47c0,0,1.84-0.37,2.84,1.08c0.28,0.41,0.41,0.91,0.42,1.41c0.01,0.39,0.14,0.98,0.67,1.45
		c0.62,0.54,3.08,2.92,4.4,4.21c0.49,0.48,0.54,1.25,0.11,1.78c-0.48,0.59-1.37,0.66-1.93,0.14l-4.68-4.35c0,0-0.37-0.48-1.45-0.44
		C30.99,33.9,29.26,32.45,29.87,30.52z"/>
</g>
</svg>
