<?xml version="1.0" encoding="utf-8"?>
<!-- Generator: Adobe Illustrator 23.0.3, SVG Export Plug-In . SVG Version: 6.00 Build 0)  -->
<svg version="1.1" id="Layer_1" xmlns="http://www.w3.org/2000/svg" xmlns:xlink="http://www.w3.org/1999/xlink" x="0px" y="0px"
	 viewBox="0 0 50 50" style="enable-background:new 0 0 50 50;" xml:space="preserve">
<style type="text/css">
	.st0{fill:#898585;}
</style>
<g>
	<path class="st0" d="M11.5,39.73c-1.31-1.55-2.37-3.32-3.09-5.25c-0.72-1.93-1.12-4.02-1.12-6.21c0-2.45,0.5-4.78,1.39-6.89
		c1.34-3.18,3.59-5.88,6.42-7.79c2.83-1.91,6.23-3.02,9.9-3.02c2.05,0,4.01,0.35,5.84,0.99c0.86,0.3,1.79-0.15,2.09-1.01
		c0.3-0.86-0.15-1.79-1.01-2.09c-2.17-0.76-4.5-1.17-6.92-1.17c-2.89,0-5.66,0.59-8.17,1.65c-3.77,1.6-6.97,4.26-9.24,7.61
		C5.32,19.87,4,23.92,4,28.26c0,2.59,0.47,5.07,1.33,7.37c0.86,2.29,2.11,4.4,3.67,6.23c0.59,0.69,1.63,0.78,2.32,0.19
		C12,41.46,12.09,40.42,11.5,39.73L11.5,39.73z"/>
	<path class="st0" d="M39.45,18.02c1.03,1.45,1.84,3.05,2.4,4.77c0.56,1.72,0.86,3.56,0.86,5.47c0,2.26-0.42,4.41-1.19,6.39
		c-0.77,1.98-1.88,3.79-3.27,5.35c-0.6,0.68-0.54,1.72,0.14,2.32c0.68,0.6,1.72,0.54,2.32-0.14c1.64-1.85,2.96-4,3.87-6.35
		C45.5,33.49,46,30.93,46,28.26c0-2.26-0.36-4.44-1.02-6.48c-0.66-2.04-1.63-3.95-2.85-5.66c-0.53-0.74-1.55-0.91-2.29-0.39
		C39.1,16.25,38.93,17.28,39.45,18.02L39.45,18.02z"/>
	<path class="st0" d="M22.71,31.31l0.72-0.92c-0.18-0.14-0.31-0.31-0.4-0.5c-0.09-0.19-0.13-0.39-0.13-0.6
		c0-0.17,0.03-0.34,0.09-0.5c0.06-0.16,0.15-0.31,0.28-0.45L37.61,12.8l0,0l-0.23-0.21l0.12,0.28c0.04-0.02,0.08-0.04,0.11-0.07
		l-0.23-0.21l0.12,0.28l-0.12-0.28l0,0.31c0.04,0,0.08-0.01,0.12-0.03l-0.12-0.28l0,0.31v-0.31l-0.1,0.29
		c0.03,0.01,0.07,0.02,0.1,0.02v-0.31l-0.1,0.29l0.1-0.29l-0.19,0.24c0.03,0.02,0.06,0.04,0.09,0.05l0.1-0.29l-0.19,0.24l0.19-0.24
		l-0.28,0.13c0.02,0.04,0.05,0.08,0.09,0.11l0.19-0.24l-0.28,0.13l0.28-0.13h-0.31c0,0.05,0.01,0.09,0.03,0.13l0.28-0.13h-0.31h0.31
		l-0.26-0.17c-0.03,0.05-0.05,0.11-0.05,0.17h0.31l-0.26-0.17l0,0L25.45,30.06c-0.14,0.21-0.31,0.36-0.51,0.46
		c-0.2,0.1-0.43,0.16-0.65,0.16c-0.15,0-0.3-0.02-0.44-0.07c-0.14-0.05-0.28-0.12-0.41-0.22L22.71,31.31l-0.72,0.92
		c0.34,0.27,0.71,0.47,1.1,0.6c0.39,0.13,0.79,0.2,1.19,0.2c0.6,0,1.2-0.14,1.73-0.43c0.54-0.28,1.02-0.7,1.38-1.24L39.07,13.7l0,0
		c0.23-0.34,0.34-0.73,0.34-1.12c0-0.3-0.07-0.6-0.2-0.87c-0.13-0.27-0.33-0.52-0.58-0.72c-0.18-0.14-0.39-0.25-0.6-0.32
		c-0.21-0.07-0.43-0.11-0.65-0.11c-0.27,0-0.55,0.06-0.8,0.16c-0.25,0.11-0.49,0.27-0.69,0.49l0,0L21.55,26.77
		c-0.33,0.36-0.58,0.76-0.74,1.19c-0.16,0.43-0.24,0.88-0.24,1.33c0,0.55,0.12,1.1,0.36,1.6c0.24,0.5,0.6,0.97,1.07,1.33
		L22.71,31.31z"/>
	<path class="st0" d="M9.06,41.82L9.06,41.82c-0.5-0.65-0.37-1.58,0.28-2.08l2.44-1.86c0.65-0.5,1.58-0.37,2.08,0.28
		s0.37,1.58-0.28,2.08l-2.44,1.85C10.49,42.6,9.56,42.47,9.06,41.82z"/>
	<path class="st0" d="M4.82,23.9L4.82,23.9c0.19-0.8,1-1.29,1.79-1.09l2.98,0.72c0.8,0.19,1.29,1,1.09,1.79
		c-0.19,0.8-1,1.29-1.79,1.09L5.91,25.7C5.12,25.5,4.63,24.7,4.82,23.9z"/>
	<path class="st0" d="M45.26,23.9L45.26,23.9c-0.19-0.8-1-1.29-1.79-1.09l-2.98,0.72c-0.8,0.19-1.29,1-1.09,1.79
		c0.19,0.8,1,1.29,1.79,1.09l2.98-0.72C44.96,25.5,45.45,24.7,45.26,23.9z"/>
	<path class="st0" d="M25.68,7.49L25.68,7.49c-0.82,0-1.48,0.66-1.48,1.48v3.06c0,0.82,0.66,1.48,1.48,1.48
		c0.82,0,1.48-0.66,1.48-1.48V8.98C27.16,8.16,26.5,7.49,25.68,7.49z"/>
	<path class="st0" d="M40.7,42.14L40.7,42.14c0.5-0.65,0.37-1.58-0.28-2.08l-2.44-1.86c-0.65-0.5-1.58-0.37-2.08,0.28
		s-0.37,1.58,0.28,2.08l2.44,1.85C39.27,42.92,40.2,42.79,40.7,42.14z"/>
</g>
</svg>
