<?xml version="1.0" encoding="utf-8"?>
<!-- Generator: Adobe Illustrator 23.0.3, SVG Export Plug-In . SVG Version: 6.00 Build 0)  -->
<svg version="1.1" id="Layer_1" xmlns="http://www.w3.org/2000/svg" xmlns:xlink="http://www.w3.org/1999/xlink" x="0px" y="0px"
	 viewBox="0 0 50 50" style="enable-background:new 0 0 50 50;" xml:space="preserve">
<style type="text/css">
	.st0{fill:#898585;}
</style>
<g>
	<path class="st0" d="M33.06,45.56v-1.5H16.81c-1.24,0-2.25-1.01-2.25-2.25V8.19c0-1.24,1.01-2.25,2.25-2.25h16.25
		c1.24,0,2.25,1.01,2.25,2.25v33.63c0,1.24-1.01,2.25-2.25,2.25V45.56v1.5c2.9,0,5.25-2.35,5.25-5.25V8.19
		c0-2.9-2.35-5.25-5.25-5.25H16.81c-2.9,0-5.25,2.35-5.25,5.25v33.63c0,2.9,2.35,5.25,5.25,5.25h16.25V45.56z"/>
	<polyline class="st0" points="13.52,36.44 36.77,36.44 36.77,34.44 13.52,34.44 	"/>
	<polyline class="st0" points="13.69,12.56 36.94,12.56 36.94,10.56 13.69,10.56 	"/>
	<path class="st0" d="M27.98,40.44c0,1.38-1.12,2.5-2.5,2.5c-1.38,0-2.5-1.12-2.5-2.5s1.12-2.5,2.5-2.5
		C26.86,37.94,27.98,39.06,27.98,40.44z"/>
	<path class="st0" d="M22.06,8.63h6.19c0.28,0,0.5-0.22,0.5-0.5c0-0.28-0.22-0.5-0.5-0.5h-6.19c-0.28,0-0.5,0.22-0.5,0.5
		C21.56,8.4,21.79,8.63,22.06,8.63"/>
</g>
</svg>
