<?xml version="1.0" encoding="utf-8"?>
<!-- Generator: Adobe Illustrator 23.0.3, SVG Export Plug-In . SVG Version: 6.00 Build 0)  -->
<svg version="1.1" id="Layer_1" xmlns="http://www.w3.org/2000/svg" xmlns:xlink="http://www.w3.org/1999/xlink" x="0px" y="0px"
	 viewBox="0 0 50 50" style="enable-background:new 0 0 50 50;" xml:space="preserve">
<style type="text/css">
	.st0{fill:#898585;}
</style>
<g>
	<path class="st0" d="M46.13,25h-1.5c0,5.42-2.19,10.32-5.75,13.88c-3.56,3.55-8.45,5.75-13.88,5.75c-5.42,0-10.32-2.19-13.88-5.75
		C7.57,35.32,5.38,30.42,5.37,25c0-5.42,2.19-10.32,5.75-13.88C14.68,7.57,19.58,5.38,25,5.37c5.42,0,10.32,2.19,13.88,5.75
		c3.55,3.56,5.75,8.45,5.75,13.88H46.13h1.5C47.62,12.5,37.5,2.38,25,2.38C12.5,2.38,2.38,12.5,2.38,25
		C2.38,37.5,12.5,47.62,25,47.62c12.5,0,22.62-10.13,22.62-22.62H46.13z"/>
	<rect x="20.76" y="11.17" class="st0" width="8.08" height="17.67"/>
	<polygon class="st0" points="33.3,28.78 24.8,37.28 16.3,28.78 	"/>
</g>
</svg>
