<?xml version="1.0" encoding="utf-8"?>
<!-- Generator: Adobe Illustrator 23.1.0, SVG Export Plug-In . SVG Version: 6.00 Build 0)  -->
<svg version="1.1" id="Layer_1" xmlns="http://www.w3.org/2000/svg" xmlns:xlink="http://www.w3.org/1999/xlink" x="0px" y="0px"
	 viewBox="0 0 50 50" style="enable-background:new 0 0 50 50;" xml:space="preserve">
<style type="text/css">
	.st0{fill:#898585;}
</style>
<g>
	<path class="st0" d="M36.99,45.92v-1.5H13.01c-1.27,0-2.3-1.03-2.3-2.3V7.88c0-1.27,1.03-2.3,2.3-2.3h23.97
		c1.27,0,2.3,1.03,2.3,2.3v34.24c0,1.27-1.03,2.3-2.3,2.3V45.92v1.5c2.93,0,5.3-2.37,5.3-5.3V7.88c0-2.93-2.37-5.3-5.3-5.3H13.01
		c-2.93,0-5.3,2.37-5.3,5.3v34.24c0,2.93,2.37,5.3,5.3,5.3h23.97V45.92z"/>
	<path class="st0" d="M15.99,12.35h17.11c0.83,0,1.5-0.67,1.5-1.5c0-0.83-0.67-1.5-1.5-1.5H15.99c-0.83,0-1.5,0.67-1.5,1.5
		C14.49,11.68,15.16,12.35,15.99,12.35"/>
	<path class="st0" d="M15.99,17.42h17.11c0.83,0,1.5-0.67,1.5-1.5c0-0.83-0.67-1.5-1.5-1.5H15.99c-0.83,0-1.5,0.67-1.5,1.5
		C14.49,16.75,15.16,17.42,15.99,17.42"/>
	<path class="st0" d="M15.99,22.49h17.11c0.83,0,1.5-0.67,1.5-1.5c0-0.83-0.67-1.5-1.5-1.5H15.99c-0.83,0-1.5,0.67-1.5,1.5
		C14.49,21.81,15.16,22.49,15.99,22.49"/>
	<path class="st0" d="M30.13,30.66h-1c0,2.03-1.64,3.67-3.67,3.67c-2.03,0-3.67-1.64-3.67-3.67c0-1.02,0.41-1.93,1.08-2.6
		c0.67-0.67,1.58-1.07,2.6-1.08c1.02,0,1.93,0.41,2.6,1.08c0.67,0.67,1.07,1.58,1.08,2.6H30.13h1c0-3.13-2.54-5.67-5.67-5.67
		c-3.13,0-5.67,2.54-5.67,5.67c0,3.13,2.54,5.67,5.67,5.67c3.13,0,5.67-2.54,5.67-5.67H30.13z"/>
	<path class="st0" d="M27.81,34.79v6.85h0.33l-0.22-0.24l-0.1,0.24h0.33l-0.22-0.24l0.22,0.24v-0.32l-0.22,0.09l0.22,0.24v-0.32
		v0.33l0.2-0.26l-0.2-0.07v0.33l0.2-0.26l-0.31,0.39l0.37-0.33l-2.62-2.91l-0.43-0.01l-0.22,0l-2.86,2.92l0.36,0.35l-0.3-0.4
		l0.19,0.26v-0.33l-0.19,0.06l0.19,0.26v-0.33v0.32l0.22-0.24l-0.22-0.09v0.32l0.22-0.24l-0.22,0.24h0.33l-0.1-0.24l-0.22,0.24h0.33
		v-6.87c0-0.28-0.22-0.5-0.5-0.5c-0.28,0-0.5,0.22-0.5,0.5l0,6.87c0,0.19,0.08,0.37,0.21,0.49c0.13,0.12,0.29,0.19,0.47,0.19
		c0.14,0,0.28-0.04,0.4-0.13l0.03-0.02l2.74-2.8l-0.36-0.35l-0.01,0.5l0.21,0l0.01-0.5l-0.37,0.33l2.5,2.78l0.03,0.03
		c0.12,0.1,0.27,0.15,0.42,0.15c0.18,0,0.34-0.07,0.46-0.18c0.13-0.12,0.21-0.3,0.21-0.49v-6.85c0-0.28-0.22-0.5-0.5-0.5
		C28.03,34.29,27.81,34.51,27.81,34.79L27.81,34.79z"/>
	<polygon class="st0" points="25.46,28.65 26.05,29.85 27.37,30.04 26.41,30.97 26.64,32.28 25.46,31.66 24.28,32.28 24.51,30.97 
		23.55,30.04 24.87,29.85 	"/>
</g>
</svg>
