<?xml version="1.0" encoding="utf-8"?>
<!-- Generator: Adobe Illustrator 24.1.0, SVG Export Plug-In . SVG Version: 6.00 Build 0)  -->
<svg version="1.1" id="Layer_1" xmlns="http://www.w3.org/2000/svg" xmlns:xlink="http://www.w3.org/1999/xlink" x="0px" y="0px"
	 viewBox="0 0 100 100" style="enable-background:new 0 0 100 100;" xml:space="preserve">
<style type="text/css">
	.st0{fill:#707070;}
</style>
<g>
	<path class="st0" d="M30.4,46.2l20.1,27.1l1.2-1.6l19-25.5l0,0c3.3-4.4,5-9.7,5-15c0-6.5-2.5-12.9-7.3-17.8
		C65.9,11,63,9.2,60.1,7.9c-3-1.3-6.3-1.8-9.5-1.8c-3.2,0-6.4,0.6-9.4,1.8l0,0l0,0c-2.7,1.1-5.1,2.7-7.3,4.6h-0.2l-0.9,0.9
		c-4.9,4.9-7.3,11.3-7.3,17.8C25.4,36.4,27,41.7,30.4,46.2L30.4,46.2z M43.6,14L43.6,14c2.2-0.9,4.6-1.4,7-1.4c2.4,0,4.7,0.5,7,1.4
		c2.2,0.9,4.4,2.3,6.2,4.1c3.6,3.6,5.4,8.3,5.4,13.1c0,3.9-1.2,7.8-3.7,11.1L50.5,62.4L35.6,42.3l0,0c-2.5-3.3-3.7-7.2-3.7-11.1
		c0-4.8,1.8-9.5,5.5-13.1C39.2,16.2,41.2,14.9,43.6,14L43.6,14z"/>
	<path class="st0" d="M39.2,42.5c3,3,7.1,4.7,11.6,4.7c4.5,0,8.5-1.8,11.5-4.7c3-3,4.7-7,4.7-11.5c0-4.5-1.8-8.5-4.7-11.5
		c-3-3-7-4.7-11.5-4.7c-4.5,0-8.5,1.8-11.5,4.7c-3,3-4.8,7-4.8,11.5C34.5,35.5,36.3,39.5,39.2,42.5z M50.7,21.3
		c2.7,0,5.1,1.1,6.8,2.9c1.7,1.7,2.9,4.2,2.9,6.8c0,2.7-1.1,5.1-2.9,6.8c-1.7,1.7-4.2,2.9-6.8,2.9c-2.7,0-5.1-1.1-6.8-2.9
		C42.1,36.1,41,33.7,41,31c0-2.7,1.1-5.1,2.9-6.8C45.6,22.4,48,21.3,50.7,21.3z"/>
	<polygon class="st0" points="66.1,56.7 66.1,56.7 66.1,56.7 	"/>
	<path class="st0" d="M77.2,59.7l-0.7-0.2l-7-2.6l0,0c-0.3-0.1-0.6-0.1-0.9-0.1c-0.5,0-1.1,0.2-1.5,0.5c-0.5,0.3-0.8,0.8-1,1.3
		c-0.1,0.3-0.1,0.6-0.1,0.9c0,0.5,0.2,1.1,0.5,1.5c0.3,0.4,0.7,0.8,1.3,1l0,0l5.3,2l8.4,23.9l-12.1-3.4L66,64.6
		c-0.1-0.6-0.4-1.1-0.8-1.5c-0.4-0.4-1-0.7-1.7-0.7c-0.2,0-0.3,0-0.5,0.1l0,0c0,0,0,0,0,0c-0.1,0-0.1,0-0.2,0l0,0
		c-0.5,0.1-0.9,0.4-1.3,0.8c-0.4,0.4-0.7,1-0.7,1.7c0,0.2,0,0.3,0.1,0.5l0,0L64,84.8l-11.2,3.8V78.3c0-0.7-0.3-1.4-0.7-1.9
		c-0.5-0.5-1.2-0.8-2-0.8c-0.4,0-0.8,0.1-1.1,0.3c-0.5,0.2-0.9,0.6-1.1,1.1c-0.2,0.4-0.4,0.9-0.4,1.4v10.1l-11.3-3.8l3.5-18.8l0,0
		c0-0.1,0-0.3,0-0.4c0-0.6-0.2-1.2-0.6-1.7c-0.4-0.5-0.9-0.8-1.6-0.9c-0.1,0-0.3,0-0.4,0c-0.6,0-1.2,0.2-1.7,0.6
		c-0.5,0.4-0.8,0.9-0.9,1.6l0,0l-3.6,19.5l-12.3,3.8l8.6-24l5.9-2.3l0,0c0.5-0.2,1-0.6,1.3-1c0.3-0.5,0.4-1,0.5-1.5
		c0-0.3,0-0.6-0.1-0.9l0,0c-0.2-0.6-0.6-1-1-1.3c-0.5-0.3-1-0.5-1.5-0.5c-0.3,0-0.6,0-0.9,0.1l0,0L23,59.9L10.1,96.3l23.1-7.1
		l17.2,5.9l16.6-5.7l22.8,6.2L77.2,59.7z"/>
	<polygon class="st0" points="37.5,60.9 37.5,60.9 37.5,60.9 	"/>
	<polygon class="st0" points="66,62.8 66,62.9 66,62.9 	"/>
</g>
</svg>
