<?xml version="1.0" encoding="utf-8"?>
<!-- Generator: Adobe Illustrator 23.0.3, SVG Export Plug-In . SVG Version: 6.00 Build 0)  -->
<svg version="1.1" id="Layer_1" xmlns="http://www.w3.org/2000/svg" xmlns:xlink="http://www.w3.org/1999/xlink" x="0px" y="0px"
	 viewBox="0 0 50 50" style="enable-background:new 0 0 50 50;" xml:space="preserve">
<style type="text/css">
	.st0{fill:#898585;}
</style>
<g>
	<path class="st0" d="M23.08,37.25H11.42c-0.72,0-1.36-0.29-1.83-0.76c-0.47-0.47-0.76-1.11-0.76-1.82V8c0-1.43,1.15-2.58,2.59-2.58
		H36.5c1.43,0,2.58,1.15,2.58,2.58v14.13c0,0.83,0.67,1.5,1.5,1.5c0.83,0,1.5-0.67,1.5-1.5l0-14.13c0-1.54-0.62-2.94-1.63-3.95
		c-1.01-1.01-2.41-1.63-3.95-1.63H11.42c-1.54,0-2.94,0.62-3.95,1.63C6.46,5.05,5.83,6.46,5.83,8v26.67c0,3.08,2.5,5.58,5.59,5.58
		h11.66c0.83,0,1.5-0.67,1.5-1.5C24.58,37.92,23.91,37.25,23.08,37.25L23.08,37.25z"/>
	<path class="st0" d="M47.17,33.25h-1.5c0,3.09-1.25,5.87-3.27,7.9c-2.03,2.02-4.81,3.27-7.9,3.27c-3.09,0-5.87-1.25-7.9-3.27
		c-2.02-2.03-3.27-4.81-3.27-7.9c0-3.09,1.25-5.87,3.27-7.9c2.03-2.02,4.81-3.27,7.9-3.27c3.09,0,5.87,1.25,7.9,3.27
		c2.02,2.03,3.27,4.81,3.27,7.9H47.17h1.5c0-7.83-6.34-14.17-14.17-14.17c-7.82,0-14.17,6.34-14.17,14.17
		c0,7.82,6.34,14.17,14.17,14.17c7.83,0,14.17-6.34,14.17-14.17H47.17z"/>
	<path class="st0" d="M13.08,13.67h20.75c0.83,0,1.5-0.67,1.5-1.5c0-0.83-0.67-1.5-1.5-1.5H13.08c-0.83,0-1.5,0.67-1.5,1.5
		C11.58,12.99,12.26,13.67,13.08,13.67"/>
	<path class="st0" d="M13.08,20.08h11.75c0.83,0,1.5-0.67,1.5-1.5c0-0.83-0.67-1.5-1.5-1.5H13.08c-0.83,0-1.5,0.67-1.5,1.5
		C11.58,19.41,12.26,20.08,13.08,20.08"/>
	<path class="st0" d="M41.02,28.19l-4.72-2.66c-0.52-0.29-1.17-0.11-1.46,0.41c-0.29,0.54-0.66,1.22-0.98,1.82
		c-0.49,0.94-0.61,2.03-0.32,3.04l0.24,0.86c0.17,0.62-0.19,1.26-0.81,1.43l-0.86,0.24c-1.02,0.29-1.89,0.95-2.43,1.86
		c-0.41,0.67-0.87,1.45-1.18,2.01c-0.23,0.39-0.09,0.88,0.3,1.1l5.18,2.92c0.39,0.22,0.88,0.08,1.1-0.31l1.09-1.93
		c0.54-0.95,0.67-2.08,0.38-3.14l-0.24-0.87c-0.17-0.61,0.19-1.25,0.8-1.43l0.87-0.24c1.06-0.29,1.95-0.99,2.49-1.95l0.96-1.7
		C41.72,29.13,41.54,28.48,41.02,28.19z"/>
	<path class="st0" d="M34.6,25.59l7.22,4.06c0.24,0.14,0.55,0.05,0.68-0.19c0.14-0.24,0.05-0.55-0.19-0.68l-7.22-4.06
		c-0.24-0.14-0.55-0.05-0.68,0.19C34.27,25.15,34.36,25.46,34.6,25.59"/>
	<path class="st0" d="M27.79,37.78L35,41.84c0.24,0.14,0.55,0.05,0.68-0.19s0.05-0.55-0.19-0.68l-7.22-4.06
		c-0.24-0.14-0.55-0.05-0.68,0.19S27.55,37.64,27.79,37.78"/>
</g>
</svg>
