<?xml version="1.0" encoding="utf-8"?>
<!-- Generator: Adobe Illustrator 23.0.3, SVG Export Plug-In . SVG Version: 6.00 Build 0)  -->
<svg version="1.1" id="Layer_1" xmlns="http://www.w3.org/2000/svg" xmlns:xlink="http://www.w3.org/1999/xlink" x="0px" y="0px"
	 viewBox="0 0 50 50" style="enable-background:new 0 0 50 50;" xml:space="preserve">
<style type="text/css">
	.st0{fill:#898585;}
</style>
<g>
	<path class="st0" d="M17.47,14.69h22.88c0.83,0,1.5-0.67,1.5-1.5c0-0.83-0.67-1.5-1.5-1.5H17.47c-0.83,0-1.5,0.67-1.5,1.5
		C15.97,14.02,16.64,14.69,17.47,14.69"/>
	<path class="st0" d="M17.47,22.44h22.88c0.83,0,1.5-0.67,1.5-1.5c0-0.83-0.67-1.5-1.5-1.5H17.47c-0.83,0-1.5,0.67-1.5,1.5
		C15.97,21.77,16.64,22.44,17.47,22.44"/>
	<path class="st0" d="M17.47,30.19h22.88c0.83,0,1.5-0.67,1.5-1.5c0-0.83-0.67-1.5-1.5-1.5H17.47c-0.83,0-1.5,0.67-1.5,1.5
		C15.97,29.52,16.64,30.19,17.47,30.19"/>
	<circle class="st0" cx="11.22" cy="13.19" r="1.56"/>
	<circle class="st0" cx="11.22" cy="20.94" r="1.56"/>
	<circle class="st0" cx="11.22" cy="28.69" r="1.56"/>
	<path class="st0" d="M17.47,38.31h14.88c0.83,0,1.5-0.67,1.5-1.5c0-0.83-0.67-1.5-1.5-1.5H17.47c-0.83,0-1.5,0.67-1.5,1.5
		C15.97,37.64,16.64,38.31,17.47,38.31"/>
	<circle class="st0" cx="11.22" cy="36.81" r="1.56"/>
</g>
</svg>
