<?xml version="1.0" encoding="utf-8"?>
<!-- Generator: Adobe Illustrator 23.1.0, SVG Export Plug-In . SVG Version: 6.00 Build 0)  -->
<svg version="1.1" id="Layer_1" xmlns="http://www.w3.org/2000/svg" xmlns:xlink="http://www.w3.org/1999/xlink" x="0px" y="0px"
	 viewBox="0 0 50 50" style="enable-background:new 0 0 50 50;" xml:space="preserve">
<style type="text/css">
	.st0{fill:none;stroke:#898585;stroke-width:3;stroke-miterlimit:10;}
</style>
<g>
	<circle class="st0" cx="25" cy="25" r="8.54"/>
	<path class="st0" d="M44,28.15v-6.3c0-0.58-0.47-1.06-1.06-1.06h-3.06c-0.45,0-0.85-0.28-1-0.71c-0.17-0.49-0.37-0.97-0.59-1.43
		c-0.19-0.4-0.11-0.89,0.21-1.2l2.17-2.17c0.41-0.41,0.41-1.08,0-1.5l-4.45-4.45c-0.41-0.41-1.08-0.41-1.5,0l-2.17,2.17
		c-0.32,0.32-0.8,0.4-1.2,0.21c-0.46-0.22-0.94-0.42-1.43-0.59c-0.42-0.15-0.71-0.55-0.71-1V7.06c0-0.58-0.47-1.06-1.06-1.06h-6.3
		c-0.58,0-1.06,0.47-1.06,1.06v3.06c0,0.45-0.28,0.85-0.71,1c-0.49,0.17-0.97,0.37-1.43,0.59c-0.4,0.19-0.89,0.11-1.2-0.21
		l-2.17-2.17c-0.41-0.41-1.08-0.41-1.5,0l-4.45,4.45c-0.41,0.41-0.41,1.08,0,1.5l2.17,2.17c0.32,0.32,0.4,0.8,0.21,1.2
		c-0.22,0.46-0.42,0.94-0.59,1.43c-0.15,0.42-0.55,0.71-1,0.71H7.06C6.47,20.79,6,21.27,6,21.85v6.3c0,0.58,0.47,1.06,1.06,1.06
		h3.06c0.45,0,0.85,0.28,1,0.71c0.17,0.49,0.37,0.97,0.59,1.43c0.19,0.4,0.11,0.89-0.21,1.2l-2.17,2.17c-0.41,0.41-0.41,1.08,0,1.5
		l4.45,4.45c0.41,0.41,1.08,0.41,1.5,0l2.17-2.17c0.32-0.32,0.8-0.4,1.2-0.21c0.46,0.22,0.94,0.42,1.43,0.59
		c0.42,0.15,0.71,0.55,0.71,1v3.06c0,0.58,0.47,1.06,1.06,1.06h6.3c0.58,0,1.06-0.47,1.06-1.06v-3.06c0-0.45,0.28-0.85,0.71-1
		c0.49-0.17,0.97-0.37,1.43-0.59c0.4-0.19,0.89-0.11,1.2,0.21l2.17,2.17c0.41,0.41,1.08,0.41,1.5,0l4.45-4.45
		c0.41-0.41,0.41-1.08,0-1.5l-2.17-2.17c-0.32-0.32-0.4-0.8-0.21-1.2c0.22-0.46,0.42-0.94,0.59-1.43c0.15-0.42,0.55-0.71,1-0.71
		h3.06C43.53,29.21,44,28.73,44,28.15z"/>
</g>
</svg>
