<?xml version="1.0" encoding="utf-8"?>
<!-- Generator: Adobe Illustrator 23.0.3, SVG Export Plug-In . SVG Version: 6.00 Build 0)  -->
<svg version="1.1" id="Layer_1" xmlns="http://www.w3.org/2000/svg" xmlns:xlink="http://www.w3.org/1999/xlink" x="0px" y="0px"
	 viewBox="0 0 50 50" style="enable-background:new 0 0 50 50;" xml:space="preserve">
<style type="text/css">
	.st0{fill:#898585;}
</style>
<g>
	<path class="st0" d="M31.65,44.25H9.8c-1.48,0-2.69-1.21-2.7-2.71V9.86c0-0.75,0.3-1.42,0.79-1.91c0.49-0.49,1.16-0.79,1.9-0.79
		h26.1c0.75,0,1.41,0.3,1.9,0.79C38.3,8.44,38.6,9.1,38.6,9.86v22.03h3l0-22.03c0-3.15-2.55-5.7-5.7-5.71H9.8
		c-3.15,0-5.69,2.55-5.7,5.71v31.69c0,3.15,2.55,5.7,5.7,5.71h21.85V44.25L31.65,44.25z"/>
	<path class="st0" d="M28.3,8.5h-9.62c-1.01,0-1.83-0.82-1.83-1.83V4.65c0-1.01,0.82-1.83,1.83-1.83h9.62
		c1.01,0,1.83,0.82,1.83,1.83v2.02C30.13,7.67,29.31,8.5,28.3,8.5z"/>
	<path class="st0" d="M15.53,18.2h15.12c0.83,0,1.5-0.67,1.5-1.5c0-0.83-0.67-1.5-1.5-1.5H15.53c-0.83,0-1.5,0.67-1.5,1.5
		C14.03,17.53,14.7,18.2,15.53,18.2"/>
	<path class="st0" d="M15.53,25.04h15.12c0.83,0,1.5-0.67,1.5-1.5c0-0.83-0.67-1.5-1.5-1.5H15.53c-0.83,0-1.5,0.67-1.5,1.5
		C14.03,24.37,14.7,25.04,15.53,25.04"/>
	<path class="st0" d="M31.74,39.18l1.69,2.36c0.21,0.29,0.48,0.52,0.78,0.67c0.3,0.15,0.63,0.23,0.96,0.23
		c0.26,0,0.53-0.05,0.78-0.15c0.25-0.1,0.49-0.25,0.7-0.44l3.93-3.74c0.5-0.48,0.52-1.27,0.04-1.77c-0.48-0.5-1.27-0.52-1.78-0.04
		l-3.93,3.74l0.25,0.27l-0.13-0.34l-0.12,0.08l0.25,0.27l-0.13-0.34l0.13,0.35v-0.37l-0.13,0.03l0.13,0.35v-0.37v0.37l0.16-0.33
		l-0.16-0.04v0.37l0.16-0.33l-0.17,0.33l0.3-0.22l-0.14-0.12l-0.17,0.33l0.3-0.22h0l-1.69-2.36c-0.4-0.56-1.19-0.69-1.75-0.29
		C31.47,37.83,31.34,38.62,31.74,39.18z"/>
	<path class="st0" d="M44.4,39.05h-1.5c0,1.84-0.74,3.48-1.94,4.69c-1.2,1.2-2.85,1.94-4.69,1.94c-1.84,0-3.49-0.74-4.69-1.94
		c-1.2-1.2-1.94-2.85-1.94-4.69c0-1.84,0.74-3.49,1.94-4.69c1.2-1.2,2.85-1.94,4.69-1.94c1.84,0,3.48,0.74,4.69,1.94
		c1.2,1.2,1.94,2.85,1.94,4.69H44.4h1.5c0-5.32-4.31-9.63-9.63-9.63c-5.32,0-9.63,4.31-9.63,9.63c0,5.32,4.31,9.63,9.63,9.63
		c5.32,0,9.63-4.31,9.63-9.63H44.4z"/>
</g>
</svg>
