<?xml version="1.0" encoding="utf-8"?>
<!-- Generator: Adobe Illustrator 23.0.3, SVG Export Plug-In . SVG Version: 6.00 Build 0)  -->
<svg version="1.1" id="Layer_1" xmlns="http://www.w3.org/2000/svg" xmlns:xlink="http://www.w3.org/1999/xlink" x="0px" y="0px"
	 viewBox="0 0 50 50" style="enable-background:new 0 0 50 50;" xml:space="preserve">
<style type="text/css">
	.st0{fill:#898585;}
</style>
<g>
	<path class="st0" d="M15.75,39.5H8.94c-0.4,0-0.75-0.16-1.02-0.42c-0.26-0.27-0.42-0.62-0.42-1.02V7.94c0-0.4,0.16-0.75,0.42-1.02
		C8.19,6.66,8.54,6.5,8.94,6.5h20.25c0.78,0,1.43,0.64,1.43,1.44V25h3l0-17.06c0-2.45-1.98-4.44-4.43-4.44H8.94
		C6.49,3.5,4.5,5.49,4.5,7.94v30.12c0,2.45,1.99,4.44,4.44,4.44h6.81V39.5L15.75,39.5z"/>
	<path class="st0" d="M43.06,46.38v-1.5H18.69c-0.79,0-1.44-0.64-1.44-1.44v-15.5c0-0.79,0.64-1.44,1.44-1.44h24.37
		c0.79,0,1.44,0.64,1.44,1.44v15.5c0,0.79-0.64,1.44-1.44,1.44V46.38v1.5c2.45,0,4.44-1.99,4.44-4.44v-15.5
		c0-2.45-1.99-4.44-4.44-4.44H18.69c-2.45,0-4.44,1.99-4.44,4.44v15.5c0,2.45,1.99,4.44,4.44,4.44h24.37V46.38z"/>
	<path class="st0" d="M17.85,16.83h-7.08c-0.53,0-0.96-0.43-0.96-0.96v-4.42c0-0.53,0.43-0.96,0.96-0.96h7.08
		c0.53,0,0.96,0.43,0.96,0.96v4.42C18.81,16.4,18.38,16.83,17.85,16.83z"/>
	<path class="st0" d="M27.66,12.5h-5.69c-0.36,0-0.66-0.29-0.66-0.66v-0.02c0-0.36,0.29-0.66,0.66-0.66h5.69
		c0.36,0,0.66,0.29,0.66,0.66v0.02C28.31,12.21,28.02,12.5,27.66,12.5z"/>
	<path class="st0" d="M27.66,15.79h-5.69c-0.36,0-0.66-0.29-0.66-0.66v-0.02c0-0.36,0.29-0.66,0.66-0.66h5.69
		c0.36,0,0.66,0.29,0.66,0.66v0.02C28.31,15.5,28.02,15.79,27.66,15.79z"/>
	<path class="st0" d="M29.23,38.96h-7.08c-0.53,0-0.96-0.43-0.96-0.96v-4.42c0-0.53,0.43-0.96,0.96-0.96h7.08
		c0.53,0,0.96,0.43,0.96,0.96V38C30.19,38.53,29.76,38.96,29.23,38.96z"/>
	<path class="st0" d="M39.03,34.63h-5.69c-0.36,0-0.66-0.29-0.66-0.66v-0.02c0-0.36,0.29-0.66,0.66-0.66h5.69
		c0.36,0,0.66,0.29,0.66,0.66v0.02C39.69,34.33,39.39,34.63,39.03,34.63z"/>
	<path class="st0" d="M39.03,37.92h-5.69c-0.36,0-0.66-0.29-0.66-0.66v-0.02c0-0.36,0.29-0.66,0.66-0.66h5.69
		c0.36,0,0.66,0.29,0.66,0.66v0.02C39.69,37.62,39.39,37.92,39.03,37.92z"/>
</g>
</svg>
