<?xml version="1.0" encoding="utf-8"?>
<!-- Generator: Adobe Illustrator 23.0.3, SVG Export Plug-In . SVG Version: 6.00 Build 0)  -->
<svg version="1.1" id="Layer_1" xmlns="http://www.w3.org/2000/svg" xmlns:xlink="http://www.w3.org/1999/xlink" x="0px" y="0px"
	 viewBox="0 0 50 50" style="enable-background:new 0 0 50 50;" xml:space="preserve">
<style type="text/css">
	.st0{fill:#898585;}
</style>
<g>
	<path class="st0" d="M29.07,18.73h-1c0,1.18-0.47,2.23-1.24,3c-0.77,0.77-1.83,1.24-3,1.24c-1.18,0-2.23-0.47-3-1.24
		c-0.77-0.77-1.24-1.83-1.24-3c0-1.18,0.47-2.23,1.24-3c0.77-0.77,1.83-1.24,3-1.24c1.18,0,2.23,0.47,3,1.24
		c0.77,0.77,1.24,1.83,1.24,3H29.07h1c0-3.45-2.8-6.25-6.25-6.25c-3.45,0-6.25,2.8-6.25,6.25c0,3.45,2.8,6.25,6.25,6.25
		c3.45,0,6.25-2.8,6.25-6.25H29.07z"/>
	<path class="st0" d="M34.11,39.51v-1H14.96l0-5.1c0-1.58,0.64-2.99,1.67-4.03c1.03-1.03,2.45-1.67,4.03-1.67h6.75
		c1.58,0,3,0.64,4.03,1.67c1.03,1.03,1.67,2.45,1.67,4.03v6.1H34.11v-1V39.51h1v-6.1c0-4.25-3.45-7.7-7.7-7.7h-6.75
		c-4.25,0-7.7,3.45-7.7,7.7v7.1h22.15v-1H34.11z"/>
	<path class="st0" d="M40.76,17.91h-1c0,1.89-1.53,3.42-3.42,3.42c-1.89,0-3.42-1.53-3.42-3.42c0-1.89,1.53-3.42,3.42-3.42
		c1.89,0,3.42,1.53,3.42,3.42H40.76h1c0-2.99-2.43-5.42-5.42-5.42c-2.99,0-5.42,2.43-5.42,5.42c0,2.99,2.43,5.42,5.42,5.42
		c2.99,0,5.42-2.43,5.42-5.42H40.76z"/>
	<path class="st0" d="M34.11,36.42H46v-5.23c0-4.17-3.38-7.55-7.56-7.55h-3.86c-2.34,0-4.44,1.07-5.83,2.74l1.54,1.27
		c1.02-1.23,2.56-2.02,4.29-2.02h3.86c1.54,0,2.92,0.62,3.93,1.63c1.01,1.01,1.63,2.39,1.63,3.93v3.23h-9.89V36.42L34.11,36.42z"/>
	<path class="st0" d="M16.48,17.91h-1c0,1.89-1.53,3.42-3.42,3.42c-1.89,0-3.42-1.53-3.42-3.42c0-1.89,1.53-3.42,3.42-3.42
		c1.89,0,3.42,1.53,3.42,3.42H16.48h1c0-3-2.43-5.42-5.42-5.42c-2.99,0-5.42,2.43-5.42,5.42c0,2.99,2.43,5.42,5.42,5.42
		c2.99,0,5.42-2.43,5.42-5.42H16.48z"/>
	<path class="st0" d="M13.96,34.42H4.75l0-3.23c0-1.54,0.62-2.92,1.63-3.93c1.01-1.01,2.39-1.63,3.93-1.63h3.86
		c1.68,0,3.16,0.73,4.18,1.89l1.51-1.31c-1.38-1.58-3.42-2.58-5.68-2.58h-3.86c-4.17,0-7.56,3.38-7.56,7.55v5.23h11.21V34.42
		L13.96,34.42z"/>
</g>
</svg>
