<?xml version="1.0" encoding="utf-8"?>
<!-- Generator: Adobe Illustrator 23.0.3, SVG Export Plug-In . SVG Version: 6.00 Build 0)  -->
<svg version="1.1" id="Layer_1" xmlns="http://www.w3.org/2000/svg" xmlns:xlink="http://www.w3.org/1999/xlink" x="0px" y="0px"
	 viewBox="0 0 50 50" style="enable-background:new 0 0 50 50;" xml:space="preserve">
<style type="text/css">
	.st0{fill:#898585;}
	.st1{fill:#383838;}
</style>
<g>
	<path class="st0" d="M29.06,14v-1.5h-8.13l-0.13-0.13V4.25l0.13-0.13h8.13l0.13,0.13v8.13l-0.13,0.13V14v1.5
		c1.73,0,3.12-1.4,3.12-3.12V4.25c0-1.73-1.4-3.12-3.12-3.13h-8.13c-1.73,0-3.12,1.4-3.13,3.13v8.13c0,1.73,1.4,3.12,3.13,3.12h8.13
		V14z"/>
	<path class="st0" d="M29.06,30.34v-1.5h-8.13l-0.13-0.13v-8.13l0.13-0.13h8.13l0.13,0.13v8.13l-0.13,0.13V30.34v1.5
		c1.73,0,3.12-1.4,3.12-3.12v-8.13c0-1.73-1.4-3.12-3.12-3.13h-8.13c-1.73,0-3.12,1.4-3.13,3.13v8.13c0,1.73,1.4,3.12,3.13,3.12
		h8.13V30.34z"/>
	<path class="st0" d="M29.06,46.69v-1.5h-8.13l-0.13-0.13v-8.13l0.13-0.13h8.13l0.13,0.13v8.13l-0.13,0.13V46.69v1.5
		c1.73,0,3.12-1.4,3.12-3.12v-8.13c0-1.73-1.4-3.12-3.12-3.13h-8.13c-1.73,0-3.12,1.4-3.13,3.13v8.13c0,1.73,1.4,3.12,3.13,3.12
		h8.13V46.69z"/>
	<path class="st0" d="M30.69,8.58h7.6c0.53,0,0.96,0.43,0.96,0.96v12.75c0,0.53-0.43,0.96-0.96,0.96h-7.6c-0.83,0-1.5,0.67-1.5,1.5
		c0,0.83,0.67,1.5,1.5,1.5l7.6,0c1.09,0,2.09-0.44,2.8-1.16c0.71-0.71,1.16-1.71,1.16-2.8V9.54c0-1.09-0.44-2.09-1.16-2.8
		c-0.71-0.71-1.71-1.16-2.8-1.16h-7.6c-0.83,0-1.5,0.67-1.5,1.5C29.19,7.91,29.86,8.58,30.69,8.58L30.69,8.58z"/>
	<path class="st0" d="M18.75,39.92h-7.6c-0.53,0-0.96-0.43-0.96-0.96V27.21c0-0.53,0.43-0.96,0.96-0.96h7.6c0.83,0,1.5-0.67,1.5-1.5
		c0-0.83-0.67-1.5-1.5-1.5l-7.6,0c-1.09,0-2.09,0.44-2.8,1.16c-0.71,0.71-1.16,1.71-1.16,2.8v11.75c0,2.19,1.77,3.96,3.96,3.96h7.6
		c0.83,0,1.5-0.67,1.5-1.5C20.25,40.59,19.58,39.92,18.75,39.92L18.75,39.92z"/>
</g>
<rect x="58.5" y="14.08" class="st1" width="7.08" height="8.75"/>
</svg>
