<?xml version="1.0" encoding="utf-8"?>
<!-- Generator: Adobe Illustrator 23.0.3, SVG Export Plug-In . SVG Version: 6.00 Build 0)  -->
<svg version="1.1" id="Layer_1" xmlns="http://www.w3.org/2000/svg" xmlns:xlink="http://www.w3.org/1999/xlink" x="0px" y="0px"
	 viewBox="0 0 50 50" style="enable-background:new 0 0 50 50;" xml:space="preserve">
<style type="text/css">
	.st0{fill:none;stroke:#FFFFFF;stroke-width:3;stroke-miterlimit:10;}
	.st1{fill:#FFFFFF;}
</style>
<g>
	<path class="st0" d="M29.32,14.14c0,4.52-3.66,8.18-8.18,8.18s-8.18-3.66-8.18-8.18s3.66-8.18,8.18-8.18S29.32,9.62,29.32,14.14z"
		/>
	<path class="st0" d="M26.77,41H6.22v-4.84c0-5,4.06-9.06,9.07-9.06h11.46c0.36,0,0.71,0.02,1.05,0.06"/>
	<circle class="st0" cx="34.03" cy="34.29" r="9.75"/>
	<g>
		<path class="st1" d="M29.06,30.81l1.43,1.43c0.13,0.13,0.32,0.17,0.49,0.11l0.9-0.31c0.14-0.05,0.25-0.16,0.3-0.31l0.28-0.91
			c0.05-0.17,0.01-0.35-0.12-0.48l-1.47-1.47c0,0,1.84-0.37,2.84,1.08c0.28,0.41,0.41,0.91,0.43,1.41c0.01,0.39,0.14,0.98,0.67,1.45
			c0.62,0.54,3.08,2.92,4.41,4.21c0.49,0.48,0.54,1.25,0.11,1.78c-0.48,0.6-1.37,0.66-1.93,0.14l-4.68-4.35c0,0-0.37-0.48-1.45-0.44
			C30.18,34.19,28.45,32.74,29.06,30.81z"/>
	</g>
</g>
</svg>
