<?xml version="1.0" encoding="utf-8"?>
<!-- Generator: Adobe Illustrator 23.0.3, SVG Export Plug-In . SVG Version: 6.00 Build 0)  -->
<svg version="1.1" id="Layer_1" xmlns="http://www.w3.org/2000/svg" xmlns:xlink="http://www.w3.org/1999/xlink" x="0px" y="0px"
	 viewBox="0 0 50 50" style="enable-background:new 0 0 50 50;" xml:space="preserve">
<style type="text/css">
	.st0{fill:#FFFFFF;}
</style>
<g>
	<path class="st0" d="M28.44,5.27c0,1.87-1.52,3.39-3.39,3.39s-3.39-1.52-3.39-3.39s1.52-3.39,3.39-3.39S28.44,3.4,28.44,5.27z"/>
	<path class="st0" d="M31.14,15.17H18.86v-2.01c0-2.08,1.68-3.76,3.76-3.76h4.76c2.08,0,3.76,1.68,3.76,3.76V15.17z"/>
	<path class="st0" d="M13.44,34.6c0,1.88-1.52,3.39-3.39,3.39s-3.39-1.52-3.39-3.39s1.52-3.39,3.39-3.39S13.44,32.73,13.44,34.6z"/>
	<path class="st0" d="M16.14,44.5H3.86v-2.01c0-2.08,1.68-3.76,3.76-3.76h4.75c2.08,0,3.76,1.68,3.76,3.76V44.5z"/>
	<path class="st0" d="M43.61,34.6c0,1.88-1.52,3.39-3.39,3.39c-1.87,0-3.39-1.52-3.39-3.39s1.52-3.39,3.39-3.39
		C42.09,31.21,43.61,32.73,43.61,34.6z"/>
	<path class="st0" d="M46.3,44.5H34.03v-2.01c0-2.08,1.68-3.76,3.76-3.76h4.75c2.08,0,3.76,1.68,3.76,3.76V44.5z"/>
	<polyline class="st0" points="8,24.75 41.38,24.75 41.38,21.75 8,21.75 	"/>
	<polyline class="st0" points="26.19,23 26.19,16.42 23.19,16.42 23.19,23 	"/>
	<polyline class="st0" points="41.39,28.88 41.39,22.29 38.39,22.29 38.39,28.88 	"/>
	<polyline class="st0" points="11.01,28.88 11.01,22.29 8.01,22.29 8.01,28.88 	"/>
</g>
</svg>
