<?xml version="1.0" encoding="utf-8"?>
<!-- Generator: Adobe Illustrator 23.0.3, SVG Export Plug-In . SVG Version: 6.00 Build 0)  -->
<svg version="1.1" id="Layer_1" xmlns="http://www.w3.org/2000/svg" xmlns:xlink="http://www.w3.org/1999/xlink" x="0px" y="0px"
	 viewBox="0 0 50 50" style="enable-background:new 0 0 50 50;" xml:space="preserve">
<style type="text/css">
	.st0{fill:none;stroke:#FFFFFF;stroke-width:3;stroke-miterlimit:10;}
	.st1{fill:#FFFFFF;}
</style>
<path class="st0" d="M39,47.25H14.75c-2.14,0-3.88-1.73-3.88-3.88V7.13c0-2.14,1.73-3.88,3.88-3.88H39c2.14,0,3.88,1.73,3.88,3.88
	v36.25C42.88,45.52,41.14,47.25,39,47.25z"/>
<path class="st1" d="M36.91,16.33H21.76c-0.47,0-0.84-0.38-0.84-0.84v-1.15c0-0.47,0.38-0.84,0.84-0.84h15.15
	c0.47,0,0.84,0.38,0.84,0.84v1.15C37.75,15.96,37.37,16.33,36.91,16.33z"/>
<path class="st1" d="M17.53,16.3h-1.27c-0.47,0-0.84-0.38-0.84-0.84v-1.15c0-0.47,0.38-0.84,0.84-0.84h1.27
	c0.47,0,0.84,0.38,0.84,0.84v1.15C18.38,15.92,18,16.3,17.53,16.3z"/>
<path class="st1" d="M36.91,23.21H21.76c-0.47,0-0.84-0.38-0.84-0.84v-1.15c0-0.47,0.38-0.84,0.84-0.84h15.15
	c0.47,0,0.84,0.38,0.84,0.84v1.15C37.75,22.83,37.37,23.21,36.91,23.21z"/>
<path class="st1" d="M17.53,23.18h-1.27c-0.47,0-0.84-0.38-0.84-0.84v-1.15c0-0.47,0.38-0.84,0.84-0.84h1.27
	c0.47,0,0.84,0.38,0.84,0.84v1.15C18.38,22.8,18,23.18,17.53,23.18z"/>
<path class="st1" d="M36.91,30.17H21.76c-0.47,0-0.84-0.38-0.84-0.84v-1.15c0-0.47,0.38-0.84,0.84-0.84h15.15
	c0.47,0,0.84,0.38,0.84,0.84v1.15C37.75,29.79,37.37,30.17,36.91,30.17z"/>
<path class="st1" d="M17.53,30.14h-1.27c-0.47,0-0.84-0.38-0.84-0.84v-1.15c0-0.47,0.38-0.84,0.84-0.84h1.27
	c0.47,0,0.84,0.38,0.84,0.84v1.15C18.38,29.76,18,30.14,17.53,30.14z"/>
<path class="st1" d="M36.91,36.58H21.76c-0.47,0-0.84-0.38-0.84-0.84v-1.15c0-0.47,0.38-0.84,0.84-0.84h15.15
	c0.47,0,0.84,0.38,0.84,0.84v1.15C37.75,36.21,37.37,36.58,36.91,36.58z"/>
<path class="st1" d="M17.53,36.55h-1.27c-0.47,0-0.84-0.38-0.84-0.84v-1.15c0-0.47,0.38-0.84,0.84-0.84h1.27
	c0.47,0,0.84,0.38,0.84,0.84v1.15C18.38,36.17,18,36.55,17.53,36.55z"/>
</svg>
