<?xml version="1.0" encoding="utf-8"?>
<!-- Generator: Adobe Illustrator 24.2.1, SVG Export Plug-In . SVG Version: 6.00 Build 0)  -->
<svg version="1.1" id="Layer_1" xmlns="http://www.w3.org/2000/svg" xmlns:xlink="http://www.w3.org/1999/xlink" x="0px" y="0px"
	 viewBox="0 0 150 150" style="enable-background:new 0 0 150 150;" xml:space="preserve">
<style type="text/css">
	.st0{fill:#444444;}
</style>
<g>
	<path class="st0" d="M106.6,89c-3,0-5.8-1.3-7.8-3.5c-0.7-0.8-1.6-1.8-2.7-3.1v48.7l32.9-13.1c1.3-0.5,2.2-1.8,2.2-3.3V63.2
		c-5.7,9.7-13.4,18.7-16.7,22.4C112.4,87.8,109.5,89,106.6,89z"/>
	<path class="st0" d="M106.6,82c1,0,1.9-0.4,2.6-1.2c2.2-2.5,21.9-24.8,21.9-37.4c0-13.5-11-24.5-24.5-24.5S82,29.9,82,43.4
		C82,56,101.7,78.3,104,80.8C104.6,81.6,105.6,82,106.6,82z M96,43.4c0-5.8,4.7-10.5,10.5-10.5c5.8,0,10.5,4.7,10.5,10.5
		c0,5.8-4.7,10.5-10.5,10.5C100.8,54,96,49.2,96,43.4z"/>
	<path class="st0" d="M18.9,63.3v64.3c0,1.2,0.6,2.3,1.5,2.9c0.6,0.4,1.3,0.6,2,0.6c0.4,0,0.9-0.1,1.3-0.3L54,118.8V46.9L21.1,60.1
		C19.8,60.6,18.9,61.9,18.9,63.3z"/>
	<path class="st0" d="M61,46.9v71.8L89,130V73.7c-4.5-6-9.2-13.3-11.8-20.2L61,46.9z"/>
</g>
</svg>
