<?xml version="1.0" encoding="utf-8"?>
<!-- Generator: Adobe Illustrator 23.1.0, SVG Export Plug-In . SVG Version: 6.00 Build 0)  -->
<svg version="1.1" id="Layer_1" xmlns="http://www.w3.org/2000/svg" xmlns:xlink="http://www.w3.org/1999/xlink" x="0px" y="0px"
	 viewBox="0 0 50 50" style="enable-background:new 0 0 50 50;" xml:space="preserve">
<style type="text/css">
	.st0{fill:none;stroke:#FFFFFF;stroke-width:3;stroke-miterlimit:10;}
	.st1{fill:none;stroke:#FFFFFF;stroke-width:3;stroke-linecap:round;stroke-miterlimit:10;}
	.st2{fill:none;stroke:#FFFFFF;stroke-width:2;stroke-linecap:round;stroke-miterlimit:10;}
	.st3{fill:none;stroke:#FFFFFF;stroke-linecap:round;stroke-miterlimit:10;}
	.st4{fill:#FFFFFF;}
</style>
<g>
	<path class="st0" d="M36.99,45.92H13.01c-2.1,0-3.8-1.7-3.8-3.8V7.88c0-2.1,1.7-3.8,3.8-3.8h23.97c2.1,0,3.8,1.7,3.8,3.8v34.24
		C40.79,44.22,39.09,45.92,36.99,45.92z"/>
	<line class="st1" x1="15.99" y1="10.85" x2="33.09" y2="10.85"/>
	<line class="st1" x1="15.99" y1="15.92" x2="33.09" y2="15.92"/>
	<line class="st1" x1="15.99" y1="20.99" x2="33.09" y2="20.99"/>
	<circle class="st2" cx="25.46" cy="30.66" r="4.67"/>
	<path class="st3" d="M28.31,34.79v6.85c0,0.15-0.17,0.23-0.28,0.14l-2.47-2.75c-0.06-0.05-0.15-0.05-0.21,0l-2.71,2.77
		c-0.11,0.08-0.28,0-0.28-0.14v-6.87"/>
	<polygon class="st4" points="25.46,28.65 26.05,29.85 27.37,30.04 26.41,30.97 26.64,32.28 25.46,31.66 24.28,32.28 24.51,30.97 
		23.55,30.04 24.87,29.85 	"/>
</g>
</svg>
