<?xml version="1.0" encoding="utf-8"?>
<!-- Generator: Adobe Illustrator 24.2.1, SVG Export Plug-In . SVG Version: 6.00 Build 0)  -->
<svg version="1.1" id="Layer_1" xmlns="http://www.w3.org/2000/svg" xmlns:xlink="http://www.w3.org/1999/xlink" x="0px" y="0px"
	 viewBox="0 0 150 150" style="enable-background:new 0 0 150 150;" xml:space="preserve">
<style type="text/css">
	.st0{fill:#ffffff;}
</style>
<g>
	<path class="st0" d="M75,18.6c-31.2,0-56.4,25.3-56.4,56.4c0,31.1,25.3,56.4,56.4,56.4s56.4-25.2,56.4-56.4
		C131.4,43.8,106.2,18.6,75,18.6z M120.6,78.2h-3.4c-1.5,20.8-18.1,37.4-38.9,39v3.3c0,1.8-1.5,3.3-3.3,3.3s-3.3-1.5-3.3-3.3v-3.3
		c-20.8-1.6-37.4-18.2-38.9-39h-3.4c-1.8,0-3.3-1.5-3.3-3.3c0-0.9,0.4-1.7,1-2.3c0.6-0.6,1.4-1,2.3-1h3.4
		C34.5,50.9,51,34.4,71.7,32.8v-3.5c0-1.8,1.5-3.3,3.3-3.3c0.9,0,1.7,0.4,2.3,1c0.6,0.6,1,1.4,1,2.3v3.5
		c20.7,1.6,37.3,18.1,38.9,38.8h3.4c1.8,0,3.3,1.5,3.3,3.3C123.8,76.7,122.3,78.2,120.6,78.2z"/>
	<path class="st0" d="M106.5,71.6C104.9,56.8,93.1,45,78.3,43.5c-1.1-0.1-2.2-0.2-3.3-0.2s-2.2,0.1-3.3,0.2
		C56.9,45,45.1,56.8,43.5,71.6c-0.1,1.1-0.2,2.2-0.2,3.4c0,1.1,0,2.1,0.2,3.1C45,93.1,56.8,105,71.7,106.5c1.1,0.1,2.2,0.2,3.3,0.2
		s2.2-0.1,3.3-0.2c14.9-1.5,26.8-13.4,28.2-28.3c0.1-1,0.2-2.1,0.2-3.1C106.6,73.9,106.6,72.7,106.5,71.6z M75,85.5
		c-5.8,0-10.5-4.7-10.5-10.5c0-5.8,4.7-10.5,10.5-10.5S85.5,69.2,85.5,75C85.5,80.8,80.8,85.5,75,85.5z"/>
</g>
</svg>
