<?xml version="1.0" encoding="utf-8"?>
<!-- Generator: Adobe Illustrator 23.0.3, SVG Export Plug-In . SVG Version: 6.00 Build 0)  -->
<svg version="1.1" id="Layer_1" xmlns="http://www.w3.org/2000/svg" xmlns:xlink="http://www.w3.org/1999/xlink" x="0px" y="0px"
	 viewBox="0 0 50 50" style="enable-background:new 0 0 50 50;" xml:space="preserve">
<style type="text/css">
	.st0{fill:none;stroke:#FFFFFF;stroke-width:3;stroke-miterlimit:10;}
	.st1{fill:#FFFFFF;}
	.st2{fill:none;stroke:#FFFFFF;stroke-width:3;stroke-linecap:round;stroke-miterlimit:10;}
</style>
<g>
	<path class="st0" d="M31.65,45.75H9.8c-2.31,0-4.2-1.88-4.2-4.21V9.86c0-2.32,1.88-4.21,4.2-4.21h26.1c2.31,0,4.2,1.88,4.2,4.21
		v22.03"/>
	<path class="st1" d="M28.3,8.5h-9.62c-1.01,0-1.83-0.82-1.83-1.83V4.65c0-1.01,0.82-1.83,1.83-1.83h9.62
		c1.01,0,1.83,0.82,1.83,1.83v2.02C30.13,7.67,29.31,8.5,28.3,8.5z"/>
	<line class="st2" x1="15.53" y1="16.7" x2="30.65" y2="16.7"/>
	<line class="st2" x1="15.53" y1="23.54" x2="30.65" y2="23.54"/>
	<path class="st1" d="M31.74,39.18l1.69,2.36l0,0c0.21,0.29,0.48,0.52,0.78,0.67c0.3,0.15,0.63,0.23,0.96,0.23
		c0.26,0,0.53-0.05,0.78-0.15c0.25-0.1,0.49-0.25,0.7-0.44l3.93-3.74c0.5-0.48,0.52-1.27,0.04-1.78c-0.48-0.5-1.27-0.52-1.78-0.04
		l-3.93,3.74l0.25,0.27l-0.13-0.34c-0.04,0.02-0.09,0.04-0.12,0.08l0.25,0.27l-0.13-0.34l0.13,0.35l0-0.37
		c-0.04,0-0.09,0.01-0.13,0.03l0.13,0.35l0-0.37v0.37l0.16-0.33c-0.05-0.03-0.11-0.04-0.16-0.04v0.37l0.16-0.33l-0.17,0.33l0.3-0.22
		c-0.03-0.05-0.08-0.09-0.14-0.12l-0.17,0.33l0.3-0.22l0,0l-1.69-2.36c-0.4-0.56-1.19-0.7-1.75-0.29
		C31.47,37.83,31.34,38.62,31.74,39.18L31.74,39.18z"/>
	<circle class="st0" cx="36.26" cy="39.05" r="8.13"/>
</g>
</svg>
