<?xml version="1.0" encoding="utf-8"?>
<!-- Generator: Adobe Illustrator 23.0.3, SVG Export Plug-In . SVG Version: 6.00 Build 0)  -->
<svg version="1.1" id="Layer_1" xmlns="http://www.w3.org/2000/svg" xmlns:xlink="http://www.w3.org/1999/xlink" x="0px" y="0px"
	 viewBox="0 0 50 50" style="enable-background:new 0 0 50 50;" xml:space="preserve">
<style type="text/css">
	.st0{fill:none;stroke:#FFFFFF;stroke-width:3;stroke-miterlimit:10;}
	.st1{fill:#FFFFFF;}
</style>
<path class="st0" d="M15.75,41H8.94C7.32,41,6,39.68,6,38.06V7.94C6,6.32,7.32,5,8.94,5h20.25c1.62,0,2.93,1.32,2.93,2.94V25"/>
<path class="st0" d="M43.06,46.38H18.69c-1.62,0-2.94-1.32-2.94-2.94v-15.5c0-1.62,1.32-2.94,2.94-2.94h24.38
	c1.62,0,2.94,1.32,2.94,2.94v15.5C46,45.06,44.68,46.38,43.06,46.38z"/>
<path class="st1" d="M17.85,16.83h-7.08c-0.53,0-0.96-0.43-0.96-0.96v-4.42c0-0.53,0.43-0.96,0.96-0.96h7.08
	c0.53,0,0.96,0.43,0.96,0.96v4.42C18.81,16.4,18.38,16.83,17.85,16.83z"/>
<path class="st1" d="M27.66,12.5h-5.69c-0.36,0-0.66-0.29-0.66-0.66v-0.02c0-0.36,0.29-0.66,0.66-0.66h5.69
	c0.36,0,0.66,0.29,0.66,0.66v0.02C28.31,12.21,28.02,12.5,27.66,12.5z"/>
<path class="st1" d="M27.66,15.79h-5.69c-0.36,0-0.66-0.29-0.66-0.66v-0.02c0-0.36,0.29-0.66,0.66-0.66h5.69
	c0.36,0,0.66,0.29,0.66,0.66v0.02C28.31,15.5,28.02,15.79,27.66,15.79z"/>
<path class="st1" d="M29.23,38.96h-7.08c-0.53,0-0.96-0.43-0.96-0.96v-4.42c0-0.53,0.43-0.96,0.96-0.96h7.08
	c0.53,0,0.96,0.43,0.96,0.96V38C30.19,38.53,29.76,38.96,29.23,38.96z"/>
<path class="st1" d="M39.03,34.63h-5.69c-0.36,0-0.66-0.29-0.66-0.66v-0.02c0-0.36,0.29-0.66,0.66-0.66h5.69
	c0.36,0,0.66,0.29,0.66,0.66v0.02C39.69,34.33,39.39,34.63,39.03,34.63z"/>
<path class="st1" d="M39.03,37.92h-5.69c-0.36,0-0.66-0.29-0.66-0.66v-0.02c0-0.36,0.29-0.66,0.66-0.66h5.69
	c0.36,0,0.66,0.29,0.66,0.66v0.02C39.69,37.62,39.39,37.92,39.03,37.92z"/>
</svg>
