<?xml version="1.0" encoding="utf-8"?>
<!-- Generator: Adobe Illustrator 23.0.3, SVG Export Plug-In . SVG Version: 6.00 Build 0)  -->
<svg version="1.1" id="Layer_1" xmlns="http://www.w3.org/2000/svg" xmlns:xlink="http://www.w3.org/1999/xlink" x="0px" y="0px"
	 viewBox="0 0 50 50" style="enable-background:new 0 0 50 50;" xml:space="preserve">
<style type="text/css">
	.st0{fill:none;stroke:#FFFFFF;stroke-width:2;stroke-miterlimit:10;}
</style>
<g>
	<circle class="st0" cx="23.82" cy="18.73" r="5.25"/>
	<path class="st0" d="M34.11,39.51H13.96v-6.1c0-3.7,3-6.7,6.7-6.7h6.75c3.7,0,6.7,3,6.7,6.7V39.51z"/>
	<circle class="st0" cx="36.33" cy="17.91" r="4.42"/>
	<path class="st0" d="M34.11,35.42H45v-4.23c0-3.62-2.93-6.55-6.56-6.55h-3.86c-2.03,0-3.85,0.93-5.06,2.38"/>
	<circle class="st0" cx="12.06" cy="17.91" r="4.42"/>
	<path class="st0" d="M13.96,35.42H3.75v-4.23c0-3.62,2.94-6.55,6.56-6.55h3.86c1.97,0,3.73,0.86,4.93,2.24"/>
</g>
</svg>
