<?xml version="1.0" encoding="utf-8"?>
<!-- Generator: Adobe Illustrator 23.0.3, SVG Export Plug-In . SVG Version: 6.00 Build 0)  -->
<svg version="1.1" id="Layer_1" xmlns="http://www.w3.org/2000/svg" xmlns:xlink="http://www.w3.org/1999/xlink" x="0px" y="0px"
	 viewBox="0 0 50 50" style="enable-background:new 0 0 50 50;" xml:space="preserve">
<style type="text/css">
	.st0{fill:none;stroke:#FFFFFF;stroke-width:3;stroke-linecap:round;stroke-miterlimit:10;}
</style>
<path class="st0" d="M29.06,14h-8.13c-0.9,0-1.63-0.73-1.63-1.63V4.25c0-0.9,0.73-1.63,1.63-1.63h8.13c0.9,0,1.63,0.73,1.63,1.63
	v8.13C30.69,13.27,29.96,14,29.06,14z"/>
<path class="st0" d="M29.06,30.34h-8.13c-0.9,0-1.63-0.73-1.63-1.63v-8.13c0-0.9,0.73-1.63,1.63-1.63h8.13
	c0.9,0,1.63,0.73,1.63,1.63v8.13C30.69,29.62,29.96,30.34,29.06,30.34z"/>
<path class="st0" d="M29.06,46.69h-8.13c-0.9,0-1.63-0.73-1.63-1.63v-8.13c0-0.9,0.73-1.63,1.63-1.63h8.13
	c0.9,0,1.63,0.73,1.63,1.63v8.13C30.69,45.96,29.96,46.69,29.06,46.69z"/>
<path class="st0" d="M30.69,7.08h7.6c1.36,0,2.46,1.1,2.46,2.46v12.75c0,1.36-1.1,2.46-2.46,2.46h-7.6"/>
<path class="st0" d="M18.75,41.42h-7.6c-1.36,0-2.46-1.1-2.46-2.46V27.21c0-1.36,1.1-2.46,2.46-2.46h7.6"/>
</svg>
