<?xml version="1.0" encoding="UTF-8" standalone="no"?>
<!DOCTYPE svg PUBLIC "-//W3C//DTD SVG 1.1//EN"
 "http://www.w3.org/Graphics/SVG/1.1/DTD/svg11.dtd">
<!-- Generated by graphviz version 2.40.1 (20161225.0304)
 -->
<!-- Title: dependencies Pages: 1 -->
<svg width="616pt" height="211pt"
 viewBox="0.00 0.00 616.00 211.00" xmlns="http://www.w3.org/2000/svg" xmlns:xlink="http://www.w3.org/1999/xlink">
<g id="graph0" class="graph" transform="scale(1 1) rotate(0) translate(4 207)">
<title>dependencies</title>
<polygon fill="#ffffff" stroke="transparent" points="-4,4 -4,-207 612,-207 612,4 -4,4"/>
<text text-anchor="start" x="283.0091" y="-42.4" font-family="sans-serif" font-weight="bold" font-size="14.00" fill="#000000">Legend</text>
<polygon fill="#ffffb3" stroke="transparent" points="70,-10 70,-30 90,-30 90,-10 70,-10"/>
<text text-anchor="start" x="93.629" y="-15.4" font-family="sans-serif" font-size="14.00" fill="#000000"> &#160;Declarations</text>
<polygon fill="#8dd3c7" stroke="transparent" points="183,-10 183,-30 203,-30 203,-10 183,-10"/>
<text text-anchor="start" x="206.7251" y="-15.4" font-family="sans-serif" font-size="14.00" fill="#000000"> &#160;Module</text>
<polygon fill="#80b1d3" stroke="transparent" points="269,-10 269,-30 289,-30 289,-10 269,-10"/>
<text text-anchor="start" x="292.7812" y="-15.4" font-family="sans-serif" font-size="14.00" fill="#000000"> &#160;Bootstrap</text>
<polygon fill="#fdb462" stroke="transparent" points="366,-10 366,-30 386,-30 386,-10 366,-10"/>
<text text-anchor="start" x="389.6732" y="-15.4" font-family="sans-serif" font-size="14.00" fill="#000000"> &#160;Providers</text>
<polygon fill="#fb8072" stroke="transparent" points="462,-10 462,-30 482,-30 482,-10 462,-10"/>
<text text-anchor="start" x="485.7258" y="-15.4" font-family="sans-serif" font-size="14.00" fill="#000000"> &#160;Exports</text>
<g id="clust1" class="cluster">
<title>cluster_AsynDownloadsModule</title>
<polygon fill="none" stroke="#000000" stroke-dasharray="1,5" points="8,-70 8,-195 600,-195 600,-70 8,-70"/>
</g>
<g id="clust2" class="cluster">
<title>cluster_AsynDownloadsModule_declarations</title>
<polygon fill="none" stroke="#000000" points="402,-78 402,-130 592,-130 592,-78 402,-78"/>
</g>
<g id="clust4" class="cluster">
<title>cluster_AsynDownloadsModule_imports</title>
<polygon fill="none" stroke="#000000" points="16,-78 16,-130 394,-130 394,-78 16,-78"/>
</g>
<!-- AsynDownloadsComponent -->
<g id="node1" class="node">
<title>AsynDownloadsComponent</title>
<polygon fill="#ffffb3" stroke="#000000" points="584.147,-122 409.853,-122 409.853,-86 584.147,-86 584.147,-122"/>
<text text-anchor="middle" x="497" y="-99.8" font-family="Times,serif" font-size="14.00" fill="#000000">AsynDownloadsComponent</text>
</g>
<!-- AsynDownloadsModule -->
<g id="node2" class="node">
<title>AsynDownloadsModule</title>
<polygon fill="#8dd3c7" stroke="#000000" points="363.3641,-187 360.3641,-191 339.3641,-191 336.3641,-187 210.6359,-187 210.6359,-151 363.3641,-151 363.3641,-187"/>
<text text-anchor="middle" x="287" y="-164.8" font-family="Times,serif" font-size="14.00" fill="#000000">AsynDownloadsModule</text>
</g>
<!-- AsynDownloadsComponent&#45;&gt;AsynDownloadsModule -->
<g id="edge1" class="edge">
<title>AsynDownloadsComponent&#45;&gt;AsynDownloadsModule</title>
<path fill="none" stroke="#000000" d="M497,-122.1061C497,-141.3391 497,-169 497,-169 497,-169 373.4089,-169 373.4089,-169"/>
<polygon fill="#000000" stroke="#000000" points="373.4089,-165.5001 363.4089,-169 373.4088,-172.5001 373.4089,-165.5001"/>
</g>
<!-- AsynDownloadsRoutingModule -->
<g id="node3" class="node">
<title>AsynDownloadsRoutingModule</title>
<polygon fill="#8dd3c7" stroke="#000000" points="385.9818,-122 382.9818,-126 361.9818,-126 358.9818,-122 188.0182,-122 188.0182,-86 385.9818,-86 385.9818,-122"/>
<text text-anchor="middle" x="287" y="-99.8" font-family="Times,serif" font-size="14.00" fill="#000000">AsynDownloadsRoutingModule</text>
</g>
<!-- AsynDownloadsRoutingModule&#45;&gt;AsynDownloadsModule -->
<g id="edge2" class="edge">
<title>AsynDownloadsRoutingModule&#45;&gt;AsynDownloadsModule</title>
<path fill="none" stroke="#000000" d="M287,-122.1061C287,-122.1061 287,-140.991 287,-140.991"/>
<polygon fill="#000000" stroke="#000000" points="283.5001,-140.9909 287,-150.991 290.5001,-140.991 283.5001,-140.9909"/>
</g>
<!-- SharingModuleModule -->
<g id="node4" class="node">
<title>SharingModuleModule</title>
<polygon fill="#8dd3c7" stroke="#000000" points="170.1484,-122 167.1484,-126 146.1484,-126 143.1484,-122 23.8516,-122 23.8516,-86 170.1484,-86 170.1484,-122"/>
<text text-anchor="middle" x="97" y="-99.8" font-family="Times,serif" font-size="14.00" fill="#000000">SharingModuleModule</text>
</g>
<!-- SharingModuleModule&#45;&gt;AsynDownloadsModule -->
<g id="edge3" class="edge">
<title>SharingModuleModule&#45;&gt;AsynDownloadsModule</title>
<path fill="none" stroke="#000000" d="M97,-122.1061C97,-141.3391 97,-169 97,-169 97,-169 200.541,-169 200.541,-169"/>
<polygon fill="#000000" stroke="#000000" points="200.5411,-172.5001 210.541,-169 200.541,-165.5001 200.5411,-172.5001"/>
</g>
</g>
</svg>
