<?xml version="1.0" encoding="UTF-8" standalone="no"?>
<!DOCTYPE svg PUBLIC "-//W3C//DTD SVG 1.1//EN"
 "http://www.w3.org/Graphics/SVG/1.1/DTD/svg11.dtd">
<!-- Generated by graphviz version 2.40.1 (20161225.0304)
 -->
<!-- Title: dependencies Pages: 1 -->
<svg width="1283pt" height="284pt"
 viewBox="0.00 0.00 1283.00 284.00" xmlns="http://www.w3.org/2000/svg" xmlns:xlink="http://www.w3.org/1999/xlink">
<g id="graph0" class="graph" transform="scale(1 1) rotate(0) translate(4 280)">
<title>dependencies</title>
<polygon fill="#ffffff" stroke="transparent" points="-4,4 -4,-280 1279,-280 1279,4 -4,4"/>
<text text-anchor="start" x="616.5091" y="-42.4" font-family="sans-serif" font-weight="bold" font-size="14.00" fill="#000000">Legend</text>
<polygon fill="#ffffb3" stroke="transparent" points="403.5,-10 403.5,-30 423.5,-30 423.5,-10 403.5,-10"/>
<text text-anchor="start" x="427.129" y="-15.4" font-family="sans-serif" font-size="14.00" fill="#000000"> &#160;Declarations</text>
<polygon fill="#8dd3c7" stroke="transparent" points="516.5,-10 516.5,-30 536.5,-30 536.5,-10 516.5,-10"/>
<text text-anchor="start" x="540.2251" y="-15.4" font-family="sans-serif" font-size="14.00" fill="#000000"> &#160;Module</text>
<polygon fill="#80b1d3" stroke="transparent" points="602.5,-10 602.5,-30 622.5,-30 622.5,-10 602.5,-10"/>
<text text-anchor="start" x="626.2812" y="-15.4" font-family="sans-serif" font-size="14.00" fill="#000000"> &#160;Bootstrap</text>
<polygon fill="#fdb462" stroke="transparent" points="699.5,-10 699.5,-30 719.5,-30 719.5,-10 699.5,-10"/>
<text text-anchor="start" x="723.1732" y="-15.4" font-family="sans-serif" font-size="14.00" fill="#000000"> &#160;Providers</text>
<polygon fill="#fb8072" stroke="transparent" points="795.5,-10 795.5,-30 815.5,-30 815.5,-10 795.5,-10"/>
<text text-anchor="start" x="819.2258" y="-15.4" font-family="sans-serif" font-size="14.00" fill="#000000"> &#160;Exports</text>
<g id="clust1" class="cluster">
<title>cluster_DashboardsModule</title>
<polygon fill="none" stroke="#000000" stroke-dasharray="1,5" points="8,-70 8,-268 1267,-268 1267,-70 8,-70"/>
</g>
<g id="clust2" class="cluster">
<title>cluster_DashboardsModule_declarations</title>
<polygon fill="none" stroke="#000000" points="186,-78 186,-130 1259,-130 1259,-78 186,-78"/>
</g>
<g id="clust9" class="cluster">
<title>cluster_DashboardsModule_imports</title>
<polygon fill="none" stroke="#000000" points="16,-78 16,-130 178,-130 178,-78 16,-78"/>
</g>
<g id="clust10" class="cluster">
<title>cluster_DashboardsModule_exports</title>
<polygon fill="none" stroke="#000000" points="493,-208 493,-260 659,-260 659,-208 493,-208"/>
</g>
<!-- DashboaardPiechartsComponent -->
<g id="node1" class="node">
<title>DashboaardPiechartsComponent</title>
<polygon fill="#ffffb3" stroke="#000000" points="1250.5014,-122 1051.4986,-122 1051.4986,-86 1250.5014,-86 1250.5014,-122"/>
<text text-anchor="middle" x="1151" y="-99.8" font-family="Times,serif" font-size="14.00" fill="#000000">DashboaardPiechartsComponent</text>
</g>
<!-- DashboardsModule -->
<g id="node7" class="node">
<title>DashboardsModule</title>
<polygon fill="#8dd3c7" stroke="#000000" points="638.6359,-187 635.6359,-191 614.6359,-191 611.6359,-187 513.3641,-187 513.3641,-151 638.6359,-151 638.6359,-187"/>
<text text-anchor="middle" x="576" y="-164.8" font-family="Times,serif" font-size="14.00" fill="#000000">DashboardsModule</text>
</g>
<!-- DashboaardPiechartsComponent&#45;&gt;DashboardsModule -->
<g id="edge1" class="edge">
<title>DashboaardPiechartsComponent&#45;&gt;DashboardsModule</title>
<path fill="none" stroke="#000000" d="M1151,-122.2921C1151,-144.2057 1151,-178 1151,-178 1151,-178 648.9045,-178 648.9045,-178"/>
<polygon fill="#000000" stroke="#000000" points="648.9046,-174.5001 638.9045,-178 648.9045,-181.5001 648.9046,-174.5001"/>
</g>
<!-- DashboardFeedComponent -->
<g id="node2" class="node">
<title>DashboardFeedComponent</title>
<polygon fill="#ffffb3" stroke="#000000" points="1033.6853,-122 864.3147,-122 864.3147,-86 1033.6853,-86 1033.6853,-122"/>
<text text-anchor="middle" x="949" y="-99.8" font-family="Times,serif" font-size="14.00" fill="#000000">DashboardFeedComponent</text>
</g>
<!-- DashboardFeedComponent&#45;&gt;DashboardsModule -->
<g id="edge2" class="edge">
<title>DashboardFeedComponent&#45;&gt;DashboardsModule</title>
<path fill="none" stroke="#000000" d="M949,-122.1061C949,-141.3391 949,-169 949,-169 949,-169 648.8526,-169 648.8526,-169"/>
<polygon fill="#000000" stroke="#000000" points="648.8526,-165.5001 638.8526,-169 648.8525,-172.5001 648.8526,-165.5001"/>
</g>
<!-- DashboardTablesComponent -->
<g id="node3" class="node">
<title>DashboardTablesComponent</title>
<polygon fill="#ffffb3" stroke="#000000" points="846.7906,-122 667.2094,-122 667.2094,-86 846.7906,-86 846.7906,-122"/>
<text text-anchor="middle" x="757" y="-99.8" font-family="Times,serif" font-size="14.00" fill="#000000">DashboardTablesComponent</text>
</g>
<!-- DashboardTablesComponent&#45;&gt;DashboardsModule -->
<g id="edge3" class="edge">
<title>DashboardTablesComponent&#45;&gt;DashboardsModule</title>
<path fill="none" stroke="#000000" d="M757,-122.027C757,-138.3976 757,-160 757,-160 757,-160 648.797,-160 648.797,-160"/>
<polygon fill="#000000" stroke="#000000" points="648.7971,-156.5001 638.797,-160 648.797,-163.5001 648.7971,-156.5001"/>
</g>
<!-- DashboardsComponent -->
<g id="node4" class="node">
<title>DashboardsComponent</title>
<polygon fill="#ffffb3" stroke="#000000" points="649.9186,-122 502.0814,-122 502.0814,-86 649.9186,-86 649.9186,-122"/>
<text text-anchor="middle" x="576" y="-99.8" font-family="Times,serif" font-size="14.00" fill="#000000">DashboardsComponent</text>
</g>
<!-- DashboardsComponent&#45;&gt;DashboardsModule -->
<g id="edge4" class="edge">
<title>DashboardsComponent&#45;&gt;DashboardsModule</title>
<path fill="none" stroke="#000000" d="M576,-122.1061C576,-122.1061 576,-140.991 576,-140.991"/>
<polygon fill="#000000" stroke="#000000" points="572.5001,-140.9909 576,-150.991 579.5001,-140.991 572.5001,-140.9909"/>
</g>
<!-- ToggleFullscreenDirective -->
<g id="node5" class="node">
<title>ToggleFullscreenDirective</title>
<polygon fill="#ffffb3" stroke="#000000" points="484.0534,-122 317.9466,-122 317.9466,-86 484.0534,-86 484.0534,-122"/>
<text text-anchor="middle" x="401" y="-99.8" font-family="Times,serif" font-size="14.00" fill="#000000">ToggleFullscreenDirective</text>
</g>
<!-- ToggleFullscreenDirective&#45;&gt;DashboardsModule -->
<g id="edge5" class="edge">
<title>ToggleFullscreenDirective&#45;&gt;DashboardsModule</title>
<path fill="none" stroke="#000000" d="M401,-122.027C401,-138.3976 401,-160 401,-160 401,-160 503.3153,-160 503.3153,-160"/>
<polygon fill="#000000" stroke="#000000" points="503.3153,-163.5001 513.3153,-160 503.3152,-156.5001 503.3153,-163.5001"/>
</g>
<!-- TypeCheckPipe -->
<g id="node6" class="node">
<title>TypeCheckPipe</title>
<polygon fill="#ffffb3" stroke="#000000" points="299.9216,-122 194.0784,-122 194.0784,-86 299.9216,-86 299.9216,-122"/>
<text text-anchor="middle" x="247" y="-99.8" font-family="Times,serif" font-size="14.00" fill="#000000">TypeCheckPipe</text>
</g>
<!-- TypeCheckPipe&#45;&gt;DashboardsModule -->
<g id="edge6" class="edge">
<title>TypeCheckPipe&#45;&gt;DashboardsModule</title>
<path fill="none" stroke="#000000" d="M247,-122.1061C247,-141.3391 247,-169 247,-169 247,-169 503.3432,-169 503.3432,-169"/>
<polygon fill="#000000" stroke="#000000" points="503.3433,-172.5001 513.3432,-169 503.3432,-165.5001 503.3433,-172.5001"/>
</g>
<!-- DashboardsComponent  -->
<g id="node9" class="node">
<title>DashboardsComponent </title>
<polygon fill="#fb8072" stroke="#000000" points="651.418,-252 500.582,-252 500.582,-216 651.418,-216 651.418,-252"/>
<text text-anchor="middle" x="576" y="-229.8" font-family="Times,serif" font-size="14.00" fill="#000000">DashboardsComponent </text>
</g>
<!-- DashboardsModule&#45;&gt;DashboardsComponent  -->
<g id="edge8" class="edge">
<title>DashboardsModule&#45;&gt;DashboardsComponent </title>
<path fill="none" stroke="#000000" stroke-dasharray="5,2" d="M576,-187.1061C576,-187.1061 576,-205.991 576,-205.991"/>
<polygon fill="#000000" stroke="#000000" points="572.5001,-205.9909 576,-215.991 579.5001,-205.991 572.5001,-205.9909"/>
</g>
<!-- SharingModuleModule -->
<g id="node8" class="node">
<title>SharingModuleModule</title>
<polygon fill="#8dd3c7" stroke="#000000" points="170.1484,-122 167.1484,-126 146.1484,-126 143.1484,-122 23.8516,-122 23.8516,-86 170.1484,-86 170.1484,-122"/>
<text text-anchor="middle" x="97" y="-99.8" font-family="Times,serif" font-size="14.00" fill="#000000">SharingModuleModule</text>
</g>
<!-- SharingModuleModule&#45;&gt;DashboardsModule -->
<g id="edge7" class="edge">
<title>SharingModuleModule&#45;&gt;DashboardsModule</title>
<path fill="none" stroke="#000000" d="M97,-122.2921C97,-144.2057 97,-178 97,-178 97,-178 502.8866,-178 502.8866,-178"/>
<polygon fill="#000000" stroke="#000000" points="502.8866,-181.5001 512.8866,-178 502.8865,-174.5001 502.8866,-181.5001"/>
</g>
</g>
</svg>
